G04*
G04 #@! TF.GenerationSoftware,Altium Limited,Altium Designer,24.5.2 (23)*
G04*
G04 Layer_Color=8388736*
%FSLAX25Y25*%
%MOIN*%
G70*
G04*
G04 #@! TF.SameCoordinates,4A6E010D-FDCD-41A0-A441-D27C495AF59C*
G04*
G04*
G04 #@! TF.FilePolarity,Negative*
G04*
G01*
G75*
%ADD31R,0.15354X0.89764*%
%ADD32R,0.15354X0.77165*%
%ADD33R,0.07887X0.17335*%
%ADD34R,0.03359X0.06902*%
%ADD35R,0.04343X0.02178*%
%ADD36R,0.04147X0.04540*%
%ADD37R,0.11024X0.02165*%
%ADD38R,0.12205X0.01496*%
G04:AMPARAMS|DCode=39|XSize=31.62mil|YSize=65.09mil|CornerRadius=6.01mil|HoleSize=0mil|Usage=FLASHONLY|Rotation=180.000|XOffset=0mil|YOffset=0mil|HoleType=Round|Shape=RoundedRectangle|*
%AMROUNDEDRECTD39*
21,1,0.03162,0.05307,0,0,180.0*
21,1,0.01961,0.06509,0,0,180.0*
1,1,0.01202,-0.00980,0.02653*
1,1,0.01202,0.00980,0.02653*
1,1,0.01202,0.00980,-0.02653*
1,1,0.01202,-0.00980,-0.02653*
%
%ADD39ROUNDEDRECTD39*%
%ADD40R,0.03792X0.05800*%
%ADD41R,0.04540X0.04147*%
%ADD42R,0.03950X0.03950*%
%ADD43R,0.03556X0.04343*%
%ADD44R,0.04343X0.03556*%
%ADD45C,0.03950*%
%ADD46C,0.04737*%
%ADD47C,0.06600*%
%ADD48C,0.07001*%
%ADD49C,0.08674*%
D31*
X-51142Y239728D02*
D03*
D32*
X-51142Y147602D02*
D03*
D33*
X135976Y317874D02*
D03*
Y345039D02*
D03*
X38976Y317874D02*
D03*
Y345039D02*
D03*
D34*
X384035Y354035D02*
D03*
X379035D02*
D03*
X374035D02*
D03*
X369035D02*
D03*
X364035D02*
D03*
X359035D02*
D03*
X354035D02*
D03*
X349035D02*
D03*
Y332579D02*
D03*
X354035D02*
D03*
X359035D02*
D03*
X364035D02*
D03*
X369035D02*
D03*
X374035D02*
D03*
X379035D02*
D03*
X384035D02*
D03*
Y287500D02*
D03*
X379035D02*
D03*
X374035D02*
D03*
X369035D02*
D03*
X364035D02*
D03*
X359035D02*
D03*
X354035D02*
D03*
X349035D02*
D03*
Y266043D02*
D03*
X354035D02*
D03*
X359035D02*
D03*
X364035D02*
D03*
X369035D02*
D03*
X374035D02*
D03*
X379035D02*
D03*
X384035D02*
D03*
Y74114D02*
D03*
X379035D02*
D03*
X374035D02*
D03*
X369035D02*
D03*
X364035D02*
D03*
X359035D02*
D03*
X354035D02*
D03*
X349035D02*
D03*
Y52658D02*
D03*
X354035D02*
D03*
X359035D02*
D03*
X364035D02*
D03*
X369035D02*
D03*
X374035D02*
D03*
X379035D02*
D03*
X384035D02*
D03*
Y141437D02*
D03*
X379035D02*
D03*
X374035D02*
D03*
X369035D02*
D03*
X364035D02*
D03*
X359035D02*
D03*
X354035D02*
D03*
X349035D02*
D03*
Y119980D02*
D03*
X354035D02*
D03*
X359035D02*
D03*
X364035D02*
D03*
X369035D02*
D03*
X374035D02*
D03*
X379035D02*
D03*
X384035D02*
D03*
Y216634D02*
D03*
X379035D02*
D03*
X374035D02*
D03*
X369035D02*
D03*
X364035D02*
D03*
X359035D02*
D03*
X354035D02*
D03*
X349035D02*
D03*
Y195177D02*
D03*
X354035D02*
D03*
X359035D02*
D03*
X364035D02*
D03*
X369035D02*
D03*
X374035D02*
D03*
X379035D02*
D03*
X384035D02*
D03*
D35*
X48150Y116614D02*
D03*
Y111496D02*
D03*
X40669D02*
D03*
Y114055D02*
D03*
Y116614D02*
D03*
D36*
X382874Y60236D02*
D03*
X377756D02*
D03*
X382874Y127559D02*
D03*
X377756D02*
D03*
X382874Y202362D02*
D03*
X377756D02*
D03*
X382874Y273228D02*
D03*
X377756D02*
D03*
X382874Y340158D02*
D03*
X377756D02*
D03*
X368504Y60236D02*
D03*
X363386D02*
D03*
X368504Y127559D02*
D03*
X363386D02*
D03*
X368504Y202362D02*
D03*
X363386D02*
D03*
X368504Y273228D02*
D03*
X363386D02*
D03*
X368504Y340158D02*
D03*
X363386D02*
D03*
X354134Y60236D02*
D03*
X349016D02*
D03*
X354134Y127559D02*
D03*
X349016D02*
D03*
X354134Y202362D02*
D03*
X349016D02*
D03*
X354134Y273228D02*
D03*
X349016D02*
D03*
X354134Y340158D02*
D03*
X349016D02*
D03*
X354134Y66831D02*
D03*
X349016D02*
D03*
X354134Y134154D02*
D03*
X349016D02*
D03*
X354134Y208957D02*
D03*
X349016D02*
D03*
X354134Y279823D02*
D03*
X349016D02*
D03*
X354134Y346752D02*
D03*
X349016D02*
D03*
X368504Y66831D02*
D03*
X363386D02*
D03*
X368504Y134154D02*
D03*
X363386D02*
D03*
X368504Y208957D02*
D03*
X363386D02*
D03*
X368504Y279823D02*
D03*
X363386D02*
D03*
X368504Y346752D02*
D03*
X363386D02*
D03*
X382874Y66831D02*
D03*
X377756D02*
D03*
X382874Y134154D02*
D03*
X377756D02*
D03*
X382874Y208957D02*
D03*
X377756D02*
D03*
X382874Y279823D02*
D03*
X377756D02*
D03*
X382874Y346752D02*
D03*
X377756D02*
D03*
X120669Y99213D02*
D03*
X115551D02*
D03*
X120669Y106353D02*
D03*
X115551D02*
D03*
X120669Y113494D02*
D03*
X115551D02*
D03*
X120669Y120635D02*
D03*
X115551D02*
D03*
X120669Y127776D02*
D03*
X115551D02*
D03*
X120669Y134917D02*
D03*
X115551D02*
D03*
X120669Y142058D02*
D03*
X115551D02*
D03*
X120669Y149199D02*
D03*
X115551D02*
D03*
X120669Y156340D02*
D03*
X115551D02*
D03*
X120669Y163481D02*
D03*
X115551D02*
D03*
X120669Y170622D02*
D03*
X115551D02*
D03*
X120669Y177763D02*
D03*
X115551D02*
D03*
X120669Y184904D02*
D03*
X115551D02*
D03*
X120669Y192044D02*
D03*
X115551D02*
D03*
X120669Y199185D02*
D03*
X115551D02*
D03*
X120669Y206326D02*
D03*
X115551D02*
D03*
X120669Y213467D02*
D03*
X115551D02*
D03*
X120669Y220608D02*
D03*
X115551D02*
D03*
X120669Y227749D02*
D03*
X115551D02*
D03*
X120669Y234890D02*
D03*
X115551D02*
D03*
X120669Y242031D02*
D03*
X115551D02*
D03*
X120669Y249172D02*
D03*
X115551D02*
D03*
X120669Y256313D02*
D03*
X115551D02*
D03*
X120669Y263454D02*
D03*
X115551D02*
D03*
X120669Y270594D02*
D03*
X115551D02*
D03*
X120669Y277735D02*
D03*
X115551D02*
D03*
X120669Y284876D02*
D03*
X115551D02*
D03*
X120669Y292017D02*
D03*
X115551D02*
D03*
X120669Y299158D02*
D03*
X115551D02*
D03*
X120669Y306299D02*
D03*
X115551D02*
D03*
X459646Y14961D02*
D03*
X454528D02*
D03*
X439567Y19291D02*
D03*
X434449D02*
D03*
X439567Y31496D02*
D03*
X434449D02*
D03*
X459646Y27097D02*
D03*
X454528D02*
D03*
X459646Y39234D02*
D03*
X454528D02*
D03*
X439567Y43701D02*
D03*
X434449D02*
D03*
X459646Y51371D02*
D03*
X454528D02*
D03*
X439567Y55905D02*
D03*
X434449D02*
D03*
X439567Y68110D02*
D03*
X434449D02*
D03*
X459646Y63508D02*
D03*
X454528D02*
D03*
X439567Y80315D02*
D03*
X434449D02*
D03*
X459646Y75645D02*
D03*
X454528D02*
D03*
X459646Y184876D02*
D03*
X454528D02*
D03*
X439567Y190157D02*
D03*
X434449D02*
D03*
X459646Y197013D02*
D03*
X454528D02*
D03*
X439567Y202362D02*
D03*
X434449D02*
D03*
X439567Y214567D02*
D03*
X434449D02*
D03*
X459646Y209150D02*
D03*
X454528D02*
D03*
X439567Y226772D02*
D03*
X434449D02*
D03*
X459646Y221287D02*
D03*
X454528D02*
D03*
X459646Y233424D02*
D03*
X454528D02*
D03*
X439567Y238976D02*
D03*
X434449D02*
D03*
X459646Y245561D02*
D03*
X454528D02*
D03*
X439567Y251181D02*
D03*
X434449D02*
D03*
X439567Y263386D02*
D03*
X434449D02*
D03*
X459646Y257697D02*
D03*
X454528D02*
D03*
X439567Y275591D02*
D03*
X434449D02*
D03*
X459646Y269834D02*
D03*
X454528D02*
D03*
X459646Y87782D02*
D03*
X454528D02*
D03*
X439567Y92520D02*
D03*
X434449D02*
D03*
X459646Y99918D02*
D03*
X454528D02*
D03*
X439567Y104724D02*
D03*
X434449D02*
D03*
X439567Y116929D02*
D03*
X434449D02*
D03*
X459646Y112055D02*
D03*
X454528D02*
D03*
X439567Y129134D02*
D03*
X434449D02*
D03*
X459646Y124192D02*
D03*
X454528D02*
D03*
X459646Y136329D02*
D03*
X454528D02*
D03*
X439567Y141339D02*
D03*
X434449D02*
D03*
X459646Y148466D02*
D03*
X454528D02*
D03*
X439567Y153543D02*
D03*
X434449D02*
D03*
X439567Y165748D02*
D03*
X434449D02*
D03*
X459646Y160603D02*
D03*
X454528D02*
D03*
X439567Y177953D02*
D03*
X434449D02*
D03*
X459646Y172740D02*
D03*
X454528D02*
D03*
X459646Y281971D02*
D03*
X454528D02*
D03*
X439567Y287795D02*
D03*
X434449D02*
D03*
X459646Y294108D02*
D03*
X454528D02*
D03*
X439567Y300000D02*
D03*
X434449D02*
D03*
X439567Y312205D02*
D03*
X434449D02*
D03*
X459646Y306245D02*
D03*
X454528D02*
D03*
X439567Y324409D02*
D03*
X434449D02*
D03*
X459646Y318382D02*
D03*
X454528D02*
D03*
X459646Y330519D02*
D03*
X454528D02*
D03*
X439567Y336614D02*
D03*
X434449D02*
D03*
X459646Y342655D02*
D03*
X454528D02*
D03*
X439567Y348819D02*
D03*
X434449D02*
D03*
X439567Y361024D02*
D03*
X434449D02*
D03*
X459646Y354792D02*
D03*
X454528D02*
D03*
X439567Y373228D02*
D03*
X434449D02*
D03*
X459646Y366929D02*
D03*
X454528D02*
D03*
X76606Y306299D02*
D03*
X71488D02*
D03*
X76606Y299158D02*
D03*
X71488D02*
D03*
X76606Y292017D02*
D03*
X71488D02*
D03*
X76606Y284876D02*
D03*
X71488D02*
D03*
X76606Y277735D02*
D03*
X71488D02*
D03*
X76606Y270595D02*
D03*
X71488D02*
D03*
X76606Y263454D02*
D03*
X71488D02*
D03*
X76606Y256313D02*
D03*
X71488D02*
D03*
X76606Y249172D02*
D03*
X71488D02*
D03*
X76606Y242031D02*
D03*
X71488D02*
D03*
X76606Y234890D02*
D03*
X71488D02*
D03*
X76606Y227749D02*
D03*
X71488D02*
D03*
X76606Y220608D02*
D03*
X71488D02*
D03*
X76606Y213467D02*
D03*
X71488D02*
D03*
X76606Y206326D02*
D03*
X71488D02*
D03*
X76606Y199185D02*
D03*
X71488D02*
D03*
X76606Y192044D02*
D03*
X71488D02*
D03*
X76606Y184903D02*
D03*
X71488D02*
D03*
X76606Y177762D02*
D03*
X71488D02*
D03*
X76606Y170622D02*
D03*
X71488D02*
D03*
X76606Y163481D02*
D03*
X71488D02*
D03*
X76606Y156340D02*
D03*
X71488D02*
D03*
X76606Y149199D02*
D03*
X71488D02*
D03*
X76606Y142058D02*
D03*
X71488D02*
D03*
X76606Y134917D02*
D03*
X71488D02*
D03*
X76606Y127776D02*
D03*
X71488D02*
D03*
X76606Y120635D02*
D03*
X71488D02*
D03*
X76606Y113494D02*
D03*
X71488D02*
D03*
X76606Y106353D02*
D03*
X71488D02*
D03*
X76606Y99212D02*
D03*
X71488D02*
D03*
X505315Y31102D02*
D03*
X510433D02*
D03*
X505315Y40945D02*
D03*
X510433D02*
D03*
X505315Y50787D02*
D03*
X510433D02*
D03*
X505315Y60630D02*
D03*
X510433D02*
D03*
X505315Y70472D02*
D03*
X510433D02*
D03*
X505315Y80315D02*
D03*
X510433D02*
D03*
X505315Y90158D02*
D03*
X510433D02*
D03*
X505315Y100000D02*
D03*
X510433D02*
D03*
X505315Y109843D02*
D03*
X510433D02*
D03*
X505315Y131102D02*
D03*
X510433D02*
D03*
X505315Y140945D02*
D03*
X510433D02*
D03*
X505315Y150787D02*
D03*
X510433D02*
D03*
X505315Y160630D02*
D03*
X510433D02*
D03*
X505315Y170472D02*
D03*
X510433D02*
D03*
X505315Y180315D02*
D03*
X510433D02*
D03*
X505315Y190157D02*
D03*
X510433D02*
D03*
X505315Y200000D02*
D03*
X510433D02*
D03*
X505315Y232283D02*
D03*
X510433D02*
D03*
X505315Y242815D02*
D03*
X510433D02*
D03*
X505315Y252658D02*
D03*
X510433D02*
D03*
X505315Y262500D02*
D03*
X510433D02*
D03*
X505315Y272342D02*
D03*
X510433D02*
D03*
X505315Y292520D02*
D03*
X510433D02*
D03*
X505315Y302362D02*
D03*
X510433D02*
D03*
X505315Y312205D02*
D03*
X510433D02*
D03*
X505315Y322047D02*
D03*
X510433D02*
D03*
X505315Y331890D02*
D03*
X510433D02*
D03*
X505315Y341732D02*
D03*
X510433D02*
D03*
X505315Y351575D02*
D03*
X510433D02*
D03*
X505315Y361417D02*
D03*
X510433D02*
D03*
X41526Y88465D02*
D03*
X36408D02*
D03*
X347559Y169627D02*
D03*
X342441D02*
D03*
X347559Y177310D02*
D03*
X342441D02*
D03*
X41526Y81988D02*
D03*
X36408D02*
D03*
D37*
X-48976Y113350D02*
D03*
Y116500D02*
D03*
Y119650D02*
D03*
Y122799D02*
D03*
Y125949D02*
D03*
Y129098D02*
D03*
Y132248D02*
D03*
Y135398D02*
D03*
Y138547D02*
D03*
Y141697D02*
D03*
Y144846D02*
D03*
Y147996D02*
D03*
Y151146D02*
D03*
Y154295D02*
D03*
Y157445D02*
D03*
Y160594D02*
D03*
Y163744D02*
D03*
Y166894D02*
D03*
Y170043D02*
D03*
Y173193D02*
D03*
Y176342D02*
D03*
Y179492D02*
D03*
Y182642D02*
D03*
Y198390D02*
D03*
Y201539D02*
D03*
Y204689D02*
D03*
Y207839D02*
D03*
Y210988D02*
D03*
Y214138D02*
D03*
Y217287D02*
D03*
Y220437D02*
D03*
Y223587D02*
D03*
Y226736D02*
D03*
Y229886D02*
D03*
Y233035D02*
D03*
Y236185D02*
D03*
Y239335D02*
D03*
Y242484D02*
D03*
Y245634D02*
D03*
Y248783D02*
D03*
Y251933D02*
D03*
Y255083D02*
D03*
Y258232D02*
D03*
Y261382D02*
D03*
Y264531D02*
D03*
Y267681D02*
D03*
Y270831D02*
D03*
Y273980D02*
D03*
Y277130D02*
D03*
Y280279D02*
D03*
D38*
X90976Y229331D02*
D03*
Y231299D02*
D03*
Y233268D02*
D03*
Y235236D02*
D03*
Y237205D02*
D03*
Y239173D02*
D03*
Y241142D02*
D03*
Y243110D02*
D03*
Y245079D02*
D03*
Y247047D02*
D03*
Y249016D02*
D03*
Y250984D02*
D03*
Y252953D02*
D03*
Y254921D02*
D03*
Y256890D02*
D03*
Y258858D02*
D03*
Y260827D02*
D03*
Y262795D02*
D03*
Y264764D02*
D03*
Y266732D02*
D03*
Y268701D02*
D03*
Y270669D02*
D03*
Y272638D02*
D03*
Y274606D02*
D03*
X57118D02*
D03*
Y272638D02*
D03*
Y270669D02*
D03*
Y268701D02*
D03*
Y266732D02*
D03*
Y264764D02*
D03*
Y262795D02*
D03*
Y260827D02*
D03*
Y258858D02*
D03*
Y256890D02*
D03*
Y254921D02*
D03*
Y252953D02*
D03*
Y250984D02*
D03*
Y249016D02*
D03*
Y247047D02*
D03*
Y245079D02*
D03*
Y243110D02*
D03*
Y241142D02*
D03*
Y239173D02*
D03*
Y237205D02*
D03*
Y235236D02*
D03*
Y233268D02*
D03*
Y231299D02*
D03*
Y229331D02*
D03*
X90976Y123031D02*
D03*
Y125000D02*
D03*
Y126969D02*
D03*
Y128937D02*
D03*
Y130905D02*
D03*
Y132874D02*
D03*
Y134843D02*
D03*
Y136811D02*
D03*
Y138779D02*
D03*
Y140748D02*
D03*
Y142717D02*
D03*
Y144685D02*
D03*
Y146653D02*
D03*
Y148622D02*
D03*
Y150591D02*
D03*
Y152559D02*
D03*
Y154528D02*
D03*
Y156496D02*
D03*
Y158465D02*
D03*
Y160433D02*
D03*
Y162402D02*
D03*
Y164370D02*
D03*
Y166339D02*
D03*
Y168307D02*
D03*
X57118D02*
D03*
Y166339D02*
D03*
Y164370D02*
D03*
Y162402D02*
D03*
Y160433D02*
D03*
Y158465D02*
D03*
Y156496D02*
D03*
Y154528D02*
D03*
Y152559D02*
D03*
Y150591D02*
D03*
Y148622D02*
D03*
Y146653D02*
D03*
Y144685D02*
D03*
Y142717D02*
D03*
Y140748D02*
D03*
Y138779D02*
D03*
Y136811D02*
D03*
Y134843D02*
D03*
Y132874D02*
D03*
Y130905D02*
D03*
Y128937D02*
D03*
Y126969D02*
D03*
Y125000D02*
D03*
Y123031D02*
D03*
D39*
X205189Y15255D02*
D03*
X210189D02*
D03*
X215189D02*
D03*
X220189D02*
D03*
X225189D02*
D03*
X230189D02*
D03*
X235189D02*
D03*
X240189D02*
D03*
X205189Y36711D02*
D03*
X210189D02*
D03*
X215189D02*
D03*
X220189D02*
D03*
X225189D02*
D03*
X230189D02*
D03*
X235189D02*
D03*
X240189D02*
D03*
X205157Y63911D02*
D03*
X210157D02*
D03*
X215158D02*
D03*
X220158D02*
D03*
X225157D02*
D03*
X230157D02*
D03*
X235157D02*
D03*
X240158D02*
D03*
X205157Y85368D02*
D03*
X210157D02*
D03*
X215158D02*
D03*
X220158D02*
D03*
X225157D02*
D03*
X230157D02*
D03*
X235157D02*
D03*
X240158D02*
D03*
X205157Y112446D02*
D03*
X210157D02*
D03*
X215158D02*
D03*
X220158D02*
D03*
X225157D02*
D03*
X230157D02*
D03*
X235157D02*
D03*
X240158D02*
D03*
X205157Y133902D02*
D03*
X210157D02*
D03*
X215158D02*
D03*
X220158D02*
D03*
X225157D02*
D03*
X230157D02*
D03*
X235157D02*
D03*
X240158D02*
D03*
X205157Y160980D02*
D03*
X210157D02*
D03*
X215158D02*
D03*
X220158D02*
D03*
X225157D02*
D03*
X230157D02*
D03*
X235157D02*
D03*
X240158D02*
D03*
X205157Y182437D02*
D03*
X210157D02*
D03*
X215158D02*
D03*
X220158D02*
D03*
X225157D02*
D03*
X230157D02*
D03*
X235157D02*
D03*
X240158D02*
D03*
X205157Y209515D02*
D03*
X210157D02*
D03*
X215158D02*
D03*
X220158D02*
D03*
X225157D02*
D03*
X230157D02*
D03*
X235157D02*
D03*
X240158D02*
D03*
X205157Y230971D02*
D03*
X210157D02*
D03*
X215158D02*
D03*
X220158D02*
D03*
X225157D02*
D03*
X230157D02*
D03*
X235157D02*
D03*
X240158D02*
D03*
X205157Y258049D02*
D03*
X210157D02*
D03*
X215158D02*
D03*
X220158D02*
D03*
X225157D02*
D03*
X230157D02*
D03*
X235157D02*
D03*
X240158D02*
D03*
X205157Y279506D02*
D03*
X210157D02*
D03*
X215158D02*
D03*
X220158D02*
D03*
X225157D02*
D03*
X230157D02*
D03*
X235157D02*
D03*
X240158D02*
D03*
X205236Y306693D02*
D03*
X210236D02*
D03*
X215236D02*
D03*
X220236D02*
D03*
X225236D02*
D03*
X230236D02*
D03*
X235236D02*
D03*
X240236D02*
D03*
X205236Y328150D02*
D03*
X210236D02*
D03*
X215236D02*
D03*
X220236D02*
D03*
X225236D02*
D03*
X230236D02*
D03*
X235236D02*
D03*
X240236D02*
D03*
X205157Y355118D02*
D03*
X210157D02*
D03*
X215158D02*
D03*
X220158D02*
D03*
X225157D02*
D03*
X230157D02*
D03*
X235157D02*
D03*
X240158D02*
D03*
X205157Y376575D02*
D03*
X210157D02*
D03*
X215158D02*
D03*
X220158D02*
D03*
X225157D02*
D03*
X230157D02*
D03*
X235157D02*
D03*
X240158D02*
D03*
X272524Y64279D02*
D03*
X277524D02*
D03*
X282524D02*
D03*
X287524D02*
D03*
X292524D02*
D03*
X297524D02*
D03*
X302524D02*
D03*
X307524D02*
D03*
X272524Y85736D02*
D03*
X277524D02*
D03*
X282524D02*
D03*
X287524D02*
D03*
X292524D02*
D03*
X297524D02*
D03*
X302524D02*
D03*
X307524D02*
D03*
X272524Y112732D02*
D03*
X277524D02*
D03*
X282524D02*
D03*
X287524D02*
D03*
X292524D02*
D03*
X297524D02*
D03*
X302524D02*
D03*
X307524D02*
D03*
X272524Y134189D02*
D03*
X277524D02*
D03*
X282524D02*
D03*
X287524D02*
D03*
X292524D02*
D03*
X297524D02*
D03*
X302524D02*
D03*
X307524D02*
D03*
X272524Y161185D02*
D03*
X277524D02*
D03*
X282524D02*
D03*
X287524D02*
D03*
X292524D02*
D03*
X297524D02*
D03*
X302524D02*
D03*
X307524D02*
D03*
X272524Y182641D02*
D03*
X277524D02*
D03*
X282524D02*
D03*
X287524D02*
D03*
X292524D02*
D03*
X297524D02*
D03*
X302524D02*
D03*
X307524D02*
D03*
X272524Y209638D02*
D03*
X277524D02*
D03*
X282524D02*
D03*
X287524D02*
D03*
X292524D02*
D03*
X297524D02*
D03*
X302524D02*
D03*
X307524D02*
D03*
X272524Y231094D02*
D03*
X277524D02*
D03*
X282524D02*
D03*
X287524D02*
D03*
X292524D02*
D03*
X297524D02*
D03*
X302524D02*
D03*
X307524D02*
D03*
X272524Y258090D02*
D03*
X277524D02*
D03*
X282524D02*
D03*
X287524D02*
D03*
X292524D02*
D03*
X297524D02*
D03*
X302524D02*
D03*
X307524D02*
D03*
X272524Y279547D02*
D03*
X277524D02*
D03*
X282524D02*
D03*
X287524D02*
D03*
X292524D02*
D03*
X297524D02*
D03*
X302524D02*
D03*
X307524D02*
D03*
X272524Y306543D02*
D03*
X277524D02*
D03*
X282524D02*
D03*
X287524D02*
D03*
X292524D02*
D03*
X297524D02*
D03*
X302524D02*
D03*
X307524D02*
D03*
X272524Y328000D02*
D03*
X277524D02*
D03*
X282524D02*
D03*
X287524D02*
D03*
X292524D02*
D03*
X297524D02*
D03*
X302524D02*
D03*
X307524D02*
D03*
X272524Y354996D02*
D03*
X277524D02*
D03*
X282524D02*
D03*
X287524D02*
D03*
X292524D02*
D03*
X297524D02*
D03*
X302524D02*
D03*
X307524D02*
D03*
X272524Y376453D02*
D03*
X277524D02*
D03*
X282524D02*
D03*
X287524D02*
D03*
X292524D02*
D03*
X297524D02*
D03*
X302524D02*
D03*
X307524D02*
D03*
X272524Y15255D02*
D03*
X277524D02*
D03*
X282524D02*
D03*
X287524D02*
D03*
X292524D02*
D03*
X297524D02*
D03*
X302524D02*
D03*
X307524D02*
D03*
X272524Y36711D02*
D03*
X277524D02*
D03*
X282524D02*
D03*
X287524D02*
D03*
X292524D02*
D03*
X297524D02*
D03*
X302524D02*
D03*
X307524D02*
D03*
D40*
X67303Y34213D02*
D03*
X72303D02*
D03*
X77303D02*
D03*
X82303D02*
D03*
Y64213D02*
D03*
X77303D02*
D03*
X72303D02*
D03*
X67303D02*
D03*
D41*
X62992Y79331D02*
D03*
Y74213D02*
D03*
X70866Y79331D02*
D03*
Y74213D02*
D03*
X78740Y79331D02*
D03*
Y74213D02*
D03*
X86614Y79331D02*
D03*
Y74213D02*
D03*
X57042Y279501D02*
D03*
Y284619D02*
D03*
X57174Y173877D02*
D03*
Y178995D02*
D03*
X57145Y218948D02*
D03*
Y224066D02*
D03*
X57870Y111965D02*
D03*
Y117083D02*
D03*
X90857Y279136D02*
D03*
Y284254D02*
D03*
X91234Y173876D02*
D03*
Y178995D02*
D03*
X90981Y218443D02*
D03*
Y223561D02*
D03*
X90745Y111965D02*
D03*
Y117083D02*
D03*
X-15748Y117520D02*
D03*
Y122638D02*
D03*
X-7874Y117520D02*
D03*
Y122638D02*
D03*
X510236Y373819D02*
D03*
Y378937D02*
D03*
X479134Y373819D02*
D03*
Y378937D02*
D03*
X486909Y373819D02*
D03*
Y378937D02*
D03*
D42*
X502280Y372835D02*
D03*
Y379134D02*
D03*
X494504Y372835D02*
D03*
Y379134D02*
D03*
D43*
X396850Y51575D02*
D03*
X391339D02*
D03*
X396850Y118898D02*
D03*
X391339D02*
D03*
X396850Y194095D02*
D03*
X391339D02*
D03*
X396850Y264961D02*
D03*
X391339D02*
D03*
X397244Y331496D02*
D03*
X391732D02*
D03*
X396850Y75197D02*
D03*
X391339D02*
D03*
X397244Y142520D02*
D03*
X391732D02*
D03*
X397244Y217717D02*
D03*
X391732D02*
D03*
X397244Y288583D02*
D03*
X391732D02*
D03*
X396850Y355118D02*
D03*
X391339D02*
D03*
X192913Y36220D02*
D03*
X198425D02*
D03*
X192913Y85039D02*
D03*
X198425D02*
D03*
X192913Y133465D02*
D03*
X198425D02*
D03*
X192913Y182283D02*
D03*
X198425D02*
D03*
X192913Y230709D02*
D03*
X198425D02*
D03*
X192913Y279134D02*
D03*
X198425D02*
D03*
X192913Y327953D02*
D03*
X198425D02*
D03*
X192913Y376378D02*
D03*
X198425D02*
D03*
X260236Y85433D02*
D03*
X265748D02*
D03*
X260236Y134252D02*
D03*
X265748D02*
D03*
X260236Y182677D02*
D03*
X265748D02*
D03*
X260236Y230709D02*
D03*
X265748D02*
D03*
X260236Y279134D02*
D03*
X265748D02*
D03*
X260236Y327559D02*
D03*
X265748D02*
D03*
X260236Y375984D02*
D03*
X265748D02*
D03*
X260236Y36220D02*
D03*
X265748D02*
D03*
D44*
X124016Y370472D02*
D03*
Y364961D02*
D03*
X138976Y370472D02*
D03*
Y364961D02*
D03*
X48386Y371181D02*
D03*
Y365669D02*
D03*
X33386Y371181D02*
D03*
Y365669D02*
D03*
X101969Y235282D02*
D03*
Y240794D02*
D03*
Y129111D02*
D03*
Y134622D02*
D03*
X101969Y268561D02*
D03*
Y263049D02*
D03*
Y162205D02*
D03*
Y156693D02*
D03*
X45276Y235282D02*
D03*
Y240794D02*
D03*
Y129111D02*
D03*
Y134622D02*
D03*
X45276Y268561D02*
D03*
Y263049D02*
D03*
Y162008D02*
D03*
Y156496D02*
D03*
D45*
X-13780Y203412D02*
D03*
Y194226D02*
D03*
X-13780Y259449D02*
D03*
X-13780Y266929D02*
D03*
Y153543D02*
D03*
Y161417D02*
D03*
Y169291D02*
D03*
Y177165D02*
D03*
Y185039D02*
D03*
Y212598D02*
D03*
X-13797Y220455D02*
D03*
X-13780Y228346D02*
D03*
Y236220D02*
D03*
Y244094D02*
D03*
Y251968D02*
D03*
X-3937Y141800D02*
D03*
X-3937Y255906D02*
D03*
X-3937Y263780D02*
D03*
Y248031D02*
D03*
Y240157D02*
D03*
Y208661D02*
D03*
Y216535D02*
D03*
Y224409D02*
D03*
Y232283D02*
D03*
Y157480D02*
D03*
Y188976D02*
D03*
Y149606D02*
D03*
Y173228D02*
D03*
Y165354D02*
D03*
Y181102D02*
D03*
D46*
X8071Y370669D02*
D03*
X481890Y337795D02*
D03*
X15748Y62992D02*
D03*
D47*
X532969Y210661D02*
D03*
Y200661D02*
D03*
Y190661D02*
D03*
Y180661D02*
D03*
Y170661D02*
D03*
Y160661D02*
D03*
Y150661D02*
D03*
Y140661D02*
D03*
Y130661D02*
D03*
Y120661D02*
D03*
Y110661D02*
D03*
Y100661D02*
D03*
Y90661D02*
D03*
Y80661D02*
D03*
Y70661D02*
D03*
Y60661D02*
D03*
Y50661D02*
D03*
Y40661D02*
D03*
Y30661D02*
D03*
Y20661D02*
D03*
X522968Y210661D02*
D03*
Y200661D02*
D03*
Y190661D02*
D03*
Y180661D02*
D03*
Y170661D02*
D03*
Y160661D02*
D03*
Y150661D02*
D03*
Y140661D02*
D03*
Y130661D02*
D03*
Y120661D02*
D03*
Y110661D02*
D03*
Y100661D02*
D03*
Y90661D02*
D03*
Y80661D02*
D03*
Y70661D02*
D03*
Y60661D02*
D03*
Y50661D02*
D03*
Y40661D02*
D03*
Y30661D02*
D03*
Y20661D02*
D03*
X532969Y372661D02*
D03*
Y362661D02*
D03*
Y352661D02*
D03*
Y342661D02*
D03*
Y332661D02*
D03*
Y322661D02*
D03*
Y312661D02*
D03*
Y302661D02*
D03*
Y292661D02*
D03*
Y282661D02*
D03*
Y272661D02*
D03*
Y262661D02*
D03*
Y252661D02*
D03*
Y242661D02*
D03*
Y232661D02*
D03*
X522968Y372661D02*
D03*
Y362661D02*
D03*
Y352661D02*
D03*
Y342661D02*
D03*
Y332661D02*
D03*
Y322661D02*
D03*
Y312661D02*
D03*
Y302661D02*
D03*
Y292661D02*
D03*
Y282661D02*
D03*
Y272661D02*
D03*
Y262661D02*
D03*
Y252661D02*
D03*
Y242661D02*
D03*
Y232661D02*
D03*
D48*
X78976Y346457D02*
D03*
X88976D02*
D03*
X98976D02*
D03*
D49*
X101575Y72047D02*
D03*
X325197Y288189D02*
D03*
Y74803D02*
D03*
X185039Y77953D02*
D03*
X13412Y198670D02*
D03*
X134562Y210422D02*
D03*
X134562Y158453D02*
D03*
X135630Y85039D02*
D03*
X149016Y359055D02*
D03*
X16142Y300787D02*
D03*
M02*
