G04*
G04 #@! TF.GenerationSoftware,Altium Limited,Altium Designer,24.5.2 (23)*
G04*
G04 Layer_Color=16711935*
%FSLAX25Y25*%
%MOIN*%
G70*
G04*
G04 #@! TF.SameCoordinates,4A6E010D-FDCD-41A0-A441-D27C495AF59C*
G04*
G04*
G04 #@! TF.FilePolarity,Negative*
G04*
G01*
G75*
%ADD32R,0.15354X0.77165*%
%ADD37R,0.11024X0.02165*%
%ADD47C,0.06600*%
%ADD48C,0.07001*%
%ADD49C,0.08674*%
%ADD61R,0.15354X0.89764*%
%ADD62C,0.02769*%
D32*
X-51142Y147602D02*
D03*
D37*
X-48976Y113350D02*
D03*
Y116500D02*
D03*
Y119650D02*
D03*
Y122799D02*
D03*
Y125949D02*
D03*
Y129098D02*
D03*
Y132248D02*
D03*
Y135398D02*
D03*
Y138547D02*
D03*
Y141697D02*
D03*
Y144846D02*
D03*
Y147996D02*
D03*
Y151146D02*
D03*
Y154295D02*
D03*
Y157445D02*
D03*
Y160594D02*
D03*
Y163744D02*
D03*
Y166894D02*
D03*
Y170043D02*
D03*
Y173193D02*
D03*
Y176342D02*
D03*
Y179492D02*
D03*
Y182642D02*
D03*
Y198390D02*
D03*
Y201539D02*
D03*
Y204689D02*
D03*
Y207839D02*
D03*
Y210988D02*
D03*
Y214138D02*
D03*
Y217287D02*
D03*
Y220437D02*
D03*
Y223587D02*
D03*
Y226736D02*
D03*
Y229886D02*
D03*
Y233035D02*
D03*
Y236185D02*
D03*
Y239335D02*
D03*
Y242484D02*
D03*
Y245634D02*
D03*
Y248783D02*
D03*
Y251933D02*
D03*
Y255083D02*
D03*
Y258232D02*
D03*
Y261382D02*
D03*
Y264531D02*
D03*
Y267681D02*
D03*
Y270831D02*
D03*
Y273980D02*
D03*
Y277130D02*
D03*
Y280279D02*
D03*
D47*
X532969Y210661D02*
D03*
Y200661D02*
D03*
Y190661D02*
D03*
Y180661D02*
D03*
Y170661D02*
D03*
Y160661D02*
D03*
Y150661D02*
D03*
Y140661D02*
D03*
Y130661D02*
D03*
Y120661D02*
D03*
Y110661D02*
D03*
Y100661D02*
D03*
Y90661D02*
D03*
Y80661D02*
D03*
Y70661D02*
D03*
Y60661D02*
D03*
Y50661D02*
D03*
Y40661D02*
D03*
Y30661D02*
D03*
Y20661D02*
D03*
X522968Y210661D02*
D03*
Y200661D02*
D03*
Y190661D02*
D03*
Y180661D02*
D03*
Y170661D02*
D03*
Y160661D02*
D03*
Y150661D02*
D03*
Y140661D02*
D03*
Y130661D02*
D03*
Y120661D02*
D03*
Y110661D02*
D03*
Y100661D02*
D03*
Y90661D02*
D03*
Y80661D02*
D03*
Y70661D02*
D03*
Y60661D02*
D03*
Y50661D02*
D03*
Y40661D02*
D03*
Y30661D02*
D03*
Y20661D02*
D03*
X532969Y372661D02*
D03*
Y362661D02*
D03*
Y352661D02*
D03*
Y342661D02*
D03*
Y332661D02*
D03*
Y322661D02*
D03*
Y312661D02*
D03*
Y302661D02*
D03*
Y292661D02*
D03*
Y282661D02*
D03*
Y272661D02*
D03*
Y262661D02*
D03*
Y252661D02*
D03*
Y242661D02*
D03*
Y232661D02*
D03*
X522968Y372661D02*
D03*
Y362661D02*
D03*
Y352661D02*
D03*
Y342661D02*
D03*
Y332661D02*
D03*
Y322661D02*
D03*
Y312661D02*
D03*
Y302661D02*
D03*
Y292661D02*
D03*
Y282661D02*
D03*
Y272661D02*
D03*
Y262661D02*
D03*
Y252661D02*
D03*
Y242661D02*
D03*
Y232661D02*
D03*
D48*
X78976Y346457D02*
D03*
X88976D02*
D03*
X98976D02*
D03*
D49*
X101575Y72047D02*
D03*
X325197Y288189D02*
D03*
Y74803D02*
D03*
X185039Y77953D02*
D03*
X13412Y198670D02*
D03*
X134562Y210422D02*
D03*
X134562Y158453D02*
D03*
X135630Y85039D02*
D03*
X149016Y359055D02*
D03*
X16142Y300787D02*
D03*
D61*
X-51142Y239728D02*
D03*
D62*
X420276Y16339D02*
D03*
Y22244D02*
D03*
Y28543D02*
D03*
Y34449D02*
D03*
Y40748D02*
D03*
Y46654D02*
D03*
Y52953D02*
D03*
Y58858D02*
D03*
Y65158D02*
D03*
Y71063D02*
D03*
Y77362D02*
D03*
Y83268D02*
D03*
Y89567D02*
D03*
Y95472D02*
D03*
Y101772D02*
D03*
Y107677D02*
D03*
Y113976D02*
D03*
Y119882D02*
D03*
Y126181D02*
D03*
Y132087D02*
D03*
Y138386D02*
D03*
Y144291D02*
D03*
Y150591D02*
D03*
Y156496D02*
D03*
Y162795D02*
D03*
Y168701D02*
D03*
Y175000D02*
D03*
Y180905D02*
D03*
Y187205D02*
D03*
Y193110D02*
D03*
Y199409D02*
D03*
Y205315D02*
D03*
Y211614D02*
D03*
Y217520D02*
D03*
Y223819D02*
D03*
Y229724D02*
D03*
Y236023D02*
D03*
Y241929D02*
D03*
Y248228D02*
D03*
Y254134D02*
D03*
Y260433D02*
D03*
Y266338D02*
D03*
Y272638D02*
D03*
Y278543D02*
D03*
Y284842D02*
D03*
Y290748D02*
D03*
Y297047D02*
D03*
Y302953D02*
D03*
Y309252D02*
D03*
Y315157D02*
D03*
Y321457D02*
D03*
Y327362D02*
D03*
Y333661D02*
D03*
Y339567D02*
D03*
Y345866D02*
D03*
Y351771D02*
D03*
Y358071D02*
D03*
Y363976D02*
D03*
Y370275D02*
D03*
Y376181D02*
D03*
M02*
