G04*
G04 #@! TF.GenerationSoftware,Altium Limited,Altium Designer,21.1.1 (26)*
G04*
G04 Layer_Color=16711935*
%FSLAX25Y25*%
%MOIN*%
G70*
G04*
G04 #@! TF.SameCoordinates,E27AA09B-B46D-4BD6-8E83-F6F79BD901AC*
G04*
G04*
G04 #@! TF.FilePolarity,Positive*
G04*
G01*
G75*
%ADD15C,0.01000*%
%ADD18C,0.01181*%
D15*
X-27795Y300457D02*
G03*
X-29370Y302031I-1575J0D01*
G01*
X-27795Y298095D02*
G03*
X-23858Y294158I3937J0D01*
G01*
X-38740Y284315D02*
G03*
X-34803Y288252I0J3937D01*
G01*
X-0Y288252D02*
G03*
X3937Y284315I3937J0D01*
G01*
X-37953Y185791D02*
G03*
X-37953Y195240I0J4724D01*
G01*
X3937Y109315D02*
G03*
X-0Y105378I0J-3937D01*
G01*
X-34803D02*
G03*
X-38740Y109315I-3937J0D01*
G01*
X-23858Y99472D02*
G03*
X-27795Y95535I0J-3937D01*
G01*
X-29370Y91598D02*
G03*
X-27795Y93173I0J1575D01*
G01*
X-0Y11417D02*
G03*
X11417Y0I11417J0D01*
G01*
X11811Y393701D02*
G03*
X123Y382283I-135J-11552D01*
G01*
X-34803Y302031D02*
X-29370D01*
X-27795Y298095D02*
Y300457D01*
X-34803Y288252D02*
Y302031D01*
X-23858Y294158D02*
X0D01*
Y288252D02*
Y294158D01*
X-58425Y284315D02*
X-55357D01*
X-38740D01*
X3937D02*
X14670D01*
X-58425Y195240D02*
Y284315D01*
X-55357Y195240D02*
X-37953D01*
X-58425D02*
X-55357D01*
X-58425Y185791D02*
X-55357D01*
X-37953D01*
X-58425Y109315D02*
Y185791D01*
X3937Y109315D02*
X14670D01*
X-55357D02*
X-38740D01*
X-58425D02*
X-55357D01*
X0Y99472D02*
Y105378D01*
X-23858Y99472D02*
X0D01*
X-34803Y91598D02*
Y105378D01*
X-27795Y93173D02*
Y95535D01*
X-34803Y91598D02*
X-29370D01*
X123Y294193D02*
Y382283D01*
X11811Y393701D02*
X14624D01*
X555601Y77D02*
Y393778D01*
X-51Y294193D02*
X123D01*
X-0Y11417D02*
Y99508D01*
X-51D02*
X-0D01*
X14619Y393701D02*
X555673D01*
D18*
X11417Y0D02*
X555118D01*
M02*
