M48
;Layer_Color=9474304
;FILE_FORMAT=2:5
INCH,TZ
;TYPE=PLATED
T1F00S00C0.01181
T2F00S00C0.04000
T3F00S00C0.04134
%
T01
X210236Y11024
X211417Y26772
X215469Y27051
X205118Y31890
Y40945
X217106Y41555
X212992Y51575
X192224Y40945
Y31102
X225590Y32283
X229921Y19685
X235433Y11024
X240158Y11811
X244882Y15748
X266929Y14961
X259842Y32283
Y40945
X272441Y40551
X283449Y41339
X286598
X282283Y32283
Y27559
X268504Y51575
X227559Y5512
X307480Y11220
Y20276
X297244Y22441
X302756Y31890
X292520Y40551
X354331Y44488
X376378Y40748
X397539Y47244
X420276Y46654
Y40748
Y34449
Y28543
Y22244
Y16339
X412205Y31496
X449606Y26772
Y14961
X451181Y43307
X449213Y50787
X500787Y50787
Y40945
Y31102
Y60630
Y70472
Y80315
Y90158
Y100000
Y109843
Y131102
Y140945
Y150787
Y160630
Y170473
Y180315
Y190157
Y200000
X452756Y201575
X453543Y188976
Y176772
X450000Y160630
X453543Y152756
X453937Y140157
X450000Y124016
Y112205
X449606Y99606
X453543Y92126
Y79921
Y67716
X420276Y65158
Y71063
Y77362
Y83268
Y89567
Y95472
Y101772
Y107677
Y113976
Y119882
Y126181
Y132087
Y138386
Y144291
Y150591
Y156496
Y162795
Y168701
Y175000
Y180905
Y187205
Y193110
Y199409
Y205315
X397638Y199213
X390551Y198425
X397539Y189764
X386024Y179724
X374410Y188189
X359055Y187795
X364173Y180315
X338583Y190551
X328451Y177828
X307480Y187402
X301599Y186614
X298449
X292520Y187008
X287795Y178346
X293449Y157480
X296599
X311024Y159843
X305511Y166141
X313779Y146457
X313386Y139769
X301599Y137795
X298449
X292520Y139370
X287795Y129921
X293449Y109055
X296599
X310236Y112598
X307480Y116535
X305118Y98425
X307480Y89764
X301599Y89370
X298449
X292520Y89764
X287795Y81496
X293449Y60630
X296599
X307480
Y68504
X337795Y60433
X343898Y56299
X344882Y74016
X348819Y78740
X358267Y66535
X363779Y90158
X374016Y90551
X384350Y80512
X397539Y79528
Y70866
Y55905
X390945Y61417
X420276Y58858
Y52953
X415354Y104724
X397539Y114567
X390945Y113779
X397539Y123228
X397933Y138189
Y146850
X390945Y147244
X368898Y146653
X358268Y133465
X344252Y141299
X346260Y109646
X353937Y112205
X376378Y112008
X305512Y195276
X307480Y206299
X287402Y205906
X272441Y205905
X270473Y199213
X272441Y187008
X259842Y187402
Y178642
X282283Y178346
Y166535
X279134
X272441Y157087
X270079Y150000
X272441Y137795
X259842Y138976
Y130217
X282677Y129921
X282283Y117717
X279134
X272441Y109055
X269291Y102756
X272441Y90551
X259842Y90157
Y81496
X282677
X282283Y69685
X279134
X272441Y59843
X240158Y60630
X235433Y57874
X240158Y68504
X225197Y80709
X222835Y90158
X230315Y89370
X228740Y98425
X220079Y109055
X214961Y108661
X212992Y102756
X209232Y118110
X206083
X205118Y128740
X210630Y127952
X214960
X225197Y129134
X222835Y138583
X230315Y138976
X226772Y146457
X220079Y157087
X215354Y156693
X212992Y150000
X205118Y137795
X192224Y138189
Y128346
Y89764
Y79921
X205118Y80315
X211083Y79528
X214232
X209232Y70079
X206083
X214961Y59449
X220079Y59055
X205118Y89370
X244094Y111811
X240158Y117323
X253937Y108268
X255906Y155905
X243504Y161417
X240158Y165354
X224935Y177953
X214232Y177165
X211083
X205118Y177559
Y186614
X192323Y186417
X192126Y177953
X206083Y166929
X209232
X222835Y187402
X230315Y187402
X228346Y195276
X222835Y199213
X225197Y205905
X220079Y205906
X209232Y205906
X206083
X240158Y206299
X161614Y179331
X138779Y137402
X105113Y134419
X98409Y128971
X99132Y140932
X98738Y150683
X105346Y156805
X105826Y162343
X79619Y167170
X90933Y184578
X57146Y182940
X41442Y162538
X37854Y156583
X49112Y150497
X46428Y141008
X37867Y134709
X41148Y128809
X49112
X48311Y120248
X57537Y106798
X62992Y84646
X70866
X67197Y88315
X74803Y88583
X81693
X78830Y84765
X86614Y84646
X114961Y78740
X30121Y81796
X-7874Y128347
X-3937Y141800
X-3937Y149606
Y157480
Y165354
Y173228
Y181102
Y188976
Y208661
X-25197Y122835
X65455Y140752
X82673Y140706
X-37402Y141732
X-36972Y151146
X-35398Y157445
X-33823Y163744
X-31854Y170043
X-31067Y176343
X-31496Y182677
X-31461Y201539
X-31854Y207839
X-37008Y132283
Y116535
X-31067Y214138
X-31067Y220437
Y226736
X-31067Y233035
Y239335
Y245634
X-31067Y251933
X-31890Y261417
X-34646
X-37498Y261382
X-40157Y261417
X-39370Y264567
X-40157Y267681
X-37498Y267681
X-34646Y267717
X-31890
X-28740
X-26020Y267646
Y261382
X-28740Y261417
X-29134Y274016
X-31890
X-34646
X-37104Y273980
X-39764Y274016
X-39370Y270866
X-39173Y277362
X-39567Y280709
X-25984Y274016
X-39370Y257874
X-3937Y255906
X-3937Y248031
Y240157
Y232283
Y224409
Y216535
Y263780
X37854Y263236
X40836Y268717
X49112Y256939
Y247032
X37854Y240892
X40846Y235274
X57100Y214366
X90551Y212598
X105295Y231780
X98304Y241142
X101049Y247366
X100062Y257017
X98523Y262932
X101595Y271957
X91535Y290354
X51635Y278313
X45669Y318110
X33071
X129921Y313386
X142520Y318898
X185827Y308661
X192323Y323622
X192126Y332087
X205118Y331890
X209842Y333071
X212205Y339764
X221260Y344094
X225197Y351575
X220079Y361024
X209232Y351181
X206083
X198031Y346457
X181890Y345276
X205118Y322835
X211023Y321654
X214232
X225197Y324016
X220079Y331890
Y302362
X225197Y302362
X223228Y294488
X218504Y290945
X220079Y283858
X224803Y284368
X225197Y274409
X214232Y273228
X210630
X205118Y274803
X205118Y283858
X192520Y283465
Y275000
X205118Y254331
X209232
X220079Y254724
X224803Y254331
X223622Y247638
X218110Y242126
X220079Y235039
X224764Y236653
X225000Y226378
X214232Y224803
X211023
X205118Y226378
Y234646
X192126Y235039
Y226378
X240158Y213386
X259842Y226772
Y235039
X272441Y235039
X270473Y247638
X272441Y254331
X277558Y262204
X277952Y266928
X282677Y270472
X282677Y275197
X272441Y283858
X270473Y294488
X272441Y302362
X277558Y310629
X277952Y315354
X282677Y319291
Y324015
X272441Y331890
X274803Y335827
X270079Y344094
X272441Y351181
X277558Y359054
X277952Y363779
X282677Y359055
X240158Y359055
Y351181
X259842Y331496
Y323622
X240158Y310236
Y303150
X209311Y302362
X206161
X259842Y283858
Y275197
X240158Y262205
X243504Y255906
X282677Y226772
X282677Y222047
X277952Y218503
X277558Y213779
X293701Y215354
X296850
X297749Y224796
X302362Y227559
X307480Y235039
X305906Y242126
X307480Y254331
Y262841
X296457Y264173
X293307
X297638Y274016
X302362Y275590
X305118Y287008
X292520Y283465
X293701Y312205
X296850
X297638Y322047
X302524Y324118
X301599Y331890
X298449
X292520Y331890
X293307Y361024
X296457
X300787Y360630
X307480Y361417
X313386Y362205
X315613Y364432
X307480Y351181
X287402Y359842
X345669Y355118
Y351969
X358514Y346752
X357480Y325984
X364035Y324154
X368898Y326378
X391339Y326772
X397933Y327165
Y335827
X397244Y350787
Y359449
X405905Y354724
Y351575
X420276Y351771
Y345866
Y339567
Y333661
Y327362
Y321457
Y315157
Y309252
Y302953
Y297047
Y290748
Y284842
Y278543
Y272638
Y266338
Y260433
Y254134
Y248228
Y241929
Y236023
Y229724
Y223819
Y217520
Y211614
X397933Y213386
Y222047
X384646Y228740
X402362Y238583
Y245276
X412205Y251772
X397539Y260630
X390945Y261024
X397539Y269291
X397933Y284252
Y292913
X384350Y293110
X366535Y294882
X358268Y279921
X345669Y285827
Y289764
X343307Y315748
X339370Y316142
X352362Y315354
X323622Y330118
X311811Y307087
X307480Y302362
X317717Y276575
X320472Y262204
X318202Y259934
X330709Y266142
X336221Y263779
X348425Y252362
X354331Y257874
X367520Y258268
X365354Y242126
X352362Y239764
X344882Y221260
X345669Y214961
X358267Y209055
X321654Y211811
X323881Y214038
X324410Y221260
X326637Y223487
X307480Y214173
X292520Y235433
X287402Y254724
X437007Y295669
X420276Y358071
Y363976
X449606Y354724
X450000Y342520
X452362Y322441
X482283Y325590
X500787Y322047
Y331496
Y341732
Y351575
Y361417
X482283Y350394
X500787Y312205
Y302362
Y292520
Y272343
Y262500
X500394Y252756
X500787Y242913
Y232283
X482283Y242520
X487402Y252362
X453150Y249606
X450217Y261417
X450000Y270079
X453543Y285827
X449606Y233465
Y221654
X450000Y209055
X449606Y366929
X464173Y373622
Y376083
Y378543
Y381004
Y383465
X479134Y383858
X487008
X494488
X502264Y383957
X510236Y383858
X420276Y376181
Y370275
X384062Y372251
X356890Y372638
X300000Y370020
X297638Y367756
X292520Y379921
X282524Y372899
X282677Y367717
X272047Y380709
X259842Y381034
Y371949
X225266Y372372
X214515Y370413
X211083Y370079
X205118Y371260
X192520Y372047
Y380512
X220079Y382677
Y387402
X143228Y370787
X131437
X119685Y370866
X52677Y371575
X40886
X29134Y371654
T02
X522968Y20661
X532969
Y30661
Y40661
Y50661
X522968
Y40661
Y30661
Y60661
X532969
Y70661
Y80661
Y90661
Y100661
Y110661
Y120661
Y130661
Y140661
Y150661
Y160661
Y170661
Y180661
Y190661
Y200661
X522968
Y190661
Y180661
Y170661
Y160661
Y150661
Y140661
Y130661
Y120661
Y110661
Y100661
Y90661
Y80661
Y70661
X325197Y74803
X185039Y77953
X135630Y85039
X134562Y158453
X101575Y72047
X13412Y198670
X16142Y300787
X149016Y359055
X134562Y210422
X325197Y288189
X522968Y292661
X532969
Y302661
Y312661
Y322661
Y332661
Y342661
Y352661
Y362661
X522968
Y352661
Y342661
Y332661
Y322661
Y312661
Y302661
Y282661
X532969
Y272661
Y262661
Y252661
Y242661
Y232661
X522968
Y242661
Y252661
Y262661
Y272661
Y210661
X532969
Y372661
X522968
T03
X78976Y346457
X88976
X98976
M30
