G04*
G04 #@! TF.GenerationSoftware,Altium Limited,Altium Designer,21.1.1 (26)*
G04*
G04 Layer_Physical_Order=3*
G04 Layer_Color=16440176*
%FSLAX25Y25*%
%MOIN*%
G70*
G04*
G04 #@! TF.SameCoordinates,7B58954A-D321-4292-AB4E-0260298B3E7E*
G04*
G04*
G04 #@! TF.FilePolarity,Positive*
G04*
G01*
G75*
%ADD57C,0.06000*%
%ADD58C,0.06201*%
%ADD59C,0.01968*%
%ADD60C,0.07874*%
G36*
X553543Y2673D02*
X8854Y2673D01*
X8823Y2590D01*
X8335Y2481D01*
X2756Y7874D01*
X2756Y101575D01*
X-31085Y101575D01*
X-31085Y111334D01*
X-55512Y111334D01*
Y184563D01*
X-30892D01*
Y196767D01*
X-55118D01*
Y282988D01*
X-30892D01*
Y292913D01*
X2362D01*
Y383666D01*
X10823Y392126D01*
X553543Y392126D01*
X553543Y2673D01*
D02*
G37*
%LPC*%
G36*
X220079Y389449D02*
X219295Y389293D01*
X218631Y388849D01*
X218187Y388185D01*
X218032Y387402D01*
X218187Y386618D01*
X218631Y385954D01*
X219295Y385510D01*
X220079Y385354D01*
X220862Y385510D01*
X221526Y385954D01*
X221970Y386618D01*
X222126Y387402D01*
X221970Y388185D01*
X221526Y388849D01*
X220862Y389293D01*
X220079Y389449D01*
D02*
G37*
G36*
X502264Y386004D02*
X501480Y385848D01*
X500816Y385404D01*
X500372Y384740D01*
X500217Y383957D01*
X500372Y383173D01*
X500816Y382509D01*
X501480Y382065D01*
X502264Y381909D01*
X503047Y382065D01*
X503711Y382509D01*
X504155Y383173D01*
X504311Y383957D01*
X504155Y384740D01*
X503711Y385404D01*
X503047Y385848D01*
X502264Y386004D01*
D02*
G37*
G36*
X494488Y385906D02*
X493705Y385750D01*
X493041Y385306D01*
X492597Y384642D01*
X492441Y383858D01*
X492597Y383075D01*
X493041Y382411D01*
X493705Y381967D01*
X494488Y381811D01*
X495272Y381967D01*
X495936Y382411D01*
X496380Y383075D01*
X496535Y383858D01*
X496380Y384642D01*
X495936Y385306D01*
X495272Y385750D01*
X494488Y385906D01*
D02*
G37*
G36*
X220079Y384724D02*
X219295Y384569D01*
X218631Y384125D01*
X218187Y383461D01*
X218032Y382677D01*
X218187Y381894D01*
X218631Y381230D01*
X219295Y380786D01*
X220079Y380630D01*
X220862Y380786D01*
X221526Y381230D01*
X221970Y381894D01*
X222126Y382677D01*
X221970Y383461D01*
X221526Y384125D01*
X220862Y384569D01*
X220079Y384724D01*
D02*
G37*
G36*
X272047Y382756D02*
X271264Y382600D01*
X270600Y382156D01*
X270156Y381492D01*
X270000Y380709D01*
X270156Y379925D01*
X270600Y379261D01*
X271264Y378817D01*
X272047Y378661D01*
X272831Y378817D01*
X273495Y379261D01*
X273939Y379925D01*
X274095Y380709D01*
X273939Y381492D01*
X273495Y382156D01*
X272831Y382600D01*
X272047Y382756D01*
D02*
G37*
G36*
X292520Y381968D02*
X291736Y381813D01*
X291072Y381369D01*
X290628Y380705D01*
X290473Y379921D01*
X290628Y379138D01*
X291072Y378474D01*
X291736Y378030D01*
X292520Y377874D01*
X293303Y378030D01*
X293967Y378474D01*
X294411Y379138D01*
X294567Y379921D01*
X294411Y380705D01*
X293967Y381369D01*
X293303Y381813D01*
X292520Y381968D01*
D02*
G37*
G36*
X420276Y378228D02*
X419492Y378072D01*
X418828Y377629D01*
X418384Y376964D01*
X418228Y376181D01*
X418384Y375398D01*
X418828Y374733D01*
X419492Y374290D01*
X420276Y374134D01*
X421059Y374290D01*
X421723Y374733D01*
X422167Y375398D01*
X422323Y376181D01*
X422167Y376964D01*
X421723Y377629D01*
X421059Y378072D01*
X420276Y378228D01*
D02*
G37*
G36*
X523559Y376602D02*
Y373252D01*
X526909D01*
X526850Y373702D01*
X526449Y374671D01*
X525810Y375503D01*
X524978Y376142D01*
X524009Y376543D01*
X523559Y376602D01*
D02*
G37*
G36*
X522378Y376602D02*
X521928Y376543D01*
X520959Y376142D01*
X520127Y375503D01*
X519488Y374671D01*
X519087Y373702D01*
X519028Y373252D01*
X522378D01*
Y376602D01*
D02*
G37*
G36*
X464173Y385512D02*
X463390Y385356D01*
X462726Y384912D01*
X462282Y384248D01*
X462126Y383465D01*
X462282Y382681D01*
X462580Y382234D01*
X462282Y381787D01*
X462126Y381004D01*
X462282Y380221D01*
X462580Y379774D01*
X462282Y379327D01*
X462126Y378543D01*
X462282Y377760D01*
X462580Y377313D01*
X462282Y376866D01*
X462126Y376083D01*
X462282Y375299D01*
X462580Y374852D01*
X462282Y374406D01*
X462126Y373622D01*
X462282Y372839D01*
X462726Y372174D01*
X463390Y371731D01*
X464173Y371575D01*
X464957Y371731D01*
X465621Y372174D01*
X466065Y372839D01*
X466220Y373622D01*
X466065Y374406D01*
X465766Y374852D01*
X466065Y375299D01*
X466220Y376083D01*
X466065Y376866D01*
X465766Y377313D01*
X466065Y377760D01*
X466220Y378543D01*
X466065Y379327D01*
X465766Y379774D01*
X466065Y380221D01*
X466220Y381004D01*
X466065Y381787D01*
X465766Y382234D01*
X466065Y382681D01*
X466220Y383465D01*
X466065Y384248D01*
X465621Y384912D01*
X464957Y385356D01*
X464173Y385512D01*
D02*
G37*
G36*
X214515Y372460D02*
X213731Y372304D01*
X213067Y371861D01*
X212844Y371526D01*
X212530D01*
X211866Y371970D01*
X211083Y372126D01*
X210299Y371970D01*
X209635Y371526D01*
X209191Y370862D01*
X209035Y370079D01*
X209191Y369295D01*
X209635Y368631D01*
X210299Y368187D01*
X211083Y368032D01*
X211866Y368187D01*
X212530Y368631D01*
X212754Y368965D01*
X213067D01*
X213731Y368522D01*
X214515Y368366D01*
X215298Y368522D01*
X215962Y368965D01*
X216406Y369630D01*
X216562Y370413D01*
X216406Y371196D01*
X215962Y371861D01*
X215298Y372304D01*
X214515Y372460D01*
D02*
G37*
G36*
X282524Y374946D02*
X281740Y374790D01*
X281076Y374346D01*
X280632Y373682D01*
X280476Y372899D01*
X280632Y372115D01*
X281076Y371451D01*
X281740Y371007D01*
X282524Y370852D01*
X283307Y371007D01*
X283971Y371451D01*
X284415Y372115D01*
X284571Y372899D01*
X284415Y373682D01*
X283971Y374346D01*
X283307Y374790D01*
X282524Y374946D01*
D02*
G37*
G36*
X225266Y374419D02*
X224482Y374264D01*
X223818Y373820D01*
X223374Y373155D01*
X223218Y372372D01*
X223374Y371589D01*
X223818Y370924D01*
X224482Y370481D01*
X225266Y370325D01*
X226049Y370481D01*
X226713Y370924D01*
X227157Y371589D01*
X227313Y372372D01*
X227157Y373155D01*
X226713Y373820D01*
X226049Y374264D01*
X225266Y374419D01*
D02*
G37*
G36*
X384062Y374299D02*
X383279Y374143D01*
X382615Y373699D01*
X382171Y373035D01*
X382015Y372251D01*
X382171Y371468D01*
X382615Y370804D01*
X383279Y370360D01*
X384062Y370204D01*
X384846Y370360D01*
X385510Y370804D01*
X385954Y371468D01*
X386110Y372251D01*
X385954Y373035D01*
X385510Y373699D01*
X384846Y374143D01*
X384062Y374299D01*
D02*
G37*
G36*
X205118Y373307D02*
X204335Y373151D01*
X203671Y372707D01*
X203227Y372043D01*
X203071Y371260D01*
X203227Y370476D01*
X203671Y369812D01*
X204335Y369368D01*
X205118Y369213D01*
X205902Y369368D01*
X206566Y369812D01*
X207010Y370476D01*
X207165Y371260D01*
X207010Y372043D01*
X206566Y372707D01*
X205902Y373151D01*
X205118Y373307D01*
D02*
G37*
G36*
X522378Y372071D02*
X519028D01*
X519087Y371621D01*
X519488Y370652D01*
X520127Y369820D01*
X520959Y369181D01*
X521928Y368780D01*
X522378Y368721D01*
Y372071D01*
D02*
G37*
G36*
X526909D02*
X523559D01*
Y368721D01*
X524009Y368780D01*
X524978Y369181D01*
X525810Y369820D01*
X526449Y370652D01*
X526850Y371621D01*
X526909Y372071D01*
D02*
G37*
G36*
X420276Y372323D02*
X419492Y372167D01*
X418828Y371723D01*
X418384Y371059D01*
X418228Y370275D01*
X418384Y369492D01*
X418828Y368828D01*
X419492Y368384D01*
X420276Y368228D01*
X421059Y368384D01*
X421723Y368828D01*
X422167Y369492D01*
X422323Y370275D01*
X422167Y371059D01*
X421723Y371723D01*
X421059Y372167D01*
X420276Y372323D01*
D02*
G37*
G36*
X300000Y372067D02*
X299217Y371911D01*
X298552Y371467D01*
X298109Y370803D01*
X297953Y370020D01*
X297492Y369774D01*
X296854Y369647D01*
X296190Y369203D01*
X295746Y368539D01*
X295590Y367756D01*
X295746Y366972D01*
X296190Y366308D01*
X296854Y365864D01*
X297638Y365709D01*
X298421Y365864D01*
X299085Y366308D01*
X299529Y366972D01*
X299685Y367756D01*
X300146Y368001D01*
X300783Y368128D01*
X301448Y368572D01*
X301891Y369236D01*
X302047Y370020D01*
X301891Y370803D01*
X301448Y371467D01*
X300783Y371911D01*
X300000Y372067D01*
D02*
G37*
G36*
X282677Y369764D02*
X281894Y369608D01*
X281229Y369164D01*
X280786Y368500D01*
X280630Y367717D01*
X280786Y366933D01*
X281229Y366269D01*
X281894Y365825D01*
X282677Y365669D01*
X283461Y365825D01*
X284125Y366269D01*
X284569Y366933D01*
X284724Y367717D01*
X284569Y368500D01*
X284125Y369164D01*
X283461Y369608D01*
X282677Y369764D01*
D02*
G37*
G36*
X532969Y378070D02*
X531569Y377886D01*
X530264Y377345D01*
X529144Y376486D01*
X528285Y375366D01*
X527744Y374061D01*
X527560Y372661D01*
X527744Y371262D01*
X528285Y369957D01*
X529144Y368837D01*
X530264Y367978D01*
X530424Y367911D01*
Y367411D01*
X530264Y367345D01*
X529144Y366486D01*
X528285Y365366D01*
X528219Y365206D01*
X527718D01*
X527652Y365366D01*
X526793Y366486D01*
X525673Y367345D01*
X524368Y367886D01*
X522968Y368070D01*
X521569Y367886D01*
X520264Y367345D01*
X519144Y366486D01*
X518285Y365366D01*
X517744Y364061D01*
X517560Y362661D01*
X517744Y361262D01*
X518285Y359957D01*
X519144Y358837D01*
X520264Y357978D01*
X520424Y357911D01*
Y357411D01*
X520264Y357345D01*
X519144Y356486D01*
X518285Y355366D01*
X517744Y354061D01*
X517560Y352661D01*
X517744Y351262D01*
X518285Y349957D01*
X519144Y348837D01*
X520264Y347978D01*
X520424Y347911D01*
Y347411D01*
X520264Y347345D01*
X519144Y346486D01*
X518285Y345366D01*
X517744Y344061D01*
X517560Y342661D01*
X517744Y341262D01*
X518285Y339957D01*
X519144Y338837D01*
X520264Y337978D01*
X520424Y337911D01*
Y337411D01*
X520264Y337345D01*
X519144Y336486D01*
X518285Y335366D01*
X517744Y334061D01*
X517560Y332661D01*
X517744Y331262D01*
X518285Y329957D01*
X519144Y328837D01*
X520264Y327978D01*
X520424Y327911D01*
Y327411D01*
X520264Y327345D01*
X519144Y326486D01*
X518285Y325366D01*
X517744Y324061D01*
X517560Y322661D01*
X517744Y321262D01*
X518285Y319957D01*
X519144Y318837D01*
X520264Y317978D01*
X520424Y317911D01*
Y317411D01*
X520264Y317345D01*
X519144Y316486D01*
X518285Y315366D01*
X517744Y314061D01*
X517560Y312661D01*
X517744Y311262D01*
X518285Y309957D01*
X519144Y308837D01*
X520264Y307978D01*
X520424Y307911D01*
Y307411D01*
X520264Y307345D01*
X519144Y306486D01*
X518285Y305366D01*
X517744Y304061D01*
X517560Y302661D01*
X517744Y301262D01*
X518285Y299957D01*
X519144Y298837D01*
X520264Y297978D01*
X520424Y297911D01*
Y297411D01*
X520264Y297345D01*
X519144Y296486D01*
X518285Y295366D01*
X517744Y294061D01*
X517560Y292661D01*
X517744Y291262D01*
X518285Y289957D01*
X519144Y288837D01*
X520264Y287978D01*
X521569Y287437D01*
X522968Y287253D01*
X524368Y287437D01*
X525673Y287978D01*
X526793Y288837D01*
X527652Y289957D01*
X527718Y290117D01*
X528219D01*
X528285Y289957D01*
X529144Y288837D01*
X530264Y287978D01*
X530424Y287911D01*
Y287411D01*
X530264Y287345D01*
X529144Y286486D01*
X528285Y285366D01*
X527744Y284061D01*
X527560Y282661D01*
X527744Y281262D01*
X528285Y279957D01*
X529144Y278837D01*
X530264Y277978D01*
X530424Y277911D01*
Y277411D01*
X530264Y277345D01*
X529144Y276486D01*
X528285Y275366D01*
X528219Y275206D01*
X527718D01*
X527652Y275366D01*
X526793Y276486D01*
X525673Y277345D01*
X524368Y277886D01*
X522968Y278070D01*
X521569Y277886D01*
X520264Y277345D01*
X519144Y276486D01*
X518285Y275366D01*
X517744Y274061D01*
X517560Y272661D01*
X517744Y271262D01*
X518285Y269957D01*
X519144Y268837D01*
X520264Y267978D01*
X520424Y267911D01*
Y267411D01*
X520264Y267345D01*
X519144Y266486D01*
X518285Y265366D01*
X517744Y264061D01*
X517560Y262661D01*
X517744Y261262D01*
X518285Y259957D01*
X519144Y258837D01*
X520264Y257978D01*
X520424Y257911D01*
Y257411D01*
X520264Y257345D01*
X519144Y256486D01*
X518285Y255366D01*
X517744Y254061D01*
X517560Y252661D01*
X517744Y251262D01*
X518285Y249957D01*
X519144Y248837D01*
X520264Y247978D01*
X520424Y247911D01*
Y247411D01*
X520264Y247345D01*
X519144Y246486D01*
X518285Y245366D01*
X517744Y244061D01*
X517560Y242661D01*
X517744Y241262D01*
X518285Y239957D01*
X519144Y238837D01*
X520264Y237978D01*
X520424Y237911D01*
Y237411D01*
X520264Y237345D01*
X519144Y236486D01*
X518285Y235366D01*
X517744Y234061D01*
X517560Y232661D01*
X517744Y231262D01*
X518285Y229957D01*
X519144Y228837D01*
X520264Y227978D01*
X521569Y227437D01*
X522968Y227253D01*
X524368Y227437D01*
X525673Y227978D01*
X526793Y228837D01*
X527652Y229957D01*
X527718Y230117D01*
X528219D01*
X528285Y229957D01*
X529144Y228837D01*
X530264Y227978D01*
X531569Y227437D01*
X532969Y227253D01*
X534368Y227437D01*
X535673Y227978D01*
X536793Y228837D01*
X537652Y229957D01*
X538193Y231262D01*
X538377Y232661D01*
X538193Y234061D01*
X537652Y235366D01*
X536793Y236486D01*
X535673Y237345D01*
X535513Y237411D01*
Y237911D01*
X535673Y237978D01*
X536793Y238837D01*
X537652Y239957D01*
X538193Y241262D01*
X538377Y242661D01*
X538193Y244061D01*
X537652Y245366D01*
X536793Y246486D01*
X535673Y247345D01*
X535513Y247411D01*
Y247911D01*
X535673Y247978D01*
X536793Y248837D01*
X537652Y249957D01*
X538193Y251262D01*
X538377Y252661D01*
X538193Y254061D01*
X537652Y255366D01*
X536793Y256486D01*
X535673Y257345D01*
X535513Y257411D01*
Y257911D01*
X535673Y257978D01*
X536793Y258837D01*
X537652Y259957D01*
X538193Y261262D01*
X538377Y262661D01*
X538193Y264061D01*
X537652Y265366D01*
X536793Y266486D01*
X535673Y267345D01*
X535513Y267411D01*
Y267911D01*
X535673Y267978D01*
X536793Y268837D01*
X537652Y269957D01*
X538193Y271262D01*
X538377Y272661D01*
X538193Y274061D01*
X537652Y275366D01*
X536793Y276486D01*
X535673Y277345D01*
X535513Y277411D01*
Y277911D01*
X535673Y277978D01*
X536793Y278837D01*
X537652Y279957D01*
X538193Y281262D01*
X538377Y282661D01*
X538193Y284061D01*
X537652Y285366D01*
X536793Y286486D01*
X535673Y287345D01*
X535513Y287411D01*
Y287911D01*
X535673Y287978D01*
X536793Y288837D01*
X537652Y289957D01*
X538193Y291262D01*
X538377Y292661D01*
X538193Y294061D01*
X537652Y295366D01*
X536793Y296486D01*
X535673Y297345D01*
X535513Y297411D01*
Y297911D01*
X535673Y297978D01*
X536793Y298837D01*
X537652Y299957D01*
X538193Y301262D01*
X538377Y302661D01*
X538193Y304061D01*
X537652Y305366D01*
X536793Y306486D01*
X535673Y307345D01*
X535513Y307411D01*
Y307911D01*
X535673Y307978D01*
X536793Y308837D01*
X537652Y309957D01*
X538193Y311262D01*
X538377Y312661D01*
X538193Y314061D01*
X537652Y315366D01*
X536793Y316486D01*
X535673Y317345D01*
X535513Y317411D01*
Y317911D01*
X535673Y317978D01*
X536793Y318837D01*
X537652Y319957D01*
X538193Y321262D01*
X538377Y322661D01*
X538193Y324061D01*
X537652Y325366D01*
X536793Y326486D01*
X535673Y327345D01*
X535513Y327411D01*
Y327911D01*
X535673Y327978D01*
X536793Y328837D01*
X537652Y329957D01*
X538193Y331262D01*
X538377Y332661D01*
X538193Y334061D01*
X537652Y335366D01*
X536793Y336486D01*
X535673Y337345D01*
X535513Y337411D01*
Y337911D01*
X535673Y337978D01*
X536793Y338837D01*
X537652Y339957D01*
X538193Y341262D01*
X538377Y342661D01*
X538193Y344061D01*
X537652Y345366D01*
X536793Y346486D01*
X535673Y347345D01*
X535513Y347411D01*
Y347911D01*
X535673Y347978D01*
X536793Y348837D01*
X537652Y349957D01*
X538193Y351262D01*
X538377Y352661D01*
X538193Y354061D01*
X537652Y355366D01*
X536793Y356486D01*
X535673Y357345D01*
X535513Y357411D01*
Y357911D01*
X535673Y357978D01*
X536793Y358837D01*
X537652Y359957D01*
X538193Y361262D01*
X538377Y362661D01*
X538193Y364061D01*
X537652Y365366D01*
X536793Y366486D01*
X535673Y367345D01*
X535513Y367411D01*
Y367911D01*
X535673Y367978D01*
X536793Y368837D01*
X537652Y369957D01*
X538193Y371262D01*
X538377Y372661D01*
X538193Y374061D01*
X537652Y375366D01*
X536793Y376486D01*
X535673Y377345D01*
X534368Y377886D01*
X532969Y378070D01*
D02*
G37*
G36*
X449606Y368976D02*
X448823Y368821D01*
X448159Y368377D01*
X447715Y367713D01*
X447559Y366929D01*
X447715Y366146D01*
X448159Y365481D01*
X448823Y365038D01*
X449606Y364882D01*
X450390Y365038D01*
X451054Y365481D01*
X451498Y366146D01*
X451653Y366929D01*
X451498Y367713D01*
X451054Y368377D01*
X450390Y368821D01*
X449606Y368976D01*
D02*
G37*
G36*
X296457Y363071D02*
X295673Y362915D01*
X295249Y362632D01*
X294882Y362512D01*
X294515Y362632D01*
X294091Y362915D01*
X293307Y363071D01*
X292524Y362915D01*
X291860Y362471D01*
X291416Y361807D01*
X291260Y361024D01*
X291416Y360240D01*
X291860Y359576D01*
X292524Y359132D01*
X293307Y358976D01*
X294091Y359132D01*
X294515Y359416D01*
X294882Y359535D01*
X295249Y359416D01*
X295673Y359132D01*
X296457Y358976D01*
X297240Y359132D01*
X297904Y359576D01*
X298317Y360194D01*
X298500Y360209D01*
X298837Y360141D01*
X298896Y359846D01*
X299340Y359182D01*
X300004Y358738D01*
X300787Y358583D01*
X301571Y358738D01*
X302235Y359182D01*
X302679Y359846D01*
X302835Y360630D01*
X302679Y361413D01*
X302235Y362077D01*
X301571Y362521D01*
X300787Y362677D01*
X300004Y362521D01*
X299340Y362077D01*
X298927Y361460D01*
X298744Y361444D01*
X298407Y361512D01*
X298348Y361807D01*
X297904Y362471D01*
X297240Y362915D01*
X296457Y363071D01*
D02*
G37*
G36*
X420276Y366023D02*
X419492Y365868D01*
X418828Y365424D01*
X418384Y364760D01*
X418228Y363976D01*
X418384Y363193D01*
X418828Y362529D01*
X419492Y362085D01*
X420276Y361929D01*
X421059Y362085D01*
X421723Y362529D01*
X422167Y363193D01*
X422323Y363976D01*
X422167Y364760D01*
X421723Y365424D01*
X421059Y365868D01*
X420276Y366023D01*
D02*
G37*
G36*
X277952Y365826D02*
X277169Y365670D01*
X276504Y365226D01*
X276061Y364562D01*
X275905Y363779D01*
X276061Y362995D01*
X276504Y362331D01*
X277169Y361887D01*
X277952Y361732D01*
X278736Y361887D01*
X279400Y362331D01*
X279843Y362995D01*
X279999Y363779D01*
X279843Y364562D01*
X279400Y365226D01*
X278736Y365670D01*
X277952Y365826D01*
D02*
G37*
G36*
X315613Y366479D02*
X314829Y366323D01*
X314165Y365879D01*
X313722Y365215D01*
X313566Y364432D01*
X313386Y364252D01*
X312602Y364096D01*
X311938Y363652D01*
X311494Y362988D01*
X311339Y362205D01*
X311494Y361421D01*
X311938Y360757D01*
X312602Y360313D01*
X313386Y360157D01*
X314169Y360313D01*
X314833Y360757D01*
X315277Y361421D01*
X315433Y362205D01*
X315613Y362385D01*
X316396Y362540D01*
X317060Y362984D01*
X317504Y363648D01*
X317660Y364432D01*
X317504Y365215D01*
X317060Y365879D01*
X316396Y366323D01*
X315613Y366479D01*
D02*
G37*
G36*
X220079Y363071D02*
X219295Y362915D01*
X218631Y362471D01*
X218187Y361807D01*
X218032Y361024D01*
X218187Y360240D01*
X218631Y359576D01*
X219295Y359132D01*
X220079Y358976D01*
X220862Y359132D01*
X221526Y359576D01*
X221970Y360240D01*
X222126Y361024D01*
X221970Y361807D01*
X221526Y362471D01*
X220862Y362915D01*
X220079Y363071D01*
D02*
G37*
G36*
X287402Y361890D02*
X286618Y361734D01*
X285954Y361290D01*
X285510Y360626D01*
X285354Y359842D01*
X285510Y359059D01*
X285954Y358395D01*
X286618Y357951D01*
X287402Y357795D01*
X288185Y357951D01*
X288849Y358395D01*
X289293Y359059D01*
X289449Y359842D01*
X289293Y360626D01*
X288849Y361290D01*
X288185Y361734D01*
X287402Y361890D01*
D02*
G37*
G36*
X282677Y361102D02*
X281894Y360947D01*
X281229Y360503D01*
X280786Y359839D01*
X280630Y359055D01*
X280786Y358272D01*
X281229Y357608D01*
X281894Y357164D01*
X282677Y357008D01*
X283461Y357164D01*
X284125Y357608D01*
X284569Y358272D01*
X284724Y359055D01*
X284569Y359839D01*
X284125Y360503D01*
X283461Y360947D01*
X282677Y361102D01*
D02*
G37*
G36*
X277558Y361102D02*
X276775Y360946D01*
X276111Y360502D01*
X275667Y359838D01*
X275511Y359054D01*
X275667Y358271D01*
X276111Y357607D01*
X276775Y357163D01*
X277558Y357007D01*
X278342Y357163D01*
X279006Y357607D01*
X279450Y358271D01*
X279606Y359054D01*
X279450Y359838D01*
X279006Y360502D01*
X278342Y360946D01*
X277558Y361102D01*
D02*
G37*
G36*
X420276Y360118D02*
X419492Y359962D01*
X418828Y359518D01*
X418384Y358854D01*
X418228Y358071D01*
X418384Y357287D01*
X418828Y356623D01*
X419492Y356179D01*
X420276Y356024D01*
X421059Y356179D01*
X421723Y356623D01*
X422167Y357287D01*
X422323Y358071D01*
X422167Y358854D01*
X421723Y359518D01*
X421059Y359962D01*
X420276Y360118D01*
D02*
G37*
G36*
X149016Y365385D02*
X147781Y365263D01*
X146593Y364903D01*
X145499Y364318D01*
X144540Y363531D01*
X143753Y362572D01*
X143168Y361477D01*
X142808Y360290D01*
X142686Y359055D01*
X142808Y357820D01*
X143168Y356633D01*
X143753Y355539D01*
X144540Y354579D01*
X145499Y353792D01*
X146593Y353207D01*
X147781Y352847D01*
X149016Y352725D01*
X150251Y352847D01*
X151438Y353207D01*
X152532Y353792D01*
X153491Y354579D01*
X154279Y355539D01*
X154864Y356633D01*
X155224Y357820D01*
X155345Y359055D01*
X155224Y360290D01*
X154864Y361477D01*
X154279Y362572D01*
X153491Y363531D01*
X152532Y364318D01*
X151438Y364903D01*
X150251Y365263D01*
X149016Y365385D01*
D02*
G37*
G36*
X449606Y356772D02*
X448823Y356616D01*
X448159Y356172D01*
X447715Y355508D01*
X447559Y354724D01*
X447715Y353941D01*
X448159Y353277D01*
X448823Y352833D01*
X449606Y352677D01*
X450390Y352833D01*
X451054Y353277D01*
X451498Y353941D01*
X451653Y354724D01*
X451498Y355508D01*
X451054Y356172D01*
X450390Y356616D01*
X449606Y356772D01*
D02*
G37*
G36*
X209232Y353228D02*
X208449Y353072D01*
X208025Y352789D01*
X207658Y352670D01*
X207291Y352789D01*
X206866Y353072D01*
X206083Y353228D01*
X205299Y353072D01*
X204635Y352629D01*
X204191Y351964D01*
X204035Y351181D01*
X204191Y350398D01*
X204635Y349733D01*
X205299Y349290D01*
X206083Y349134D01*
X206866Y349290D01*
X207291Y349573D01*
X207658Y349692D01*
X208025Y349573D01*
X208449Y349290D01*
X209232Y349134D01*
X210016Y349290D01*
X210680Y349733D01*
X211124Y350398D01*
X211280Y351181D01*
X211124Y351964D01*
X210680Y352629D01*
X210016Y353072D01*
X209232Y353228D01*
D02*
G37*
G36*
X420276Y353819D02*
X419492Y353663D01*
X418828Y353219D01*
X418384Y352555D01*
X418228Y351771D01*
X418384Y350988D01*
X418828Y350324D01*
X419492Y349880D01*
X420276Y349724D01*
X421059Y349880D01*
X421723Y350324D01*
X422167Y350988D01*
X422323Y351771D01*
X422167Y352555D01*
X421723Y353219D01*
X421059Y353663D01*
X420276Y353819D01*
D02*
G37*
G36*
X405905Y356772D02*
X405122Y356616D01*
X404458Y356172D01*
X404014Y355508D01*
X403858Y354724D01*
X404014Y353941D01*
X404298Y353517D01*
X404417Y353150D01*
X404298Y352783D01*
X404014Y352358D01*
X403858Y351575D01*
X404014Y350791D01*
X404458Y350127D01*
X405122Y349683D01*
X405905Y349528D01*
X406689Y349683D01*
X407353Y350127D01*
X407797Y350791D01*
X407953Y351575D01*
X407797Y352358D01*
X407513Y352783D01*
X407394Y353150D01*
X407513Y353517D01*
X407797Y353941D01*
X407953Y354724D01*
X407797Y355508D01*
X407353Y356172D01*
X406689Y356616D01*
X405905Y356772D01*
D02*
G37*
G36*
X225197Y353622D02*
X224413Y353466D01*
X223749Y353022D01*
X223306Y352358D01*
X223150Y351575D01*
X223306Y350791D01*
X223749Y350127D01*
X224413Y349683D01*
X225197Y349528D01*
X225980Y349683D01*
X226644Y350127D01*
X227088Y350791D01*
X227244Y351575D01*
X227088Y352358D01*
X226644Y353022D01*
X225980Y353466D01*
X225197Y353622D01*
D02*
G37*
G36*
X272441Y353228D02*
X271657Y353072D01*
X270993Y352629D01*
X270550Y351964D01*
X270394Y351181D01*
X270550Y350398D01*
X270993Y349733D01*
X271657Y349290D01*
X272441Y349134D01*
X273224Y349290D01*
X273888Y349733D01*
X274332Y350398D01*
X274488Y351181D01*
X274332Y351964D01*
X273888Y352629D01*
X273224Y353072D01*
X272441Y353228D01*
D02*
G37*
G36*
X98976Y351966D02*
X97550Y351779D01*
X96222Y351228D01*
X95080Y350353D01*
X94205Y349212D01*
X93654Y347883D01*
X93534Y346965D01*
X93029D01*
X92956Y347523D01*
X92544Y348517D01*
X91890Y349370D01*
X91036Y350025D01*
X90043Y350436D01*
X89567Y350499D01*
Y346457D01*
Y342415D01*
X90043Y342477D01*
X91036Y342889D01*
X91890Y343544D01*
X92544Y344397D01*
X92956Y345390D01*
X93029Y345948D01*
X93534D01*
X93654Y345031D01*
X94205Y343702D01*
X95080Y342561D01*
X96222Y341685D01*
X97550Y341135D01*
X98976Y340947D01*
X100402Y341135D01*
X101731Y341685D01*
X102872Y342561D01*
X103748Y343702D01*
X104298Y345031D01*
X104486Y346457D01*
X104298Y347883D01*
X103748Y349212D01*
X102872Y350353D01*
X101731Y351228D01*
X100402Y351779D01*
X98976Y351966D01*
D02*
G37*
G36*
X358514Y348799D02*
X357730Y348643D01*
X357066Y348200D01*
X356622Y347535D01*
X356467Y346752D01*
X356622Y345969D01*
X357066Y345304D01*
X357730Y344861D01*
X358514Y344705D01*
X359297Y344861D01*
X359961Y345304D01*
X360405Y345969D01*
X360561Y346752D01*
X360405Y347535D01*
X359961Y348200D01*
X359297Y348643D01*
X358514Y348799D01*
D02*
G37*
G36*
X420276Y347913D02*
X419492Y347757D01*
X418828Y347314D01*
X418384Y346649D01*
X418228Y345866D01*
X418384Y345083D01*
X418828Y344418D01*
X419492Y343975D01*
X420276Y343819D01*
X421059Y343975D01*
X421723Y344418D01*
X422167Y345083D01*
X422323Y345866D01*
X422167Y346649D01*
X421723Y347314D01*
X421059Y347757D01*
X420276Y347913D01*
D02*
G37*
G36*
X78976Y351966D02*
X77550Y351779D01*
X76222Y351228D01*
X75080Y350353D01*
X74205Y349212D01*
X73654Y347883D01*
X73467Y346457D01*
X73654Y345031D01*
X74205Y343702D01*
X75080Y342561D01*
X76222Y341685D01*
X77550Y341135D01*
X78976Y340947D01*
X80402Y341135D01*
X81731Y341685D01*
X82872Y342561D01*
X83748Y343702D01*
X84298Y345031D01*
X84419Y345948D01*
X84923D01*
X84997Y345390D01*
X85409Y344397D01*
X86063Y343544D01*
X86916Y342889D01*
X87910Y342477D01*
X88386Y342415D01*
Y346457D01*
Y350499D01*
X87910Y350436D01*
X86916Y350025D01*
X86063Y349370D01*
X85409Y348517D01*
X84997Y347523D01*
X84923Y346965D01*
X84419D01*
X84298Y347883D01*
X83748Y349212D01*
X82872Y350353D01*
X81731Y351228D01*
X80402Y351779D01*
X78976Y351966D01*
D02*
G37*
G36*
X270079Y346142D02*
X269295Y345986D01*
X268631Y345542D01*
X268187Y344878D01*
X268032Y344094D01*
X268187Y343311D01*
X268631Y342647D01*
X269295Y342203D01*
X270079Y342047D01*
X270862Y342203D01*
X271526Y342647D01*
X271970Y343311D01*
X272126Y344094D01*
X271970Y344878D01*
X271526Y345542D01*
X270862Y345986D01*
X270079Y346142D01*
D02*
G37*
G36*
X221260D02*
X220477Y345986D01*
X219812Y345542D01*
X219369Y344878D01*
X219213Y344094D01*
X219369Y343311D01*
X219812Y342647D01*
X220477Y342203D01*
X221260Y342047D01*
X222043Y342203D01*
X222708Y342647D01*
X223151Y343311D01*
X223307Y344094D01*
X223151Y344878D01*
X222708Y345542D01*
X222043Y345986D01*
X221260Y346142D01*
D02*
G37*
G36*
X450000Y344567D02*
X449217Y344411D01*
X448552Y343967D01*
X448109Y343303D01*
X447953Y342520D01*
X448109Y341736D01*
X448552Y341072D01*
X449217Y340628D01*
X450000Y340473D01*
X450783Y340628D01*
X451448Y341072D01*
X451891Y341736D01*
X452047Y342520D01*
X451891Y343303D01*
X451448Y343967D01*
X450783Y344411D01*
X450000Y344567D01*
D02*
G37*
G36*
X212205Y341811D02*
X211421Y341655D01*
X210757Y341211D01*
X210313Y340547D01*
X210157Y339764D01*
X210313Y338980D01*
X210757Y338316D01*
X211421Y337872D01*
X212205Y337717D01*
X212988Y337872D01*
X213652Y338316D01*
X214096Y338980D01*
X214252Y339764D01*
X214096Y340547D01*
X213652Y341211D01*
X212988Y341655D01*
X212205Y341811D01*
D02*
G37*
G36*
X420276Y341614D02*
X419492Y341458D01*
X418828Y341014D01*
X418384Y340350D01*
X418228Y339567D01*
X418384Y338783D01*
X418828Y338119D01*
X419492Y337675D01*
X420276Y337520D01*
X421059Y337675D01*
X421723Y338119D01*
X422167Y338783D01*
X422323Y339567D01*
X422167Y340350D01*
X421723Y341014D01*
X421059Y341458D01*
X420276Y341614D01*
D02*
G37*
G36*
X274803Y337874D02*
X274020Y337718D01*
X273356Y337274D01*
X272912Y336610D01*
X272756Y335827D01*
X272912Y335043D01*
X273356Y334379D01*
X274020Y333935D01*
X274803Y333780D01*
X275587Y333935D01*
X276251Y334379D01*
X276694Y335043D01*
X276850Y335827D01*
X276694Y336610D01*
X276251Y337274D01*
X275587Y337718D01*
X274803Y337874D01*
D02*
G37*
G36*
X301599Y333937D02*
X300815Y333781D01*
X300391Y333498D01*
X300024Y333379D01*
X299657Y333498D01*
X299232Y333781D01*
X298449Y333937D01*
X297666Y333781D01*
X297001Y333337D01*
X296558Y332673D01*
X296402Y331890D01*
X296558Y331106D01*
X297001Y330442D01*
X297666Y329998D01*
X298449Y329842D01*
X299232Y329998D01*
X299657Y330282D01*
X300024Y330401D01*
X300391Y330282D01*
X300815Y329998D01*
X301599Y329842D01*
X302382Y329998D01*
X303046Y330442D01*
X303490Y331106D01*
X303646Y331890D01*
X303490Y332673D01*
X303046Y333337D01*
X302382Y333781D01*
X301599Y333937D01*
D02*
G37*
G36*
X420276Y335708D02*
X419492Y335553D01*
X418828Y335109D01*
X418384Y334445D01*
X418228Y333661D01*
X418384Y332878D01*
X418828Y332214D01*
X419492Y331770D01*
X420276Y331614D01*
X421059Y331770D01*
X421723Y332214D01*
X422167Y332878D01*
X422323Y333661D01*
X422167Y334445D01*
X421723Y335109D01*
X421059Y335553D01*
X420276Y335708D01*
D02*
G37*
G36*
X209842Y335118D02*
X209059Y334962D01*
X208395Y334519D01*
X207951Y333854D01*
X207795Y333071D01*
X207951Y332287D01*
X208395Y331623D01*
X209059Y331179D01*
X209842Y331024D01*
X210626Y331179D01*
X211290Y331623D01*
X211734Y332287D01*
X211890Y333071D01*
X211734Y333854D01*
X211290Y334519D01*
X210626Y334962D01*
X209842Y335118D01*
D02*
G37*
G36*
X292520Y333937D02*
X291736Y333781D01*
X291072Y333337D01*
X290628Y332673D01*
X290473Y331890D01*
X290628Y331106D01*
X291072Y330442D01*
X291736Y329998D01*
X292520Y329843D01*
X293303Y329998D01*
X293967Y330442D01*
X294411Y331106D01*
X294567Y331890D01*
X294411Y332673D01*
X293967Y333337D01*
X293303Y333781D01*
X292520Y333937D01*
D02*
G37*
G36*
X272441D02*
X271657Y333781D01*
X270993Y333337D01*
X270550Y332673D01*
X270394Y331890D01*
X270550Y331106D01*
X270993Y330442D01*
X271657Y329998D01*
X272441Y329843D01*
X273224Y329998D01*
X273888Y330442D01*
X274332Y331106D01*
X274488Y331890D01*
X274332Y332673D01*
X273888Y333337D01*
X273224Y333781D01*
X272441Y333937D01*
D02*
G37*
G36*
X205118D02*
X204335Y333781D01*
X203671Y333337D01*
X203227Y332673D01*
X203071Y331890D01*
X203227Y331106D01*
X203671Y330442D01*
X204335Y329998D01*
X205118Y329843D01*
X205902Y329998D01*
X206566Y330442D01*
X207010Y331106D01*
X207165Y331890D01*
X207010Y332673D01*
X206566Y333337D01*
X205902Y333781D01*
X205118Y333937D01*
D02*
G37*
G36*
X220079Y333937D02*
X219295Y333781D01*
X218631Y333337D01*
X218187Y332673D01*
X218032Y331890D01*
X218187Y331106D01*
X218631Y330442D01*
X219295Y329998D01*
X220079Y329842D01*
X220862Y329998D01*
X221526Y330442D01*
X221970Y331106D01*
X222126Y331890D01*
X221970Y332673D01*
X221526Y333337D01*
X220862Y333781D01*
X220079Y333937D01*
D02*
G37*
G36*
X420276Y329409D02*
X419492Y329254D01*
X418828Y328810D01*
X418384Y328146D01*
X418228Y327362D01*
X418384Y326579D01*
X418828Y325915D01*
X419492Y325471D01*
X420276Y325315D01*
X421059Y325471D01*
X421723Y325915D01*
X422167Y326579D01*
X422323Y327362D01*
X422167Y328146D01*
X421723Y328810D01*
X421059Y329254D01*
X420276Y329409D01*
D02*
G37*
G36*
X391339Y328819D02*
X390555Y328663D01*
X389891Y328219D01*
X389447Y327555D01*
X389291Y326772D01*
X389447Y325988D01*
X389891Y325324D01*
X390555Y324880D01*
X391339Y324724D01*
X392122Y324880D01*
X392786Y325324D01*
X393230Y325988D01*
X393386Y326772D01*
X393230Y327555D01*
X392786Y328219D01*
X392122Y328663D01*
X391339Y328819D01*
D02*
G37*
G36*
X368898Y328425D02*
X368114Y328269D01*
X367450Y327826D01*
X367006Y327161D01*
X366850Y326378D01*
X367006Y325594D01*
X367450Y324930D01*
X368114Y324487D01*
X368898Y324331D01*
X369681Y324487D01*
X370345Y324930D01*
X370789Y325594D01*
X370945Y326378D01*
X370789Y327161D01*
X370345Y327826D01*
X369681Y328269D01*
X368898Y328425D01*
D02*
G37*
G36*
X357480Y328031D02*
X356697Y327876D01*
X356033Y327432D01*
X355589Y326768D01*
X355433Y325984D01*
X355589Y325201D01*
X356033Y324537D01*
X356697Y324093D01*
X357480Y323937D01*
X358264Y324093D01*
X358928Y324537D01*
X359372Y325201D01*
X359527Y325984D01*
X359372Y326768D01*
X358928Y327432D01*
X358264Y327876D01*
X357480Y328031D01*
D02*
G37*
G36*
X214232Y323701D02*
X213449Y323545D01*
X212785Y323101D01*
X212471D01*
X211807Y323545D01*
X211023Y323701D01*
X210240Y323545D01*
X209576Y323101D01*
X209132Y322437D01*
X208976Y321654D01*
X209132Y320870D01*
X209576Y320206D01*
X210240Y319762D01*
X211023Y319606D01*
X211807Y319762D01*
X212471Y320206D01*
X212785D01*
X213449Y319762D01*
X214232Y319606D01*
X215016Y319762D01*
X215680Y320206D01*
X216124Y320870D01*
X216280Y321654D01*
X216124Y322437D01*
X215680Y323101D01*
X215016Y323545D01*
X214232Y323701D01*
D02*
G37*
G36*
X364035Y326201D02*
X363252Y326045D01*
X362588Y325601D01*
X362144Y324937D01*
X361988Y324154D01*
X362144Y323370D01*
X362588Y322706D01*
X363252Y322262D01*
X364035Y322106D01*
X364819Y322262D01*
X365483Y322706D01*
X365927Y323370D01*
X366083Y324154D01*
X365927Y324937D01*
X365483Y325601D01*
X364819Y326045D01*
X364035Y326201D01*
D02*
G37*
G36*
X302524Y326165D02*
X301740Y326010D01*
X301076Y325566D01*
X300632Y324902D01*
X300477Y324118D01*
X300632Y323335D01*
X301076Y322671D01*
X301740Y322227D01*
X302524Y322071D01*
X303307Y322227D01*
X303971Y322671D01*
X304415Y323335D01*
X304571Y324118D01*
X304415Y324902D01*
X303971Y325566D01*
X303307Y326010D01*
X302524Y326165D01*
D02*
G37*
G36*
X225197Y326063D02*
X224413Y325907D01*
X223749Y325463D01*
X223306Y324799D01*
X223150Y324016D01*
X223306Y323232D01*
X223749Y322568D01*
X224413Y322124D01*
X225197Y321969D01*
X225980Y322124D01*
X226644Y322568D01*
X227088Y323232D01*
X227244Y324016D01*
X227088Y324799D01*
X226644Y325463D01*
X225980Y325907D01*
X225197Y326063D01*
D02*
G37*
G36*
X282677Y326062D02*
X281893Y325906D01*
X281229Y325463D01*
X280785Y324798D01*
X280629Y324015D01*
X280785Y323232D01*
X281229Y322567D01*
X281893Y322124D01*
X282677Y321968D01*
X283460Y322124D01*
X284124Y322567D01*
X284568Y323232D01*
X284724Y324015D01*
X284568Y324798D01*
X284124Y325463D01*
X283460Y325906D01*
X282677Y326062D01*
D02*
G37*
G36*
X205118Y324882D02*
X204335Y324726D01*
X203671Y324282D01*
X203227Y323618D01*
X203071Y322835D01*
X203227Y322051D01*
X203671Y321387D01*
X204335Y320943D01*
X205118Y320787D01*
X205902Y320943D01*
X206566Y321387D01*
X207010Y322051D01*
X207165Y322835D01*
X207010Y323618D01*
X206566Y324282D01*
X205902Y324726D01*
X205118Y324882D01*
D02*
G37*
G36*
X452362Y324488D02*
X451579Y324332D01*
X450915Y323888D01*
X450471Y323224D01*
X450315Y322441D01*
X450471Y321657D01*
X450915Y320993D01*
X451579Y320550D01*
X452362Y320394D01*
X453146Y320550D01*
X453810Y320993D01*
X454254Y321657D01*
X454409Y322441D01*
X454254Y323224D01*
X453810Y323888D01*
X453146Y324332D01*
X452362Y324488D01*
D02*
G37*
G36*
X297638Y324095D02*
X296854Y323939D01*
X296190Y323495D01*
X295746Y322831D01*
X295591Y322047D01*
X295746Y321264D01*
X296190Y320600D01*
X296854Y320156D01*
X297638Y320000D01*
X298421Y320156D01*
X299085Y320600D01*
X299529Y321264D01*
X299685Y322047D01*
X299529Y322831D01*
X299085Y323495D01*
X298421Y323939D01*
X297638Y324095D01*
D02*
G37*
G36*
X420276Y323504D02*
X419492Y323348D01*
X418828Y322904D01*
X418384Y322240D01*
X418228Y321457D01*
X418384Y320673D01*
X418828Y320009D01*
X419492Y319565D01*
X420276Y319409D01*
X421059Y319565D01*
X421723Y320009D01*
X422167Y320673D01*
X422323Y321457D01*
X422167Y322240D01*
X421723Y322904D01*
X421059Y323348D01*
X420276Y323504D01*
D02*
G37*
G36*
X282677Y321339D02*
X281893Y321183D01*
X281229Y320739D01*
X280785Y320075D01*
X280629Y319291D01*
X280785Y318508D01*
X281229Y317844D01*
X281893Y317400D01*
X282677Y317244D01*
X283460Y317400D01*
X284124Y317844D01*
X284568Y318508D01*
X284724Y319291D01*
X284568Y320075D01*
X284124Y320739D01*
X283460Y321183D01*
X282677Y321339D01*
D02*
G37*
G36*
X339370Y318189D02*
X338587Y318033D01*
X337923Y317589D01*
X337479Y316925D01*
X337323Y316142D01*
X337479Y315358D01*
X337923Y314694D01*
X338587Y314250D01*
X339370Y314094D01*
X340154Y314250D01*
X340818Y314694D01*
X340929Y314861D01*
X341059Y314889D01*
X341508Y314827D01*
X341860Y314300D01*
X342524Y313857D01*
X343307Y313701D01*
X344091Y313857D01*
X344755Y314300D01*
X345198Y314965D01*
X345354Y315748D01*
X345198Y316531D01*
X344755Y317196D01*
X344091Y317639D01*
X343307Y317795D01*
X342524Y317639D01*
X341860Y317196D01*
X341748Y317029D01*
X341618Y317001D01*
X341169Y317063D01*
X340818Y317589D01*
X340154Y318033D01*
X339370Y318189D01*
D02*
G37*
G36*
X296850Y314252D02*
X296067Y314096D01*
X295643Y313813D01*
X295275Y313694D01*
X294908Y313813D01*
X294484Y314096D01*
X293701Y314252D01*
X292917Y314096D01*
X292253Y313652D01*
X291809Y312988D01*
X291653Y312205D01*
X291809Y311421D01*
X292253Y310757D01*
X292917Y310313D01*
X293701Y310158D01*
X294484Y310313D01*
X295148Y310757D01*
X295403D01*
X296067Y310313D01*
X296850Y310158D01*
X297634Y310313D01*
X298298Y310757D01*
X298742Y311421D01*
X298898Y312205D01*
X298742Y312988D01*
X298298Y313652D01*
X297634Y314096D01*
X296850Y314252D01*
D02*
G37*
G36*
X277952Y317401D02*
X277169Y317245D01*
X276504Y316801D01*
X276061Y316137D01*
X275905Y315354D01*
X276061Y314570D01*
X276504Y313906D01*
X277169Y313462D01*
X277952Y313306D01*
X278736Y313462D01*
X279400Y313906D01*
X279843Y314570D01*
X279999Y315354D01*
X279843Y316137D01*
X279400Y316801D01*
X278736Y317245D01*
X277952Y317401D01*
D02*
G37*
G36*
X420276Y317205D02*
X419492Y317049D01*
X418828Y316605D01*
X418384Y315941D01*
X418228Y315157D01*
X418384Y314374D01*
X418828Y313710D01*
X419492Y313266D01*
X420276Y313110D01*
X421059Y313266D01*
X421723Y313710D01*
X422167Y314374D01*
X422323Y315157D01*
X422167Y315941D01*
X421723Y316605D01*
X421059Y317049D01*
X420276Y317205D01*
D02*
G37*
G36*
X277558Y312676D02*
X276775Y312521D01*
X276111Y312077D01*
X275667Y311413D01*
X275511Y310629D01*
X275667Y309846D01*
X276111Y309182D01*
X276775Y308738D01*
X277558Y308582D01*
X278342Y308738D01*
X279006Y309182D01*
X279450Y309846D01*
X279606Y310629D01*
X279450Y311413D01*
X279006Y312077D01*
X278342Y312521D01*
X277558Y312676D01*
D02*
G37*
G36*
X420276Y311299D02*
X419492Y311143D01*
X418828Y310700D01*
X418384Y310035D01*
X418228Y309252D01*
X418384Y308468D01*
X418828Y307804D01*
X419492Y307361D01*
X420276Y307205D01*
X421059Y307361D01*
X421723Y307804D01*
X422167Y308468D01*
X422323Y309252D01*
X422167Y310035D01*
X421723Y310700D01*
X421059Y311143D01*
X420276Y311299D01*
D02*
G37*
G36*
X209311Y304409D02*
X208527Y304254D01*
X208103Y303970D01*
X207736Y303851D01*
X207369Y303970D01*
X206945Y304254D01*
X206161Y304409D01*
X205378Y304254D01*
X204714Y303810D01*
X204270Y303146D01*
X204114Y302362D01*
X204270Y301579D01*
X204714Y300915D01*
X205378Y300471D01*
X206161Y300315D01*
X206945Y300471D01*
X207369Y300754D01*
X207736Y300873D01*
X208103Y300754D01*
X208527Y300471D01*
X209311Y300315D01*
X210094Y300471D01*
X210758Y300915D01*
X211202Y301579D01*
X211358Y302362D01*
X211202Y303146D01*
X210758Y303810D01*
X210094Y304254D01*
X209311Y304409D01*
D02*
G37*
G36*
X420276Y305000D02*
X419492Y304844D01*
X418828Y304400D01*
X418384Y303736D01*
X418228Y302953D01*
X418384Y302169D01*
X418828Y301505D01*
X419492Y301061D01*
X420276Y300905D01*
X421059Y301061D01*
X421723Y301505D01*
X422167Y302169D01*
X422323Y302953D01*
X422167Y303736D01*
X421723Y304400D01*
X421059Y304844D01*
X420276Y305000D01*
D02*
G37*
G36*
X272441Y304409D02*
X271657Y304254D01*
X270993Y303810D01*
X270550Y303146D01*
X270394Y302362D01*
X270550Y301579D01*
X270993Y300915D01*
X271657Y300471D01*
X272441Y300315D01*
X273224Y300471D01*
X273888Y300915D01*
X274332Y301579D01*
X274488Y302362D01*
X274332Y303146D01*
X273888Y303810D01*
X273224Y304254D01*
X272441Y304409D01*
D02*
G37*
G36*
X225197D02*
X224413Y304254D01*
X223749Y303810D01*
X223306Y303146D01*
X223150Y302362D01*
X223306Y301579D01*
X223749Y300915D01*
X224413Y300471D01*
X225197Y300315D01*
X225980Y300471D01*
X226644Y300915D01*
X227088Y301579D01*
X227244Y302362D01*
X227088Y303146D01*
X226644Y303810D01*
X225980Y304254D01*
X225197Y304409D01*
D02*
G37*
G36*
X220079Y304409D02*
X219295Y304254D01*
X218631Y303810D01*
X218187Y303146D01*
X218032Y302362D01*
X218187Y301579D01*
X218631Y300915D01*
X219295Y300471D01*
X220079Y300315D01*
X220862Y300471D01*
X221526Y300915D01*
X221970Y301579D01*
X222126Y302362D01*
X221970Y303146D01*
X221526Y303810D01*
X220862Y304254D01*
X220079Y304409D01*
D02*
G37*
G36*
X420276Y299094D02*
X419492Y298938D01*
X418828Y298495D01*
X418384Y297831D01*
X418228Y297047D01*
X418384Y296264D01*
X418828Y295600D01*
X419492Y295156D01*
X420276Y295000D01*
X421059Y295156D01*
X421723Y295600D01*
X422167Y296264D01*
X422323Y297047D01*
X422167Y297831D01*
X421723Y298495D01*
X421059Y298938D01*
X420276Y299094D01*
D02*
G37*
G36*
X16142Y307117D02*
X14907Y306996D01*
X13720Y306635D01*
X12625Y306050D01*
X11666Y305263D01*
X10879Y304304D01*
X10294Y303210D01*
X9934Y302022D01*
X9812Y300787D01*
X9934Y299552D01*
X10294Y298365D01*
X10879Y297271D01*
X11666Y296312D01*
X12625Y295525D01*
X13720Y294939D01*
X14907Y294579D01*
X16142Y294458D01*
X17377Y294579D01*
X18564Y294939D01*
X19658Y295525D01*
X20617Y296312D01*
X21405Y297271D01*
X21990Y298365D01*
X22350Y299552D01*
X22471Y300787D01*
X22350Y302022D01*
X21990Y303210D01*
X21405Y304304D01*
X20617Y305263D01*
X19658Y306050D01*
X18564Y306635D01*
X17377Y306996D01*
X16142Y307117D01*
D02*
G37*
G36*
X437007Y297716D02*
X436224Y297560D01*
X435559Y297116D01*
X435116Y296452D01*
X434960Y295669D01*
X435116Y294885D01*
X435559Y294221D01*
X436224Y293777D01*
X437007Y293621D01*
X437790Y293777D01*
X438455Y294221D01*
X438898Y294885D01*
X439054Y295669D01*
X438898Y296452D01*
X438455Y297116D01*
X437790Y297560D01*
X437007Y297716D01*
D02*
G37*
G36*
X270473Y296535D02*
X269689Y296380D01*
X269025Y295936D01*
X268581Y295272D01*
X268425Y294488D01*
X268581Y293705D01*
X269025Y293041D01*
X269689Y292597D01*
X270473Y292441D01*
X271256Y292597D01*
X271920Y293041D01*
X272364Y293705D01*
X272520Y294488D01*
X272364Y295272D01*
X271920Y295936D01*
X271256Y296380D01*
X270473Y296535D01*
D02*
G37*
G36*
X223228D02*
X222445Y296380D01*
X221781Y295936D01*
X221337Y295272D01*
X221181Y294488D01*
X221337Y293705D01*
X221781Y293041D01*
X222445Y292597D01*
X223228Y292441D01*
X224012Y292597D01*
X224676Y293041D01*
X225120Y293705D01*
X225276Y294488D01*
X225120Y295272D01*
X224676Y295936D01*
X224012Y296380D01*
X223228Y296535D01*
D02*
G37*
G36*
X384350Y295157D02*
X383567Y295001D01*
X382903Y294558D01*
X382459Y293893D01*
X382303Y293110D01*
X382459Y292327D01*
X382903Y291662D01*
X383567Y291219D01*
X384350Y291063D01*
X385134Y291219D01*
X385798Y291662D01*
X386242Y292327D01*
X386398Y293110D01*
X386242Y293893D01*
X385798Y294558D01*
X385134Y295001D01*
X384350Y295157D01*
D02*
G37*
G36*
X218504Y292992D02*
X217721Y292836D01*
X217056Y292392D01*
X216613Y291728D01*
X216457Y290945D01*
X216613Y290161D01*
X217056Y289497D01*
X217721Y289053D01*
X218504Y288898D01*
X219287Y289053D01*
X219952Y289497D01*
X220395Y290161D01*
X220551Y290945D01*
X220395Y291728D01*
X219952Y292392D01*
X219287Y292836D01*
X218504Y292992D01*
D02*
G37*
G36*
X325787Y293075D02*
Y288779D01*
X330083D01*
X329991Y289474D01*
X329496Y290671D01*
X328707Y291699D01*
X327679Y292488D01*
X326482Y292984D01*
X325787Y293075D01*
D02*
G37*
G36*
X324606D02*
X323912Y292984D01*
X322715Y292488D01*
X321687Y291699D01*
X320898Y290671D01*
X320402Y289474D01*
X320311Y288779D01*
X324606D01*
Y293075D01*
D02*
G37*
G36*
X420276Y292795D02*
X419492Y292639D01*
X418828Y292196D01*
X418384Y291531D01*
X418228Y290748D01*
X418384Y289965D01*
X418828Y289300D01*
X419492Y288857D01*
X420276Y288701D01*
X421059Y288857D01*
X421723Y289300D01*
X422167Y289965D01*
X422323Y290748D01*
X422167Y291531D01*
X421723Y292196D01*
X421059Y292639D01*
X420276Y292795D01*
D02*
G37*
G36*
X91535Y292402D02*
X90752Y292246D01*
X90088Y291802D01*
X89644Y291138D01*
X89488Y290354D01*
X89644Y289571D01*
X90088Y288907D01*
X90752Y288463D01*
X91535Y288307D01*
X92319Y288463D01*
X92983Y288907D01*
X93427Y289571D01*
X93583Y290354D01*
X93427Y291138D01*
X92983Y291802D01*
X92319Y292246D01*
X91535Y292402D01*
D02*
G37*
G36*
X453543Y287874D02*
X452760Y287718D01*
X452096Y287274D01*
X451652Y286610D01*
X451496Y285827D01*
X451652Y285043D01*
X452096Y284379D01*
X452760Y283935D01*
X453543Y283780D01*
X454327Y283935D01*
X454991Y284379D01*
X455435Y285043D01*
X455590Y285827D01*
X455435Y286610D01*
X454991Y287274D01*
X454327Y287718D01*
X453543Y287874D01*
D02*
G37*
G36*
X330083Y287598D02*
X325787D01*
Y283303D01*
X326482Y283394D01*
X327679Y283890D01*
X328707Y284679D01*
X329496Y285707D01*
X329991Y286904D01*
X330083Y287598D01*
D02*
G37*
G36*
X324606D02*
X320311D01*
X320402Y286904D01*
X320898Y285707D01*
X321687Y284679D01*
X322715Y283890D01*
X323912Y283394D01*
X324606Y283303D01*
Y287598D01*
D02*
G37*
G36*
X523559Y286602D02*
Y283252D01*
X526909D01*
X526850Y283701D01*
X526449Y284671D01*
X525810Y285503D01*
X524978Y286142D01*
X524009Y286543D01*
X523559Y286602D01*
D02*
G37*
G36*
X522378Y286602D02*
X521928Y286543D01*
X520959Y286142D01*
X520127Y285503D01*
X519488Y284671D01*
X519087Y283701D01*
X519028Y283252D01*
X522378D01*
Y286602D01*
D02*
G37*
G36*
X420276Y286890D02*
X419492Y286734D01*
X418828Y286290D01*
X418384Y285626D01*
X418228Y284842D01*
X418384Y284059D01*
X418828Y283395D01*
X419492Y282951D01*
X420276Y282795D01*
X421059Y282951D01*
X421723Y283395D01*
X422167Y284059D01*
X422323Y284842D01*
X422167Y285626D01*
X421723Y286290D01*
X421059Y286734D01*
X420276Y286890D01*
D02*
G37*
G36*
X224803Y286415D02*
X224019Y286259D01*
X223355Y285816D01*
X222911Y285151D01*
X222756Y284368D01*
X222911Y283585D01*
X223355Y282920D01*
X224019Y282477D01*
X224803Y282321D01*
X225586Y282477D01*
X226250Y282920D01*
X226694Y283585D01*
X226850Y284368D01*
X226694Y285151D01*
X226250Y285816D01*
X225586Y286259D01*
X224803Y286415D01*
D02*
G37*
G36*
X272441Y285905D02*
X271657Y285750D01*
X270993Y285306D01*
X270550Y284642D01*
X270394Y283858D01*
X270550Y283075D01*
X270993Y282411D01*
X271657Y281967D01*
X272441Y281811D01*
X273224Y281967D01*
X273888Y282411D01*
X274332Y283075D01*
X274488Y283858D01*
X274332Y284642D01*
X273888Y285306D01*
X273224Y285750D01*
X272441Y285905D01*
D02*
G37*
G36*
X220079D02*
X219295Y285750D01*
X218631Y285306D01*
X218187Y284642D01*
X218032Y283858D01*
X218187Y283075D01*
X218631Y282411D01*
X219295Y281967D01*
X220079Y281811D01*
X220862Y281967D01*
X221526Y282411D01*
X221970Y283075D01*
X222126Y283858D01*
X221970Y284642D01*
X221526Y285306D01*
X220862Y285750D01*
X220079Y285905D01*
D02*
G37*
G36*
X205118D02*
X204335Y285750D01*
X203671Y285306D01*
X203227Y284642D01*
X203071Y283858D01*
X203227Y283075D01*
X203671Y282411D01*
X204335Y281967D01*
X205118Y281811D01*
X205902Y281967D01*
X206566Y282411D01*
X207010Y283075D01*
X207165Y283858D01*
X207010Y284642D01*
X206566Y285306D01*
X205902Y285750D01*
X205118Y285905D01*
D02*
G37*
G36*
X292520Y285512D02*
X291736Y285356D01*
X291072Y284912D01*
X290628Y284248D01*
X290473Y283465D01*
X290628Y282681D01*
X291072Y282017D01*
X291736Y281573D01*
X292520Y281417D01*
X293303Y281573D01*
X293967Y282017D01*
X294411Y282681D01*
X294567Y283465D01*
X294411Y284248D01*
X293967Y284912D01*
X293303Y285356D01*
X292520Y285512D01*
D02*
G37*
G36*
X522378Y282071D02*
X519028D01*
X519087Y281621D01*
X519488Y280652D01*
X520127Y279820D01*
X520959Y279181D01*
X521928Y278780D01*
X522378Y278720D01*
Y282071D01*
D02*
G37*
G36*
X526909D02*
X523559D01*
Y278720D01*
X524009Y278780D01*
X524978Y279181D01*
X525810Y279820D01*
X526449Y280652D01*
X526850Y281621D01*
X526909Y282071D01*
D02*
G37*
G36*
X358268Y281968D02*
X357484Y281813D01*
X356820Y281369D01*
X356376Y280705D01*
X356221Y279921D01*
X356376Y279138D01*
X356820Y278474D01*
X357484Y278030D01*
X358268Y277874D01*
X359051Y278030D01*
X359715Y278474D01*
X360159Y279138D01*
X360315Y279921D01*
X360159Y280705D01*
X359715Y281369D01*
X359051Y281813D01*
X358268Y281968D01*
D02*
G37*
G36*
X420276Y280590D02*
X419492Y280435D01*
X418828Y279991D01*
X418384Y279327D01*
X418228Y278543D01*
X418384Y277760D01*
X418828Y277096D01*
X419492Y276652D01*
X420276Y276496D01*
X421059Y276652D01*
X421723Y277096D01*
X422167Y277760D01*
X422323Y278543D01*
X422167Y279327D01*
X421723Y279991D01*
X421059Y280435D01*
X420276Y280590D01*
D02*
G37*
G36*
X51635Y280360D02*
X50852Y280204D01*
X50187Y279760D01*
X49744Y279096D01*
X49588Y278313D01*
X49744Y277529D01*
X50187Y276865D01*
X50852Y276421D01*
X51635Y276266D01*
X52418Y276421D01*
X53083Y276865D01*
X53526Y277529D01*
X53682Y278313D01*
X53526Y279096D01*
X53083Y279760D01*
X52418Y280204D01*
X51635Y280360D01*
D02*
G37*
G36*
X-25984Y276063D02*
X-26768Y275907D01*
X-27432Y275463D01*
X-27686D01*
X-28350Y275907D01*
X-29134Y276063D01*
X-29917Y275907D01*
X-30512Y275510D01*
X-31106Y275907D01*
X-31890Y276063D01*
X-32673Y275907D01*
X-33268Y275510D01*
X-33862Y275907D01*
X-34646Y276063D01*
X-35429Y275907D01*
X-35902Y275591D01*
X-36321Y275872D01*
X-37104Y276027D01*
X-37888Y275872D01*
X-38407Y275524D01*
X-38980Y275907D01*
X-39764Y276063D01*
X-40547Y275907D01*
X-41211Y275463D01*
X-41655Y274799D01*
X-41811Y274016D01*
X-41655Y273232D01*
X-41211Y272568D01*
X-40547Y272124D01*
X-39764Y271969D01*
X-38980Y272124D01*
X-38461Y272472D01*
X-37888Y272089D01*
X-37104Y271933D01*
X-36321Y272089D01*
X-35849Y272405D01*
X-35429Y272124D01*
X-34646Y271969D01*
X-33862Y272124D01*
X-33268Y272522D01*
X-32673Y272124D01*
X-31890Y271969D01*
X-31106Y272124D01*
X-30512Y272522D01*
X-29917Y272124D01*
X-29134Y271969D01*
X-28350Y272124D01*
X-27686Y272568D01*
X-27432D01*
X-26768Y272124D01*
X-25984Y271969D01*
X-25201Y272124D01*
X-24537Y272568D01*
X-24093Y273232D01*
X-23937Y274016D01*
X-24093Y274799D01*
X-24537Y275463D01*
X-25201Y275907D01*
X-25984Y276063D01*
D02*
G37*
G36*
X214232Y275276D02*
X213449Y275120D01*
X212785Y274676D01*
X212681Y274521D01*
X212181D01*
X212077Y274676D01*
X211413Y275120D01*
X210630Y275276D01*
X209846Y275120D01*
X209182Y274676D01*
X208739Y274012D01*
X208583Y273228D01*
X208739Y272445D01*
X209182Y271781D01*
X209846Y271337D01*
X210630Y271181D01*
X211413Y271337D01*
X212077Y271781D01*
X212181Y271936D01*
X212681D01*
X212785Y271781D01*
X213449Y271337D01*
X214232Y271181D01*
X215016Y271337D01*
X215680Y271781D01*
X216124Y272445D01*
X216280Y273228D01*
X216124Y274012D01*
X215680Y274676D01*
X215016Y275120D01*
X214232Y275276D01*
D02*
G37*
G36*
X302362Y277638D02*
X301579Y277482D01*
X300915Y277038D01*
X300471Y276374D01*
X300315Y275590D01*
X300471Y274807D01*
X300915Y274143D01*
X301579Y273699D01*
X302362Y273543D01*
X303146Y273699D01*
X303810Y274143D01*
X304254Y274807D01*
X304409Y275590D01*
X304254Y276374D01*
X303810Y277038D01*
X303146Y277482D01*
X302362Y277638D01*
D02*
G37*
G36*
X282677Y277244D02*
X281894Y277088D01*
X281229Y276644D01*
X280786Y275980D01*
X280630Y275197D01*
X280786Y274413D01*
X281229Y273749D01*
X281894Y273305D01*
X282677Y273150D01*
X283461Y273305D01*
X284125Y273749D01*
X284569Y274413D01*
X284724Y275197D01*
X284569Y275980D01*
X284125Y276644D01*
X283461Y277088D01*
X282677Y277244D01*
D02*
G37*
G36*
X205118Y276850D02*
X204335Y276694D01*
X203671Y276251D01*
X203227Y275587D01*
X203071Y274803D01*
X203227Y274020D01*
X203671Y273356D01*
X204335Y272912D01*
X205118Y272756D01*
X205902Y272912D01*
X206566Y273356D01*
X207010Y274020D01*
X207165Y274803D01*
X207010Y275587D01*
X206566Y276251D01*
X205902Y276694D01*
X205118Y276850D01*
D02*
G37*
G36*
X225197Y276457D02*
X224413Y276301D01*
X223749Y275857D01*
X223306Y275193D01*
X223150Y274409D01*
X223306Y273626D01*
X223749Y272962D01*
X224413Y272518D01*
X225197Y272362D01*
X225980Y272518D01*
X226644Y272962D01*
X227088Y273626D01*
X227244Y274409D01*
X227088Y275193D01*
X226644Y275857D01*
X225980Y276301D01*
X225197Y276457D01*
D02*
G37*
G36*
X297638Y276063D02*
X296854Y275907D01*
X296190Y275463D01*
X295746Y274799D01*
X295591Y274016D01*
X295746Y273232D01*
X296190Y272568D01*
X296854Y272124D01*
X297638Y271969D01*
X298421Y272124D01*
X299085Y272568D01*
X299529Y273232D01*
X299685Y274016D01*
X299529Y274799D01*
X299085Y275463D01*
X298421Y275907D01*
X297638Y276063D01*
D02*
G37*
G36*
X420276Y274685D02*
X419492Y274529D01*
X418828Y274085D01*
X418384Y273421D01*
X418228Y272638D01*
X418384Y271854D01*
X418828Y271190D01*
X419492Y270746D01*
X420276Y270590D01*
X421059Y270746D01*
X421723Y271190D01*
X422167Y271854D01*
X422323Y272638D01*
X422167Y273421D01*
X421723Y274085D01*
X421059Y274529D01*
X420276Y274685D01*
D02*
G37*
G36*
X-28740Y269764D02*
X-29524Y269608D01*
X-29948Y269324D01*
X-30315Y269205D01*
X-30682Y269324D01*
X-31106Y269608D01*
X-31890Y269764D01*
X-32673Y269608D01*
X-33268Y269211D01*
X-33862Y269608D01*
X-34646Y269764D01*
X-35429Y269608D01*
X-36093Y269164D01*
X-36097Y269159D01*
X-36715Y269572D01*
X-37498Y269728D01*
X-38282Y269572D01*
X-38828Y269207D01*
X-39374Y269572D01*
X-40157Y269728D01*
X-40941Y269572D01*
X-41605Y269129D01*
X-42049Y268464D01*
X-42205Y267681D01*
X-42049Y266898D01*
X-41605Y266233D01*
X-40941Y265790D01*
X-40157Y265634D01*
X-39374Y265790D01*
X-38828Y266155D01*
X-38282Y265790D01*
X-37498Y265634D01*
X-36715Y265790D01*
X-36051Y266233D01*
X-36047Y266238D01*
X-35429Y265825D01*
X-34646Y265669D01*
X-33862Y265825D01*
X-33268Y266222D01*
X-32673Y265825D01*
X-31890Y265669D01*
X-31106Y265825D01*
X-30682Y266109D01*
X-30315Y266228D01*
X-29948Y266109D01*
X-29524Y265825D01*
X-28740Y265669D01*
X-27957Y265825D01*
X-27433Y266175D01*
X-26803Y265754D01*
X-26020Y265598D01*
X-25236Y265754D01*
X-24572Y266198D01*
X-24128Y266862D01*
X-23972Y267646D01*
X-24128Y268429D01*
X-24572Y269093D01*
X-25236Y269537D01*
X-26020Y269693D01*
X-26803Y269537D01*
X-27327Y269187D01*
X-27957Y269608D01*
X-28740Y269764D01*
D02*
G37*
G36*
X282677Y272519D02*
X281893Y272363D01*
X281229Y271919D01*
X280785Y271255D01*
X280629Y270472D01*
X280785Y269688D01*
X281229Y269024D01*
X281893Y268580D01*
X282677Y268425D01*
X283460Y268580D01*
X284124Y269024D01*
X284568Y269688D01*
X284724Y270472D01*
X284568Y271255D01*
X284124Y271919D01*
X283460Y272363D01*
X282677Y272519D01*
D02*
G37*
G36*
X450000Y272126D02*
X449217Y271970D01*
X448552Y271526D01*
X448109Y270862D01*
X447953Y270079D01*
X448109Y269295D01*
X448552Y268631D01*
X449217Y268187D01*
X450000Y268032D01*
X450783Y268187D01*
X451448Y268631D01*
X451891Y269295D01*
X452047Y270079D01*
X451891Y270862D01*
X451448Y271526D01*
X450783Y271970D01*
X450000Y272126D01*
D02*
G37*
G36*
X296457Y266220D02*
X295673Y266065D01*
X295249Y265781D01*
X294882Y265662D01*
X294515Y265781D01*
X294091Y266065D01*
X293307Y266220D01*
X292524Y266065D01*
X291860Y265621D01*
X291416Y264957D01*
X291260Y264173D01*
X291416Y263390D01*
X291860Y262726D01*
X292524Y262282D01*
X293307Y262126D01*
X294091Y262282D01*
X294515Y262565D01*
X294882Y262684D01*
X295249Y262565D01*
X295673Y262282D01*
X296457Y262126D01*
X297240Y262282D01*
X297904Y262726D01*
X298348Y263390D01*
X298504Y264173D01*
X298348Y264957D01*
X297904Y265621D01*
X297240Y266065D01*
X296457Y266220D01*
D02*
G37*
G36*
X277952Y268976D02*
X277169Y268820D01*
X276504Y268376D01*
X276061Y267712D01*
X275905Y266928D01*
X276061Y266145D01*
X276504Y265481D01*
X277169Y265037D01*
X277952Y264881D01*
X278736Y265037D01*
X279400Y265481D01*
X279843Y266145D01*
X279999Y266928D01*
X279843Y267712D01*
X279400Y268376D01*
X278736Y268820D01*
X277952Y268976D01*
D02*
G37*
G36*
X420276Y268386D02*
X419492Y268230D01*
X418828Y267786D01*
X418384Y267122D01*
X418228Y266338D01*
X418384Y265555D01*
X418828Y264891D01*
X419492Y264447D01*
X420276Y264291D01*
X421059Y264447D01*
X421723Y264891D01*
X422167Y265555D01*
X422323Y266338D01*
X422167Y267122D01*
X421723Y267786D01*
X421059Y268230D01*
X420276Y268386D01*
D02*
G37*
G36*
X330709Y268189D02*
X329925Y268033D01*
X329261Y267589D01*
X328817Y266925D01*
X328661Y266142D01*
X328817Y265358D01*
X329261Y264694D01*
X329925Y264250D01*
X330709Y264094D01*
X331492Y264250D01*
X332156Y264694D01*
X332600Y265358D01*
X332756Y266142D01*
X332600Y266925D01*
X332156Y267589D01*
X331492Y268033D01*
X330709Y268189D01*
D02*
G37*
G36*
X-28740Y263464D02*
X-29524Y263309D01*
X-29948Y263025D01*
X-30315Y262906D01*
X-30682Y263025D01*
X-31106Y263309D01*
X-31890Y263464D01*
X-32673Y263309D01*
X-33268Y262912D01*
X-33862Y263309D01*
X-34646Y263464D01*
X-35429Y263309D01*
X-36093Y262865D01*
X-36097Y262860D01*
X-36715Y263273D01*
X-37498Y263429D01*
X-38282Y263273D01*
X-38801Y262926D01*
X-39374Y263309D01*
X-40157Y263464D01*
X-40941Y263309D01*
X-41605Y262865D01*
X-42049Y262201D01*
X-42205Y261417D01*
X-42049Y260634D01*
X-41605Y259970D01*
X-40941Y259526D01*
X-40157Y259370D01*
X-39374Y259526D01*
X-38854Y259873D01*
X-38282Y259490D01*
X-37498Y259335D01*
X-36715Y259490D01*
X-36051Y259934D01*
X-36047Y259939D01*
X-35429Y259526D01*
X-34646Y259370D01*
X-33862Y259526D01*
X-33268Y259923D01*
X-32673Y259526D01*
X-31890Y259370D01*
X-31106Y259526D01*
X-30682Y259809D01*
X-30315Y259928D01*
X-29948Y259809D01*
X-29524Y259526D01*
X-28740Y259370D01*
X-27957Y259526D01*
X-27406Y259894D01*
X-26803Y259490D01*
X-26020Y259335D01*
X-25236Y259490D01*
X-24572Y259934D01*
X-24128Y260598D01*
X-23972Y261382D01*
X-24128Y262165D01*
X-24572Y262829D01*
X-25236Y263273D01*
X-26020Y263429D01*
X-26803Y263273D01*
X-27353Y262906D01*
X-27957Y263309D01*
X-28740Y263464D01*
D02*
G37*
G36*
X336221Y265827D02*
X335437Y265671D01*
X334773Y265227D01*
X334329Y264563D01*
X334173Y263779D01*
X334329Y262996D01*
X334773Y262332D01*
X335437Y261888D01*
X336221Y261732D01*
X337004Y261888D01*
X337668Y262332D01*
X338112Y262996D01*
X338268Y263779D01*
X338112Y264563D01*
X337668Y265227D01*
X337004Y265671D01*
X336221Y265827D01*
D02*
G37*
G36*
X37854Y265284D02*
X37071Y265128D01*
X36407Y264684D01*
X35963Y264020D01*
X35807Y263236D01*
X35963Y262453D01*
X36407Y261789D01*
X37071Y261345D01*
X37854Y261189D01*
X38638Y261345D01*
X39302Y261789D01*
X39746Y262453D01*
X39901Y263236D01*
X39746Y264020D01*
X39302Y264684D01*
X38638Y265128D01*
X37854Y265284D01*
D02*
G37*
G36*
X-3937Y266401D02*
X-4615Y266311D01*
X-5248Y266049D01*
X-5790Y265633D01*
X-6207Y265090D01*
X-6469Y264458D01*
X-6558Y263780D01*
X-6469Y263101D01*
X-6207Y262469D01*
X-5790Y261926D01*
X-5248Y261510D01*
X-4615Y261248D01*
X-3937Y261159D01*
X-3259Y261248D01*
X-2627Y261510D01*
X-2084Y261926D01*
X-1667Y262469D01*
X-1405Y263101D01*
X-1316Y263780D01*
X-1405Y264458D01*
X-1667Y265090D01*
X-2084Y265633D01*
X-2627Y266049D01*
X-3259Y266311D01*
X-3937Y266401D01*
D02*
G37*
G36*
X98523Y264979D02*
X97740Y264823D01*
X97076Y264379D01*
X96632Y263715D01*
X96476Y262932D01*
X96632Y262148D01*
X97076Y261484D01*
X97740Y261040D01*
X98523Y260884D01*
X99307Y261040D01*
X99971Y261484D01*
X100415Y262148D01*
X100571Y262932D01*
X100415Y263715D01*
X99971Y264379D01*
X99307Y264823D01*
X98523Y264979D01*
D02*
G37*
G36*
X277558Y264251D02*
X276775Y264095D01*
X276111Y263652D01*
X275667Y262987D01*
X275511Y262204D01*
X275667Y261421D01*
X276111Y260756D01*
X276775Y260313D01*
X277558Y260157D01*
X278342Y260313D01*
X279006Y260756D01*
X279450Y261421D01*
X279606Y262204D01*
X279450Y262987D01*
X279006Y263652D01*
X278342Y264095D01*
X277558Y264251D01*
D02*
G37*
G36*
X450217Y263464D02*
X449434Y263309D01*
X448769Y262865D01*
X448326Y262201D01*
X448170Y261417D01*
X448326Y260634D01*
X448769Y259970D01*
X449434Y259526D01*
X450217Y259370D01*
X451000Y259526D01*
X451665Y259970D01*
X452108Y260634D01*
X452264Y261417D01*
X452108Y262201D01*
X451665Y262865D01*
X451000Y263309D01*
X450217Y263464D01*
D02*
G37*
G36*
X390945Y263071D02*
X390161Y262915D01*
X389497Y262471D01*
X389054Y261807D01*
X388898Y261024D01*
X389054Y260240D01*
X389497Y259576D01*
X390161Y259132D01*
X390945Y258976D01*
X391728Y259132D01*
X392392Y259576D01*
X392836Y260240D01*
X392992Y261024D01*
X392836Y261807D01*
X392392Y262471D01*
X391728Y262915D01*
X390945Y263071D01*
D02*
G37*
G36*
X420276Y262480D02*
X419492Y262324D01*
X418828Y261881D01*
X418384Y261216D01*
X418228Y260433D01*
X418384Y259649D01*
X418828Y258985D01*
X419492Y258542D01*
X420276Y258386D01*
X421059Y258542D01*
X421723Y258985D01*
X422167Y259649D01*
X422323Y260433D01*
X422167Y261216D01*
X421723Y261881D01*
X421059Y262324D01*
X420276Y262480D01*
D02*
G37*
G36*
X320472Y264251D02*
X319688Y264096D01*
X319024Y263652D01*
X318580Y262988D01*
X318471Y262437D01*
X318285Y262122D01*
X317968Y261935D01*
X317418Y261825D01*
X316754Y261382D01*
X316310Y260717D01*
X316155Y259934D01*
X316310Y259151D01*
X316754Y258486D01*
X317418Y258043D01*
X318202Y257887D01*
X318985Y258043D01*
X319649Y258486D01*
X320093Y259151D01*
X320202Y259701D01*
X320389Y260017D01*
X320705Y260203D01*
X321255Y260313D01*
X321919Y260757D01*
X322363Y261421D01*
X322519Y262204D01*
X322363Y262988D01*
X321919Y263652D01*
X321255Y264096D01*
X320472Y264251D01*
D02*
G37*
G36*
X354331Y259921D02*
X353547Y259765D01*
X352883Y259322D01*
X352439Y258658D01*
X352284Y257874D01*
X352439Y257091D01*
X352883Y256426D01*
X353547Y255983D01*
X354331Y255827D01*
X355114Y255983D01*
X355778Y256426D01*
X356222Y257091D01*
X356378Y257874D01*
X356222Y258658D01*
X355778Y259322D01*
X355114Y259765D01*
X354331Y259921D01*
D02*
G37*
G36*
X209232Y256378D02*
X208449Y256222D01*
X207785Y255778D01*
X207453Y255282D01*
X207435Y255275D01*
X206915D01*
X206897Y255282D01*
X206566Y255778D01*
X205902Y256222D01*
X205118Y256378D01*
X204335Y256222D01*
X203671Y255778D01*
X203227Y255114D01*
X203071Y254331D01*
X203227Y253547D01*
X203671Y252883D01*
X204335Y252439D01*
X205118Y252283D01*
X205902Y252439D01*
X206566Y252883D01*
X206897Y253380D01*
X206915Y253386D01*
X207435D01*
X207453Y253380D01*
X207785Y252883D01*
X208449Y252439D01*
X209232Y252283D01*
X210016Y252439D01*
X210680Y252883D01*
X211124Y253547D01*
X211280Y254331D01*
X211124Y255114D01*
X210680Y255778D01*
X210016Y256222D01*
X209232Y256378D01*
D02*
G37*
G36*
X-3937Y258526D02*
X-4615Y258437D01*
X-5247Y258175D01*
X-5790Y257759D01*
X-6207Y257216D01*
X-6469Y256584D01*
X-6558Y255906D01*
X-6469Y255227D01*
X-6207Y254595D01*
X-5790Y254052D01*
X-5247Y253636D01*
X-4615Y253374D01*
X-3937Y253285D01*
X-3259Y253374D01*
X-2627Y253636D01*
X-2084Y254052D01*
X-1667Y254595D01*
X-1405Y255227D01*
X-1316Y255906D01*
X-1405Y256584D01*
X-1667Y257216D01*
X-2084Y257759D01*
X-2627Y258175D01*
X-3259Y258437D01*
X-3937Y258526D01*
D02*
G37*
G36*
X287402Y256772D02*
X286618Y256616D01*
X285954Y256172D01*
X285510Y255508D01*
X285354Y254724D01*
X285510Y253941D01*
X285954Y253277D01*
X286618Y252833D01*
X287402Y252677D01*
X288185Y252833D01*
X288849Y253277D01*
X289293Y253941D01*
X289449Y254724D01*
X289293Y255508D01*
X288849Y256172D01*
X288185Y256616D01*
X287402Y256772D01*
D02*
G37*
G36*
X220079D02*
X219295Y256616D01*
X218631Y256172D01*
X218187Y255508D01*
X218032Y254724D01*
X218187Y253941D01*
X218631Y253277D01*
X219295Y252833D01*
X220079Y252677D01*
X220862Y252833D01*
X221526Y253277D01*
X221970Y253941D01*
X222126Y254724D01*
X221970Y255508D01*
X221526Y256172D01*
X220862Y256616D01*
X220079Y256772D01*
D02*
G37*
G36*
X272441Y256378D02*
X271657Y256222D01*
X270993Y255778D01*
X270550Y255114D01*
X270394Y254331D01*
X270550Y253547D01*
X270993Y252883D01*
X271657Y252439D01*
X272441Y252283D01*
X273224Y252439D01*
X273888Y252883D01*
X274332Y253547D01*
X274488Y254331D01*
X274332Y255114D01*
X273888Y255778D01*
X273224Y256222D01*
X272441Y256378D01*
D02*
G37*
G36*
X224803D02*
X224020Y256222D01*
X223356Y255778D01*
X222912Y255114D01*
X222756Y254331D01*
X222912Y253547D01*
X223356Y252883D01*
X224020Y252439D01*
X224803Y252283D01*
X225587Y252439D01*
X226251Y252883D01*
X226694Y253547D01*
X226850Y254331D01*
X226694Y255114D01*
X226251Y255778D01*
X225587Y256222D01*
X224803Y256378D01*
D02*
G37*
G36*
X420276Y256181D02*
X419492Y256025D01*
X418828Y255581D01*
X418384Y254917D01*
X418228Y254134D01*
X418384Y253350D01*
X418828Y252686D01*
X419492Y252242D01*
X420276Y252087D01*
X421059Y252242D01*
X421723Y252686D01*
X422167Y253350D01*
X422323Y254134D01*
X422167Y254917D01*
X421723Y255581D01*
X421059Y256025D01*
X420276Y256181D01*
D02*
G37*
G36*
X453150Y251654D02*
X452366Y251498D01*
X451702Y251054D01*
X451258Y250390D01*
X451102Y249606D01*
X451258Y248823D01*
X451702Y248159D01*
X452366Y247715D01*
X453150Y247559D01*
X453933Y247715D01*
X454597Y248159D01*
X455041Y248823D01*
X455197Y249606D01*
X455041Y250390D01*
X454597Y251054D01*
X453933Y251498D01*
X453150Y251654D01*
D02*
G37*
G36*
X420276Y250275D02*
X419492Y250120D01*
X418828Y249676D01*
X418384Y249012D01*
X418228Y248228D01*
X418384Y247445D01*
X418828Y246781D01*
X419492Y246337D01*
X420276Y246181D01*
X421059Y246337D01*
X421723Y246781D01*
X422167Y247445D01*
X422323Y248228D01*
X422167Y249012D01*
X421723Y249676D01*
X421059Y250120D01*
X420276Y250275D01*
D02*
G37*
G36*
X270473Y249685D02*
X269689Y249529D01*
X269025Y249085D01*
X268581Y248421D01*
X268425Y247638D01*
X268581Y246854D01*
X269025Y246190D01*
X269689Y245746D01*
X270473Y245591D01*
X271256Y245746D01*
X271920Y246190D01*
X272364Y246854D01*
X272520Y247638D01*
X272364Y248421D01*
X271920Y249085D01*
X271256Y249529D01*
X270473Y249685D01*
D02*
G37*
G36*
X223622D02*
X222839Y249529D01*
X222175Y249085D01*
X221731Y248421D01*
X221575Y247638D01*
X221731Y246854D01*
X222175Y246190D01*
X222839Y245746D01*
X223622Y245591D01*
X224406Y245746D01*
X225070Y246190D01*
X225514Y246854D01*
X225669Y247638D01*
X225514Y248421D01*
X225070Y249085D01*
X224406Y249529D01*
X223622Y249685D01*
D02*
G37*
G36*
X-3937Y250652D02*
X-4615Y250563D01*
X-5248Y250301D01*
X-5790Y249885D01*
X-6207Y249342D01*
X-6469Y248710D01*
X-6558Y248031D01*
X-6469Y247353D01*
X-6207Y246721D01*
X-5790Y246178D01*
X-5248Y245762D01*
X-4615Y245500D01*
X-3937Y245411D01*
X-3259Y245500D01*
X-2627Y245762D01*
X-2084Y246178D01*
X-1667Y246721D01*
X-1405Y247353D01*
X-1316Y248031D01*
X-1405Y248710D01*
X-1667Y249342D01*
X-2084Y249885D01*
X-2627Y250301D01*
X-3259Y250563D01*
X-3937Y250652D01*
D02*
G37*
G36*
X402362Y247323D02*
X401579Y247167D01*
X400915Y246723D01*
X400471Y246059D01*
X400315Y245276D01*
X400471Y244492D01*
X400915Y243828D01*
X401579Y243384D01*
X402362Y243228D01*
X403146Y243384D01*
X403810Y243828D01*
X404254Y244492D01*
X404409Y245276D01*
X404254Y246059D01*
X403810Y246723D01*
X403146Y247167D01*
X402362Y247323D01*
D02*
G37*
G36*
X305906Y244173D02*
X305122Y244017D01*
X304458Y243574D01*
X304014Y242910D01*
X303858Y242126D01*
X304014Y241343D01*
X304458Y240678D01*
X305122Y240235D01*
X305906Y240079D01*
X306689Y240235D01*
X307353Y240678D01*
X307797Y241343D01*
X307953Y242126D01*
X307797Y242910D01*
X307353Y243574D01*
X306689Y244017D01*
X305906Y244173D01*
D02*
G37*
G36*
X218110D02*
X217327Y244017D01*
X216663Y243574D01*
X216219Y242910D01*
X216063Y242126D01*
X216219Y241343D01*
X216663Y240678D01*
X217327Y240235D01*
X218110Y240079D01*
X218894Y240235D01*
X219558Y240678D01*
X220002Y241343D01*
X220158Y242126D01*
X220002Y242910D01*
X219558Y243574D01*
X218894Y244017D01*
X218110Y244173D01*
D02*
G37*
G36*
X420276Y243976D02*
X419492Y243820D01*
X418828Y243377D01*
X418384Y242712D01*
X418228Y241929D01*
X418384Y241146D01*
X418828Y240481D01*
X419492Y240038D01*
X420276Y239882D01*
X421059Y240038D01*
X421723Y240481D01*
X422167Y241146D01*
X422323Y241929D01*
X422167Y242712D01*
X421723Y243377D01*
X421059Y243820D01*
X420276Y243976D01*
D02*
G37*
G36*
X98304Y243189D02*
X97521Y243033D01*
X96856Y242589D01*
X96413Y241925D01*
X96257Y241142D01*
X96413Y240358D01*
X96856Y239694D01*
X97521Y239250D01*
X98304Y239094D01*
X99088Y239250D01*
X99752Y239694D01*
X100196Y240358D01*
X100351Y241142D01*
X100196Y241925D01*
X99752Y242589D01*
X99088Y243033D01*
X98304Y243189D01*
D02*
G37*
G36*
X37854Y242939D02*
X37071Y242783D01*
X36407Y242339D01*
X35963Y241675D01*
X35807Y240892D01*
X35963Y240108D01*
X36407Y239444D01*
X37071Y239000D01*
X37854Y238845D01*
X38638Y239000D01*
X39302Y239444D01*
X39746Y240108D01*
X39901Y240892D01*
X39746Y241675D01*
X39302Y242339D01*
X38638Y242783D01*
X37854Y242939D01*
D02*
G37*
G36*
X-3937Y242778D02*
X-4615Y242689D01*
X-5248Y242427D01*
X-5790Y242011D01*
X-6207Y241468D01*
X-6469Y240836D01*
X-6558Y240157D01*
X-6469Y239479D01*
X-6207Y238847D01*
X-5790Y238304D01*
X-5248Y237888D01*
X-4615Y237626D01*
X-3937Y237537D01*
X-3259Y237626D01*
X-2627Y237888D01*
X-2084Y238304D01*
X-1667Y238847D01*
X-1405Y239479D01*
X-1316Y240157D01*
X-1405Y240836D01*
X-1667Y241468D01*
X-2084Y242011D01*
X-2627Y242427D01*
X-3259Y242689D01*
X-3937Y242778D01*
D02*
G37*
G36*
X402362Y240630D02*
X401579Y240474D01*
X400915Y240030D01*
X400471Y239366D01*
X400315Y238583D01*
X400471Y237799D01*
X400915Y237135D01*
X401579Y236691D01*
X402362Y236536D01*
X403146Y236691D01*
X403810Y237135D01*
X404254Y237799D01*
X404409Y238583D01*
X404254Y239366D01*
X403810Y240030D01*
X403146Y240474D01*
X402362Y240630D01*
D02*
G37*
G36*
X224764Y238701D02*
X223980Y238545D01*
X223316Y238101D01*
X222872Y237437D01*
X222717Y236653D01*
X222872Y235870D01*
X223316Y235206D01*
X223980Y234762D01*
X224764Y234606D01*
X225547Y234762D01*
X226211Y235206D01*
X226655Y235870D01*
X226811Y236653D01*
X226655Y237437D01*
X226211Y238101D01*
X225547Y238545D01*
X224764Y238701D01*
D02*
G37*
G36*
X420276Y238071D02*
X419492Y237915D01*
X418828Y237471D01*
X418384Y236807D01*
X418228Y236023D01*
X418384Y235240D01*
X418828Y234576D01*
X419492Y234132D01*
X420276Y233976D01*
X421059Y234132D01*
X421723Y234576D01*
X422167Y235240D01*
X422323Y236023D01*
X422167Y236807D01*
X421723Y237471D01*
X421059Y237915D01*
X420276Y238071D01*
D02*
G37*
G36*
X292520Y237480D02*
X291736Y237324D01*
X291072Y236881D01*
X290628Y236216D01*
X290473Y235433D01*
X290628Y234650D01*
X291072Y233985D01*
X291736Y233542D01*
X292520Y233386D01*
X293303Y233542D01*
X293967Y233985D01*
X294411Y234650D01*
X294567Y235433D01*
X294411Y236216D01*
X293967Y236881D01*
X293303Y237324D01*
X292520Y237480D01*
D02*
G37*
G36*
X307480Y237087D02*
X306697Y236931D01*
X306033Y236487D01*
X305589Y235823D01*
X305433Y235039D01*
X305589Y234256D01*
X306033Y233592D01*
X306697Y233148D01*
X307480Y232992D01*
X308264Y233148D01*
X308928Y233592D01*
X309372Y234256D01*
X309528Y235039D01*
X309372Y235823D01*
X308928Y236487D01*
X308264Y236931D01*
X307480Y237087D01*
D02*
G37*
G36*
X220079D02*
X219295Y236931D01*
X218631Y236487D01*
X218187Y235823D01*
X218032Y235039D01*
X218187Y234256D01*
X218631Y233592D01*
X219295Y233148D01*
X220079Y232992D01*
X220862Y233148D01*
X221526Y233592D01*
X221970Y234256D01*
X222126Y235039D01*
X221970Y235823D01*
X221526Y236487D01*
X220862Y236931D01*
X220079Y237087D01*
D02*
G37*
G36*
X272441Y237087D02*
X271657Y236931D01*
X270993Y236487D01*
X270550Y235823D01*
X270394Y235039D01*
X270550Y234256D01*
X270993Y233592D01*
X271657Y233148D01*
X272441Y232992D01*
X273224Y233148D01*
X273888Y233592D01*
X274332Y234256D01*
X274488Y235039D01*
X274332Y235823D01*
X273888Y236487D01*
X273224Y236931D01*
X272441Y237087D01*
D02*
G37*
G36*
X205118Y236693D02*
X204335Y236537D01*
X203671Y236093D01*
X203227Y235429D01*
X203071Y234646D01*
X203227Y233862D01*
X203671Y233198D01*
X204335Y232754D01*
X205118Y232598D01*
X205902Y232754D01*
X206566Y233198D01*
X207010Y233862D01*
X207165Y234646D01*
X207010Y235429D01*
X206566Y236093D01*
X205902Y236537D01*
X205118Y236693D01*
D02*
G37*
G36*
X449606Y235512D02*
X448823Y235356D01*
X448159Y234912D01*
X447715Y234248D01*
X447559Y233465D01*
X447715Y232681D01*
X448159Y232017D01*
X448823Y231573D01*
X449606Y231417D01*
X450390Y231573D01*
X451054Y232017D01*
X451498Y232681D01*
X451653Y233465D01*
X451498Y234248D01*
X451054Y234912D01*
X450390Y235356D01*
X449606Y235512D01*
D02*
G37*
G36*
X-3937Y234904D02*
X-4615Y234815D01*
X-5248Y234553D01*
X-5790Y234137D01*
X-6207Y233594D01*
X-6469Y232962D01*
X-6558Y232283D01*
X-6469Y231605D01*
X-6207Y230973D01*
X-5790Y230430D01*
X-5248Y230014D01*
X-4615Y229752D01*
X-3937Y229663D01*
X-3259Y229752D01*
X-2627Y230014D01*
X-2084Y230430D01*
X-1667Y230973D01*
X-1405Y231605D01*
X-1316Y232283D01*
X-1405Y232962D01*
X-1667Y233594D01*
X-2084Y234137D01*
X-2627Y234553D01*
X-3259Y234815D01*
X-3937Y234904D01*
D02*
G37*
G36*
X420276Y231771D02*
X419492Y231616D01*
X418828Y231172D01*
X418384Y230508D01*
X418228Y229724D01*
X418384Y228941D01*
X418828Y228277D01*
X419492Y227833D01*
X420276Y227677D01*
X421059Y227833D01*
X421723Y228277D01*
X422167Y228941D01*
X422323Y229724D01*
X422167Y230508D01*
X421723Y231172D01*
X421059Y231616D01*
X420276Y231771D01*
D02*
G37*
G36*
X384646Y230787D02*
X383862Y230631D01*
X383198Y230188D01*
X382754Y229524D01*
X382598Y228740D01*
X382754Y227957D01*
X383198Y227293D01*
X383862Y226849D01*
X384646Y226693D01*
X385429Y226849D01*
X386093Y227293D01*
X386537Y227957D01*
X386693Y228740D01*
X386537Y229524D01*
X386093Y230188D01*
X385429Y230631D01*
X384646Y230787D01*
D02*
G37*
G36*
X214232Y226850D02*
X213449Y226695D01*
X212984Y226384D01*
X212628Y226291D01*
X212272Y226384D01*
X211807Y226695D01*
X211023Y226850D01*
X210240Y226695D01*
X209576Y226251D01*
X209132Y225587D01*
X208976Y224803D01*
X209132Y224020D01*
X209576Y223356D01*
X210240Y222912D01*
X211023Y222756D01*
X211807Y222912D01*
X212272Y223223D01*
X212628Y223315D01*
X212984Y223223D01*
X213449Y222912D01*
X214232Y222756D01*
X215016Y222912D01*
X215680Y223356D01*
X216124Y224020D01*
X216280Y224803D01*
X216124Y225587D01*
X215680Y226251D01*
X215016Y226695D01*
X214232Y226850D01*
D02*
G37*
G36*
X302362Y229606D02*
X301578Y229450D01*
X300914Y229006D01*
X300470Y228342D01*
X300314Y227559D01*
X300470Y226775D01*
X300914Y226111D01*
X301578Y225667D01*
X302362Y225511D01*
X303145Y225667D01*
X303809Y226111D01*
X304253Y226775D01*
X304409Y227559D01*
X304253Y228342D01*
X303809Y229006D01*
X303145Y229450D01*
X302362Y229606D01*
D02*
G37*
G36*
X282677Y228819D02*
X281894Y228663D01*
X281229Y228219D01*
X280786Y227555D01*
X280630Y226772D01*
X280786Y225988D01*
X281229Y225324D01*
X281894Y224880D01*
X282677Y224724D01*
X283461Y224880D01*
X284125Y225324D01*
X284569Y225988D01*
X284724Y226772D01*
X284569Y227555D01*
X284125Y228219D01*
X283461Y228663D01*
X282677Y228819D01*
D02*
G37*
G36*
X205118Y228425D02*
X204335Y228269D01*
X203671Y227826D01*
X203227Y227162D01*
X203071Y226378D01*
X203227Y225595D01*
X203671Y224930D01*
X204335Y224487D01*
X205118Y224331D01*
X205902Y224487D01*
X206566Y224930D01*
X207010Y225595D01*
X207165Y226378D01*
X207010Y227162D01*
X206566Y227826D01*
X205902Y228269D01*
X205118Y228425D01*
D02*
G37*
G36*
X225000Y228425D02*
X224217Y228269D01*
X223552Y227826D01*
X223109Y227161D01*
X222953Y226378D01*
X223109Y225594D01*
X223552Y224930D01*
X224217Y224487D01*
X225000Y224331D01*
X225783Y224487D01*
X226448Y224930D01*
X226891Y225594D01*
X227047Y226378D01*
X226891Y227161D01*
X226448Y227826D01*
X225783Y228269D01*
X225000Y228425D01*
D02*
G37*
G36*
X297749Y226843D02*
X296965Y226688D01*
X296301Y226244D01*
X295858Y225580D01*
X295702Y224796D01*
X295858Y224013D01*
X296301Y223348D01*
X296965Y222905D01*
X297749Y222749D01*
X298532Y222905D01*
X299197Y223348D01*
X299640Y224013D01*
X299796Y224796D01*
X299640Y225580D01*
X299197Y226244D01*
X298532Y226688D01*
X297749Y226843D01*
D02*
G37*
G36*
X-3937Y227030D02*
X-4615Y226941D01*
X-5248Y226679D01*
X-5790Y226263D01*
X-6207Y225720D01*
X-6469Y225088D01*
X-6558Y224409D01*
X-6469Y223731D01*
X-6207Y223099D01*
X-5790Y222556D01*
X-5248Y222140D01*
X-4615Y221878D01*
X-3937Y221789D01*
X-3259Y221878D01*
X-2627Y222140D01*
X-2084Y222556D01*
X-1667Y223099D01*
X-1405Y223731D01*
X-1316Y224409D01*
X-1405Y225088D01*
X-1667Y225720D01*
X-2084Y226263D01*
X-2627Y226679D01*
X-3259Y226941D01*
X-3937Y227030D01*
D02*
G37*
G36*
X420276Y225866D02*
X419492Y225710D01*
X418828Y225266D01*
X418384Y224602D01*
X418228Y223819D01*
X418384Y223035D01*
X418828Y222371D01*
X419492Y221927D01*
X420276Y221772D01*
X421059Y221927D01*
X421723Y222371D01*
X422167Y223035D01*
X422323Y223819D01*
X422167Y224602D01*
X421723Y225266D01*
X421059Y225710D01*
X420276Y225866D01*
D02*
G37*
G36*
X282677Y224094D02*
X281893Y223938D01*
X281229Y223494D01*
X280785Y222830D01*
X280629Y222047D01*
X280785Y221263D01*
X281229Y220599D01*
X281893Y220155D01*
X282677Y220000D01*
X283460Y220155D01*
X284124Y220599D01*
X284568Y221263D01*
X284724Y222047D01*
X284568Y222830D01*
X284124Y223494D01*
X283460Y223938D01*
X282677Y224094D01*
D02*
G37*
G36*
X449606Y223701D02*
X448823Y223545D01*
X448159Y223101D01*
X447715Y222437D01*
X447559Y221654D01*
X447715Y220870D01*
X448159Y220206D01*
X448823Y219762D01*
X449606Y219606D01*
X450390Y219762D01*
X451054Y220206D01*
X451498Y220870D01*
X451653Y221654D01*
X451498Y222437D01*
X451054Y223101D01*
X450390Y223545D01*
X449606Y223701D01*
D02*
G37*
G36*
X326637Y225534D02*
X325853Y225378D01*
X325189Y224935D01*
X324745Y224270D01*
X324589Y223487D01*
X324410Y223307D01*
X323626Y223151D01*
X322962Y222707D01*
X322518Y222043D01*
X322362Y221260D01*
X322518Y220476D01*
X322962Y219812D01*
X323626Y219369D01*
X324410Y219213D01*
X325193Y219369D01*
X325857Y219812D01*
X326301Y220476D01*
X326457Y221260D01*
X326637Y221440D01*
X327420Y221596D01*
X328084Y222039D01*
X328528Y222704D01*
X328684Y223487D01*
X328528Y224270D01*
X328084Y224935D01*
X327420Y225378D01*
X326637Y225534D01*
D02*
G37*
G36*
X296850Y217402D02*
X296067Y217246D01*
X295643Y216962D01*
X295275Y216843D01*
X294908Y216962D01*
X294484Y217246D01*
X293701Y217402D01*
X292917Y217246D01*
X292253Y216802D01*
X291809Y216138D01*
X291653Y215354D01*
X291809Y214571D01*
X292253Y213907D01*
X292917Y213463D01*
X293701Y213307D01*
X294484Y213463D01*
X295148Y213907D01*
X295403D01*
X296067Y213463D01*
X296850Y213307D01*
X297634Y213463D01*
X298298Y213907D01*
X298742Y214571D01*
X298898Y215354D01*
X298742Y216138D01*
X298298Y216802D01*
X297634Y217246D01*
X296850Y217402D01*
D02*
G37*
G36*
X277952Y220550D02*
X277169Y220395D01*
X276504Y219951D01*
X276061Y219287D01*
X275905Y218503D01*
X276061Y217720D01*
X276504Y217056D01*
X277169Y216612D01*
X277952Y216456D01*
X278736Y216612D01*
X279400Y217056D01*
X279843Y217720D01*
X279999Y218503D01*
X279843Y219287D01*
X279400Y219951D01*
X278736Y220395D01*
X277952Y220550D01*
D02*
G37*
G36*
X420276Y219567D02*
X419492Y219411D01*
X418828Y218967D01*
X418384Y218303D01*
X418228Y217520D01*
X418384Y216736D01*
X418828Y216072D01*
X419492Y215628D01*
X420276Y215472D01*
X421059Y215628D01*
X421723Y216072D01*
X422167Y216736D01*
X422323Y217520D01*
X422167Y218303D01*
X421723Y218967D01*
X421059Y219411D01*
X420276Y219567D01*
D02*
G37*
G36*
X-3937Y219156D02*
X-4615Y219067D01*
X-5248Y218805D01*
X-5790Y218389D01*
X-6207Y217846D01*
X-6469Y217214D01*
X-6558Y216535D01*
X-6469Y215857D01*
X-6207Y215225D01*
X-5790Y214682D01*
X-5248Y214266D01*
X-4615Y214004D01*
X-3937Y213915D01*
X-3259Y214004D01*
X-2627Y214266D01*
X-2084Y214682D01*
X-1667Y215225D01*
X-1405Y215857D01*
X-1316Y216535D01*
X-1405Y217214D01*
X-1667Y217846D01*
X-2084Y218389D01*
X-2627Y218805D01*
X-3259Y219067D01*
X-3937Y219156D01*
D02*
G37*
G36*
X57100Y216413D02*
X56317Y216258D01*
X55652Y215814D01*
X55209Y215149D01*
X55053Y214366D01*
X55209Y213583D01*
X55652Y212918D01*
X56317Y212475D01*
X57100Y212319D01*
X57883Y212475D01*
X58548Y212918D01*
X58991Y213583D01*
X59147Y214366D01*
X58991Y215149D01*
X58548Y215814D01*
X57883Y216258D01*
X57100Y216413D01*
D02*
G37*
G36*
X277558Y215826D02*
X276775Y215670D01*
X276111Y215226D01*
X275667Y214562D01*
X275511Y213779D01*
X275667Y212995D01*
X276111Y212331D01*
X276775Y211887D01*
X277558Y211732D01*
X278342Y211887D01*
X279006Y212331D01*
X279450Y212995D01*
X279606Y213779D01*
X279450Y214562D01*
X279006Y215226D01*
X278342Y215670D01*
X277558Y215826D01*
D02*
G37*
G36*
X523559Y214602D02*
Y211252D01*
X526909D01*
X526850Y211701D01*
X526449Y212671D01*
X525810Y213503D01*
X524978Y214142D01*
X524009Y214543D01*
X523559Y214602D01*
D02*
G37*
G36*
X522378Y214602D02*
X521928Y214543D01*
X520959Y214142D01*
X520127Y213503D01*
X519488Y212671D01*
X519087Y211701D01*
X519028Y211252D01*
X522378D01*
Y214602D01*
D02*
G37*
G36*
X135153Y215308D02*
Y211012D01*
X139448D01*
X139357Y211706D01*
X138861Y212904D01*
X138072Y213932D01*
X137044Y214721D01*
X135847Y215216D01*
X135153Y215308D01*
D02*
G37*
G36*
X133972D02*
X133277Y215216D01*
X132080Y214721D01*
X131052Y213932D01*
X130263Y212904D01*
X129767Y211706D01*
X129676Y211012D01*
X133972D01*
Y215308D01*
D02*
G37*
G36*
X90551Y214646D02*
X89768Y214490D01*
X89104Y214046D01*
X88660Y213382D01*
X88504Y212598D01*
X88660Y211815D01*
X89104Y211151D01*
X89768Y210707D01*
X90551Y210551D01*
X91335Y210707D01*
X91999Y211151D01*
X92443Y211815D01*
X92598Y212598D01*
X92443Y213382D01*
X91999Y214046D01*
X91335Y214490D01*
X90551Y214646D01*
D02*
G37*
G36*
X323881Y216085D02*
X323097Y215930D01*
X322433Y215486D01*
X321989Y214822D01*
X321833Y214038D01*
X321654Y213858D01*
X320870Y213702D01*
X320206Y213259D01*
X319762Y212595D01*
X319606Y211811D01*
X319762Y211028D01*
X320206Y210363D01*
X320870Y209920D01*
X321654Y209764D01*
X322437Y209920D01*
X323101Y210363D01*
X323545Y211028D01*
X323701Y211811D01*
X323881Y211991D01*
X324664Y212147D01*
X325328Y212591D01*
X325772Y213255D01*
X325928Y214038D01*
X325772Y214822D01*
X325328Y215486D01*
X324664Y215930D01*
X323881Y216085D01*
D02*
G37*
G36*
X420276Y213661D02*
X419492Y213506D01*
X418828Y213062D01*
X418384Y212398D01*
X418228Y211614D01*
X418384Y210831D01*
X418828Y210167D01*
X419492Y209723D01*
X420276Y209567D01*
X421059Y209723D01*
X421723Y210167D01*
X422167Y210831D01*
X422323Y211614D01*
X422167Y212398D01*
X421723Y213062D01*
X421059Y213506D01*
X420276Y213661D01*
D02*
G37*
G36*
X209232Y207953D02*
X208449Y207797D01*
X208025Y207513D01*
X207658Y207395D01*
X207291Y207513D01*
X206866Y207797D01*
X206083Y207953D01*
X205299Y207797D01*
X204635Y207353D01*
X204191Y206689D01*
X204035Y205906D01*
X204191Y205122D01*
X204635Y204458D01*
X205299Y204014D01*
X206083Y203858D01*
X206866Y204014D01*
X207291Y204298D01*
X207658Y204417D01*
X208025Y204298D01*
X208449Y204014D01*
X209232Y203858D01*
X210016Y204014D01*
X210680Y204458D01*
X211124Y205122D01*
X211280Y205906D01*
X211124Y206689D01*
X210680Y207353D01*
X210016Y207797D01*
X209232Y207953D01*
D02*
G37*
G36*
X450000Y211102D02*
X449217Y210946D01*
X448552Y210503D01*
X448109Y209839D01*
X447953Y209055D01*
X448109Y208272D01*
X448552Y207608D01*
X449217Y207164D01*
X450000Y207008D01*
X450783Y207164D01*
X451448Y207608D01*
X451891Y208272D01*
X452047Y209055D01*
X451891Y209839D01*
X451448Y210503D01*
X450783Y210946D01*
X450000Y211102D01*
D02*
G37*
G36*
X358267Y211102D02*
X357484Y210946D01*
X356819Y210502D01*
X356376Y209838D01*
X356220Y209055D01*
X356376Y208271D01*
X356819Y207607D01*
X357484Y207163D01*
X358267Y207007D01*
X359050Y207163D01*
X359715Y207607D01*
X360158Y208271D01*
X360314Y209055D01*
X360158Y209838D01*
X359715Y210502D01*
X359050Y210946D01*
X358267Y211102D01*
D02*
G37*
G36*
X522378Y210071D02*
X519028D01*
X519087Y209621D01*
X519488Y208652D01*
X520127Y207820D01*
X520959Y207181D01*
X521928Y206780D01*
X522378Y206720D01*
Y210071D01*
D02*
G37*
G36*
X526909D02*
X523559D01*
Y206720D01*
X524009Y206780D01*
X524978Y207181D01*
X525810Y207820D01*
X526449Y208652D01*
X526850Y209621D01*
X526909Y210071D01*
D02*
G37*
G36*
X-3937Y211282D02*
X-4615Y211193D01*
X-5248Y210931D01*
X-5790Y210515D01*
X-6207Y209972D01*
X-6469Y209340D01*
X-6558Y208661D01*
X-6469Y207983D01*
X-6207Y207351D01*
X-5790Y206808D01*
X-5248Y206392D01*
X-4615Y206130D01*
X-3937Y206041D01*
X-3259Y206130D01*
X-2627Y206392D01*
X-2084Y206808D01*
X-1667Y207351D01*
X-1405Y207983D01*
X-1316Y208661D01*
X-1405Y209340D01*
X-1667Y209972D01*
X-2084Y210515D01*
X-2627Y210931D01*
X-3259Y211193D01*
X-3937Y211282D01*
D02*
G37*
G36*
X139448Y209831D02*
X135153D01*
Y205536D01*
X135847Y205627D01*
X137044Y206123D01*
X138072Y206912D01*
X138861Y207940D01*
X139357Y209137D01*
X139448Y209831D01*
D02*
G37*
G36*
X133972D02*
X129676D01*
X129767Y209137D01*
X130263Y207940D01*
X131052Y206912D01*
X132080Y206123D01*
X133277Y205627D01*
X133972Y205536D01*
Y209831D01*
D02*
G37*
G36*
X287402Y207953D02*
X286618Y207797D01*
X285954Y207353D01*
X285510Y206689D01*
X285354Y205906D01*
X285510Y205122D01*
X285954Y204458D01*
X286618Y204014D01*
X287402Y203858D01*
X288185Y204014D01*
X288849Y204458D01*
X289293Y205122D01*
X289449Y205906D01*
X289293Y206689D01*
X288849Y207353D01*
X288185Y207797D01*
X287402Y207953D01*
D02*
G37*
G36*
X220079D02*
X219295Y207797D01*
X218631Y207353D01*
X218187Y206689D01*
X218032Y205906D01*
X218187Y205122D01*
X218631Y204458D01*
X219295Y204014D01*
X220079Y203858D01*
X220862Y204014D01*
X221526Y204458D01*
X221970Y205122D01*
X222126Y205906D01*
X221970Y206689D01*
X221526Y207353D01*
X220862Y207797D01*
X220079Y207953D01*
D02*
G37*
G36*
X272441Y207953D02*
X271657Y207797D01*
X270993Y207353D01*
X270550Y206689D01*
X270394Y205905D01*
X270550Y205122D01*
X270993Y204458D01*
X271657Y204014D01*
X272441Y203858D01*
X273224Y204014D01*
X273888Y204458D01*
X274332Y205122D01*
X274488Y205905D01*
X274332Y206689D01*
X273888Y207353D01*
X273224Y207797D01*
X272441Y207953D01*
D02*
G37*
G36*
X225197D02*
X224413Y207797D01*
X223749Y207353D01*
X223306Y206689D01*
X223150Y205905D01*
X223306Y205122D01*
X223749Y204458D01*
X224413Y204014D01*
X225197Y203858D01*
X225980Y204014D01*
X226644Y204458D01*
X227088Y205122D01*
X227244Y205905D01*
X227088Y206689D01*
X226644Y207353D01*
X225980Y207797D01*
X225197Y207953D01*
D02*
G37*
G36*
X420276Y207362D02*
X419492Y207206D01*
X418828Y206763D01*
X418384Y206098D01*
X418228Y205315D01*
X418384Y204532D01*
X418828Y203867D01*
X419492Y203424D01*
X420276Y203268D01*
X421059Y203424D01*
X421723Y203867D01*
X422167Y204532D01*
X422323Y205315D01*
X422167Y206098D01*
X421723Y206763D01*
X421059Y207206D01*
X420276Y207362D01*
D02*
G37*
G36*
X532969Y216070D02*
X531569Y215886D01*
X530264Y215345D01*
X529144Y214486D01*
X528285Y213366D01*
X527744Y212061D01*
X527560Y210661D01*
X527744Y209262D01*
X528285Y207957D01*
X529144Y206837D01*
X530264Y205978D01*
X530424Y205911D01*
Y205411D01*
X530264Y205345D01*
X529144Y204486D01*
X528285Y203366D01*
X528219Y203206D01*
X527718D01*
X527652Y203366D01*
X526793Y204486D01*
X525673Y205345D01*
X524368Y205886D01*
X522968Y206070D01*
X521569Y205886D01*
X520264Y205345D01*
X519144Y204486D01*
X518285Y203366D01*
X517744Y202061D01*
X517560Y200661D01*
X517744Y199262D01*
X518285Y197957D01*
X519144Y196837D01*
X520264Y195977D01*
X520424Y195911D01*
Y195411D01*
X520264Y195345D01*
X519144Y194486D01*
X518285Y193366D01*
X517744Y192061D01*
X517560Y190661D01*
X517744Y189262D01*
X518285Y187957D01*
X519144Y186837D01*
X520264Y185977D01*
X520424Y185911D01*
Y185411D01*
X520264Y185345D01*
X519144Y184486D01*
X518285Y183366D01*
X517744Y182061D01*
X517560Y180661D01*
X517744Y179262D01*
X518285Y177957D01*
X519144Y176837D01*
X520264Y175978D01*
X520424Y175911D01*
Y175411D01*
X520264Y175345D01*
X519144Y174486D01*
X518285Y173366D01*
X517744Y172061D01*
X517560Y170661D01*
X517744Y169262D01*
X518285Y167957D01*
X519144Y166837D01*
X520264Y165978D01*
X520424Y165911D01*
Y165411D01*
X520264Y165345D01*
X519144Y164486D01*
X518285Y163366D01*
X517744Y162061D01*
X517560Y160661D01*
X517744Y159262D01*
X518285Y157957D01*
X519144Y156837D01*
X520264Y155977D01*
X520424Y155911D01*
Y155411D01*
X520264Y155345D01*
X519144Y154486D01*
X518285Y153366D01*
X517744Y152061D01*
X517560Y150661D01*
X517744Y149262D01*
X518285Y147957D01*
X519144Y146837D01*
X520264Y145977D01*
X520424Y145911D01*
Y145411D01*
X520264Y145345D01*
X519144Y144486D01*
X518285Y143366D01*
X517744Y142061D01*
X517560Y140661D01*
X517744Y139262D01*
X518285Y137957D01*
X519144Y136837D01*
X520264Y135977D01*
X520424Y135911D01*
Y135411D01*
X520264Y135345D01*
X519144Y134486D01*
X518285Y133366D01*
X517744Y132061D01*
X517560Y130661D01*
X517744Y129262D01*
X518285Y127957D01*
X519144Y126837D01*
X520264Y125978D01*
X521569Y125437D01*
X522968Y125253D01*
X524368Y125437D01*
X525673Y125978D01*
X526793Y126837D01*
X527652Y127957D01*
X527718Y128117D01*
X528219D01*
X528285Y127957D01*
X529144Y126837D01*
X530264Y125978D01*
X530424Y125911D01*
Y125411D01*
X530264Y125345D01*
X529144Y124486D01*
X528285Y123366D01*
X527744Y122061D01*
X527560Y120661D01*
X527744Y119262D01*
X528285Y117957D01*
X529144Y116837D01*
X530264Y115978D01*
X530424Y115911D01*
Y115411D01*
X530264Y115345D01*
X529144Y114486D01*
X528285Y113366D01*
X528219Y113206D01*
X527718D01*
X527652Y113366D01*
X526793Y114486D01*
X525673Y115345D01*
X524368Y115886D01*
X522968Y116070D01*
X521569Y115886D01*
X520264Y115345D01*
X519144Y114486D01*
X518285Y113366D01*
X517744Y112061D01*
X517560Y110661D01*
X517744Y109262D01*
X518285Y107957D01*
X519144Y106837D01*
X520264Y105977D01*
X520424Y105911D01*
Y105411D01*
X520264Y105345D01*
X519144Y104486D01*
X518285Y103366D01*
X517744Y102061D01*
X517560Y100661D01*
X517744Y99262D01*
X518285Y97957D01*
X519144Y96837D01*
X520264Y95977D01*
X520424Y95911D01*
Y95411D01*
X520264Y95345D01*
X519144Y94486D01*
X518285Y93366D01*
X517744Y92061D01*
X517560Y90661D01*
X517744Y89262D01*
X518285Y87957D01*
X519144Y86837D01*
X520264Y85978D01*
X520424Y85911D01*
Y85411D01*
X520264Y85345D01*
X519144Y84486D01*
X518285Y83366D01*
X517744Y82061D01*
X517560Y80661D01*
X517744Y79262D01*
X518285Y77957D01*
X519144Y76837D01*
X520264Y75977D01*
X520424Y75911D01*
Y75411D01*
X520264Y75345D01*
X519144Y74486D01*
X518285Y73366D01*
X517744Y72061D01*
X517560Y70661D01*
X517744Y69262D01*
X518285Y67957D01*
X519144Y66837D01*
X520264Y65978D01*
X520424Y65911D01*
Y65411D01*
X520264Y65345D01*
X519144Y64486D01*
X518285Y63366D01*
X517744Y62061D01*
X517560Y60661D01*
X517744Y59262D01*
X518285Y57957D01*
X519144Y56837D01*
X520264Y55977D01*
X520424Y55911D01*
Y55411D01*
X520264Y55345D01*
X519144Y54486D01*
X518285Y53366D01*
X517744Y52061D01*
X517560Y50661D01*
X517744Y49262D01*
X518285Y47957D01*
X519144Y46837D01*
X520264Y45978D01*
X520424Y45911D01*
Y45411D01*
X520264Y45345D01*
X519144Y44486D01*
X518285Y43366D01*
X517744Y42061D01*
X517560Y40661D01*
X517744Y39262D01*
X518285Y37957D01*
X519144Y36837D01*
X520264Y35978D01*
X520424Y35911D01*
Y35411D01*
X520264Y35345D01*
X519144Y34486D01*
X518285Y33366D01*
X517744Y32061D01*
X517560Y30661D01*
X517744Y29262D01*
X518285Y27957D01*
X519144Y26837D01*
X520264Y25978D01*
X521569Y25437D01*
X522968Y25253D01*
X524368Y25437D01*
X525673Y25978D01*
X526793Y26837D01*
X527652Y27957D01*
X527718Y28117D01*
X528219D01*
X528285Y27957D01*
X529144Y26837D01*
X530264Y25978D01*
X530424Y25911D01*
Y25411D01*
X530264Y25345D01*
X529144Y24486D01*
X528285Y23366D01*
X527744Y22061D01*
X527560Y20661D01*
X527744Y19262D01*
X528285Y17957D01*
X529144Y16837D01*
X530264Y15978D01*
X531569Y15437D01*
X532969Y15253D01*
X534368Y15437D01*
X535673Y15978D01*
X536793Y16837D01*
X537652Y17957D01*
X538193Y19262D01*
X538377Y20661D01*
X538193Y22061D01*
X537652Y23366D01*
X536793Y24486D01*
X535673Y25345D01*
X535513Y25411D01*
Y25911D01*
X535673Y25978D01*
X536793Y26837D01*
X537652Y27957D01*
X538193Y29262D01*
X538377Y30661D01*
X538193Y32061D01*
X537652Y33366D01*
X536793Y34486D01*
X535673Y35345D01*
X535513Y35411D01*
Y35911D01*
X535673Y35978D01*
X536793Y36837D01*
X537652Y37957D01*
X538193Y39262D01*
X538377Y40661D01*
X538193Y42061D01*
X537652Y43366D01*
X536793Y44486D01*
X535673Y45345D01*
X535513Y45411D01*
Y45911D01*
X535673Y45978D01*
X536793Y46837D01*
X537652Y47957D01*
X538193Y49262D01*
X538377Y50661D01*
X538193Y52061D01*
X537652Y53366D01*
X536793Y54486D01*
X535673Y55345D01*
X535513Y55411D01*
Y55911D01*
X535673Y55977D01*
X536793Y56837D01*
X537652Y57957D01*
X538193Y59262D01*
X538377Y60661D01*
X538193Y62061D01*
X537652Y63366D01*
X536793Y64486D01*
X535673Y65345D01*
X535513Y65411D01*
Y65911D01*
X535673Y65978D01*
X536793Y66837D01*
X537652Y67957D01*
X538193Y69262D01*
X538377Y70661D01*
X538193Y72061D01*
X537652Y73366D01*
X536793Y74486D01*
X535673Y75345D01*
X535513Y75411D01*
Y75911D01*
X535673Y75977D01*
X536793Y76837D01*
X537652Y77957D01*
X538193Y79262D01*
X538377Y80661D01*
X538193Y82061D01*
X537652Y83366D01*
X536793Y84486D01*
X535673Y85345D01*
X535513Y85411D01*
Y85911D01*
X535673Y85978D01*
X536793Y86837D01*
X537652Y87957D01*
X538193Y89262D01*
X538377Y90661D01*
X538193Y92061D01*
X537652Y93366D01*
X536793Y94486D01*
X535673Y95345D01*
X535513Y95411D01*
Y95911D01*
X535673Y95977D01*
X536793Y96837D01*
X537652Y97957D01*
X538193Y99262D01*
X538377Y100661D01*
X538193Y102061D01*
X537652Y103366D01*
X536793Y104486D01*
X535673Y105345D01*
X535513Y105411D01*
Y105911D01*
X535673Y105977D01*
X536793Y106837D01*
X537652Y107957D01*
X538193Y109262D01*
X538377Y110661D01*
X538193Y112061D01*
X537652Y113366D01*
X536793Y114486D01*
X535673Y115345D01*
X535513Y115411D01*
Y115911D01*
X535673Y115978D01*
X536793Y116837D01*
X537652Y117957D01*
X538193Y119262D01*
X538377Y120661D01*
X538193Y122061D01*
X537652Y123366D01*
X536793Y124486D01*
X535673Y125345D01*
X535513Y125411D01*
Y125911D01*
X535673Y125978D01*
X536793Y126837D01*
X537652Y127957D01*
X538193Y129262D01*
X538377Y130661D01*
X538193Y132061D01*
X537652Y133366D01*
X536793Y134486D01*
X535673Y135345D01*
X535513Y135411D01*
Y135911D01*
X535673Y135977D01*
X536793Y136837D01*
X537652Y137957D01*
X538193Y139262D01*
X538377Y140661D01*
X538193Y142061D01*
X537652Y143366D01*
X536793Y144486D01*
X535673Y145345D01*
X535513Y145411D01*
Y145911D01*
X535673Y145977D01*
X536793Y146837D01*
X537652Y147957D01*
X538193Y149262D01*
X538377Y150661D01*
X538193Y152061D01*
X537652Y153366D01*
X536793Y154486D01*
X535673Y155345D01*
X535513Y155411D01*
Y155911D01*
X535673Y155977D01*
X536793Y156837D01*
X537652Y157957D01*
X538193Y159262D01*
X538377Y160661D01*
X538193Y162061D01*
X537652Y163366D01*
X536793Y164486D01*
X535673Y165345D01*
X535513Y165411D01*
Y165911D01*
X535673Y165978D01*
X536793Y166837D01*
X537652Y167957D01*
X538193Y169262D01*
X538377Y170661D01*
X538193Y172061D01*
X537652Y173366D01*
X536793Y174486D01*
X535673Y175345D01*
X535513Y175411D01*
Y175911D01*
X535673Y175978D01*
X536793Y176837D01*
X537652Y177957D01*
X538193Y179262D01*
X538377Y180661D01*
X538193Y182061D01*
X537652Y183366D01*
X536793Y184486D01*
X535673Y185345D01*
X535513Y185411D01*
Y185911D01*
X535673Y185977D01*
X536793Y186837D01*
X537652Y187957D01*
X538193Y189262D01*
X538377Y190661D01*
X538193Y192061D01*
X537652Y193366D01*
X536793Y194486D01*
X535673Y195345D01*
X535513Y195411D01*
Y195911D01*
X535673Y195977D01*
X536793Y196837D01*
X537652Y197957D01*
X538193Y199262D01*
X538377Y200661D01*
X538193Y202061D01*
X537652Y203366D01*
X536793Y204486D01*
X535673Y205345D01*
X535513Y205411D01*
Y205911D01*
X535673Y205978D01*
X536793Y206837D01*
X537652Y207957D01*
X538193Y209262D01*
X538377Y210661D01*
X538193Y212061D01*
X537652Y213366D01*
X536793Y214486D01*
X535673Y215345D01*
X534368Y215886D01*
X532969Y216070D01*
D02*
G37*
G36*
X452756Y203622D02*
X451972Y203466D01*
X451308Y203022D01*
X450865Y202358D01*
X450709Y201575D01*
X450865Y200791D01*
X451308Y200127D01*
X451972Y199683D01*
X452756Y199528D01*
X453539Y199683D01*
X454204Y200127D01*
X454647Y200791D01*
X454803Y201575D01*
X454647Y202358D01*
X454204Y203022D01*
X453539Y203466D01*
X452756Y203622D01*
D02*
G37*
G36*
X14002Y203556D02*
Y199260D01*
X18298D01*
X18206Y199954D01*
X17710Y201151D01*
X16922Y202180D01*
X15894Y202968D01*
X14696Y203464D01*
X14002Y203556D01*
D02*
G37*
G36*
X12821D02*
X12127Y203464D01*
X10930Y202968D01*
X9902Y202180D01*
X9113Y201151D01*
X8617Y199954D01*
X8526Y199260D01*
X12821D01*
Y203556D01*
D02*
G37*
G36*
X420276Y201457D02*
X419492Y201301D01*
X418828Y200857D01*
X418384Y200193D01*
X418228Y199409D01*
X418384Y198626D01*
X418828Y197962D01*
X419492Y197518D01*
X420276Y197362D01*
X421059Y197518D01*
X421723Y197962D01*
X422167Y198626D01*
X422323Y199409D01*
X422167Y200193D01*
X421723Y200857D01*
X421059Y201301D01*
X420276Y201457D01*
D02*
G37*
G36*
X270473Y201260D02*
X269689Y201104D01*
X269025Y200660D01*
X268581Y199996D01*
X268425Y199213D01*
X268581Y198429D01*
X269025Y197765D01*
X269689Y197321D01*
X270473Y197165D01*
X271256Y197321D01*
X271920Y197765D01*
X272364Y198429D01*
X272520Y199213D01*
X272364Y199996D01*
X271920Y200660D01*
X271256Y201104D01*
X270473Y201260D01*
D02*
G37*
G36*
X222835D02*
X222051Y201104D01*
X221387Y200660D01*
X220943Y199996D01*
X220788Y199213D01*
X220943Y198429D01*
X221387Y197765D01*
X222051Y197321D01*
X222835Y197165D01*
X223618Y197321D01*
X224282Y197765D01*
X224726Y198429D01*
X224882Y199213D01*
X224726Y199996D01*
X224282Y200660D01*
X223618Y201104D01*
X222835Y201260D01*
D02*
G37*
G36*
X390551Y200472D02*
X389768Y200317D01*
X389104Y199873D01*
X388660Y199209D01*
X388504Y198425D01*
X388660Y197642D01*
X389104Y196978D01*
X389768Y196534D01*
X390551Y196378D01*
X391335Y196534D01*
X391999Y196978D01*
X392443Y197642D01*
X392598Y198425D01*
X392443Y199209D01*
X391999Y199873D01*
X391335Y200317D01*
X390551Y200472D01*
D02*
G37*
G36*
X18298Y198079D02*
X14002D01*
Y193784D01*
X14696Y193875D01*
X15894Y194371D01*
X16922Y195160D01*
X17710Y196188D01*
X18206Y197385D01*
X18298Y198079D01*
D02*
G37*
G36*
X12821D02*
X8526D01*
X8617Y197385D01*
X9113Y196188D01*
X9902Y195160D01*
X10930Y194371D01*
X12127Y193875D01*
X12821Y193784D01*
Y198079D01*
D02*
G37*
G36*
X305512Y197323D02*
X304728Y197167D01*
X304064Y196723D01*
X303620Y196059D01*
X303465Y195276D01*
X303620Y194492D01*
X304064Y193828D01*
X304728Y193384D01*
X305512Y193228D01*
X306295Y193384D01*
X306959Y193828D01*
X307403Y194492D01*
X307559Y195276D01*
X307403Y196059D01*
X306959Y196723D01*
X306295Y197167D01*
X305512Y197323D01*
D02*
G37*
G36*
X228346D02*
X227563Y197167D01*
X226899Y196723D01*
X226455Y196059D01*
X226299Y195276D01*
X226455Y194492D01*
X226899Y193828D01*
X227563Y193384D01*
X228346Y193228D01*
X229130Y193384D01*
X229794Y193828D01*
X230238Y194492D01*
X230394Y195276D01*
X230238Y196059D01*
X229794Y196723D01*
X229130Y197167D01*
X228346Y197323D01*
D02*
G37*
G36*
X420276Y195157D02*
X419492Y195002D01*
X418828Y194558D01*
X418384Y193894D01*
X418228Y193110D01*
X418384Y192327D01*
X418828Y191663D01*
X419492Y191219D01*
X420276Y191063D01*
X421059Y191219D01*
X421723Y191663D01*
X422167Y192327D01*
X422323Y193110D01*
X422167Y193894D01*
X421723Y194558D01*
X421059Y195002D01*
X420276Y195157D01*
D02*
G37*
G36*
X338583Y192598D02*
X337799Y192443D01*
X337135Y191999D01*
X336691Y191335D01*
X336536Y190551D01*
X336691Y189768D01*
X337135Y189104D01*
X337799Y188660D01*
X338583Y188504D01*
X339366Y188660D01*
X340030Y189104D01*
X340474Y189768D01*
X340630Y190551D01*
X340474Y191335D01*
X340030Y191999D01*
X339366Y192443D01*
X338583Y192598D01*
D02*
G37*
G36*
X301599Y188661D02*
X300815Y188506D01*
X300391Y188222D01*
X300024Y188103D01*
X299657Y188222D01*
X299232Y188506D01*
X298449Y188661D01*
X297666Y188506D01*
X297001Y188062D01*
X296558Y187398D01*
X296402Y186614D01*
X296558Y185831D01*
X297001Y185167D01*
X297666Y184723D01*
X298449Y184567D01*
X299232Y184723D01*
X299657Y185006D01*
X300024Y185125D01*
X300391Y185006D01*
X300815Y184723D01*
X301599Y184567D01*
X302382Y184723D01*
X303046Y185167D01*
X303490Y185831D01*
X303646Y186614D01*
X303490Y187398D01*
X303046Y188062D01*
X302382Y188506D01*
X301599Y188661D01*
D02*
G37*
G36*
X453543Y191024D02*
X452760Y190868D01*
X452096Y190424D01*
X451652Y189760D01*
X451496Y188976D01*
X451652Y188193D01*
X452096Y187529D01*
X452760Y187085D01*
X453543Y186929D01*
X454327Y187085D01*
X454991Y187529D01*
X455435Y188193D01*
X455590Y188976D01*
X455435Y189760D01*
X454991Y190424D01*
X454327Y190868D01*
X453543Y191024D01*
D02*
G37*
G36*
X-3937Y191597D02*
X-4615Y191508D01*
X-5248Y191246D01*
X-5790Y190830D01*
X-6207Y190287D01*
X-6469Y189655D01*
X-6558Y188976D01*
X-6469Y188298D01*
X-6207Y187666D01*
X-5790Y187123D01*
X-5248Y186707D01*
X-4615Y186445D01*
X-3937Y186356D01*
X-3259Y186445D01*
X-2627Y186707D01*
X-2084Y187123D01*
X-1667Y187666D01*
X-1405Y188298D01*
X-1316Y188976D01*
X-1405Y189655D01*
X-1667Y190287D01*
X-2084Y190830D01*
X-2627Y191246D01*
X-3259Y191508D01*
X-3937Y191597D01*
D02*
G37*
G36*
X359055Y189842D02*
X358272Y189687D01*
X357608Y189243D01*
X357164Y188579D01*
X357008Y187795D01*
X357164Y187012D01*
X357608Y186348D01*
X358272Y185904D01*
X359055Y185748D01*
X359839Y185904D01*
X360503Y186348D01*
X360946Y187012D01*
X361102Y187795D01*
X360946Y188579D01*
X360503Y189243D01*
X359839Y189687D01*
X359055Y189842D01*
D02*
G37*
G36*
X307480Y189449D02*
X306697Y189293D01*
X306033Y188849D01*
X305589Y188185D01*
X305433Y187402D01*
X305589Y186618D01*
X306033Y185954D01*
X306697Y185510D01*
X307480Y185354D01*
X308264Y185510D01*
X308928Y185954D01*
X309372Y186618D01*
X309528Y187402D01*
X309372Y188185D01*
X308928Y188849D01*
X308264Y189293D01*
X307480Y189449D01*
D02*
G37*
G36*
X230315D02*
X229532Y189293D01*
X228867Y188849D01*
X228424Y188185D01*
X228268Y187402D01*
X228424Y186618D01*
X228867Y185954D01*
X229532Y185510D01*
X230315Y185354D01*
X231098Y185510D01*
X231763Y185954D01*
X232206Y186618D01*
X232362Y187402D01*
X232206Y188185D01*
X231763Y188849D01*
X231098Y189293D01*
X230315Y189449D01*
D02*
G37*
G36*
X222835Y189449D02*
X222051Y189293D01*
X221387Y188849D01*
X220943Y188185D01*
X220787Y187402D01*
X220943Y186618D01*
X221387Y185954D01*
X222051Y185510D01*
X222835Y185354D01*
X223618Y185510D01*
X224282Y185954D01*
X224726Y186618D01*
X224882Y187402D01*
X224726Y188185D01*
X224282Y188849D01*
X223618Y189293D01*
X222835Y189449D01*
D02*
G37*
G36*
X420276Y189252D02*
X419492Y189096D01*
X418828Y188652D01*
X418384Y187988D01*
X418228Y187205D01*
X418384Y186421D01*
X418828Y185757D01*
X419492Y185313D01*
X420276Y185157D01*
X421059Y185313D01*
X421723Y185757D01*
X422167Y186421D01*
X422323Y187205D01*
X422167Y187988D01*
X421723Y188652D01*
X421059Y189096D01*
X420276Y189252D01*
D02*
G37*
G36*
X292520Y189055D02*
X291736Y188899D01*
X291072Y188455D01*
X290628Y187791D01*
X290473Y187008D01*
X290628Y186224D01*
X291072Y185560D01*
X291736Y185116D01*
X292520Y184961D01*
X293303Y185116D01*
X293967Y185560D01*
X294411Y186224D01*
X294567Y187008D01*
X294411Y187791D01*
X293967Y188455D01*
X293303Y188899D01*
X292520Y189055D01*
D02*
G37*
G36*
X272441D02*
X271657Y188899D01*
X270993Y188455D01*
X270550Y187791D01*
X270394Y187008D01*
X270550Y186224D01*
X270993Y185560D01*
X271657Y185116D01*
X272441Y184961D01*
X273224Y185116D01*
X273888Y185560D01*
X274332Y186224D01*
X274488Y187008D01*
X274332Y187791D01*
X273888Y188455D01*
X273224Y188899D01*
X272441Y189055D01*
D02*
G37*
G36*
X205118Y188661D02*
X204335Y188506D01*
X203671Y188062D01*
X203227Y187398D01*
X203071Y186614D01*
X203227Y185831D01*
X203671Y185167D01*
X204335Y184723D01*
X205118Y184567D01*
X205902Y184723D01*
X206566Y185167D01*
X207010Y185831D01*
X207165Y186614D01*
X207010Y187398D01*
X206566Y188062D01*
X205902Y188506D01*
X205118Y188661D01*
D02*
G37*
G36*
X90933Y186625D02*
X90150Y186469D01*
X89486Y186026D01*
X89042Y185362D01*
X88886Y184578D01*
X89042Y183795D01*
X89486Y183131D01*
X90150Y182687D01*
X90933Y182531D01*
X91717Y182687D01*
X92381Y183131D01*
X92825Y183795D01*
X92981Y184578D01*
X92825Y185362D01*
X92381Y186026D01*
X91717Y186469D01*
X90933Y186625D01*
D02*
G37*
G36*
X57146Y184987D02*
X56363Y184831D01*
X55699Y184387D01*
X55255Y183723D01*
X55099Y182940D01*
X55255Y182156D01*
X55699Y181492D01*
X56363Y181048D01*
X57146Y180893D01*
X57930Y181048D01*
X58594Y181492D01*
X59038Y182156D01*
X59193Y182940D01*
X59038Y183723D01*
X58594Y184387D01*
X57930Y184831D01*
X57146Y184987D01*
D02*
G37*
G36*
X420276Y182953D02*
X419492Y182797D01*
X418828Y182353D01*
X418384Y181689D01*
X418228Y180905D01*
X418384Y180122D01*
X418828Y179458D01*
X419492Y179014D01*
X420276Y178858D01*
X421059Y179014D01*
X421723Y179458D01*
X422167Y180122D01*
X422323Y180905D01*
X422167Y181689D01*
X421723Y182353D01*
X421059Y182797D01*
X420276Y182953D01*
D02*
G37*
G36*
X214232Y179213D02*
X213449Y179057D01*
X212785Y178613D01*
X212530D01*
X211866Y179057D01*
X211083Y179213D01*
X210299Y179057D01*
X209635Y178613D01*
X209191Y177949D01*
X209035Y177165D01*
X209191Y176382D01*
X209635Y175718D01*
X210299Y175274D01*
X211083Y175118D01*
X211866Y175274D01*
X212291Y175557D01*
X212657Y175677D01*
X213025Y175557D01*
X213449Y175274D01*
X214232Y175118D01*
X215016Y175274D01*
X215680Y175718D01*
X216124Y176382D01*
X216280Y177165D01*
X216124Y177949D01*
X215680Y178613D01*
X215016Y179057D01*
X214232Y179213D01*
D02*
G37*
G36*
X-3937Y183723D02*
X-4615Y183634D01*
X-5248Y183372D01*
X-5790Y182956D01*
X-6207Y182413D01*
X-6469Y181781D01*
X-6558Y181102D01*
X-6469Y180424D01*
X-6207Y179792D01*
X-5790Y179249D01*
X-5248Y178833D01*
X-4615Y178571D01*
X-3937Y178482D01*
X-3259Y178571D01*
X-2627Y178833D01*
X-2084Y179249D01*
X-1667Y179792D01*
X-1405Y180424D01*
X-1316Y181102D01*
X-1405Y181781D01*
X-1667Y182413D01*
X-2084Y182956D01*
X-2627Y183372D01*
X-3259Y183634D01*
X-3937Y183723D01*
D02*
G37*
G36*
X364173Y182362D02*
X363390Y182206D01*
X362726Y181763D01*
X362282Y181098D01*
X362126Y180315D01*
X362282Y179532D01*
X362726Y178867D01*
X363390Y178424D01*
X364173Y178268D01*
X364957Y178424D01*
X365621Y178867D01*
X366065Y179532D01*
X366220Y180315D01*
X366065Y181098D01*
X365621Y181763D01*
X364957Y182206D01*
X364173Y182362D01*
D02*
G37*
G36*
X287795Y180394D02*
X287012Y180238D01*
X286348Y179794D01*
X285904Y179130D01*
X285748Y178346D01*
X285904Y177563D01*
X286348Y176899D01*
X287012Y176455D01*
X287795Y176299D01*
X288579Y176455D01*
X289243Y176899D01*
X289687Y177563D01*
X289843Y178346D01*
X289687Y179130D01*
X289243Y179794D01*
X288579Y180238D01*
X287795Y180394D01*
D02*
G37*
G36*
X282283D02*
X281500Y180238D01*
X280836Y179794D01*
X280392Y179130D01*
X280236Y178346D01*
X280392Y177563D01*
X280836Y176899D01*
X281500Y176455D01*
X282283Y176299D01*
X283067Y176455D01*
X283731Y176899D01*
X284175Y177563D01*
X284331Y178346D01*
X284175Y179130D01*
X283731Y179794D01*
X283067Y180238D01*
X282283Y180394D01*
D02*
G37*
G36*
X224935Y180000D02*
X224151Y179844D01*
X223487Y179400D01*
X223043Y178736D01*
X222887Y177953D01*
X223043Y177169D01*
X223487Y176505D01*
X224151Y176061D01*
X224935Y175906D01*
X225718Y176061D01*
X226382Y176505D01*
X226826Y177169D01*
X226982Y177953D01*
X226826Y178736D01*
X226382Y179400D01*
X225718Y179844D01*
X224935Y180000D01*
D02*
G37*
G36*
X328451Y179875D02*
X327667Y179720D01*
X327003Y179276D01*
X326559Y178612D01*
X326404Y177828D01*
X326559Y177045D01*
X327003Y176381D01*
X327667Y175937D01*
X328451Y175781D01*
X329234Y175937D01*
X329898Y176381D01*
X330342Y177045D01*
X330498Y177828D01*
X330342Y178612D01*
X329898Y179276D01*
X329234Y179720D01*
X328451Y179875D01*
D02*
G37*
G36*
X205118Y179606D02*
X204335Y179450D01*
X203671Y179007D01*
X203227Y178342D01*
X203071Y177559D01*
X203227Y176776D01*
X203671Y176111D01*
X204335Y175668D01*
X205118Y175512D01*
X205902Y175668D01*
X206566Y176111D01*
X207010Y176776D01*
X207165Y177559D01*
X207010Y178342D01*
X206566Y179007D01*
X205902Y179450D01*
X205118Y179606D01*
D02*
G37*
G36*
X453543Y178819D02*
X452760Y178663D01*
X452096Y178219D01*
X451652Y177555D01*
X451496Y176772D01*
X451652Y175988D01*
X452096Y175324D01*
X452760Y174880D01*
X453543Y174724D01*
X454327Y174880D01*
X454991Y175324D01*
X455435Y175988D01*
X455590Y176772D01*
X455435Y177555D01*
X454991Y178219D01*
X454327Y178663D01*
X453543Y178819D01*
D02*
G37*
G36*
X420276Y177047D02*
X419492Y176891D01*
X418828Y176447D01*
X418384Y175783D01*
X418228Y175000D01*
X418384Y174216D01*
X418828Y173552D01*
X419492Y173109D01*
X420276Y172953D01*
X421059Y173109D01*
X421723Y173552D01*
X422167Y174216D01*
X422323Y175000D01*
X422167Y175783D01*
X421723Y176447D01*
X421059Y176891D01*
X420276Y177047D01*
D02*
G37*
G36*
X-3937Y175849D02*
X-4615Y175760D01*
X-5248Y175498D01*
X-5790Y175082D01*
X-6207Y174539D01*
X-6469Y173907D01*
X-6558Y173228D01*
X-6469Y172550D01*
X-6207Y171918D01*
X-5790Y171375D01*
X-5248Y170959D01*
X-4615Y170697D01*
X-3937Y170608D01*
X-3259Y170697D01*
X-2627Y170959D01*
X-2084Y171375D01*
X-1667Y171918D01*
X-1405Y172550D01*
X-1316Y173228D01*
X-1405Y173907D01*
X-1667Y174539D01*
X-2084Y175082D01*
X-2627Y175498D01*
X-3259Y175760D01*
X-3937Y175849D01*
D02*
G37*
G36*
X209232Y168976D02*
X208449Y168821D01*
X208025Y168537D01*
X207658Y168418D01*
X207291Y168537D01*
X206866Y168821D01*
X206083Y168976D01*
X205299Y168821D01*
X204635Y168377D01*
X204191Y167713D01*
X204035Y166929D01*
X204191Y166146D01*
X204635Y165482D01*
X205299Y165038D01*
X206083Y164882D01*
X206866Y165038D01*
X207291Y165321D01*
X207658Y165440D01*
X208025Y165321D01*
X208449Y165038D01*
X209232Y164882D01*
X210016Y165038D01*
X210680Y165482D01*
X211124Y166146D01*
X211280Y166929D01*
X211124Y167713D01*
X210680Y168377D01*
X210016Y168821D01*
X209232Y168976D01*
D02*
G37*
G36*
X282283Y168583D02*
X281500Y168427D01*
X281076Y168143D01*
X280709Y168024D01*
X280342Y168143D01*
X279917Y168427D01*
X279134Y168583D01*
X278350Y168427D01*
X277686Y167983D01*
X277243Y167319D01*
X277087Y166535D01*
X277243Y165752D01*
X277686Y165088D01*
X278350Y164644D01*
X279134Y164488D01*
X279917Y164644D01*
X280342Y164927D01*
X280709Y165047D01*
X281076Y164927D01*
X281500Y164644D01*
X282283Y164488D01*
X283067Y164644D01*
X283731Y165088D01*
X284175Y165752D01*
X284331Y166535D01*
X284175Y167319D01*
X283731Y167983D01*
X283067Y168427D01*
X282283Y168583D01*
D02*
G37*
G36*
X420276Y170748D02*
X419492Y170592D01*
X418828Y170148D01*
X418384Y169484D01*
X418228Y168701D01*
X418384Y167917D01*
X418828Y167253D01*
X419492Y166809D01*
X420276Y166654D01*
X421059Y166809D01*
X421723Y167253D01*
X422167Y167917D01*
X422323Y168701D01*
X422167Y169484D01*
X421723Y170148D01*
X421059Y170592D01*
X420276Y170748D01*
D02*
G37*
G36*
X-3937Y167975D02*
X-4615Y167886D01*
X-5248Y167624D01*
X-5790Y167208D01*
X-6207Y166665D01*
X-6469Y166033D01*
X-6558Y165354D01*
X-6469Y164676D01*
X-6207Y164044D01*
X-5790Y163501D01*
X-5248Y163085D01*
X-4615Y162823D01*
X-3937Y162734D01*
X-3259Y162823D01*
X-2627Y163085D01*
X-2084Y163501D01*
X-1667Y164044D01*
X-1405Y164676D01*
X-1316Y165354D01*
X-1405Y166033D01*
X-1667Y166665D01*
X-2084Y167208D01*
X-2627Y167624D01*
X-3259Y167886D01*
X-3937Y167975D01*
D02*
G37*
G36*
X420276Y164842D02*
X419492Y164687D01*
X418828Y164243D01*
X418384Y163579D01*
X418228Y162795D01*
X418384Y162012D01*
X418828Y161348D01*
X419492Y160904D01*
X420276Y160748D01*
X421059Y160904D01*
X421723Y161348D01*
X422167Y162012D01*
X422323Y162795D01*
X422167Y163579D01*
X421723Y164243D01*
X421059Y164687D01*
X420276Y164842D01*
D02*
G37*
G36*
X135152Y163339D02*
Y159044D01*
X139448D01*
X139357Y159738D01*
X138861Y160935D01*
X138072Y161963D01*
X137044Y162752D01*
X135847Y163248D01*
X135152Y163339D01*
D02*
G37*
G36*
X133971D02*
X133277Y163248D01*
X132080Y162752D01*
X131052Y161963D01*
X130263Y160935D01*
X129767Y159738D01*
X129676Y159044D01*
X133971D01*
Y163339D01*
D02*
G37*
G36*
X296599Y159528D02*
X295815Y159372D01*
X295391Y159088D01*
X295024Y158969D01*
X294657Y159088D01*
X294232Y159372D01*
X293449Y159528D01*
X292666Y159372D01*
X292001Y158928D01*
X291558Y158264D01*
X291402Y157480D01*
X291558Y156697D01*
X292001Y156033D01*
X292666Y155589D01*
X293449Y155433D01*
X294232Y155589D01*
X294897Y156033D01*
X295151D01*
X295815Y155589D01*
X296599Y155433D01*
X297382Y155589D01*
X298046Y156033D01*
X298490Y156697D01*
X298646Y157480D01*
X298490Y158264D01*
X298046Y158928D01*
X297382Y159372D01*
X296599Y159528D01*
D02*
G37*
G36*
X450000Y162677D02*
X449217Y162521D01*
X448552Y162077D01*
X448109Y161413D01*
X447953Y160630D01*
X448109Y159846D01*
X448552Y159182D01*
X449217Y158739D01*
X450000Y158583D01*
X450783Y158739D01*
X451448Y159182D01*
X451891Y159846D01*
X452047Y160630D01*
X451891Y161413D01*
X451448Y162077D01*
X450783Y162521D01*
X450000Y162677D01*
D02*
G37*
G36*
X272441Y159134D02*
X271657Y158978D01*
X270993Y158534D01*
X270550Y157870D01*
X270394Y157087D01*
X270550Y156303D01*
X270993Y155639D01*
X271657Y155195D01*
X272441Y155039D01*
X273224Y155195D01*
X273888Y155639D01*
X274332Y156303D01*
X274488Y157087D01*
X274332Y157870D01*
X273888Y158534D01*
X273224Y158978D01*
X272441Y159134D01*
D02*
G37*
G36*
X220079Y159134D02*
X219295Y158978D01*
X218631Y158534D01*
X218187Y157870D01*
X218032Y157087D01*
X218187Y156303D01*
X218631Y155639D01*
X219295Y155195D01*
X220079Y155039D01*
X220862Y155195D01*
X221526Y155639D01*
X221970Y156303D01*
X222126Y157087D01*
X221970Y157870D01*
X221526Y158534D01*
X220862Y158978D01*
X220079Y159134D01*
D02*
G37*
G36*
X-3937Y160101D02*
X-4615Y160012D01*
X-5248Y159750D01*
X-5790Y159333D01*
X-6207Y158791D01*
X-6469Y158159D01*
X-6558Y157480D01*
X-6469Y156802D01*
X-6207Y156170D01*
X-5790Y155627D01*
X-5248Y155210D01*
X-4615Y154949D01*
X-3937Y154859D01*
X-3259Y154949D01*
X-2627Y155210D01*
X-2084Y155627D01*
X-1667Y156170D01*
X-1405Y156802D01*
X-1316Y157480D01*
X-1405Y158159D01*
X-1667Y158791D01*
X-2084Y159333D01*
X-2627Y159750D01*
X-3259Y160012D01*
X-3937Y160101D01*
D02*
G37*
G36*
X105346Y158852D02*
X104562Y158696D01*
X103898Y158253D01*
X103454Y157588D01*
X103299Y156805D01*
X103454Y156022D01*
X103898Y155357D01*
X104562Y154914D01*
X105346Y154758D01*
X106129Y154914D01*
X106793Y155357D01*
X107237Y156022D01*
X107393Y156805D01*
X107237Y157588D01*
X106793Y158253D01*
X106129Y158696D01*
X105346Y158852D01*
D02*
G37*
G36*
X215354Y158740D02*
X214571Y158584D01*
X213907Y158140D01*
X213463Y157476D01*
X213307Y156693D01*
X213463Y155909D01*
X213907Y155245D01*
X214571Y154801D01*
X215354Y154646D01*
X216138Y154801D01*
X216802Y155245D01*
X217246Y155909D01*
X217402Y156693D01*
X217246Y157476D01*
X216802Y158140D01*
X216138Y158584D01*
X215354Y158740D01*
D02*
G37*
G36*
X37854Y158630D02*
X37071Y158474D01*
X36407Y158031D01*
X35963Y157366D01*
X35807Y156583D01*
X35963Y155800D01*
X36407Y155135D01*
X37071Y154692D01*
X37854Y154536D01*
X38638Y154692D01*
X39302Y155135D01*
X39746Y155800D01*
X39901Y156583D01*
X39746Y157366D01*
X39302Y158031D01*
X38638Y158474D01*
X37854Y158630D01*
D02*
G37*
G36*
X420276Y158543D02*
X419492Y158387D01*
X418828Y157944D01*
X418384Y157279D01*
X418228Y156496D01*
X418384Y155713D01*
X418828Y155048D01*
X419492Y154605D01*
X420276Y154449D01*
X421059Y154605D01*
X421723Y155048D01*
X422167Y155713D01*
X422323Y156496D01*
X422167Y157279D01*
X421723Y157944D01*
X421059Y158387D01*
X420276Y158543D01*
D02*
G37*
G36*
X255906Y157953D02*
X255122Y157797D01*
X254458Y157353D01*
X254014Y156689D01*
X253858Y155905D01*
X254014Y155122D01*
X254458Y154458D01*
X255122Y154014D01*
X255906Y153858D01*
X256689Y154014D01*
X257353Y154458D01*
X257797Y155122D01*
X257953Y155905D01*
X257797Y156689D01*
X257353Y157353D01*
X256689Y157797D01*
X255906Y157953D01*
D02*
G37*
G36*
X139448Y157863D02*
X135152D01*
Y153567D01*
X135847Y153659D01*
X137044Y154155D01*
X138072Y154943D01*
X138861Y155971D01*
X139357Y157169D01*
X139448Y157863D01*
D02*
G37*
G36*
X133971D02*
X129676D01*
X129767Y157169D01*
X130263Y155971D01*
X131052Y154943D01*
X132080Y154155D01*
X133277Y153659D01*
X133971Y153567D01*
Y157863D01*
D02*
G37*
G36*
X453543Y154803D02*
X452760Y154647D01*
X452096Y154203D01*
X451652Y153539D01*
X451496Y152756D01*
X451652Y151972D01*
X452096Y151308D01*
X452760Y150865D01*
X453543Y150709D01*
X454327Y150865D01*
X454991Y151308D01*
X455435Y151972D01*
X455590Y152756D01*
X455435Y153539D01*
X454991Y154203D01*
X454327Y154647D01*
X453543Y154803D01*
D02*
G37*
G36*
X420276Y152638D02*
X419492Y152482D01*
X418828Y152038D01*
X418384Y151374D01*
X418228Y150591D01*
X418384Y149807D01*
X418828Y149143D01*
X419492Y148699D01*
X420276Y148543D01*
X421059Y148699D01*
X421723Y149143D01*
X422167Y149807D01*
X422323Y150591D01*
X422167Y151374D01*
X421723Y152038D01*
X421059Y152482D01*
X420276Y152638D01*
D02*
G37*
G36*
X270079Y152047D02*
X269295Y151891D01*
X268631Y151448D01*
X268187Y150783D01*
X268032Y150000D01*
X268187Y149217D01*
X268631Y148552D01*
X269295Y148109D01*
X270079Y147953D01*
X270862Y148109D01*
X271526Y148552D01*
X271970Y149217D01*
X272126Y150000D01*
X271970Y150783D01*
X271526Y151448D01*
X270862Y151891D01*
X270079Y152047D01*
D02*
G37*
G36*
X212992D02*
X212209Y151891D01*
X211544Y151448D01*
X211101Y150783D01*
X210945Y150000D01*
X211101Y149217D01*
X211544Y148552D01*
X212209Y148109D01*
X212992Y147953D01*
X213776Y148109D01*
X214440Y148552D01*
X214883Y149217D01*
X215039Y150000D01*
X214883Y150783D01*
X214440Y151448D01*
X213776Y151891D01*
X212992Y152047D01*
D02*
G37*
G36*
X-3937Y152227D02*
X-4615Y152138D01*
X-5248Y151876D01*
X-5790Y151459D01*
X-6207Y150917D01*
X-6469Y150285D01*
X-6558Y149606D01*
X-6469Y148928D01*
X-6207Y148296D01*
X-5790Y147753D01*
X-5248Y147336D01*
X-4615Y147075D01*
X-3937Y146985D01*
X-3259Y147075D01*
X-2627Y147336D01*
X-2084Y147753D01*
X-1667Y148296D01*
X-1405Y148928D01*
X-1316Y149606D01*
X-1405Y150285D01*
X-1667Y150917D01*
X-2084Y151459D01*
X-2627Y151876D01*
X-3259Y152138D01*
X-3937Y152227D01*
D02*
G37*
G36*
X390945Y149291D02*
X390161Y149135D01*
X389497Y148692D01*
X389054Y148028D01*
X388898Y147244D01*
X389054Y146461D01*
X389497Y145797D01*
X390161Y145353D01*
X390945Y145197D01*
X391728Y145353D01*
X392392Y145797D01*
X392836Y146461D01*
X392992Y147244D01*
X392836Y148028D01*
X392392Y148692D01*
X391728Y149135D01*
X390945Y149291D01*
D02*
G37*
G36*
X313779Y148504D02*
X312996Y148348D01*
X312332Y147904D01*
X311888Y147240D01*
X311732Y146457D01*
X311888Y145673D01*
X312332Y145009D01*
X312996Y144565D01*
X313779Y144410D01*
X314563Y144565D01*
X315227Y145009D01*
X315671Y145673D01*
X315827Y146457D01*
X315671Y147240D01*
X315227Y147904D01*
X314563Y148348D01*
X313779Y148504D01*
D02*
G37*
G36*
X226772Y148504D02*
X225988Y148348D01*
X225324Y147904D01*
X224880Y147240D01*
X224725Y146457D01*
X224880Y145673D01*
X225324Y145009D01*
X225988Y144565D01*
X226772Y144409D01*
X227555Y144565D01*
X228219Y145009D01*
X228663Y145673D01*
X228819Y146457D01*
X228663Y147240D01*
X228219Y147904D01*
X227555Y148348D01*
X226772Y148504D01*
D02*
G37*
G36*
X420276Y146338D02*
X419492Y146183D01*
X418828Y145739D01*
X418384Y145075D01*
X418228Y144291D01*
X418384Y143508D01*
X418828Y142844D01*
X419492Y142400D01*
X420276Y142244D01*
X421059Y142400D01*
X421723Y142844D01*
X422167Y143508D01*
X422323Y144291D01*
X422167Y145075D01*
X421723Y145739D01*
X421059Y146183D01*
X420276Y146338D01*
D02*
G37*
G36*
X301599Y139842D02*
X300815Y139687D01*
X300391Y139403D01*
X300024Y139284D01*
X299657Y139403D01*
X299232Y139687D01*
X298449Y139842D01*
X297666Y139687D01*
X297001Y139243D01*
X296558Y138579D01*
X296402Y137795D01*
X296558Y137012D01*
X297001Y136348D01*
X297666Y135904D01*
X298449Y135748D01*
X299232Y135904D01*
X299657Y136187D01*
X300024Y136306D01*
X300391Y136187D01*
X300815Y135904D01*
X301599Y135748D01*
X302382Y135904D01*
X303046Y136348D01*
X303490Y137012D01*
X303646Y137795D01*
X303490Y138579D01*
X303046Y139243D01*
X302382Y139687D01*
X301599Y139842D01*
D02*
G37*
G36*
X-3937Y144421D02*
X-4615Y144332D01*
X-5248Y144070D01*
X-5790Y143653D01*
X-6207Y143110D01*
X-6469Y142478D01*
X-6558Y141800D01*
X-6469Y141122D01*
X-6207Y140490D01*
X-5790Y139947D01*
X-5248Y139530D01*
X-4615Y139269D01*
X-3937Y139179D01*
X-3259Y139269D01*
X-2627Y139530D01*
X-2084Y139947D01*
X-1667Y140490D01*
X-1406Y141122D01*
X-1316Y141800D01*
X-1406Y142478D01*
X-1667Y143110D01*
X-2084Y143653D01*
X-2627Y144070D01*
X-3259Y144332D01*
X-3937Y144421D01*
D02*
G37*
G36*
X453937Y142205D02*
X453154Y142049D01*
X452489Y141605D01*
X452046Y140941D01*
X451890Y140157D01*
X452046Y139374D01*
X452489Y138710D01*
X453154Y138266D01*
X453937Y138110D01*
X454720Y138266D01*
X455385Y138710D01*
X455828Y139374D01*
X455984Y140157D01*
X455828Y140941D01*
X455385Y141605D01*
X454720Y142049D01*
X453937Y142205D01*
D02*
G37*
G36*
X313386Y141816D02*
X312602Y141660D01*
X311938Y141216D01*
X311494Y140552D01*
X311339Y139769D01*
X311494Y138985D01*
X311938Y138321D01*
X312602Y137877D01*
X313386Y137722D01*
X314169Y137877D01*
X314833Y138321D01*
X315277Y138985D01*
X315433Y139769D01*
X315277Y140552D01*
X314833Y141216D01*
X314169Y141660D01*
X313386Y141816D01*
D02*
G37*
G36*
X292520Y141417D02*
X291736Y141261D01*
X291072Y140818D01*
X290628Y140153D01*
X290473Y139370D01*
X290628Y138587D01*
X291072Y137922D01*
X291736Y137479D01*
X292520Y137323D01*
X293303Y137479D01*
X293967Y137922D01*
X294411Y138587D01*
X294567Y139370D01*
X294411Y140153D01*
X293967Y140818D01*
X293303Y141261D01*
X292520Y141417D01*
D02*
G37*
G36*
X230315Y141024D02*
X229532Y140868D01*
X228867Y140424D01*
X228424Y139760D01*
X228268Y138976D01*
X228424Y138193D01*
X228867Y137529D01*
X229532Y137085D01*
X230315Y136929D01*
X231098Y137085D01*
X231763Y137529D01*
X232206Y138193D01*
X232362Y138976D01*
X232206Y139760D01*
X231763Y140424D01*
X231098Y140868D01*
X230315Y141024D01*
D02*
G37*
G36*
X222835Y140630D02*
X222051Y140474D01*
X221387Y140030D01*
X220943Y139366D01*
X220787Y138583D01*
X220943Y137799D01*
X221387Y137135D01*
X222051Y136691D01*
X222835Y136536D01*
X223618Y136691D01*
X224282Y137135D01*
X224726Y137799D01*
X224882Y138583D01*
X224726Y139366D01*
X224282Y140030D01*
X223618Y140474D01*
X222835Y140630D01*
D02*
G37*
G36*
X420276Y140433D02*
X419492Y140277D01*
X418828Y139833D01*
X418384Y139169D01*
X418228Y138386D01*
X418384Y137602D01*
X418828Y136938D01*
X419492Y136494D01*
X420276Y136339D01*
X421059Y136494D01*
X421723Y136938D01*
X422167Y137602D01*
X422323Y138386D01*
X422167Y139169D01*
X421723Y139833D01*
X421059Y140277D01*
X420276Y140433D01*
D02*
G37*
G36*
X272441Y139842D02*
X271657Y139687D01*
X270993Y139243D01*
X270550Y138579D01*
X270394Y137795D01*
X270550Y137012D01*
X270993Y136348D01*
X271657Y135904D01*
X272441Y135748D01*
X273224Y135904D01*
X273888Y136348D01*
X274332Y137012D01*
X274488Y137795D01*
X274332Y138579D01*
X273888Y139243D01*
X273224Y139687D01*
X272441Y139842D01*
D02*
G37*
G36*
X205118D02*
X204335Y139687D01*
X203671Y139243D01*
X203227Y138579D01*
X203071Y137795D01*
X203227Y137012D01*
X203671Y136348D01*
X204335Y135904D01*
X205118Y135748D01*
X205902Y135904D01*
X206566Y136348D01*
X207010Y137012D01*
X207165Y137795D01*
X207010Y138579D01*
X206566Y139243D01*
X205902Y139687D01*
X205118Y139842D01*
D02*
G37*
G36*
X37867Y136756D02*
X37084Y136600D01*
X36420Y136156D01*
X35976Y135492D01*
X35820Y134709D01*
X35976Y133925D01*
X36420Y133261D01*
X37084Y132817D01*
X37867Y132662D01*
X38651Y132817D01*
X39315Y133261D01*
X39759Y133925D01*
X39915Y134709D01*
X39759Y135492D01*
X39315Y136156D01*
X38651Y136600D01*
X37867Y136756D01*
D02*
G37*
G36*
X105113Y136466D02*
X104330Y136311D01*
X103666Y135867D01*
X103222Y135203D01*
X103066Y134419D01*
X103222Y133636D01*
X103666Y132972D01*
X104330Y132528D01*
X105113Y132372D01*
X105897Y132528D01*
X106561Y132972D01*
X107005Y133636D01*
X107160Y134419D01*
X107005Y135203D01*
X106561Y135867D01*
X105897Y136311D01*
X105113Y136466D01*
D02*
G37*
G36*
X358268Y135512D02*
X357484Y135356D01*
X356820Y134912D01*
X356376Y134248D01*
X356221Y133465D01*
X356376Y132681D01*
X356820Y132017D01*
X357484Y131573D01*
X358268Y131417D01*
X359051Y131573D01*
X359715Y132017D01*
X360159Y132681D01*
X360315Y133465D01*
X360159Y134248D01*
X359715Y134912D01*
X359051Y135356D01*
X358268Y135512D01*
D02*
G37*
G36*
X420276Y134134D02*
X419492Y133978D01*
X418828Y133534D01*
X418384Y132870D01*
X418228Y132087D01*
X418384Y131303D01*
X418828Y130639D01*
X419492Y130195D01*
X420276Y130039D01*
X421059Y130195D01*
X421723Y130639D01*
X422167Y131303D01*
X422323Y132087D01*
X422167Y132870D01*
X421723Y133534D01*
X421059Y133978D01*
X420276Y134134D01*
D02*
G37*
G36*
X214960Y130000D02*
X214177Y129844D01*
X213512Y129400D01*
X213069Y128736D01*
X213050Y128640D01*
X212540D01*
X212521Y128736D01*
X212077Y129400D01*
X211413Y129844D01*
X210630Y130000D01*
X209846Y129844D01*
X209182Y129400D01*
X208738Y128736D01*
X208582Y127952D01*
X208738Y127169D01*
X209182Y126505D01*
X209846Y126061D01*
X210630Y125905D01*
X211413Y126061D01*
X212077Y126505D01*
X212521Y127169D01*
X212540Y127265D01*
X213050D01*
X213069Y127169D01*
X213512Y126505D01*
X214177Y126061D01*
X214960Y125905D01*
X215744Y126061D01*
X216408Y126505D01*
X216851Y127169D01*
X217007Y127952D01*
X216851Y128736D01*
X216408Y129400D01*
X215744Y129844D01*
X214960Y130000D01*
D02*
G37*
G36*
X287795Y131968D02*
X287012Y131813D01*
X286348Y131369D01*
X285904Y130705D01*
X285748Y129921D01*
X285904Y129138D01*
X286348Y128474D01*
X287012Y128030D01*
X287795Y127874D01*
X288579Y128030D01*
X289243Y128474D01*
X289687Y129138D01*
X289843Y129921D01*
X289687Y130705D01*
X289243Y131369D01*
X288579Y131813D01*
X287795Y131968D01*
D02*
G37*
G36*
X282677D02*
X281894Y131813D01*
X281229Y131369D01*
X280786Y130705D01*
X280630Y129921D01*
X280786Y129138D01*
X281229Y128474D01*
X281894Y128030D01*
X282677Y127874D01*
X283461Y128030D01*
X284125Y128474D01*
X284569Y129138D01*
X284724Y129921D01*
X284569Y130705D01*
X284125Y131369D01*
X283461Y131813D01*
X282677Y131968D01*
D02*
G37*
G36*
X225197Y131181D02*
X224414Y131025D01*
X223749Y130581D01*
X223306Y129917D01*
X223150Y129134D01*
X223306Y128350D01*
X223749Y127686D01*
X224414Y127243D01*
X225197Y127087D01*
X225980Y127243D01*
X226645Y127686D01*
X227088Y128350D01*
X227244Y129134D01*
X227088Y129917D01*
X226645Y130581D01*
X225980Y131025D01*
X225197Y131181D01*
D02*
G37*
G36*
X205118Y130787D02*
X204335Y130632D01*
X203671Y130188D01*
X203227Y129524D01*
X203071Y128740D01*
X203227Y127957D01*
X203671Y127293D01*
X204335Y126849D01*
X205118Y126693D01*
X205902Y126849D01*
X206566Y127293D01*
X207010Y127957D01*
X207165Y128740D01*
X207010Y129524D01*
X206566Y130188D01*
X205902Y130632D01*
X205118Y130787D01*
D02*
G37*
G36*
X420276Y128228D02*
X419492Y128072D01*
X418828Y127629D01*
X418384Y126964D01*
X418228Y126181D01*
X418384Y125398D01*
X418828Y124733D01*
X419492Y124290D01*
X420276Y124134D01*
X421059Y124290D01*
X421723Y124733D01*
X422167Y125398D01*
X422323Y126181D01*
X422167Y126964D01*
X421723Y127629D01*
X421059Y128072D01*
X420276Y128228D01*
D02*
G37*
G36*
X450000Y126063D02*
X449217Y125907D01*
X448552Y125463D01*
X448109Y124799D01*
X447953Y124016D01*
X448109Y123232D01*
X448552Y122568D01*
X449217Y122124D01*
X450000Y121968D01*
X450783Y122124D01*
X451448Y122568D01*
X451891Y123232D01*
X452047Y124016D01*
X451891Y124799D01*
X451448Y125463D01*
X450783Y125907D01*
X450000Y126063D01*
D02*
G37*
G36*
X523559Y124602D02*
Y121252D01*
X526909D01*
X526850Y121702D01*
X526449Y122671D01*
X525810Y123503D01*
X524978Y124142D01*
X524009Y124543D01*
X523559Y124602D01*
D02*
G37*
G36*
X522378Y124602D02*
X521928Y124543D01*
X520959Y124142D01*
X520127Y123503D01*
X519488Y122671D01*
X519087Y121702D01*
X519028Y121252D01*
X522378D01*
Y124602D01*
D02*
G37*
G36*
X-25197Y124882D02*
X-25980Y124726D01*
X-26645Y124282D01*
X-27088Y123618D01*
X-27244Y122835D01*
X-27088Y122051D01*
X-26645Y121387D01*
X-25980Y120943D01*
X-25197Y120787D01*
X-24413Y120943D01*
X-23749Y121387D01*
X-23305Y122051D01*
X-23150Y122835D01*
X-23305Y123618D01*
X-23749Y124282D01*
X-24413Y124726D01*
X-25197Y124882D01*
D02*
G37*
G36*
X209232Y120157D02*
X208449Y120002D01*
X208025Y119718D01*
X207658Y119599D01*
X207291Y119718D01*
X206866Y120002D01*
X206083Y120157D01*
X205299Y120002D01*
X204635Y119558D01*
X204191Y118894D01*
X204035Y118110D01*
X204191Y117327D01*
X204635Y116663D01*
X205299Y116219D01*
X206083Y116063D01*
X206866Y116219D01*
X207291Y116502D01*
X207658Y116621D01*
X208025Y116502D01*
X208449Y116219D01*
X209232Y116063D01*
X210016Y116219D01*
X210680Y116663D01*
X211124Y117327D01*
X211280Y118110D01*
X211124Y118894D01*
X210680Y119558D01*
X210016Y120002D01*
X209232Y120157D01*
D02*
G37*
G36*
X282283Y119764D02*
X281500Y119608D01*
X281076Y119325D01*
X280709Y119205D01*
X280342Y119325D01*
X279917Y119608D01*
X279134Y119764D01*
X278350Y119608D01*
X277686Y119164D01*
X277243Y118500D01*
X277087Y117717D01*
X277243Y116933D01*
X277686Y116269D01*
X278350Y115825D01*
X279134Y115669D01*
X279917Y115825D01*
X280342Y116109D01*
X280709Y116228D01*
X281076Y116109D01*
X281500Y115825D01*
X282283Y115669D01*
X283067Y115825D01*
X283731Y116269D01*
X284175Y116933D01*
X284331Y117717D01*
X284175Y118500D01*
X283731Y119164D01*
X283067Y119608D01*
X282283Y119764D01*
D02*
G37*
G36*
X48311Y122296D02*
X47527Y122140D01*
X46863Y121696D01*
X46419Y121032D01*
X46263Y120248D01*
X46419Y119465D01*
X46863Y118801D01*
X47527Y118357D01*
X48311Y118201D01*
X49094Y118357D01*
X49758Y118801D01*
X50202Y119465D01*
X50358Y120248D01*
X50202Y121032D01*
X49758Y121696D01*
X49094Y122140D01*
X48311Y122296D01*
D02*
G37*
G36*
X420276Y121929D02*
X419492Y121773D01*
X418828Y121329D01*
X418384Y120665D01*
X418228Y119882D01*
X418384Y119098D01*
X418828Y118434D01*
X419492Y117991D01*
X420276Y117835D01*
X421059Y117991D01*
X421723Y118434D01*
X422167Y119098D01*
X422323Y119882D01*
X422167Y120665D01*
X421723Y121329D01*
X421059Y121773D01*
X420276Y121929D01*
D02*
G37*
G36*
X522378Y120071D02*
X519028D01*
X519087Y119621D01*
X519488Y118652D01*
X520127Y117820D01*
X520959Y117181D01*
X521928Y116780D01*
X522378Y116720D01*
Y120071D01*
D02*
G37*
G36*
X526909D02*
X523559D01*
Y116720D01*
X524009Y116780D01*
X524978Y117181D01*
X525810Y117820D01*
X526449Y118652D01*
X526850Y119621D01*
X526909Y120071D01*
D02*
G37*
G36*
X420276Y116024D02*
X419492Y115868D01*
X418828Y115424D01*
X418384Y114760D01*
X418228Y113976D01*
X418384Y113193D01*
X418828Y112529D01*
X419492Y112085D01*
X420276Y111929D01*
X421059Y112085D01*
X421723Y112529D01*
X422167Y113193D01*
X422323Y113976D01*
X422167Y114760D01*
X421723Y115424D01*
X421059Y115868D01*
X420276Y116024D01*
D02*
G37*
G36*
X390945Y115827D02*
X390161Y115671D01*
X389497Y115227D01*
X389054Y114563D01*
X388898Y113779D01*
X389054Y112996D01*
X389497Y112332D01*
X390161Y111888D01*
X390945Y111732D01*
X391728Y111888D01*
X392392Y112332D01*
X392836Y112996D01*
X392992Y113779D01*
X392836Y114563D01*
X392392Y115227D01*
X391728Y115671D01*
X390945Y115827D01*
D02*
G37*
G36*
X296599Y111102D02*
X295815Y110947D01*
X295391Y110663D01*
X295024Y110544D01*
X294657Y110663D01*
X294232Y110947D01*
X293449Y111102D01*
X292666Y110947D01*
X292001Y110503D01*
X291558Y109839D01*
X291402Y109055D01*
X291558Y108272D01*
X292001Y107607D01*
X292666Y107164D01*
X293449Y107008D01*
X294232Y107164D01*
X294897Y107607D01*
X295151D01*
X295815Y107164D01*
X296599Y107008D01*
X297382Y107164D01*
X298046Y107607D01*
X298490Y108272D01*
X298646Y109055D01*
X298490Y109839D01*
X298046Y110503D01*
X297382Y110947D01*
X296599Y111102D01*
D02*
G37*
G36*
X353937Y114252D02*
X353153Y114096D01*
X352489Y113652D01*
X352046Y112988D01*
X351890Y112205D01*
X352046Y111421D01*
X352489Y110757D01*
X353153Y110313D01*
X353937Y110158D01*
X354720Y110313D01*
X355384Y110757D01*
X355828Y111421D01*
X355984Y112205D01*
X355828Y112988D01*
X355384Y113652D01*
X354720Y114096D01*
X353937Y114252D01*
D02*
G37*
G36*
X450000Y114252D02*
X449217Y114096D01*
X448552Y113652D01*
X448109Y112988D01*
X447953Y112205D01*
X448109Y111421D01*
X448552Y110757D01*
X449217Y110313D01*
X450000Y110158D01*
X450783Y110313D01*
X451448Y110757D01*
X451891Y111421D01*
X452047Y112205D01*
X451891Y112988D01*
X451448Y113652D01*
X450783Y114096D01*
X450000Y114252D01*
D02*
G37*
G36*
X272441Y111102D02*
X271657Y110947D01*
X270993Y110503D01*
X270550Y109839D01*
X270394Y109055D01*
X270550Y108272D01*
X270993Y107608D01*
X271657Y107164D01*
X272441Y107008D01*
X273224Y107164D01*
X273888Y107608D01*
X274332Y108272D01*
X274488Y109055D01*
X274332Y109839D01*
X273888Y110503D01*
X273224Y110947D01*
X272441Y111102D01*
D02*
G37*
G36*
X220079Y111102D02*
X219295Y110947D01*
X218631Y110503D01*
X218187Y109839D01*
X218032Y109055D01*
X218187Y108272D01*
X218631Y107607D01*
X219295Y107164D01*
X220079Y107008D01*
X220862Y107164D01*
X221526Y107607D01*
X221970Y108272D01*
X222126Y109055D01*
X221970Y109839D01*
X221526Y110503D01*
X220862Y110947D01*
X220079Y111102D01*
D02*
G37*
G36*
X214961Y110709D02*
X214177Y110553D01*
X213513Y110109D01*
X213069Y109445D01*
X212913Y108661D01*
X213069Y107878D01*
X213513Y107214D01*
X214177Y106770D01*
X214961Y106614D01*
X215744Y106770D01*
X216408Y107214D01*
X216852Y107878D01*
X217008Y108661D01*
X216852Y109445D01*
X216408Y110109D01*
X215744Y110553D01*
X214961Y110709D01*
D02*
G37*
G36*
X253937Y110315D02*
X253154Y110159D01*
X252489Y109715D01*
X252046Y109051D01*
X251890Y108268D01*
X252046Y107484D01*
X252489Y106820D01*
X253154Y106376D01*
X253937Y106220D01*
X254720Y106376D01*
X255385Y106820D01*
X255828Y107484D01*
X255984Y108268D01*
X255828Y109051D01*
X255385Y109715D01*
X254720Y110159D01*
X253937Y110315D01*
D02*
G37*
G36*
X420276Y109724D02*
X419492Y109569D01*
X418828Y109125D01*
X418384Y108461D01*
X418228Y107677D01*
X418384Y106894D01*
X418828Y106229D01*
X419492Y105786D01*
X420276Y105630D01*
X421059Y105786D01*
X421723Y106229D01*
X422167Y106894D01*
X422323Y107677D01*
X422167Y108461D01*
X421723Y109125D01*
X421059Y109569D01*
X420276Y109724D01*
D02*
G37*
G36*
X57537Y108845D02*
X56753Y108690D01*
X56089Y108246D01*
X55645Y107582D01*
X55490Y106798D01*
X55645Y106015D01*
X56089Y105351D01*
X56753Y104907D01*
X57537Y104751D01*
X58320Y104907D01*
X58984Y105351D01*
X59428Y106015D01*
X59584Y106798D01*
X59428Y107582D01*
X58984Y108246D01*
X58320Y108690D01*
X57537Y108845D01*
D02*
G37*
G36*
X269291Y104803D02*
X268508Y104647D01*
X267844Y104203D01*
X267400Y103539D01*
X267244Y102756D01*
X267400Y101972D01*
X267844Y101308D01*
X268508Y100864D01*
X269291Y100709D01*
X270075Y100864D01*
X270739Y101308D01*
X271183Y101972D01*
X271339Y102756D01*
X271183Y103539D01*
X270739Y104203D01*
X270075Y104647D01*
X269291Y104803D01*
D02*
G37*
G36*
X212992D02*
X212209Y104647D01*
X211544Y104203D01*
X211101Y103539D01*
X210945Y102756D01*
X211101Y101972D01*
X211544Y101308D01*
X212209Y100864D01*
X212992Y100709D01*
X213776Y100864D01*
X214440Y101308D01*
X214883Y101972D01*
X215039Y102756D01*
X214883Y103539D01*
X214440Y104203D01*
X213776Y104647D01*
X212992Y104803D01*
D02*
G37*
G36*
X420276Y103819D02*
X419492Y103663D01*
X418828Y103219D01*
X418384Y102555D01*
X418228Y101772D01*
X418384Y100988D01*
X418828Y100324D01*
X419492Y99880D01*
X420276Y99724D01*
X421059Y99880D01*
X421723Y100324D01*
X422167Y100988D01*
X422323Y101772D01*
X422167Y102555D01*
X421723Y103219D01*
X421059Y103663D01*
X420276Y103819D01*
D02*
G37*
G36*
X449606Y101654D02*
X448823Y101498D01*
X448159Y101054D01*
X447715Y100390D01*
X447559Y99606D01*
X447715Y98823D01*
X448159Y98159D01*
X448823Y97715D01*
X449606Y97559D01*
X450390Y97715D01*
X451054Y98159D01*
X451498Y98823D01*
X451653Y99606D01*
X451498Y100390D01*
X451054Y101054D01*
X450390Y101498D01*
X449606Y101654D01*
D02*
G37*
G36*
X305118Y100472D02*
X304335Y100317D01*
X303671Y99873D01*
X303227Y99209D01*
X303071Y98425D01*
X303227Y97642D01*
X303671Y96978D01*
X304335Y96534D01*
X305118Y96378D01*
X305902Y96534D01*
X306566Y96978D01*
X307010Y97642D01*
X307165Y98425D01*
X307010Y99209D01*
X306566Y99873D01*
X305902Y100317D01*
X305118Y100472D01*
D02*
G37*
G36*
X228740D02*
X227957Y100317D01*
X227292Y99873D01*
X226849Y99209D01*
X226693Y98425D01*
X226849Y97642D01*
X227292Y96978D01*
X227957Y96534D01*
X228740Y96378D01*
X229524Y96534D01*
X230188Y96978D01*
X230631Y97642D01*
X230787Y98425D01*
X230631Y99209D01*
X230188Y99873D01*
X229524Y100317D01*
X228740Y100472D01*
D02*
G37*
G36*
X420276Y97520D02*
X419492Y97364D01*
X418828Y96920D01*
X418384Y96256D01*
X418228Y95472D01*
X418384Y94689D01*
X418828Y94025D01*
X419492Y93581D01*
X420276Y93425D01*
X421059Y93581D01*
X421723Y94025D01*
X422167Y94689D01*
X422323Y95472D01*
X422167Y96256D01*
X421723Y96920D01*
X421059Y97364D01*
X420276Y97520D01*
D02*
G37*
G36*
X301599Y91417D02*
X300815Y91262D01*
X300151Y90818D01*
X299897D01*
X299232Y91262D01*
X298449Y91417D01*
X297666Y91262D01*
X297001Y90818D01*
X296558Y90153D01*
X296402Y89370D01*
X296558Y88587D01*
X297001Y87923D01*
X297666Y87479D01*
X298449Y87323D01*
X299232Y87479D01*
X299657Y87762D01*
X300024Y87881D01*
X300391Y87762D01*
X300815Y87479D01*
X301599Y87323D01*
X302382Y87479D01*
X303046Y87923D01*
X303490Y88587D01*
X303646Y89370D01*
X303490Y90153D01*
X303046Y90818D01*
X302382Y91262D01*
X301599Y91417D01*
D02*
G37*
G36*
X453543Y94173D02*
X452760Y94017D01*
X452096Y93574D01*
X451652Y92909D01*
X451496Y92126D01*
X451652Y91343D01*
X452096Y90678D01*
X452760Y90235D01*
X453543Y90079D01*
X454327Y90235D01*
X454991Y90678D01*
X455435Y91343D01*
X455590Y92126D01*
X455435Y92909D01*
X454991Y93574D01*
X454327Y94017D01*
X453543Y94173D01*
D02*
G37*
G36*
X272441Y92598D02*
X271657Y92443D01*
X270993Y91999D01*
X270550Y91335D01*
X270394Y90551D01*
X270550Y89768D01*
X270993Y89104D01*
X271657Y88660D01*
X272441Y88504D01*
X273224Y88660D01*
X273888Y89104D01*
X274332Y89768D01*
X274488Y90551D01*
X274332Y91335D01*
X273888Y91999D01*
X273224Y92443D01*
X272441Y92598D01*
D02*
G37*
G36*
X222835Y92205D02*
X222051Y92049D01*
X221387Y91605D01*
X220943Y90941D01*
X220787Y90158D01*
X220943Y89374D01*
X221387Y88710D01*
X222051Y88266D01*
X222835Y88110D01*
X223618Y88266D01*
X224282Y88710D01*
X224726Y89374D01*
X224882Y90158D01*
X224726Y90941D01*
X224282Y91605D01*
X223618Y92049D01*
X222835Y92205D01*
D02*
G37*
G36*
X307480Y91811D02*
X306697Y91655D01*
X306033Y91211D01*
X305589Y90547D01*
X305433Y89764D01*
X305589Y88980D01*
X306033Y88316D01*
X306697Y87872D01*
X307480Y87717D01*
X308264Y87872D01*
X308928Y88316D01*
X309372Y88980D01*
X309528Y89764D01*
X309372Y90547D01*
X308928Y91211D01*
X308264Y91655D01*
X307480Y91811D01*
D02*
G37*
G36*
X292520Y91811D02*
X291736Y91655D01*
X291072Y91211D01*
X290628Y90547D01*
X290473Y89764D01*
X290628Y88980D01*
X291072Y88316D01*
X291736Y87872D01*
X292520Y87717D01*
X293303Y87872D01*
X293967Y88316D01*
X294411Y88980D01*
X294567Y89764D01*
X294411Y90547D01*
X293967Y91211D01*
X293303Y91655D01*
X292520Y91811D01*
D02*
G37*
G36*
X420276Y91614D02*
X419492Y91458D01*
X418828Y91014D01*
X418384Y90350D01*
X418228Y89567D01*
X418384Y88784D01*
X418828Y88119D01*
X419492Y87675D01*
X420276Y87520D01*
X421059Y87675D01*
X421723Y88119D01*
X422167Y88784D01*
X422323Y89567D01*
X422167Y90350D01*
X421723Y91014D01*
X421059Y91458D01*
X420276Y91614D01*
D02*
G37*
G36*
X230315Y91417D02*
X229532Y91261D01*
X228867Y90818D01*
X228424Y90153D01*
X228268Y89370D01*
X228424Y88587D01*
X228867Y87922D01*
X229532Y87479D01*
X230315Y87323D01*
X231098Y87479D01*
X231763Y87922D01*
X232206Y88587D01*
X232362Y89370D01*
X232206Y90153D01*
X231763Y90818D01*
X231098Y91261D01*
X230315Y91417D01*
D02*
G37*
G36*
X205118D02*
X204335Y91261D01*
X203671Y90818D01*
X203227Y90153D01*
X203071Y89370D01*
X203227Y88587D01*
X203671Y87922D01*
X204335Y87479D01*
X205118Y87323D01*
X205902Y87479D01*
X206566Y87922D01*
X207010Y88587D01*
X207165Y89370D01*
X207010Y90153D01*
X206566Y90818D01*
X205902Y91261D01*
X205118Y91417D01*
D02*
G37*
G36*
X81693Y90630D02*
X80910Y90474D01*
X80245Y90030D01*
X79801Y89366D01*
X79646Y88583D01*
X79801Y87799D01*
X80245Y87135D01*
X80910Y86691D01*
X81693Y86536D01*
X82476Y86691D01*
X83140Y87135D01*
X83584Y87799D01*
X83740Y88583D01*
X83584Y89366D01*
X83140Y90030D01*
X82476Y90474D01*
X81693Y90630D01*
D02*
G37*
G36*
X74803D02*
X74020Y90474D01*
X73356Y90030D01*
X72912Y89366D01*
X72756Y88583D01*
X72912Y87799D01*
X73356Y87135D01*
X74020Y86691D01*
X74803Y86536D01*
X75587Y86691D01*
X76251Y87135D01*
X76695Y87799D01*
X76850Y88583D01*
X76695Y89366D01*
X76251Y90030D01*
X75587Y90474D01*
X74803Y90630D01*
D02*
G37*
G36*
X67197Y90362D02*
X66414Y90206D01*
X65749Y89762D01*
X65306Y89098D01*
X65150Y88315D01*
X65306Y87531D01*
X65749Y86867D01*
X66414Y86423D01*
X67197Y86268D01*
X67980Y86423D01*
X68645Y86867D01*
X69088Y87531D01*
X69244Y88315D01*
X69088Y89098D01*
X68645Y89762D01*
X67980Y90206D01*
X67197Y90362D01*
D02*
G37*
G36*
X78830Y86813D02*
X78047Y86657D01*
X77383Y86213D01*
X76939Y85549D01*
X76783Y84765D01*
X76939Y83982D01*
X77383Y83318D01*
X78047Y82874D01*
X78830Y82718D01*
X79614Y82874D01*
X80278Y83318D01*
X80722Y83982D01*
X80878Y84765D01*
X80722Y85549D01*
X80278Y86213D01*
X79614Y86657D01*
X78830Y86813D01*
D02*
G37*
G36*
X86614Y86693D02*
X85831Y86537D01*
X85167Y86093D01*
X84723Y85429D01*
X84567Y84646D01*
X84723Y83862D01*
X85167Y83198D01*
X85831Y82754D01*
X86614Y82599D01*
X87398Y82754D01*
X88062Y83198D01*
X88506Y83862D01*
X88661Y84646D01*
X88506Y85429D01*
X88062Y86093D01*
X87398Y86537D01*
X86614Y86693D01*
D02*
G37*
G36*
X70866D02*
X70083Y86537D01*
X69419Y86093D01*
X68975Y85429D01*
X68819Y84646D01*
X68975Y83862D01*
X69419Y83198D01*
X70083Y82754D01*
X70866Y82599D01*
X71650Y82754D01*
X72314Y83198D01*
X72758Y83862D01*
X72913Y84646D01*
X72758Y85429D01*
X72314Y86093D01*
X71650Y86537D01*
X70866Y86693D01*
D02*
G37*
G36*
X62992D02*
X62209Y86537D01*
X61545Y86093D01*
X61101Y85429D01*
X60945Y84646D01*
X61101Y83862D01*
X61545Y83198D01*
X62209Y82754D01*
X62992Y82599D01*
X63776Y82754D01*
X64440Y83198D01*
X64884Y83862D01*
X65039Y84646D01*
X64884Y85429D01*
X64440Y86093D01*
X63776Y86537D01*
X62992Y86693D01*
D02*
G37*
G36*
X420276Y85315D02*
X419492Y85159D01*
X418828Y84715D01*
X418384Y84051D01*
X418228Y83268D01*
X418384Y82484D01*
X418828Y81820D01*
X419492Y81376D01*
X420276Y81221D01*
X421059Y81376D01*
X421723Y81820D01*
X422167Y82484D01*
X422323Y83268D01*
X422167Y84051D01*
X421723Y84715D01*
X421059Y85159D01*
X420276Y85315D01*
D02*
G37*
G36*
X214232Y81575D02*
X213449Y81419D01*
X213025Y81135D01*
X212657Y81016D01*
X212291Y81135D01*
X211866Y81419D01*
X211083Y81575D01*
X210299Y81419D01*
X209635Y80975D01*
X209191Y80311D01*
X209035Y79528D01*
X209191Y78744D01*
X209635Y78080D01*
X210299Y77636D01*
X211083Y77480D01*
X211866Y77636D01*
X212291Y77920D01*
X212657Y78039D01*
X213025Y77920D01*
X213449Y77636D01*
X214232Y77480D01*
X215016Y77636D01*
X215680Y78080D01*
X216124Y78744D01*
X216280Y79528D01*
X216124Y80311D01*
X215680Y80975D01*
X215016Y81419D01*
X214232Y81575D01*
D02*
G37*
G36*
X30121Y83844D02*
X29338Y83688D01*
X28673Y83244D01*
X28230Y82580D01*
X28074Y81796D01*
X28230Y81013D01*
X28673Y80349D01*
X29338Y79905D01*
X30121Y79749D01*
X30904Y79905D01*
X31569Y80349D01*
X32012Y81013D01*
X32168Y81796D01*
X32012Y82580D01*
X31569Y83244D01*
X30904Y83688D01*
X30121Y83844D01*
D02*
G37*
G36*
X287795Y83543D02*
X287012Y83387D01*
X286348Y82944D01*
X285904Y82279D01*
X285748Y81496D01*
X285904Y80713D01*
X286348Y80048D01*
X287012Y79605D01*
X287795Y79449D01*
X288579Y79605D01*
X289243Y80048D01*
X289687Y80713D01*
X289843Y81496D01*
X289687Y82279D01*
X289243Y82944D01*
X288579Y83387D01*
X287795Y83543D01*
D02*
G37*
G36*
X282677D02*
X281894Y83387D01*
X281229Y82944D01*
X280786Y82279D01*
X280630Y81496D01*
X280786Y80713D01*
X281229Y80048D01*
X281894Y79605D01*
X282677Y79449D01*
X283461Y79605D01*
X284125Y80048D01*
X284569Y80713D01*
X284724Y81496D01*
X284569Y82279D01*
X284125Y82944D01*
X283461Y83387D01*
X282677Y83543D01*
D02*
G37*
G36*
X135630Y91369D02*
X134395Y91247D01*
X133208Y90887D01*
X132113Y90302D01*
X131154Y89515D01*
X130367Y88556D01*
X129782Y87462D01*
X129422Y86274D01*
X129300Y85039D01*
X129422Y83805D01*
X129782Y82617D01*
X130367Y81523D01*
X131154Y80564D01*
X132113Y79776D01*
X133208Y79191D01*
X134395Y78831D01*
X135630Y78710D01*
X136865Y78831D01*
X138052Y79191D01*
X139146Y79776D01*
X140106Y80564D01*
X140893Y81523D01*
X141478Y82617D01*
X141838Y83805D01*
X141960Y85039D01*
X141838Y86274D01*
X141478Y87462D01*
X140893Y88556D01*
X140106Y89515D01*
X139146Y90302D01*
X138052Y90887D01*
X136865Y91247D01*
X135630Y91369D01*
D02*
G37*
G36*
X225197Y82756D02*
X224413Y82600D01*
X223749Y82156D01*
X223306Y81492D01*
X223150Y80709D01*
X223306Y79925D01*
X223749Y79261D01*
X224413Y78817D01*
X225197Y78662D01*
X225980Y78817D01*
X226644Y79261D01*
X227088Y79925D01*
X227244Y80709D01*
X227088Y81492D01*
X226644Y82156D01*
X225980Y82600D01*
X225197Y82756D01*
D02*
G37*
G36*
X185630Y82839D02*
Y78543D01*
X189925D01*
X189834Y79238D01*
X189338Y80435D01*
X188549Y81463D01*
X187521Y82252D01*
X186324Y82747D01*
X185630Y82839D01*
D02*
G37*
G36*
X184449D02*
X183755Y82747D01*
X182557Y82252D01*
X181529Y81463D01*
X180741Y80435D01*
X180245Y79238D01*
X180153Y78543D01*
X184449D01*
Y82839D01*
D02*
G37*
G36*
X384350Y82559D02*
X383567Y82403D01*
X382903Y81959D01*
X382459Y81295D01*
X382303Y80512D01*
X382459Y79728D01*
X382903Y79064D01*
X383567Y78620D01*
X384350Y78464D01*
X385134Y78620D01*
X385798Y79064D01*
X386242Y79728D01*
X386398Y80512D01*
X386242Y81295D01*
X385798Y81959D01*
X385134Y82403D01*
X384350Y82559D01*
D02*
G37*
G36*
X205118Y82362D02*
X204335Y82206D01*
X203671Y81763D01*
X203227Y81099D01*
X203071Y80315D01*
X203227Y79532D01*
X203671Y78867D01*
X204335Y78424D01*
X205118Y78268D01*
X205902Y78424D01*
X206566Y78867D01*
X207010Y79532D01*
X207165Y80315D01*
X207010Y81099D01*
X206566Y81763D01*
X205902Y82206D01*
X205118Y82362D01*
D02*
G37*
G36*
X453543Y81968D02*
X452760Y81813D01*
X452096Y81369D01*
X451652Y80705D01*
X451496Y79921D01*
X451652Y79138D01*
X452096Y78474D01*
X452760Y78030D01*
X453543Y77874D01*
X454327Y78030D01*
X454991Y78474D01*
X455435Y79138D01*
X455590Y79921D01*
X455435Y80705D01*
X454991Y81369D01*
X454327Y81813D01*
X453543Y81968D01*
D02*
G37*
G36*
X325787Y79689D02*
Y75394D01*
X330083D01*
X329991Y76088D01*
X329496Y77285D01*
X328707Y78313D01*
X327679Y79102D01*
X326482Y79598D01*
X325787Y79689D01*
D02*
G37*
G36*
X324606D02*
X323912Y79598D01*
X322715Y79102D01*
X321687Y78313D01*
X320898Y77285D01*
X320402Y76088D01*
X320311Y75394D01*
X324606D01*
Y79689D01*
D02*
G37*
G36*
X420276Y79409D02*
X419492Y79254D01*
X418828Y78810D01*
X418384Y78146D01*
X418228Y77362D01*
X418384Y76579D01*
X418828Y75915D01*
X419492Y75471D01*
X420276Y75315D01*
X421059Y75471D01*
X421723Y75915D01*
X422167Y76579D01*
X422323Y77362D01*
X422167Y78146D01*
X421723Y78810D01*
X421059Y79254D01*
X420276Y79409D01*
D02*
G37*
G36*
X189925Y77362D02*
X185630D01*
Y73067D01*
X186324Y73158D01*
X187521Y73654D01*
X188549Y74443D01*
X189338Y75471D01*
X189834Y76668D01*
X189925Y77362D01*
D02*
G37*
G36*
X184449D02*
X180153D01*
X180245Y76668D01*
X180741Y75471D01*
X181529Y74443D01*
X182557Y73654D01*
X183755Y73158D01*
X184449Y73067D01*
Y77362D01*
D02*
G37*
G36*
X209232Y72126D02*
X208449Y71970D01*
X208025Y71687D01*
X207658Y71568D01*
X207291Y71687D01*
X206866Y71970D01*
X206083Y72126D01*
X205299Y71970D01*
X204635Y71526D01*
X204191Y70862D01*
X204035Y70079D01*
X204191Y69295D01*
X204635Y68631D01*
X205299Y68187D01*
X206083Y68032D01*
X206866Y68187D01*
X207291Y68471D01*
X207658Y68590D01*
X208025Y68471D01*
X208449Y68187D01*
X209232Y68032D01*
X210016Y68187D01*
X210680Y68631D01*
X211124Y69295D01*
X211280Y70079D01*
X211124Y70862D01*
X210680Y71526D01*
X210016Y71970D01*
X209232Y72126D01*
D02*
G37*
G36*
X282283Y71732D02*
X281500Y71576D01*
X281076Y71293D01*
X280709Y71174D01*
X280342Y71293D01*
X279917Y71576D01*
X279134Y71732D01*
X278350Y71576D01*
X277686Y71133D01*
X277243Y70468D01*
X277087Y69685D01*
X277243Y68902D01*
X277686Y68237D01*
X278350Y67794D01*
X279134Y67638D01*
X279917Y67794D01*
X280342Y68077D01*
X280709Y68196D01*
X281076Y68077D01*
X281500Y67794D01*
X282283Y67638D01*
X283067Y67794D01*
X283731Y68237D01*
X284175Y68902D01*
X284331Y69685D01*
X284175Y70468D01*
X283731Y71133D01*
X283067Y71576D01*
X282283Y71732D01*
D02*
G37*
G36*
X330083Y74213D02*
X325787D01*
Y69917D01*
X326482Y70009D01*
X327679Y70504D01*
X328707Y71293D01*
X329496Y72321D01*
X329991Y73518D01*
X330083Y74213D01*
D02*
G37*
G36*
X324606D02*
X320311D01*
X320402Y73518D01*
X320898Y72321D01*
X321687Y71293D01*
X322715Y70504D01*
X323912Y70009D01*
X324606Y69917D01*
Y74213D01*
D02*
G37*
G36*
X420276Y73110D02*
X419492Y72954D01*
X418828Y72511D01*
X418384Y71846D01*
X418228Y71063D01*
X418384Y70280D01*
X418828Y69615D01*
X419492Y69172D01*
X420276Y69016D01*
X421059Y69172D01*
X421723Y69615D01*
X422167Y70280D01*
X422323Y71063D01*
X422167Y71846D01*
X421723Y72511D01*
X421059Y72954D01*
X420276Y73110D01*
D02*
G37*
G36*
X101575Y78377D02*
X100340Y78255D01*
X99152Y77895D01*
X98058Y77310D01*
X97099Y76523D01*
X96312Y75564D01*
X95727Y74470D01*
X95367Y73282D01*
X95245Y72047D01*
X95367Y70812D01*
X95727Y69625D01*
X96312Y68531D01*
X97099Y67572D01*
X98058Y66784D01*
X99152Y66199D01*
X100340Y65839D01*
X101575Y65718D01*
X102810Y65839D01*
X103997Y66199D01*
X105091Y66784D01*
X106051Y67572D01*
X106838Y68531D01*
X107423Y69625D01*
X107783Y70812D01*
X107905Y72047D01*
X107783Y73282D01*
X107423Y74470D01*
X106838Y75564D01*
X106051Y76523D01*
X105091Y77310D01*
X103997Y77895D01*
X102810Y78255D01*
X101575Y78377D01*
D02*
G37*
G36*
X453543Y69764D02*
X452760Y69608D01*
X452096Y69164D01*
X451652Y68500D01*
X451496Y67716D01*
X451652Y66933D01*
X452096Y66269D01*
X452760Y65825D01*
X453543Y65669D01*
X454327Y65825D01*
X454991Y66269D01*
X455435Y66933D01*
X455590Y67716D01*
X455435Y68500D01*
X454991Y69164D01*
X454327Y69608D01*
X453543Y69764D01*
D02*
G37*
G36*
X358267Y68582D02*
X357484Y68427D01*
X356819Y67983D01*
X356376Y67319D01*
X356220Y66535D01*
X356376Y65752D01*
X356819Y65088D01*
X357484Y64644D01*
X358267Y64488D01*
X359050Y64644D01*
X359715Y65088D01*
X360158Y65752D01*
X360314Y66535D01*
X360158Y67319D01*
X359715Y67983D01*
X359050Y68427D01*
X358267Y68582D01*
D02*
G37*
G36*
X420276Y67205D02*
X419492Y67049D01*
X418828Y66605D01*
X418384Y65941D01*
X418228Y65158D01*
X418384Y64374D01*
X418828Y63710D01*
X419492Y63266D01*
X420276Y63110D01*
X421059Y63266D01*
X421723Y63710D01*
X422167Y64374D01*
X422323Y65158D01*
X422167Y65941D01*
X421723Y66605D01*
X421059Y67049D01*
X420276Y67205D01*
D02*
G37*
G36*
X296599Y62677D02*
X295815Y62521D01*
X295391Y62238D01*
X295024Y62119D01*
X294657Y62238D01*
X294232Y62521D01*
X293449Y62677D01*
X292666Y62521D01*
X292001Y62077D01*
X291558Y61413D01*
X291402Y60630D01*
X291558Y59847D01*
X292001Y59182D01*
X292666Y58738D01*
X293449Y58583D01*
X294232Y58738D01*
X294657Y59022D01*
X295024Y59141D01*
X295391Y59022D01*
X295815Y58738D01*
X296599Y58583D01*
X297382Y58738D01*
X298046Y59182D01*
X298490Y59847D01*
X298646Y60630D01*
X298490Y61413D01*
X298046Y62077D01*
X297382Y62521D01*
X296599Y62677D01*
D02*
G37*
G36*
X390945Y63464D02*
X390161Y63309D01*
X389497Y62865D01*
X389054Y62201D01*
X388898Y61417D01*
X389054Y60634D01*
X389497Y59970D01*
X390161Y59526D01*
X390945Y59370D01*
X391728Y59526D01*
X392392Y59970D01*
X392836Y60634D01*
X392992Y61417D01*
X392836Y62201D01*
X392392Y62865D01*
X391728Y63309D01*
X390945Y63464D01*
D02*
G37*
G36*
X272441Y61890D02*
X271657Y61734D01*
X270993Y61290D01*
X270550Y60626D01*
X270394Y59843D01*
X270550Y59059D01*
X270993Y58395D01*
X271657Y57951D01*
X272441Y57795D01*
X273224Y57951D01*
X273888Y58395D01*
X274332Y59059D01*
X274488Y59843D01*
X274332Y60626D01*
X273888Y61290D01*
X273224Y61734D01*
X272441Y61890D01*
D02*
G37*
G36*
X214961Y61496D02*
X214177Y61340D01*
X213513Y60896D01*
X213069Y60232D01*
X212913Y59449D01*
X213069Y58665D01*
X213513Y58001D01*
X214177Y57557D01*
X214961Y57402D01*
X215744Y57557D01*
X216408Y58001D01*
X216852Y58665D01*
X217008Y59449D01*
X216852Y60232D01*
X216408Y60896D01*
X215744Y61340D01*
X214961Y61496D01*
D02*
G37*
G36*
X220079Y61102D02*
X219295Y60947D01*
X218631Y60503D01*
X218187Y59838D01*
X218032Y59055D01*
X218187Y58272D01*
X218631Y57608D01*
X219295Y57164D01*
X220079Y57008D01*
X220862Y57164D01*
X221526Y57608D01*
X221970Y58272D01*
X222126Y59055D01*
X221970Y59838D01*
X221526Y60503D01*
X220862Y60947D01*
X220079Y61102D01*
D02*
G37*
G36*
X420276Y60905D02*
X419492Y60750D01*
X418828Y60306D01*
X418384Y59642D01*
X418228Y58858D01*
X418384Y58075D01*
X418828Y57411D01*
X419492Y56967D01*
X420276Y56811D01*
X421059Y56967D01*
X421723Y57411D01*
X422167Y58075D01*
X422323Y58858D01*
X422167Y59642D01*
X421723Y60306D01*
X421059Y60750D01*
X420276Y60905D01*
D02*
G37*
G36*
X235433Y59921D02*
X234650Y59765D01*
X233985Y59322D01*
X233542Y58657D01*
X233386Y57874D01*
X233542Y57091D01*
X233985Y56426D01*
X234650Y55983D01*
X235433Y55827D01*
X236216Y55983D01*
X236881Y56426D01*
X237324Y57091D01*
X237480Y57874D01*
X237324Y58657D01*
X236881Y59322D01*
X236216Y59765D01*
X235433Y59921D01*
D02*
G37*
G36*
X420276Y55000D02*
X419492Y54844D01*
X418828Y54400D01*
X418384Y53736D01*
X418228Y52953D01*
X418384Y52169D01*
X418828Y51505D01*
X419492Y51061D01*
X420276Y50906D01*
X421059Y51061D01*
X421723Y51505D01*
X422167Y52169D01*
X422323Y52953D01*
X422167Y53736D01*
X421723Y54400D01*
X421059Y54844D01*
X420276Y55000D01*
D02*
G37*
G36*
X268504Y53622D02*
X267721Y53466D01*
X267056Y53022D01*
X266613Y52358D01*
X266457Y51575D01*
X266613Y50791D01*
X267056Y50127D01*
X267721Y49683D01*
X268504Y49528D01*
X269287Y49683D01*
X269952Y50127D01*
X270395Y50791D01*
X270551Y51575D01*
X270395Y52358D01*
X269952Y53022D01*
X269287Y53466D01*
X268504Y53622D01*
D02*
G37*
G36*
X212992D02*
X212209Y53466D01*
X211544Y53022D01*
X211101Y52358D01*
X210945Y51575D01*
X211101Y50791D01*
X211544Y50127D01*
X212209Y49683D01*
X212992Y49528D01*
X213776Y49683D01*
X214440Y50127D01*
X214883Y50791D01*
X215039Y51575D01*
X214883Y52358D01*
X214440Y53022D01*
X213776Y53466D01*
X212992Y53622D01*
D02*
G37*
G36*
X449213Y52835D02*
X448429Y52679D01*
X447765Y52235D01*
X447321Y51571D01*
X447165Y50787D01*
X447321Y50004D01*
X447765Y49340D01*
X448429Y48896D01*
X449213Y48740D01*
X449996Y48896D01*
X450660Y49340D01*
X451104Y50004D01*
X451260Y50787D01*
X451104Y51571D01*
X450660Y52235D01*
X449996Y52679D01*
X449213Y52835D01*
D02*
G37*
G36*
X420276Y48701D02*
X419492Y48545D01*
X418828Y48101D01*
X418384Y47437D01*
X418228Y46654D01*
X418384Y45870D01*
X418828Y45206D01*
X419492Y44762D01*
X420276Y44606D01*
X421059Y44762D01*
X421723Y45206D01*
X422167Y45870D01*
X422323Y46654D01*
X422167Y47437D01*
X421723Y48101D01*
X421059Y48545D01*
X420276Y48701D01*
D02*
G37*
G36*
X286598Y43386D02*
X285815Y43230D01*
X285151Y42786D01*
X284896D01*
X284232Y43230D01*
X283449Y43386D01*
X282665Y43230D01*
X282001Y42786D01*
X281558Y42122D01*
X281402Y41339D01*
X281558Y40555D01*
X282001Y39891D01*
X282665Y39447D01*
X283449Y39291D01*
X284232Y39447D01*
X284896Y39891D01*
X285151D01*
X285815Y39447D01*
X286598Y39291D01*
X287382Y39447D01*
X288046Y39891D01*
X288490Y40555D01*
X288646Y41339D01*
X288490Y42122D01*
X288046Y42786D01*
X287382Y43230D01*
X286598Y43386D01*
D02*
G37*
G36*
X354331Y46535D02*
X353547Y46380D01*
X352883Y45936D01*
X352439Y45272D01*
X352284Y44488D01*
X352439Y43705D01*
X352883Y43041D01*
X353547Y42597D01*
X354331Y42441D01*
X355114Y42597D01*
X355778Y43041D01*
X356222Y43705D01*
X356378Y44488D01*
X356222Y45272D01*
X355778Y45936D01*
X355114Y46380D01*
X354331Y46535D01*
D02*
G37*
G36*
X451181Y45354D02*
X450398Y45199D01*
X449733Y44755D01*
X449290Y44091D01*
X449134Y43307D01*
X449290Y42524D01*
X449733Y41859D01*
X450398Y41416D01*
X451181Y41260D01*
X451965Y41416D01*
X452629Y41859D01*
X453073Y42524D01*
X453228Y43307D01*
X453073Y44091D01*
X452629Y44755D01*
X451965Y45199D01*
X451181Y45354D01*
D02*
G37*
G36*
X217106Y43602D02*
X216323Y43446D01*
X215658Y43003D01*
X215215Y42338D01*
X215059Y41555D01*
X215215Y40771D01*
X215658Y40107D01*
X216323Y39663D01*
X217106Y39508D01*
X217889Y39663D01*
X218554Y40107D01*
X218997Y40771D01*
X219153Y41555D01*
X218997Y42338D01*
X218554Y43003D01*
X217889Y43446D01*
X217106Y43602D01*
D02*
G37*
G36*
X205118Y42992D02*
X204335Y42836D01*
X203671Y42392D01*
X203227Y41728D01*
X203071Y40945D01*
X203227Y40161D01*
X203671Y39497D01*
X204335Y39053D01*
X205118Y38898D01*
X205902Y39053D01*
X206566Y39497D01*
X207010Y40161D01*
X207165Y40945D01*
X207010Y41728D01*
X206566Y42392D01*
X205902Y42836D01*
X205118Y42992D01*
D02*
G37*
G36*
X420276Y42795D02*
X419492Y42639D01*
X418828Y42196D01*
X418384Y41532D01*
X418228Y40748D01*
X418384Y39965D01*
X418828Y39300D01*
X419492Y38857D01*
X420276Y38701D01*
X421059Y38857D01*
X421723Y39300D01*
X422167Y39965D01*
X422323Y40748D01*
X422167Y41532D01*
X421723Y42196D01*
X421059Y42639D01*
X420276Y42795D01*
D02*
G37*
G36*
X292520Y42598D02*
X291736Y42443D01*
X291072Y41999D01*
X290628Y41335D01*
X290473Y40551D01*
X290628Y39768D01*
X291072Y39104D01*
X291736Y38660D01*
X292520Y38504D01*
X293303Y38660D01*
X293967Y39104D01*
X294411Y39768D01*
X294567Y40551D01*
X294411Y41335D01*
X293967Y41999D01*
X293303Y42443D01*
X292520Y42598D01*
D02*
G37*
G36*
X272441D02*
X271657Y42443D01*
X270993Y41999D01*
X270550Y41335D01*
X270394Y40551D01*
X270550Y39768D01*
X270993Y39104D01*
X271657Y38660D01*
X272441Y38504D01*
X273224Y38660D01*
X273888Y39104D01*
X274332Y39768D01*
X274488Y40551D01*
X274332Y41335D01*
X273888Y41999D01*
X273224Y42443D01*
X272441Y42598D01*
D02*
G37*
G36*
X420276Y36496D02*
X419492Y36340D01*
X418828Y35896D01*
X418384Y35232D01*
X418228Y34449D01*
X418384Y33665D01*
X418828Y33001D01*
X419492Y32557D01*
X420276Y32402D01*
X421059Y32557D01*
X421723Y33001D01*
X422167Y33665D01*
X422323Y34449D01*
X422167Y35232D01*
X421723Y35896D01*
X421059Y36340D01*
X420276Y36496D01*
D02*
G37*
G36*
X225590Y34331D02*
X224807Y34175D01*
X224143Y33731D01*
X223699Y33067D01*
X223543Y32283D01*
X223699Y31500D01*
X224143Y30836D01*
X224807Y30392D01*
X225590Y30236D01*
X226374Y30392D01*
X227038Y30836D01*
X227482Y31500D01*
X227638Y32283D01*
X227482Y33067D01*
X227038Y33731D01*
X226374Y34175D01*
X225590Y34331D01*
D02*
G37*
G36*
X282283Y34331D02*
X281500Y34175D01*
X280836Y33731D01*
X280392Y33067D01*
X280236Y32283D01*
X280392Y31500D01*
X280836Y30836D01*
X281500Y30392D01*
X282283Y30236D01*
X283067Y30392D01*
X283731Y30836D01*
X284175Y31500D01*
X284331Y32283D01*
X284175Y33067D01*
X283731Y33731D01*
X283067Y34175D01*
X282283Y34331D01*
D02*
G37*
G36*
X302756Y33937D02*
X301973Y33781D01*
X301308Y33337D01*
X300865Y32673D01*
X300709Y31890D01*
X300865Y31106D01*
X301308Y30442D01*
X301973Y29998D01*
X302756Y29843D01*
X303539Y29998D01*
X304204Y30442D01*
X304647Y31106D01*
X304803Y31890D01*
X304647Y32673D01*
X304204Y33337D01*
X303539Y33781D01*
X302756Y33937D01*
D02*
G37*
G36*
X205118D02*
X204335Y33781D01*
X203671Y33337D01*
X203227Y32673D01*
X203071Y31890D01*
X203227Y31106D01*
X203671Y30442D01*
X204335Y29998D01*
X205118Y29843D01*
X205902Y29998D01*
X206566Y30442D01*
X207010Y31106D01*
X207165Y31890D01*
X207010Y32673D01*
X206566Y33337D01*
X205902Y33781D01*
X205118Y33937D01*
D02*
G37*
G36*
X215469Y29098D02*
X214685Y28943D01*
X214021Y28499D01*
X213650Y27944D01*
X213248Y27876D01*
X213080Y27898D01*
X212865Y28219D01*
X212201Y28663D01*
X211417Y28819D01*
X210634Y28663D01*
X209970Y28219D01*
X209526Y27555D01*
X209370Y26772D01*
X209526Y25988D01*
X209970Y25324D01*
X210634Y24880D01*
X211417Y24724D01*
X212201Y24880D01*
X212865Y25324D01*
X213236Y25879D01*
X213637Y25947D01*
X213806Y25925D01*
X214021Y25604D01*
X214685Y25160D01*
X215469Y25004D01*
X216252Y25160D01*
X216916Y25604D01*
X217360Y26268D01*
X217516Y27051D01*
X217360Y27835D01*
X216916Y28499D01*
X216252Y28943D01*
X215469Y29098D01*
D02*
G37*
G36*
X420276Y30591D02*
X419492Y30435D01*
X418828Y29991D01*
X418384Y29327D01*
X418228Y28543D01*
X418384Y27760D01*
X418828Y27096D01*
X419492Y26652D01*
X420276Y26496D01*
X421059Y26652D01*
X421723Y27096D01*
X422167Y27760D01*
X422323Y28543D01*
X422167Y29327D01*
X421723Y29991D01*
X421059Y30435D01*
X420276Y30591D01*
D02*
G37*
G36*
X282283Y29606D02*
X281500Y29450D01*
X280836Y29007D01*
X280392Y28343D01*
X280236Y27559D01*
X280392Y26776D01*
X280836Y26111D01*
X281500Y25668D01*
X282283Y25512D01*
X283067Y25668D01*
X283731Y26111D01*
X284175Y26776D01*
X284331Y27559D01*
X284175Y28343D01*
X283731Y29007D01*
X283067Y29450D01*
X282283Y29606D01*
D02*
G37*
G36*
X449606Y28819D02*
X448823Y28663D01*
X448159Y28219D01*
X447715Y27555D01*
X447559Y26772D01*
X447715Y25988D01*
X448159Y25324D01*
X448823Y24880D01*
X449606Y24724D01*
X450390Y24880D01*
X451054Y25324D01*
X451498Y25988D01*
X451653Y26772D01*
X451498Y27555D01*
X451054Y28219D01*
X450390Y28663D01*
X449606Y28819D01*
D02*
G37*
G36*
X523559Y24602D02*
Y21252D01*
X526909D01*
X526850Y21701D01*
X526449Y22671D01*
X525810Y23503D01*
X524978Y24142D01*
X524009Y24543D01*
X523559Y24602D01*
D02*
G37*
G36*
X522378Y24602D02*
X521928Y24543D01*
X520959Y24142D01*
X520127Y23503D01*
X519488Y22671D01*
X519087Y21701D01*
X519028Y21252D01*
X522378D01*
Y24602D01*
D02*
G37*
G36*
X297244Y24488D02*
X296461Y24332D01*
X295796Y23889D01*
X295353Y23224D01*
X295197Y22441D01*
X295353Y21658D01*
X295796Y20993D01*
X296461Y20550D01*
X297244Y20394D01*
X298028Y20550D01*
X298692Y20993D01*
X299135Y21658D01*
X299291Y22441D01*
X299135Y23224D01*
X298692Y23889D01*
X298028Y24332D01*
X297244Y24488D01*
D02*
G37*
G36*
X420276Y24291D02*
X419492Y24136D01*
X418828Y23692D01*
X418384Y23028D01*
X418228Y22244D01*
X418384Y21461D01*
X418828Y20797D01*
X419492Y20353D01*
X420276Y20197D01*
X421059Y20353D01*
X421723Y20797D01*
X422167Y21461D01*
X422323Y22244D01*
X422167Y23028D01*
X421723Y23692D01*
X421059Y24136D01*
X420276Y24291D01*
D02*
G37*
G36*
X522378Y20071D02*
X519028D01*
X519087Y19621D01*
X519488Y18652D01*
X520127Y17820D01*
X520959Y17181D01*
X521928Y16780D01*
X522378Y16721D01*
Y20071D01*
D02*
G37*
G36*
X526909D02*
X523559D01*
Y16721D01*
X524009Y16780D01*
X524978Y17181D01*
X525810Y17820D01*
X526449Y18652D01*
X526850Y19621D01*
X526909Y20071D01*
D02*
G37*
G36*
X420276Y18386D02*
X419492Y18230D01*
X418828Y17786D01*
X418384Y17122D01*
X418228Y16339D01*
X418384Y15555D01*
X418828Y14891D01*
X419492Y14447D01*
X420276Y14291D01*
X421059Y14447D01*
X421723Y14891D01*
X422167Y15555D01*
X422323Y16339D01*
X422167Y17122D01*
X421723Y17786D01*
X421059Y18230D01*
X420276Y18386D01*
D02*
G37*
G36*
X449606Y17008D02*
X448823Y16852D01*
X448159Y16408D01*
X447715Y15744D01*
X447559Y14961D01*
X447715Y14177D01*
X448159Y13513D01*
X448823Y13069D01*
X449606Y12913D01*
X450390Y13069D01*
X451054Y13513D01*
X451498Y14177D01*
X451653Y14961D01*
X451498Y15744D01*
X451054Y16408D01*
X450390Y16852D01*
X449606Y17008D01*
D02*
G37*
G36*
X235433Y13071D02*
X234650Y12915D01*
X233985Y12471D01*
X233542Y11807D01*
X233386Y11024D01*
X233542Y10240D01*
X233985Y9576D01*
X234650Y9132D01*
X235433Y8976D01*
X236216Y9132D01*
X236881Y9576D01*
X237324Y10240D01*
X237480Y11024D01*
X237324Y11807D01*
X236881Y12471D01*
X236216Y12915D01*
X235433Y13071D01*
D02*
G37*
G36*
X227559Y7559D02*
X226776Y7403D01*
X226112Y6959D01*
X225668Y6295D01*
X225512Y5512D01*
X225668Y4728D01*
X226112Y4064D01*
X226776Y3620D01*
X227559Y3465D01*
X228343Y3620D01*
X229007Y4064D01*
X229450Y4728D01*
X229606Y5512D01*
X229450Y6295D01*
X229007Y6959D01*
X228343Y7403D01*
X227559Y7559D01*
D02*
G37*
%LPD*%
D57*
X522968Y210661D02*
D03*
Y120661D02*
D03*
Y20661D02*
D03*
Y372661D02*
D03*
Y282661D02*
D03*
D58*
X88976Y346457D02*
D03*
D59*
X344252Y141299D02*
D03*
X479134Y383858D02*
D03*
X101595Y271957D02*
D03*
X482283Y242520D02*
D03*
Y325590D02*
D03*
Y350394D02*
D03*
X500787Y242913D02*
D03*
Y331496D02*
D03*
Y351575D02*
D03*
Y361417D02*
D03*
X101049Y247366D02*
D03*
X46428Y141008D02*
D03*
X100062Y257017D02*
D03*
X41148Y128809D02*
D03*
X40836Y268717D02*
D03*
X40846Y235274D02*
D03*
X99132Y140932D02*
D03*
X105826Y162343D02*
D03*
X161614Y179331D02*
D03*
X98738Y150683D02*
D03*
X79619Y167170D02*
D03*
X65455Y140752D02*
D03*
X41442Y162538D02*
D03*
X49112Y150497D02*
D03*
X82673Y140706D02*
D03*
X49112Y256939D02*
D03*
Y128809D02*
D03*
Y247032D02*
D03*
X98409Y128971D02*
D03*
X105295Y231780D02*
D03*
X240158Y206299D02*
D03*
X192323Y323622D02*
D03*
X181890Y345276D02*
D03*
X142520Y318898D02*
D03*
X138779Y137402D02*
D03*
X317717Y276575D02*
D03*
X305118Y287008D02*
D03*
X368898Y146653D02*
D03*
X376378Y112008D02*
D03*
X374410Y188189D02*
D03*
X367520Y258268D02*
D03*
X487402Y252362D02*
D03*
X198031Y346457D02*
D03*
X323622Y330118D02*
D03*
X356890Y372638D02*
D03*
X352362Y315354D02*
D03*
X412205Y251772D02*
D03*
X386024Y179724D02*
D03*
X346260Y109646D02*
D03*
X343898Y56299D02*
D03*
X337795Y60433D02*
D03*
X374016Y90551D02*
D03*
X363779Y90158D02*
D03*
X376378Y40748D02*
D03*
X412205Y31496D02*
D03*
X415354Y104724D02*
D03*
X185827Y308661D02*
D03*
X366535Y294882D02*
D03*
X348425Y252362D02*
D03*
X352362Y239764D02*
D03*
X365354Y242126D02*
D03*
X510236Y383858D02*
D03*
X487008D02*
D03*
X-39567Y280709D02*
D03*
X307480Y262841D02*
D03*
Y20276D02*
D03*
X259842Y381034D02*
D03*
X-39370Y270866D02*
D03*
Y264567D02*
D03*
X229921Y19685D02*
D03*
X345669Y355118D02*
D03*
X307480Y361417D02*
D03*
X345669Y351969D02*
D03*
Y289764D02*
D03*
Y285827D02*
D03*
X344882Y221260D02*
D03*
X345669Y214961D02*
D03*
X344882Y74016D02*
D03*
X348819Y78740D02*
D03*
X311811Y307087D02*
D03*
X307480Y302362D02*
D03*
Y351181D02*
D03*
Y254331D02*
D03*
Y206299D02*
D03*
Y214173D02*
D03*
X311024Y159843D02*
D03*
X305511Y166141D02*
D03*
X310236Y112598D02*
D03*
X307480Y116535D02*
D03*
Y60630D02*
D03*
Y68504D02*
D03*
Y11220D02*
D03*
X266929Y14961D02*
D03*
X240158Y11811D02*
D03*
X244882Y15748D02*
D03*
X210236Y11024D02*
D03*
X240158Y60630D02*
D03*
Y68504D02*
D03*
Y117323D02*
D03*
X244094Y111811D02*
D03*
X243504Y161417D02*
D03*
X240158Y165354D02*
D03*
Y213386D02*
D03*
X243504Y255906D02*
D03*
X240158Y262205D02*
D03*
Y303150D02*
D03*
Y310236D02*
D03*
Y359055D02*
D03*
Y351181D02*
D03*
X-7874Y128347D02*
D03*
X114961Y78740D02*
D03*
X119685Y370866D02*
D03*
X143228Y370787D02*
D03*
X131437D02*
D03*
X40886Y371575D02*
D03*
X52677D02*
D03*
X29134Y371654D02*
D03*
X129921Y313386D02*
D03*
X33071Y318110D02*
D03*
X45669D02*
D03*
X259842Y275197D02*
D03*
X192126Y332087D02*
D03*
X-31854Y207839D02*
D03*
X-31461Y201539D02*
D03*
X-31496Y182677D02*
D03*
X-31067Y176343D02*
D03*
X-31854Y170043D02*
D03*
X-33823Y163744D02*
D03*
X-35398Y157445D02*
D03*
X-36972Y151146D02*
D03*
X-31067Y251933D02*
D03*
X-31067Y245634D02*
D03*
Y239335D02*
D03*
Y233035D02*
D03*
X-31067Y226736D02*
D03*
Y220437D02*
D03*
X-31067Y214138D02*
D03*
X259842Y178642D02*
D03*
X-37008Y116535D02*
D03*
Y132283D02*
D03*
X-37402Y141732D02*
D03*
X-39173Y277362D02*
D03*
X-39370Y257874D02*
D03*
X397638Y199213D02*
D03*
X500787Y262500D02*
D03*
Y272343D02*
D03*
Y232283D02*
D03*
Y341732D02*
D03*
Y322047D02*
D03*
Y312205D02*
D03*
Y302362D02*
D03*
Y292520D02*
D03*
X500394Y252756D02*
D03*
X500787Y200000D02*
D03*
Y190157D02*
D03*
Y31102D02*
D03*
Y40945D02*
D03*
Y50787D02*
D03*
Y60630D02*
D03*
Y70472D02*
D03*
Y80315D02*
D03*
Y90158D02*
D03*
Y100000D02*
D03*
Y109843D02*
D03*
Y131102D02*
D03*
Y140945D02*
D03*
Y150787D02*
D03*
Y160630D02*
D03*
Y170473D02*
D03*
Y180315D02*
D03*
X259842Y32283D02*
D03*
Y81496D02*
D03*
Y130217D02*
D03*
Y226772D02*
D03*
Y331496D02*
D03*
Y323622D02*
D03*
Y371949D02*
D03*
X397539Y47244D02*
D03*
Y55905D02*
D03*
Y70866D02*
D03*
Y79528D02*
D03*
Y114567D02*
D03*
Y123228D02*
D03*
X397933Y138189D02*
D03*
Y146850D02*
D03*
X397539Y189764D02*
D03*
X397933Y213386D02*
D03*
Y222047D02*
D03*
X397539Y269291D02*
D03*
Y260630D02*
D03*
X397933Y292913D02*
D03*
Y284252D02*
D03*
Y335827D02*
D03*
Y327165D02*
D03*
X397244Y350787D02*
D03*
Y359449D02*
D03*
X259842Y283858D02*
D03*
Y235039D02*
D03*
Y187402D02*
D03*
Y138976D02*
D03*
Y90157D02*
D03*
Y40945D02*
D03*
X192224D02*
D03*
Y31102D02*
D03*
Y89764D02*
D03*
Y79921D02*
D03*
Y138189D02*
D03*
Y128346D02*
D03*
X192323Y186417D02*
D03*
X192126Y177953D02*
D03*
Y235039D02*
D03*
Y226378D02*
D03*
X192520Y283465D02*
D03*
Y275000D02*
D03*
Y372047D02*
D03*
Y380512D02*
D03*
D60*
X325197Y288189D02*
D03*
Y74803D02*
D03*
X185039Y77953D02*
D03*
X13412Y198670D02*
D03*
X134562Y210422D02*
D03*
X134562Y158453D02*
D03*
M02*
