G04*
G04 #@! TF.GenerationSoftware,Altium Limited,Altium Designer,19.1.9 (167)*
G04*
G04 Layer_Color=8421504*
%FSLAX25Y25*%
%MOIN*%
G70*
G01*
G75*
%ADD20C,0.03937*%
G04:AMPARAMS|DCode=21|XSize=21.65mil|YSize=49.21mil|CornerRadius=1.95mil|HoleSize=0mil|Usage=FLASHONLY|Rotation=180.000|XOffset=0mil|YOffset=0mil|HoleType=Round|Shape=RoundedRectangle|*
%AMROUNDEDRECTD21*
21,1,0.02165,0.04532,0,0,180.0*
21,1,0.01776,0.04921,0,0,180.0*
1,1,0.00390,-0.00888,0.02266*
1,1,0.00390,0.00888,0.02266*
1,1,0.00390,0.00888,-0.02266*
1,1,0.00390,-0.00888,-0.02266*
%
%ADD21ROUNDEDRECTD21*%
%ADD22R,0.03937X0.03740*%
%ADD23R,0.01378X0.03543*%
%ADD24R,0.03740X0.03937*%
%ADD25R,0.03347X0.03347*%
%ADD26R,0.03347X0.03347*%
%ADD27R,0.02559X0.06102*%
%ADD28R,0.03740X0.03740*%
%ADD29R,0.05512X0.14370*%
G04:AMPARAMS|DCode=30|XSize=15.75mil|YSize=74.8mil|CornerRadius=1.97mil|HoleSize=0mil|Usage=FLASHONLY|Rotation=270.000|XOffset=0mil|YOffset=0mil|HoleType=Round|Shape=RoundedRectangle|*
%AMROUNDEDRECTD30*
21,1,0.01575,0.07087,0,0,270.0*
21,1,0.01181,0.07480,0,0,270.0*
1,1,0.00394,-0.03543,-0.00591*
1,1,0.00394,-0.03543,0.00591*
1,1,0.00394,0.03543,0.00591*
1,1,0.00394,0.03543,-0.00591*
%
%ADD30ROUNDEDRECTD30*%
%ADD31R,0.03740X0.03740*%
D20*
X8071Y370669D02*
D03*
X481890Y337795D02*
D03*
X15748Y62992D02*
D03*
D21*
X230189Y36318D02*
D03*
X235189D02*
D03*
X225189D02*
D03*
X240189D02*
D03*
X220189D02*
D03*
X215189D02*
D03*
X240189Y15648D02*
D03*
X235189D02*
D03*
X220189D02*
D03*
X215189D02*
D03*
X230189D02*
D03*
X225189D02*
D03*
X210189Y36318D02*
D03*
X205189D02*
D03*
X210189Y15648D02*
D03*
X205189D02*
D03*
X230157Y376181D02*
D03*
X235157D02*
D03*
X225157D02*
D03*
X240158D02*
D03*
X220158D02*
D03*
X215158D02*
D03*
X240158Y355512D02*
D03*
X235157D02*
D03*
X220158D02*
D03*
X215158D02*
D03*
X230157D02*
D03*
X225157D02*
D03*
X210157Y376181D02*
D03*
X205157D02*
D03*
X210157Y355512D02*
D03*
X205157D02*
D03*
X230236Y327756D02*
D03*
X235236D02*
D03*
X225236D02*
D03*
X240236D02*
D03*
X220236D02*
D03*
X215236D02*
D03*
X240236Y307087D02*
D03*
X235236D02*
D03*
X220236D02*
D03*
X215236D02*
D03*
X230236D02*
D03*
X225236D02*
D03*
X210236Y327756D02*
D03*
X205236D02*
D03*
X210236Y307087D02*
D03*
X205236D02*
D03*
X230157Y279112D02*
D03*
X235157D02*
D03*
X225157D02*
D03*
X240158D02*
D03*
X220158D02*
D03*
X215158D02*
D03*
X240158Y258443D02*
D03*
X235157D02*
D03*
X220158D02*
D03*
X215158D02*
D03*
X230157D02*
D03*
X225157D02*
D03*
X210157Y279112D02*
D03*
X205157D02*
D03*
X210157Y258443D02*
D03*
X205157D02*
D03*
X230157Y230578D02*
D03*
X235157D02*
D03*
X225157D02*
D03*
X240158D02*
D03*
X220158D02*
D03*
X215158D02*
D03*
X240158Y209908D02*
D03*
X235157D02*
D03*
X220158D02*
D03*
X215158D02*
D03*
X230157D02*
D03*
X225157D02*
D03*
X210157Y230578D02*
D03*
X205157D02*
D03*
X210157Y209908D02*
D03*
X205157D02*
D03*
X230157Y182043D02*
D03*
X235157D02*
D03*
X225157D02*
D03*
X240158D02*
D03*
X220158D02*
D03*
X215158D02*
D03*
X240158Y161374D02*
D03*
X235157D02*
D03*
X220158D02*
D03*
X215158D02*
D03*
X230157D02*
D03*
X225157D02*
D03*
X210157Y182043D02*
D03*
X205157D02*
D03*
X210157Y161374D02*
D03*
X205157D02*
D03*
X230157Y133509D02*
D03*
X235157D02*
D03*
X225157D02*
D03*
X240158D02*
D03*
X220158D02*
D03*
X215158D02*
D03*
X240158Y112839D02*
D03*
X235157D02*
D03*
X220158D02*
D03*
X215158D02*
D03*
X230157D02*
D03*
X225157D02*
D03*
X210157Y133509D02*
D03*
X205157D02*
D03*
X210157Y112839D02*
D03*
X205157D02*
D03*
X230157Y84974D02*
D03*
X235157D02*
D03*
X225157D02*
D03*
X240158D02*
D03*
X220158D02*
D03*
X215158D02*
D03*
X240158Y64305D02*
D03*
X235157D02*
D03*
X220158D02*
D03*
X215158D02*
D03*
X230157D02*
D03*
X225157D02*
D03*
X210157Y84974D02*
D03*
X205157D02*
D03*
X210157Y64305D02*
D03*
X205157D02*
D03*
X292524Y64673D02*
D03*
X297524D02*
D03*
X292524Y113126D02*
D03*
X297524D02*
D03*
Y133795D02*
D03*
X302524D02*
D03*
X292524Y161578D02*
D03*
X297524D02*
D03*
Y182248D02*
D03*
X302524D02*
D03*
X282524Y327606D02*
D03*
X287524D02*
D03*
X272524Y113126D02*
D03*
X277524D02*
D03*
X282524D02*
D03*
X287524D02*
D03*
X302524D02*
D03*
X307524D02*
D03*
X272524Y133795D02*
D03*
X277524D02*
D03*
X282524D02*
D03*
X287524D02*
D03*
X292524D02*
D03*
X307524D02*
D03*
X272524Y15648D02*
D03*
X277524D02*
D03*
X282524D02*
D03*
X287524D02*
D03*
X292524D02*
D03*
X297524D02*
D03*
X302524D02*
D03*
X307524D02*
D03*
X272524Y36318D02*
D03*
X277524D02*
D03*
X282524D02*
D03*
X287524D02*
D03*
X292524D02*
D03*
X297524D02*
D03*
X302524D02*
D03*
X307524D02*
D03*
X272524Y355390D02*
D03*
X277524D02*
D03*
X282524D02*
D03*
X287524D02*
D03*
X292524D02*
D03*
X297524D02*
D03*
X302524D02*
D03*
X307524D02*
D03*
X272524Y376059D02*
D03*
X277524D02*
D03*
X282524D02*
D03*
X287524D02*
D03*
X292524D02*
D03*
X297524D02*
D03*
X302524D02*
D03*
X307524D02*
D03*
Y85342D02*
D03*
X302524D02*
D03*
X297524D02*
D03*
X292524D02*
D03*
X287524D02*
D03*
X282524D02*
D03*
X277524D02*
D03*
X272524D02*
D03*
X307524Y64673D02*
D03*
X302524D02*
D03*
X287524D02*
D03*
X282524D02*
D03*
X277524D02*
D03*
X272524D02*
D03*
X307524Y182248D02*
D03*
X292524D02*
D03*
X287524D02*
D03*
X282524D02*
D03*
X277524D02*
D03*
X272524D02*
D03*
X307524Y161578D02*
D03*
X302524D02*
D03*
X287524D02*
D03*
X282524D02*
D03*
X277524D02*
D03*
X272524D02*
D03*
X307524Y230701D02*
D03*
X302524D02*
D03*
X297524D02*
D03*
X292524D02*
D03*
X287524D02*
D03*
X282524D02*
D03*
X277524D02*
D03*
X272524D02*
D03*
X307524Y210031D02*
D03*
X302524D02*
D03*
X297524D02*
D03*
X292524D02*
D03*
X287524D02*
D03*
X282524D02*
D03*
X277524D02*
D03*
X272524D02*
D03*
X307524Y279153D02*
D03*
X302524D02*
D03*
X297524D02*
D03*
X292524D02*
D03*
X287524D02*
D03*
X282524D02*
D03*
X277524D02*
D03*
X272524D02*
D03*
X307524Y258484D02*
D03*
X302524D02*
D03*
X297524D02*
D03*
X292524D02*
D03*
X287524D02*
D03*
X282524D02*
D03*
X277524D02*
D03*
X272524D02*
D03*
X307524Y327606D02*
D03*
X302524D02*
D03*
X297524D02*
D03*
X292524D02*
D03*
X277524D02*
D03*
X272524D02*
D03*
X307524Y306937D02*
D03*
X302524D02*
D03*
X297524D02*
D03*
X292524D02*
D03*
X287524D02*
D03*
X282524D02*
D03*
X277524D02*
D03*
X272524D02*
D03*
D22*
X510236Y372835D02*
D03*
Y379134D02*
D03*
X501181Y372835D02*
D03*
Y379134D02*
D03*
X492126Y372835D02*
D03*
Y379134D02*
D03*
X104725Y188189D02*
D03*
Y181890D02*
D03*
X124016Y364567D02*
D03*
Y370866D02*
D03*
X138976Y364567D02*
D03*
Y370866D02*
D03*
X48386Y365276D02*
D03*
Y371575D02*
D03*
X33386Y365276D02*
D03*
Y371575D02*
D03*
X104724Y154331D02*
D03*
Y160630D02*
D03*
Y224803D02*
D03*
Y218504D02*
D03*
X104725Y252756D02*
D03*
Y246457D02*
D03*
X43748Y225197D02*
D03*
Y218898D02*
D03*
X43748Y154331D02*
D03*
Y160630D02*
D03*
X43748Y182165D02*
D03*
Y188465D02*
D03*
X43749Y253201D02*
D03*
Y246901D02*
D03*
D23*
X42717Y120276D02*
D03*
X47835D02*
D03*
Y112795D02*
D03*
X45276D02*
D03*
X42717D02*
D03*
D24*
X453937Y269834D02*
D03*
X460236D02*
D03*
X453937Y366929D02*
D03*
X460236D02*
D03*
X433858Y275590D02*
D03*
X440158D02*
D03*
X433858Y373228D02*
D03*
X440158D02*
D03*
X453937Y257697D02*
D03*
X460236D02*
D03*
X453937Y354792D02*
D03*
X460236D02*
D03*
X433858Y263386D02*
D03*
X440158D02*
D03*
X433858Y361023D02*
D03*
X440158D02*
D03*
X433858Y251181D02*
D03*
X440158D02*
D03*
X433858Y348819D02*
D03*
X440158D02*
D03*
X453937Y245561D02*
D03*
X460236D02*
D03*
X453937Y342655D02*
D03*
X460236D02*
D03*
X433858Y238976D02*
D03*
X440158D02*
D03*
X433858Y336614D02*
D03*
X440158D02*
D03*
X453937Y233424D02*
D03*
X460236D02*
D03*
X453937Y330518D02*
D03*
X460236D02*
D03*
X453937Y221287D02*
D03*
X460236D02*
D03*
X453937Y318382D02*
D03*
X460236D02*
D03*
X433858Y226772D02*
D03*
X440158D02*
D03*
X433858Y324409D02*
D03*
X440158D02*
D03*
X453937Y209150D02*
D03*
X460236D02*
D03*
X453937Y306245D02*
D03*
X460236D02*
D03*
X433858Y214567D02*
D03*
X440158D02*
D03*
X433858Y312205D02*
D03*
X440158D02*
D03*
X433858Y202362D02*
D03*
X440158D02*
D03*
X433858Y300000D02*
D03*
X440158D02*
D03*
X453937Y197013D02*
D03*
X460236D02*
D03*
X453937Y294108D02*
D03*
X460236D02*
D03*
X433858Y190157D02*
D03*
X440158D02*
D03*
X433858Y287795D02*
D03*
X440158D02*
D03*
X453937Y184876D02*
D03*
X460236D02*
D03*
X453937Y281971D02*
D03*
X460236D02*
D03*
X453937Y75645D02*
D03*
X460236D02*
D03*
X453937Y172740D02*
D03*
X460236D02*
D03*
X433858Y80315D02*
D03*
X440158D02*
D03*
X433858Y177953D02*
D03*
X440158D02*
D03*
X453937Y63508D02*
D03*
X460236D02*
D03*
X453937Y160603D02*
D03*
X460236D02*
D03*
X433858Y68110D02*
D03*
X440158D02*
D03*
X433858Y165748D02*
D03*
X440158D02*
D03*
X433858Y55905D02*
D03*
X440158D02*
D03*
X433858Y153543D02*
D03*
X440158D02*
D03*
X453937Y51371D02*
D03*
X460236D02*
D03*
X453937Y148466D02*
D03*
X460236D02*
D03*
X433858Y43701D02*
D03*
X440158D02*
D03*
X433858Y141339D02*
D03*
X440158D02*
D03*
X453937Y39234D02*
D03*
X460236D02*
D03*
X453937Y136329D02*
D03*
X460236D02*
D03*
X453937Y27097D02*
D03*
X460236D02*
D03*
X453937Y124192D02*
D03*
X460236D02*
D03*
X433858Y31496D02*
D03*
X440158D02*
D03*
X433858Y129134D02*
D03*
X440158D02*
D03*
X453937Y112055D02*
D03*
X460236D02*
D03*
X433858Y116929D02*
D03*
X440158D02*
D03*
X433858Y104724D02*
D03*
X440158D02*
D03*
X433858Y19291D02*
D03*
X440158D02*
D03*
X453937Y99918D02*
D03*
X460236D02*
D03*
X433858Y92520D02*
D03*
X440158D02*
D03*
X453937Y14961D02*
D03*
X460236D02*
D03*
X453937Y87782D02*
D03*
X460236D02*
D03*
X70866Y99212D02*
D03*
X77165D02*
D03*
X70866Y106353D02*
D03*
X77165D02*
D03*
X70866Y113494D02*
D03*
X77165D02*
D03*
X70866Y120635D02*
D03*
X77165D02*
D03*
X70866Y127776D02*
D03*
X77165D02*
D03*
X70866Y134917D02*
D03*
X77165D02*
D03*
X70866Y142058D02*
D03*
X77165D02*
D03*
X70866Y149199D02*
D03*
X77165D02*
D03*
X70866Y156340D02*
D03*
X77165D02*
D03*
X70866Y163481D02*
D03*
X77165D02*
D03*
X70866Y170622D02*
D03*
X77165D02*
D03*
X70866Y177762D02*
D03*
X77165D02*
D03*
X70866Y184903D02*
D03*
X77165D02*
D03*
X70866Y192044D02*
D03*
X77165D02*
D03*
X70571Y199185D02*
D03*
X76870D02*
D03*
X70571Y206326D02*
D03*
X76870D02*
D03*
X70571Y213467D02*
D03*
X76870D02*
D03*
X70571Y220608D02*
D03*
X76870D02*
D03*
X70571Y227749D02*
D03*
X76870D02*
D03*
X70571Y234890D02*
D03*
X76870D02*
D03*
X70571Y242031D02*
D03*
X76870D02*
D03*
X70964Y249172D02*
D03*
X77264D02*
D03*
X70866Y256313D02*
D03*
X77165D02*
D03*
X70866Y263454D02*
D03*
X77165D02*
D03*
X70866Y270595D02*
D03*
X77165D02*
D03*
X70866Y277735D02*
D03*
X77165D02*
D03*
X70866Y284876D02*
D03*
X77165D02*
D03*
X70866Y292017D02*
D03*
X77165D02*
D03*
X70866Y299158D02*
D03*
X77165D02*
D03*
X70866Y306299D02*
D03*
X77165D02*
D03*
X511024Y361417D02*
D03*
X504724D02*
D03*
X511024Y351575D02*
D03*
X504724D02*
D03*
X511024Y341732D02*
D03*
X504724D02*
D03*
X511024Y331890D02*
D03*
X504724D02*
D03*
X511024Y322047D02*
D03*
X504724D02*
D03*
X511024Y312205D02*
D03*
X504724D02*
D03*
X511024Y302362D02*
D03*
X504724D02*
D03*
X511024Y292520D02*
D03*
X504724D02*
D03*
X511024Y272343D02*
D03*
X504724D02*
D03*
X511024Y262500D02*
D03*
X504724D02*
D03*
X511024Y252657D02*
D03*
X504724D02*
D03*
X511024Y242815D02*
D03*
X504724D02*
D03*
X511024Y232283D02*
D03*
X504724D02*
D03*
X511024Y200000D02*
D03*
X504724D02*
D03*
X511024Y190157D02*
D03*
X504724D02*
D03*
X511024Y180315D02*
D03*
X504724D02*
D03*
X511024Y170473D02*
D03*
X504724D02*
D03*
X511024Y160630D02*
D03*
X504724D02*
D03*
X511024Y150787D02*
D03*
X504724D02*
D03*
X511024Y140945D02*
D03*
X504724D02*
D03*
X511024Y131102D02*
D03*
X504724D02*
D03*
X511024Y109843D02*
D03*
X504724D02*
D03*
X511024Y100000D02*
D03*
X504724D02*
D03*
X511024Y90158D02*
D03*
X504724D02*
D03*
X511024Y80315D02*
D03*
X504724D02*
D03*
X511024Y70472D02*
D03*
X504724D02*
D03*
X511024Y60630D02*
D03*
X504724D02*
D03*
X511024Y50787D02*
D03*
X504724D02*
D03*
X511024Y40945D02*
D03*
X504724D02*
D03*
X511024Y31102D02*
D03*
X504724D02*
D03*
X390945Y51575D02*
D03*
X397244D02*
D03*
X390945Y75197D02*
D03*
X397244D02*
D03*
X390945Y118898D02*
D03*
X397244D02*
D03*
X391338Y142520D02*
D03*
X397638D02*
D03*
X390945Y194094D02*
D03*
X397244D02*
D03*
X391338Y217717D02*
D03*
X397638D02*
D03*
X390945Y264961D02*
D03*
X397244D02*
D03*
X391338Y288583D02*
D03*
X397638D02*
D03*
X391338Y331496D02*
D03*
X397638D02*
D03*
X390945Y355118D02*
D03*
X397244D02*
D03*
X266142Y85433D02*
D03*
X259842D02*
D03*
X266142Y134252D02*
D03*
X259842D02*
D03*
X266142Y182677D02*
D03*
X259842D02*
D03*
X266142Y230709D02*
D03*
X259842D02*
D03*
X266142Y279134D02*
D03*
X259842D02*
D03*
X266142Y327559D02*
D03*
X259842D02*
D03*
X266142Y375984D02*
D03*
X259842D02*
D03*
X266142Y36220D02*
D03*
X259842D02*
D03*
X198819D02*
D03*
X192520D02*
D03*
X198819Y85039D02*
D03*
X192520D02*
D03*
X198819Y133465D02*
D03*
X192520D02*
D03*
X198819Y182283D02*
D03*
X192520D02*
D03*
X198819Y230709D02*
D03*
X192520D02*
D03*
X198819Y279134D02*
D03*
X192520D02*
D03*
X198819Y327953D02*
D03*
X192520D02*
D03*
X198819Y376378D02*
D03*
X192520D02*
D03*
D25*
X50884Y78740D02*
D03*
X39467D02*
D03*
X45176D02*
D03*
X109939Y78740D02*
D03*
X98522D02*
D03*
X104231D02*
D03*
D26*
X322835Y182774D02*
D03*
Y171357D02*
D03*
Y177065D02*
D03*
D27*
X384035Y52657D02*
D03*
X379035D02*
D03*
X374035D02*
D03*
X369035D02*
D03*
X364035D02*
D03*
X359035D02*
D03*
X354035D02*
D03*
X349035D02*
D03*
Y74114D02*
D03*
X354035D02*
D03*
X359035D02*
D03*
X364035D02*
D03*
X369035D02*
D03*
X374035D02*
D03*
X379035D02*
D03*
X384035D02*
D03*
Y119980D02*
D03*
X379035D02*
D03*
X374035D02*
D03*
X369035D02*
D03*
X364035D02*
D03*
X359035D02*
D03*
X354035D02*
D03*
X349035D02*
D03*
Y141437D02*
D03*
X354035D02*
D03*
X359035D02*
D03*
X364035D02*
D03*
X369035D02*
D03*
X374035D02*
D03*
X379035D02*
D03*
X384035D02*
D03*
Y195177D02*
D03*
X379035D02*
D03*
X374035D02*
D03*
X369035D02*
D03*
X364035D02*
D03*
X359035D02*
D03*
X354035D02*
D03*
X349035D02*
D03*
Y216634D02*
D03*
X354035D02*
D03*
X359035D02*
D03*
X364035D02*
D03*
X369035D02*
D03*
X374035D02*
D03*
X379035D02*
D03*
X384035D02*
D03*
Y266043D02*
D03*
X379035D02*
D03*
X374035D02*
D03*
X369035D02*
D03*
X364035D02*
D03*
X359035D02*
D03*
X354035D02*
D03*
X349035D02*
D03*
Y287500D02*
D03*
X354035D02*
D03*
X359035D02*
D03*
X364035D02*
D03*
X369035D02*
D03*
X374035D02*
D03*
X379035D02*
D03*
X384035D02*
D03*
Y332579D02*
D03*
X379035D02*
D03*
X374035D02*
D03*
X369035D02*
D03*
X364035D02*
D03*
X359035D02*
D03*
X354035D02*
D03*
X349035D02*
D03*
Y354035D02*
D03*
X354035D02*
D03*
X359035D02*
D03*
X364035D02*
D03*
X369035D02*
D03*
X374035D02*
D03*
X379035D02*
D03*
X384035D02*
D03*
D28*
X-15748Y117126D02*
D03*
Y123031D02*
D03*
X-7874Y123032D02*
D03*
Y117126D02*
D03*
D29*
X135976Y344449D02*
D03*
Y318465D02*
D03*
X38976D02*
D03*
Y344449D02*
D03*
D30*
X92748Y210691D02*
D03*
Y213191D02*
D03*
Y215691D02*
D03*
Y218191D02*
D03*
Y220691D02*
D03*
Y223191D02*
D03*
Y225691D02*
D03*
Y228191D02*
D03*
Y230691D02*
D03*
Y233191D02*
D03*
Y235691D02*
D03*
Y238191D02*
D03*
Y240691D02*
D03*
Y243191D02*
D03*
Y245691D02*
D03*
Y248191D02*
D03*
Y250691D02*
D03*
Y253191D02*
D03*
Y255691D02*
D03*
Y258191D02*
D03*
Y260691D02*
D03*
Y263191D02*
D03*
Y265691D02*
D03*
Y268191D02*
D03*
X55347Y210691D02*
D03*
Y213191D02*
D03*
Y215691D02*
D03*
Y218191D02*
D03*
Y220691D02*
D03*
Y223191D02*
D03*
Y225691D02*
D03*
Y228191D02*
D03*
Y230691D02*
D03*
Y233191D02*
D03*
Y235691D02*
D03*
Y238191D02*
D03*
Y240691D02*
D03*
Y243191D02*
D03*
Y245691D02*
D03*
Y248191D02*
D03*
Y250691D02*
D03*
Y253191D02*
D03*
Y255691D02*
D03*
Y258191D02*
D03*
Y260691D02*
D03*
Y263191D02*
D03*
Y265691D02*
D03*
Y268191D02*
D03*
X55299Y196191D02*
D03*
Y193691D02*
D03*
Y191191D02*
D03*
Y188691D02*
D03*
Y186191D02*
D03*
Y183691D02*
D03*
Y181191D02*
D03*
Y178691D02*
D03*
Y176191D02*
D03*
Y173691D02*
D03*
Y171191D02*
D03*
Y168691D02*
D03*
Y166191D02*
D03*
Y163691D02*
D03*
Y161191D02*
D03*
Y158691D02*
D03*
Y156191D02*
D03*
Y153691D02*
D03*
Y151191D02*
D03*
Y148691D02*
D03*
Y146191D02*
D03*
Y143691D02*
D03*
Y141191D02*
D03*
Y138691D02*
D03*
X92701Y196191D02*
D03*
Y193691D02*
D03*
Y191191D02*
D03*
Y188691D02*
D03*
Y186191D02*
D03*
Y183691D02*
D03*
Y181191D02*
D03*
Y178691D02*
D03*
Y176191D02*
D03*
Y173691D02*
D03*
Y171191D02*
D03*
Y168691D02*
D03*
Y166191D02*
D03*
Y163691D02*
D03*
Y161191D02*
D03*
Y158691D02*
D03*
Y156191D02*
D03*
Y153691D02*
D03*
Y151191D02*
D03*
Y148691D02*
D03*
Y146191D02*
D03*
Y143691D02*
D03*
Y141191D02*
D03*
Y138691D02*
D03*
D31*
X377362Y60236D02*
D03*
X383268D02*
D03*
Y66831D02*
D03*
X377362D02*
D03*
X368898D02*
D03*
X362992D02*
D03*
X354527D02*
D03*
X348622D02*
D03*
X354527Y60236D02*
D03*
X348622D02*
D03*
X368898D02*
D03*
X362992D02*
D03*
X383268Y134154D02*
D03*
X377362D02*
D03*
X368898D02*
D03*
X362992D02*
D03*
X354527D02*
D03*
X348622D02*
D03*
X354527Y127559D02*
D03*
X348622D02*
D03*
X368898D02*
D03*
X362992D02*
D03*
X383268D02*
D03*
X377362D02*
D03*
X383268Y208957D02*
D03*
X377362D02*
D03*
X368898D02*
D03*
X362992D02*
D03*
X354527D02*
D03*
X348622D02*
D03*
X354527Y202362D02*
D03*
X348622D02*
D03*
X368898D02*
D03*
X362992D02*
D03*
X383268D02*
D03*
X377362D02*
D03*
X383268Y279823D02*
D03*
X377362D02*
D03*
X368898D02*
D03*
X362992D02*
D03*
X354527D02*
D03*
X348622D02*
D03*
X354527Y273228D02*
D03*
X348622D02*
D03*
X368898D02*
D03*
X362992D02*
D03*
X383268D02*
D03*
X377362D02*
D03*
X383268Y346752D02*
D03*
X377362D02*
D03*
X368898D02*
D03*
X362992D02*
D03*
X354527D02*
D03*
X348622D02*
D03*
X354527Y340157D02*
D03*
X348622D02*
D03*
X368898D02*
D03*
X362992D02*
D03*
X383268D02*
D03*
X377362D02*
D03*
X98032Y127165D02*
D03*
X103937D02*
D03*
X53543D02*
D03*
X47638D02*
D03*
X106890Y197047D02*
D03*
X100984D02*
D03*
X40748Y197441D02*
D03*
X46654D02*
D03*
X101181Y277165D02*
D03*
X95275D02*
D03*
X46653Y208268D02*
D03*
X40748D02*
D03*
X100984Y203346D02*
D03*
X106890D02*
D03*
X48031Y277165D02*
D03*
X53937D02*
D03*
M02*
