G04*
G04 #@! TF.GenerationSoftware,Altium Limited,Altium Designer,18.0.12 (696)*
G04*
G04 Layer_Color=8388736*
%FSLAX25Y25*%
%MOIN*%
G70*
G01*
G75*
%ADD36R,0.05918X0.11430*%
%ADD37R,0.06312X0.04737*%
%ADD38R,0.13005X0.10249*%
%ADD39O,0.02769X0.09461*%
%ADD40O,0.03162X0.06902*%
%ADD41R,0.05131X0.15367*%
%ADD42R,0.03556X0.04343*%
%ADD43R,0.04343X0.03556*%
%ADD44R,0.03950X0.03950*%
%ADD45R,0.03950X0.03950*%
%ADD46R,0.04737X0.04343*%
%ADD47R,0.04343X0.04737*%
%ADD48C,0.04737*%
%ADD49R,0.05564X0.07965*%
%ADD50R,0.11417X0.02559*%
%ADD51C,0.06800*%
%ADD52C,0.05918*%
%ADD53R,0.05918X0.05918*%
%ADD54C,0.06600*%
%ADD55R,0.06706X0.06706*%
%ADD56C,0.06706*%
%ADD57C,0.03162*%
D36*
X114112Y341050D02*
D03*
X125135D02*
D03*
Y327050D02*
D03*
X114112D02*
D03*
D37*
X84742Y295050D02*
D03*
X74506D02*
D03*
D38*
X90521Y345050D02*
D03*
D39*
X83021Y333732D02*
D03*
X88021D02*
D03*
X93021D02*
D03*
X98021D02*
D03*
X83021Y356369D02*
D03*
X88021D02*
D03*
X93021D02*
D03*
X98021D02*
D03*
D40*
X423380Y342421D02*
D03*
X428379D02*
D03*
X433380D02*
D03*
X438379D02*
D03*
X423380Y363680D02*
D03*
X428379D02*
D03*
X433380D02*
D03*
X438379D02*
D03*
X423380Y302420D02*
D03*
X428379D02*
D03*
X433380D02*
D03*
X438379D02*
D03*
X423380Y323680D02*
D03*
X428379D02*
D03*
X433380D02*
D03*
X438379D02*
D03*
X423380Y262421D02*
D03*
X428379D02*
D03*
X433380D02*
D03*
X438379D02*
D03*
X423380Y283680D02*
D03*
X428379D02*
D03*
X433380D02*
D03*
X438379D02*
D03*
X423380Y222421D02*
D03*
X428379D02*
D03*
X433380D02*
D03*
X438379D02*
D03*
X423380Y243680D02*
D03*
X428379D02*
D03*
X433380D02*
D03*
X438379D02*
D03*
X423380Y182050D02*
D03*
X428379D02*
D03*
X433380D02*
D03*
X438379D02*
D03*
X423380Y203310D02*
D03*
X428379D02*
D03*
X433380D02*
D03*
X438379D02*
D03*
X423380Y142050D02*
D03*
X428379D02*
D03*
X433380D02*
D03*
X438379D02*
D03*
X423380Y163310D02*
D03*
X428379D02*
D03*
X433380D02*
D03*
X438379D02*
D03*
X423474Y101920D02*
D03*
X428474D02*
D03*
X433474D02*
D03*
X438474D02*
D03*
X423474Y123180D02*
D03*
X428474D02*
D03*
X433474D02*
D03*
X438474D02*
D03*
X423224Y61821D02*
D03*
X428224D02*
D03*
X433224D02*
D03*
X438224D02*
D03*
X423224Y83080D02*
D03*
X428224D02*
D03*
X433224D02*
D03*
X438224D02*
D03*
D41*
X117624Y366050D02*
D03*
X105616D02*
D03*
D42*
X98277Y366050D02*
D03*
X92765D02*
D03*
X99379Y322050D02*
D03*
X93868D02*
D03*
X119379Y351050D02*
D03*
X113868D02*
D03*
X463368Y351050D02*
D03*
X468880D02*
D03*
X463124Y311050D02*
D03*
X468635D02*
D03*
X463368Y271050D02*
D03*
X468880D02*
D03*
X463368Y231050D02*
D03*
X468880D02*
D03*
X463368Y190050D02*
D03*
X468880D02*
D03*
X462868Y150550D02*
D03*
X468379D02*
D03*
X464244Y56500D02*
D03*
X469756D02*
D03*
X472324Y46350D02*
D03*
X477835D02*
D03*
X472324Y26250D02*
D03*
X477835D02*
D03*
X463462Y110550D02*
D03*
X468974D02*
D03*
X461244Y71000D02*
D03*
X466756D02*
D03*
D43*
X81624Y368806D02*
D03*
Y363295D02*
D03*
X87624Y368806D02*
D03*
Y363295D02*
D03*
X416880Y358295D02*
D03*
Y363806D02*
D03*
Y318295D02*
D03*
Y323806D02*
D03*
Y278294D02*
D03*
Y283806D02*
D03*
Y238295D02*
D03*
Y243806D02*
D03*
Y197924D02*
D03*
Y203436D02*
D03*
Y157924D02*
D03*
Y163436D02*
D03*
X416974Y117795D02*
D03*
Y123306D02*
D03*
X416724Y77694D02*
D03*
Y83206D02*
D03*
D44*
X454273Y357050D02*
D03*
X447974D02*
D03*
X454273Y317050D02*
D03*
X447974D02*
D03*
X454273Y277050D02*
D03*
X447974D02*
D03*
X454273Y237050D02*
D03*
X447974D02*
D03*
X454273Y196680D02*
D03*
X447974D02*
D03*
X454273Y156680D02*
D03*
X447974D02*
D03*
X454273Y364050D02*
D03*
X447974D02*
D03*
X454273Y324050D02*
D03*
X447974D02*
D03*
X454273Y284050D02*
D03*
X447974D02*
D03*
X454273Y244050D02*
D03*
X447974D02*
D03*
X454273Y203680D02*
D03*
X447974D02*
D03*
X454273Y163680D02*
D03*
X447974D02*
D03*
X454368Y116550D02*
D03*
X448069D02*
D03*
X454117Y76450D02*
D03*
X447818D02*
D03*
X454368Y123550D02*
D03*
X448069D02*
D03*
X454117Y83450D02*
D03*
X447818D02*
D03*
D45*
X25624Y370901D02*
D03*
Y377200D02*
D03*
X47624Y370901D02*
D03*
Y377200D02*
D03*
D46*
X75624Y369200D02*
D03*
Y362901D02*
D03*
Y356200D02*
D03*
Y349901D02*
D03*
X-25376Y105901D02*
D03*
Y112200D02*
D03*
X-18376Y112200D02*
D03*
Y105901D02*
D03*
X25624Y357901D02*
D03*
Y364200D02*
D03*
X47624Y357901D02*
D03*
Y364200D02*
D03*
D47*
X460730Y357050D02*
D03*
X467029D02*
D03*
X460730Y317050D02*
D03*
X467029D02*
D03*
X460730Y277050D02*
D03*
X467029D02*
D03*
X460730Y237050D02*
D03*
X467029D02*
D03*
X460730Y196680D02*
D03*
X467029D02*
D03*
X460730Y156680D02*
D03*
X467029D02*
D03*
X471730Y357050D02*
D03*
X478029D02*
D03*
X471730Y317050D02*
D03*
X478029D02*
D03*
X471730Y277050D02*
D03*
X478029D02*
D03*
X471730Y237050D02*
D03*
X478029D02*
D03*
X471730Y196680D02*
D03*
X478029D02*
D03*
X471730Y156680D02*
D03*
X478029D02*
D03*
X460730Y364050D02*
D03*
X467029D02*
D03*
X460730Y324050D02*
D03*
X467029D02*
D03*
X460730Y284050D02*
D03*
X467029D02*
D03*
X460730Y244050D02*
D03*
X467029D02*
D03*
X460730Y203680D02*
D03*
X467029D02*
D03*
X460730Y163680D02*
D03*
X467029D02*
D03*
X471730Y364050D02*
D03*
X478029D02*
D03*
X471730Y324050D02*
D03*
X478029D02*
D03*
X471730Y284050D02*
D03*
X478029D02*
D03*
X471730Y244050D02*
D03*
X478029D02*
D03*
X471730Y203680D02*
D03*
X478029D02*
D03*
X471730Y163680D02*
D03*
X478029D02*
D03*
X460824Y116550D02*
D03*
X467124D02*
D03*
X460574Y76450D02*
D03*
X466873D02*
D03*
X471824Y116550D02*
D03*
X478124D02*
D03*
X466873Y66000D02*
D03*
X460574D02*
D03*
X460824Y123550D02*
D03*
X467124D02*
D03*
X460574Y83450D02*
D03*
X466873D02*
D03*
X471824Y123550D02*
D03*
X478124D02*
D03*
X471574Y83450D02*
D03*
X477873D02*
D03*
D48*
X94624Y293050D02*
D03*
X133500Y372500D02*
D03*
D49*
X92915Y304050D02*
D03*
X104332D02*
D03*
X92915Y314050D02*
D03*
X104332D02*
D03*
D50*
X-48976Y280279D02*
D03*
Y277130D02*
D03*
Y273980D02*
D03*
Y270831D02*
D03*
Y267681D02*
D03*
Y264531D02*
D03*
Y261382D02*
D03*
Y258232D02*
D03*
Y255083D02*
D03*
Y251933D02*
D03*
Y248783D02*
D03*
Y245634D02*
D03*
Y242484D02*
D03*
Y239335D02*
D03*
Y236185D02*
D03*
Y233035D02*
D03*
Y229886D02*
D03*
Y226736D02*
D03*
Y223587D02*
D03*
Y220437D02*
D03*
Y217287D02*
D03*
Y214138D02*
D03*
Y210988D02*
D03*
Y207839D02*
D03*
Y204689D02*
D03*
Y201539D02*
D03*
Y198390D02*
D03*
Y182642D02*
D03*
Y179492D02*
D03*
Y176342D02*
D03*
Y173193D02*
D03*
Y170043D02*
D03*
Y166894D02*
D03*
Y163744D02*
D03*
Y160594D02*
D03*
Y157445D02*
D03*
Y154295D02*
D03*
Y151146D02*
D03*
Y147996D02*
D03*
Y144846D02*
D03*
Y141697D02*
D03*
Y138547D02*
D03*
Y135398D02*
D03*
Y132248D02*
D03*
Y129098D02*
D03*
Y125949D02*
D03*
Y122799D02*
D03*
Y119650D02*
D03*
Y116500D02*
D03*
Y113350D02*
D03*
D51*
X528880Y342050D02*
D03*
Y372050D02*
D03*
X498880Y352050D02*
D03*
Y342050D02*
D03*
Y372050D02*
D03*
Y362050D02*
D03*
X528880Y262050D02*
D03*
Y292050D02*
D03*
X498880Y272050D02*
D03*
Y262050D02*
D03*
Y292050D02*
D03*
Y282050D02*
D03*
X528880Y302050D02*
D03*
Y332050D02*
D03*
X498880Y312050D02*
D03*
Y302050D02*
D03*
Y332050D02*
D03*
Y322050D02*
D03*
X528880Y222050D02*
D03*
Y252050D02*
D03*
X498880Y232050D02*
D03*
Y222050D02*
D03*
Y252050D02*
D03*
Y242050D02*
D03*
X528880Y181680D02*
D03*
Y211680D02*
D03*
X498880Y191680D02*
D03*
Y181680D02*
D03*
Y211680D02*
D03*
Y201680D02*
D03*
X528880Y141680D02*
D03*
Y171680D02*
D03*
X498880Y151680D02*
D03*
Y141680D02*
D03*
Y171680D02*
D03*
Y161680D02*
D03*
X528724Y61450D02*
D03*
Y91450D02*
D03*
X498724Y71450D02*
D03*
Y61450D02*
D03*
Y91450D02*
D03*
Y81450D02*
D03*
X528974Y101550D02*
D03*
Y131550D02*
D03*
X498974Y111550D02*
D03*
Y101550D02*
D03*
Y131550D02*
D03*
Y121550D02*
D03*
X528836Y21250D02*
D03*
Y51250D02*
D03*
X498836Y31250D02*
D03*
Y21250D02*
D03*
Y51250D02*
D03*
Y41250D02*
D03*
X516368Y352050D02*
D03*
Y342050D02*
D03*
Y372050D02*
D03*
Y362050D02*
D03*
X546368Y342050D02*
D03*
Y372050D02*
D03*
X516368Y312050D02*
D03*
Y302050D02*
D03*
Y332050D02*
D03*
Y322050D02*
D03*
X546368Y302050D02*
D03*
Y332050D02*
D03*
X516368Y272050D02*
D03*
Y262050D02*
D03*
Y292050D02*
D03*
Y282050D02*
D03*
X546368Y262050D02*
D03*
Y292050D02*
D03*
X516368Y232050D02*
D03*
Y222050D02*
D03*
Y252050D02*
D03*
Y242050D02*
D03*
X546368Y222050D02*
D03*
Y252050D02*
D03*
X516368Y191680D02*
D03*
Y181680D02*
D03*
Y211680D02*
D03*
Y201680D02*
D03*
X546368Y181680D02*
D03*
Y211680D02*
D03*
X516368Y151680D02*
D03*
Y141680D02*
D03*
Y171680D02*
D03*
Y161680D02*
D03*
X546368Y141680D02*
D03*
Y171680D02*
D03*
X516324Y71450D02*
D03*
Y61450D02*
D03*
Y91450D02*
D03*
Y81450D02*
D03*
X546324Y61450D02*
D03*
Y91450D02*
D03*
X516324Y31350D02*
D03*
Y21350D02*
D03*
Y51350D02*
D03*
Y41350D02*
D03*
X546324Y21350D02*
D03*
Y51350D02*
D03*
X516368Y111550D02*
D03*
Y101550D02*
D03*
Y131550D02*
D03*
Y121550D02*
D03*
X546368Y101550D02*
D03*
Y131550D02*
D03*
X325124Y31350D02*
D03*
Y21350D02*
D03*
Y51350D02*
D03*
Y41350D02*
D03*
X355124Y21350D02*
D03*
Y51350D02*
D03*
D52*
X152000Y341610D02*
D03*
D53*
Y355390D02*
D03*
D54*
X33624Y310050D02*
D03*
X43624D02*
D03*
X33624Y300050D02*
D03*
X43624D02*
D03*
D55*
X35624Y179050D02*
D03*
X352124Y263050D02*
D03*
D56*
X45624Y179050D02*
D03*
X35624Y169050D02*
D03*
X45624D02*
D03*
X35624Y159050D02*
D03*
X45624D02*
D03*
X35624Y149050D02*
D03*
X45624D02*
D03*
X35624Y139050D02*
D03*
X45624D02*
D03*
X35624Y129050D02*
D03*
X45624D02*
D03*
X35624Y119050D02*
D03*
X45624D02*
D03*
X35624Y109050D02*
D03*
X45624D02*
D03*
X35624Y99050D02*
D03*
X45624D02*
D03*
X35624Y89050D02*
D03*
X45624D02*
D03*
X362124Y263050D02*
D03*
X352124Y253050D02*
D03*
X362124D02*
D03*
X352124Y243050D02*
D03*
X362124D02*
D03*
X352124Y233050D02*
D03*
X362124D02*
D03*
X352124Y223050D02*
D03*
X362124D02*
D03*
X352124Y213050D02*
D03*
X362124D02*
D03*
X352124Y203050D02*
D03*
X362124D02*
D03*
X352124Y193050D02*
D03*
X362124D02*
D03*
X352124Y183050D02*
D03*
X362124D02*
D03*
X352124Y173050D02*
D03*
X362124D02*
D03*
D57*
X86190Y342885D02*
D03*
Y347216D02*
D03*
X90521Y342885D02*
D03*
Y347216D02*
D03*
X94852Y342885D02*
D03*
Y347216D02*
D03*
M02*
