G04*
G04 #@! TF.GenerationSoftware,Altium Limited,Altium Designer,18.0.12 (696)*
G04*
G04 Layer_Color=16711935*
%FSLAX25Y25*%
%MOIN*%
G70*
G01*
G75*
%ADD17C,0.01000*%
D17*
X-38004Y185827D02*
G03*
X-38004Y195276I0J4724D01*
G01*
X-27847Y300492D02*
G03*
X-29421Y302067I-1575J0D01*
G01*
X-38791Y284350D02*
G03*
X-34854Y288287I0J3937D01*
G01*
Y105413D02*
G03*
X-38791Y109350I-3937J0D01*
G01*
X-29421Y91634D02*
G03*
X-27847Y93209I0J1575D01*
G01*
Y298130D02*
G03*
X-23910Y294193I3937J0D01*
G01*
Y99508D02*
G03*
X-27847Y95571I0J-3937D01*
G01*
X124Y393701D02*
X14624D01*
X124Y294193D02*
Y393701D01*
X-51Y294193D02*
X124D01*
X0Y0D02*
X14619D01*
X0D02*
Y99508D01*
X-51D02*
X0D01*
X555673Y0D02*
Y393701D01*
X14619Y0D02*
X555673D01*
X14619Y393701D02*
X555673D01*
X-55408Y195276D02*
X-38004D01*
X-55408Y185827D02*
X-38004D01*
X-58476Y195276D02*
X-55408D01*
X-58476Y185827D02*
X-55408D01*
X-58476Y195276D02*
Y284350D01*
Y109350D02*
Y185827D01*
X-34854Y288287D02*
Y302067D01*
Y91634D02*
Y105413D01*
X-23910Y294193D02*
X-51D01*
X-55408Y284350D02*
X-38791D01*
X-55408Y109350D02*
X-38791D01*
X-23910Y99508D02*
X-51D01*
X-34854Y302067D02*
X-29421D01*
X-58476Y284350D02*
X-55408D01*
X-58476Y109350D02*
X-55408D01*
X-34854Y91634D02*
X-29421D01*
X-27847Y298130D02*
Y300492D01*
Y93209D02*
Y95571D01*
M02*
