G04*
G04 #@! TF.GenerationSoftware,Altium Limited,Altium Designer,18.0.12 (696)*
G04*
G04 Layer_Color=32896*
%FSLAX25Y25*%
%MOIN*%
G70*
G01*
G75*
%ADD15C,0.00787*%
%ADD17C,0.01000*%
D15*
X464425Y67033D02*
Y67427D01*
X467575Y67033D02*
Y67427D01*
X475303Y68608D02*
X475697D01*
X475303Y71758D02*
X475697D01*
X475303Y49505D02*
X475697D01*
X475303Y52655D02*
X475697D01*
X475303Y42906D02*
X475697D01*
X475303Y46055D02*
X475697D01*
X467575Y53836D02*
Y54230D01*
X464425Y53836D02*
Y54230D01*
X464425Y41283D02*
Y41677D01*
X467575Y41283D02*
Y41677D01*
D17*
X538880Y337050D02*
Y377050D01*
X488880Y337050D02*
Y377050D01*
Y337050D02*
X538880D01*
X488880Y377050D02*
X538880D01*
X538880Y257050D02*
Y297050D01*
X488880Y257050D02*
Y297050D01*
Y257050D02*
X538880D01*
X488880Y297050D02*
X538880D01*
Y337050D01*
X488880Y297050D02*
Y337050D01*
Y297050D02*
X538880D01*
X488880Y337050D02*
X538880D01*
Y217050D02*
Y257050D01*
X488880Y217050D02*
Y257050D01*
Y217050D02*
X538880D01*
X488880Y257050D02*
X538880D01*
Y176680D02*
Y216680D01*
X488880Y176680D02*
Y216680D01*
Y176680D02*
X538880D01*
X488880Y216680D02*
X538880D01*
Y136680D02*
Y176680D01*
X488880Y136680D02*
Y176680D01*
Y136680D02*
X538880D01*
X488880Y176680D02*
X538880D01*
X538724Y56450D02*
Y96450D01*
X488724Y56450D02*
Y96450D01*
Y56450D02*
X538724D01*
X488724Y96450D02*
X538724D01*
X538974Y96550D02*
Y136550D01*
X488974Y96550D02*
Y136550D01*
Y96550D02*
X538974D01*
X488974Y136550D02*
X538974D01*
X538836Y16250D02*
Y56250D01*
X488836Y16250D02*
Y56250D01*
Y16250D02*
X538836D01*
X488836Y56250D02*
X538836D01*
X521970Y88450D02*
X526968D01*
X527968Y87450D01*
Y85451D01*
X526968Y84451D01*
X521970D01*
Y82452D02*
X527968D01*
Y79453D01*
X526968Y78453D01*
X525969D01*
X524969Y79453D01*
Y82452D01*
Y79453D01*
X523969Y78453D01*
X522969D01*
X521970Y79453D01*
Y82452D01*
Y76454D02*
X527968D01*
X524969D01*
Y72455D01*
X521970D01*
X527968D01*
X522220Y128550D02*
X527218D01*
X528218Y127550D01*
Y125551D01*
X527218Y124551D01*
X522220D01*
Y122552D02*
X528218D01*
Y119553D01*
X527218Y118553D01*
X526219D01*
X525219Y119553D01*
Y122552D01*
Y119553D01*
X524220Y118553D01*
X523220D01*
X522220Y119553D01*
Y122552D01*
X523220Y112555D02*
X522220Y113555D01*
Y115554D01*
X523220Y116554D01*
X527218D01*
X528218Y115554D01*
Y113555D01*
X527218Y112555D01*
X525219D01*
Y114554D01*
X461044Y42280D02*
Y48278D01*
X458045D01*
X457045Y47279D01*
Y45279D01*
X458045Y44280D01*
X461044D01*
X459045D02*
X457045Y42280D01*
X455046D02*
X453047D01*
X454046D01*
Y48278D01*
X455046Y47279D01*
X450048Y43280D02*
X449048Y42280D01*
X447049D01*
X446049Y43280D01*
Y47279D01*
X447049Y48278D01*
X449048D01*
X450048Y47279D01*
Y46279D01*
X449048Y45279D01*
X446049D01*
X440051Y47279D02*
X441051Y48278D01*
X443050D01*
X444050Y47279D01*
Y43280D01*
X443050Y42280D01*
X441051D01*
X440051Y43280D01*
X461044Y53035D02*
Y59033D01*
X458045D01*
X457045Y58033D01*
Y56034D01*
X458045Y55034D01*
X461044D01*
X459045D02*
X457045Y53035D01*
X455046D02*
X453047D01*
X454046D01*
Y59033D01*
X455046Y58033D01*
X450048Y54034D02*
X449048Y53035D01*
X447049D01*
X446049Y54034D01*
Y58033D01*
X447049Y59033D01*
X449048D01*
X450048Y58033D01*
Y57033D01*
X449048Y56034D01*
X446049D01*
X444050Y59033D02*
Y53035D01*
X441051D01*
X440051Y54034D01*
Y55034D01*
X441051Y56034D01*
X444050D01*
X441051D01*
X440051Y57033D01*
Y58033D01*
X441051Y59033D01*
X444050D01*
X460500Y66230D02*
Y72228D01*
X457501D01*
X456501Y71228D01*
Y69229D01*
X457501Y68229D01*
X460500D01*
X458501D02*
X456501Y66230D01*
X454502D02*
X452503D01*
X453502D01*
Y72228D01*
X454502Y71228D01*
X449504Y67230D02*
X448504Y66230D01*
X446504D01*
X445505Y67230D01*
Y71228D01*
X446504Y72228D01*
X448504D01*
X449504Y71228D01*
Y70229D01*
X448504Y69229D01*
X445505D01*
X443505Y66230D02*
Y70229D01*
X441506Y72228D01*
X439507Y70229D01*
Y66230D01*
Y69229D01*
X443505D01*
X480000Y28480D02*
Y34478D01*
X477001D01*
X476001Y33479D01*
Y31479D01*
X477001Y30480D01*
X480000D01*
X478001D02*
X476001Y28480D01*
X474002D02*
X472003D01*
X473002D01*
Y34478D01*
X474002Y33479D01*
X466005Y28480D02*
Y34478D01*
X469004Y31479D01*
X465005D01*
X459007Y33479D02*
X460007Y34478D01*
X462006D01*
X463005Y33479D01*
Y29480D01*
X462006Y28480D01*
X460007D01*
X459007Y29480D01*
X480000Y63580D02*
Y69578D01*
X477001D01*
X476001Y68579D01*
Y66579D01*
X477001Y65580D01*
X480000D01*
X478001D02*
X476001Y63580D01*
X474002D02*
X472003D01*
X473002D01*
Y69578D01*
X474002Y68579D01*
X466005Y63580D02*
Y69578D01*
X469004Y66579D01*
X465005D01*
X463005Y69578D02*
Y63580D01*
X460007D01*
X459007Y64580D01*
Y65580D01*
X460007Y66579D01*
X463005D01*
X460007D01*
X459007Y67579D01*
Y68579D01*
X460007Y69578D01*
X463005D01*
X480500Y76683D02*
Y82681D01*
X477501D01*
X476501Y81681D01*
Y79682D01*
X477501Y78682D01*
X480500D01*
X478501D02*
X476501Y76683D01*
X474502D02*
X472503D01*
X473502D01*
Y82681D01*
X474502Y81681D01*
X466504Y76683D02*
Y82681D01*
X469504Y79682D01*
X465505D01*
X463506Y76683D02*
Y80681D01*
X461506Y82681D01*
X459507Y80681D01*
Y76683D01*
Y79682D01*
X463506D01*
X522082Y47250D02*
X527080D01*
X528080Y46251D01*
Y44251D01*
X527080Y43252D01*
X522082D01*
X527080Y41252D02*
X528080Y40253D01*
Y38253D01*
X527080Y37254D01*
X523081D01*
X522082Y38253D01*
Y40253D01*
X523081Y41252D01*
X524081D01*
X525080Y40253D01*
Y37254D01*
X523081Y31256D02*
X522082Y32255D01*
Y34255D01*
X523081Y35254D01*
X527080D01*
X528080Y34255D01*
Y32255D01*
X527080Y31256D01*
X522126Y168050D02*
X527124D01*
X528124Y167051D01*
Y165051D01*
X527124Y164052D01*
X522126D01*
Y162052D02*
X528124D01*
Y159053D01*
X527124Y158054D01*
X526124D01*
X525125Y159053D01*
Y162052D01*
Y159053D01*
X524125Y158054D01*
X523125D01*
X522126Y159053D01*
Y162052D01*
Y152056D02*
Y156054D01*
X525125D01*
Y154055D01*
Y156054D01*
X528124D01*
X522126Y208050D02*
X527124D01*
X528124Y207051D01*
Y205051D01*
X527124Y204052D01*
X522126D01*
Y202052D02*
X528124D01*
Y199053D01*
X527124Y198054D01*
X526124D01*
X525125Y199053D01*
Y202052D01*
Y199053D01*
X524125Y198054D01*
X523125D01*
X522126Y199053D01*
Y202052D01*
Y192056D02*
Y196054D01*
X528124D01*
Y192056D01*
X525125Y196054D02*
Y194055D01*
X522126Y248050D02*
X527124D01*
X528124Y247051D01*
Y245051D01*
X527124Y244052D01*
X522126D01*
Y242052D02*
X528124D01*
Y239053D01*
X527124Y238054D01*
X526124D01*
X525125Y239053D01*
Y242052D01*
Y239053D01*
X524125Y238054D01*
X523125D01*
X522126Y239053D01*
Y242052D01*
Y236054D02*
X528124D01*
Y233055D01*
X527124Y232056D01*
X523125D01*
X522126Y233055D01*
Y236054D01*
Y288050D02*
X527124D01*
X528124Y287051D01*
Y285051D01*
X527124Y284052D01*
X522126D01*
Y282052D02*
X528124D01*
Y279053D01*
X527124Y278054D01*
X526124D01*
X525125Y279053D01*
Y282052D01*
Y279053D01*
X524125Y278054D01*
X523125D01*
X522126Y279053D01*
Y282052D01*
X523125Y272056D02*
X522126Y273055D01*
Y275055D01*
X523125Y276054D01*
X527124D01*
X528124Y275055D01*
Y273055D01*
X527124Y272056D01*
X522126Y328050D02*
X527124D01*
X528124Y327051D01*
Y325051D01*
X527124Y324052D01*
X522126D01*
Y322052D02*
X528124D01*
Y319053D01*
X527124Y318054D01*
X526124D01*
X525125Y319053D01*
Y322052D01*
Y319053D01*
X524125Y318054D01*
X523125D01*
X522126Y319053D01*
Y322052D01*
Y316054D02*
X528124D01*
Y313055D01*
X527124Y312056D01*
X526124D01*
X525125Y313055D01*
Y316054D01*
Y313055D01*
X524125Y312056D01*
X523125D01*
X522126Y313055D01*
Y316054D01*
X522126Y367050D02*
X527124D01*
X528124Y366051D01*
Y364051D01*
X527124Y363052D01*
X522126D01*
Y361052D02*
X528124D01*
Y358053D01*
X527124Y357054D01*
X526124D01*
X525125Y358053D01*
Y361052D01*
Y358053D01*
X524125Y357054D01*
X523125D01*
X522126Y358053D01*
Y361052D01*
X528124Y355054D02*
X524125D01*
X522126Y353055D01*
X524125Y351056D01*
X528124D01*
X525125D01*
Y355054D01*
M02*
