G04*
G04 #@! TF.GenerationSoftware,Altium Limited,Altium Designer,18.0.12 (696)*
G04*
G04 Layer_Color=128*
%FSLAX25Y25*%
%MOIN*%
G70*
G01*
G75*
%ADD32R,0.03937X0.03543*%
%ADD33R,0.03543X0.03937*%
%ADD35R,0.11024X0.02165*%
D32*
X466000Y64080D02*
D03*
Y70380D02*
D03*
X466000Y57183D02*
D03*
Y50883D02*
D03*
X466000Y38331D02*
D03*
Y44630D02*
D03*
D33*
X478650Y70183D02*
D03*
X472350D02*
D03*
X478650Y51080D02*
D03*
X472350D02*
D03*
X478650Y44480D02*
D03*
X472350D02*
D03*
D35*
X-48976Y280279D02*
D03*
Y277130D02*
D03*
Y273980D02*
D03*
Y270831D02*
D03*
Y267681D02*
D03*
Y264531D02*
D03*
Y261382D02*
D03*
Y258232D02*
D03*
Y255083D02*
D03*
Y251933D02*
D03*
Y248783D02*
D03*
Y245634D02*
D03*
Y242484D02*
D03*
Y239335D02*
D03*
Y236185D02*
D03*
Y233035D02*
D03*
Y229886D02*
D03*
Y226736D02*
D03*
Y223587D02*
D03*
Y220437D02*
D03*
Y217287D02*
D03*
Y214138D02*
D03*
Y210988D02*
D03*
Y207839D02*
D03*
Y204689D02*
D03*
Y201539D02*
D03*
Y198390D02*
D03*
Y182642D02*
D03*
Y179492D02*
D03*
Y176342D02*
D03*
Y173193D02*
D03*
Y170043D02*
D03*
Y166894D02*
D03*
Y163744D02*
D03*
Y160594D02*
D03*
Y157445D02*
D03*
Y154295D02*
D03*
Y151146D02*
D03*
Y147996D02*
D03*
Y144846D02*
D03*
Y141697D02*
D03*
Y138547D02*
D03*
Y135398D02*
D03*
Y132248D02*
D03*
Y129098D02*
D03*
Y125949D02*
D03*
Y122799D02*
D03*
Y119650D02*
D03*
Y116500D02*
D03*
Y113350D02*
D03*
M02*
