G04*
G04 #@! TF.GenerationSoftware,Altium Limited,Altium Designer,18.0.12 (696)*
G04*
G04 Layer_Color=8421504*
%FSLAX25Y25*%
%MOIN*%
G70*
G01*
G75*
%ADD22R,0.05118X0.10630*%
%ADD23R,0.05512X0.03937*%
%ADD24R,0.12205X0.09449*%
%ADD25O,0.01968X0.08661*%
%ADD26O,0.02362X0.06102*%
%ADD27R,0.04331X0.14567*%
%ADD28R,0.02756X0.03543*%
%ADD29R,0.03543X0.02756*%
%ADD30R,0.03150X0.03150*%
%ADD31R,0.03150X0.03150*%
%ADD32R,0.03937X0.03543*%
%ADD33R,0.03543X0.03937*%
%ADD34R,0.04764X0.07165*%
%ADD35R,0.11024X0.02165*%
D22*
X114112Y341050D02*
D03*
X125135D02*
D03*
Y327050D02*
D03*
X114112D02*
D03*
D23*
X84742Y295050D02*
D03*
X74506D02*
D03*
D24*
X90521Y345050D02*
D03*
D25*
X83021Y333732D02*
D03*
X88021D02*
D03*
X93021D02*
D03*
X98021D02*
D03*
X83021Y356369D02*
D03*
X88021D02*
D03*
X93021D02*
D03*
X98021D02*
D03*
D26*
X423380Y342421D02*
D03*
X428379D02*
D03*
X433380D02*
D03*
X438379D02*
D03*
X423380Y363680D02*
D03*
X428379D02*
D03*
X433380D02*
D03*
X438379D02*
D03*
X423380Y302420D02*
D03*
X428379D02*
D03*
X433380D02*
D03*
X438379D02*
D03*
X423380Y323680D02*
D03*
X428379D02*
D03*
X433380D02*
D03*
X438379D02*
D03*
X423380Y262421D02*
D03*
X428379D02*
D03*
X433380D02*
D03*
X438379D02*
D03*
X423380Y283680D02*
D03*
X428379D02*
D03*
X433380D02*
D03*
X438379D02*
D03*
X423380Y222421D02*
D03*
X428379D02*
D03*
X433380D02*
D03*
X438379D02*
D03*
X423380Y243680D02*
D03*
X428379D02*
D03*
X433380D02*
D03*
X438379D02*
D03*
X423380Y182050D02*
D03*
X428379D02*
D03*
X433380D02*
D03*
X438379D02*
D03*
X423380Y203310D02*
D03*
X428379D02*
D03*
X433380D02*
D03*
X438379D02*
D03*
X423380Y142050D02*
D03*
X428379D02*
D03*
X433380D02*
D03*
X438379D02*
D03*
X423380Y163310D02*
D03*
X428379D02*
D03*
X433380D02*
D03*
X438379D02*
D03*
X423474Y101920D02*
D03*
X428474D02*
D03*
X433474D02*
D03*
X438474D02*
D03*
X423474Y123180D02*
D03*
X428474D02*
D03*
X433474D02*
D03*
X438474D02*
D03*
X423224Y61821D02*
D03*
X428224D02*
D03*
X433224D02*
D03*
X438224D02*
D03*
X423224Y83080D02*
D03*
X428224D02*
D03*
X433224D02*
D03*
X438224D02*
D03*
D27*
X117624Y366050D02*
D03*
X105616D02*
D03*
D28*
X98277Y366050D02*
D03*
X92765D02*
D03*
X99379Y322050D02*
D03*
X93868D02*
D03*
X119379Y351050D02*
D03*
X113868D02*
D03*
X463368Y351050D02*
D03*
X468880D02*
D03*
X463124Y311050D02*
D03*
X468635D02*
D03*
X463368Y271050D02*
D03*
X468880D02*
D03*
X463368Y231050D02*
D03*
X468880D02*
D03*
X463368Y190050D02*
D03*
X468880D02*
D03*
X462868Y150550D02*
D03*
X468379D02*
D03*
X464244Y56500D02*
D03*
X469756D02*
D03*
X472324Y46350D02*
D03*
X477835D02*
D03*
X472324Y26250D02*
D03*
X477835D02*
D03*
X463462Y110550D02*
D03*
X468974D02*
D03*
X461244Y71000D02*
D03*
X466756D02*
D03*
D29*
X81624Y368806D02*
D03*
Y363295D02*
D03*
X87624Y368806D02*
D03*
Y363295D02*
D03*
X416880Y358295D02*
D03*
Y363806D02*
D03*
Y318295D02*
D03*
Y323806D02*
D03*
Y278294D02*
D03*
Y283806D02*
D03*
Y238295D02*
D03*
Y243806D02*
D03*
Y197924D02*
D03*
Y203436D02*
D03*
Y157924D02*
D03*
Y163436D02*
D03*
X416974Y117795D02*
D03*
Y123306D02*
D03*
X416724Y77694D02*
D03*
Y83206D02*
D03*
D30*
X454273Y357050D02*
D03*
X447974D02*
D03*
X454273Y317050D02*
D03*
X447974D02*
D03*
X454273Y277050D02*
D03*
X447974D02*
D03*
X454273Y237050D02*
D03*
X447974D02*
D03*
X454273Y196680D02*
D03*
X447974D02*
D03*
X454273Y156680D02*
D03*
X447974D02*
D03*
X454273Y364050D02*
D03*
X447974D02*
D03*
X454273Y324050D02*
D03*
X447974D02*
D03*
X454273Y284050D02*
D03*
X447974D02*
D03*
X454273Y244050D02*
D03*
X447974D02*
D03*
X454273Y203680D02*
D03*
X447974D02*
D03*
X454273Y163680D02*
D03*
X447974D02*
D03*
X454368Y116550D02*
D03*
X448069D02*
D03*
X454117Y76450D02*
D03*
X447818D02*
D03*
X454368Y123550D02*
D03*
X448069D02*
D03*
X454117Y83450D02*
D03*
X447818D02*
D03*
D31*
X25624Y370901D02*
D03*
Y377200D02*
D03*
X47624Y370901D02*
D03*
Y377200D02*
D03*
D32*
X75624Y369200D02*
D03*
Y362901D02*
D03*
Y356200D02*
D03*
Y349901D02*
D03*
X-25376Y105901D02*
D03*
Y112200D02*
D03*
X-18376Y112200D02*
D03*
Y105901D02*
D03*
X25624Y357901D02*
D03*
Y364200D02*
D03*
X47624Y357901D02*
D03*
Y364200D02*
D03*
D33*
X460730Y357050D02*
D03*
X467029D02*
D03*
X460730Y317050D02*
D03*
X467029D02*
D03*
X460730Y277050D02*
D03*
X467029D02*
D03*
X460730Y237050D02*
D03*
X467029D02*
D03*
X460730Y196680D02*
D03*
X467029D02*
D03*
X460730Y156680D02*
D03*
X467029D02*
D03*
X471730Y357050D02*
D03*
X478029D02*
D03*
X471730Y317050D02*
D03*
X478029D02*
D03*
X471730Y277050D02*
D03*
X478029D02*
D03*
X471730Y237050D02*
D03*
X478029D02*
D03*
X471730Y196680D02*
D03*
X478029D02*
D03*
X471730Y156680D02*
D03*
X478029D02*
D03*
X460730Y364050D02*
D03*
X467029D02*
D03*
X460730Y324050D02*
D03*
X467029D02*
D03*
X460730Y284050D02*
D03*
X467029D02*
D03*
X460730Y244050D02*
D03*
X467029D02*
D03*
X460730Y203680D02*
D03*
X467029D02*
D03*
X460730Y163680D02*
D03*
X467029D02*
D03*
X471730Y364050D02*
D03*
X478029D02*
D03*
X471730Y324050D02*
D03*
X478029D02*
D03*
X471730Y284050D02*
D03*
X478029D02*
D03*
X471730Y244050D02*
D03*
X478029D02*
D03*
X471730Y203680D02*
D03*
X478029D02*
D03*
X471730Y163680D02*
D03*
X478029D02*
D03*
X460824Y116550D02*
D03*
X467124D02*
D03*
X460574Y76450D02*
D03*
X466873D02*
D03*
X471824Y116550D02*
D03*
X478124D02*
D03*
X466873Y66000D02*
D03*
X460574D02*
D03*
X460824Y123550D02*
D03*
X467124D02*
D03*
X460574Y83450D02*
D03*
X466873D02*
D03*
X471824Y123550D02*
D03*
X478124D02*
D03*
X471574Y83450D02*
D03*
X477873D02*
D03*
D34*
X92915Y304050D02*
D03*
X104332D02*
D03*
X92915Y314050D02*
D03*
X104332D02*
D03*
D35*
X-48976Y280279D02*
D03*
Y277130D02*
D03*
Y273980D02*
D03*
Y270831D02*
D03*
Y267681D02*
D03*
Y264531D02*
D03*
Y261382D02*
D03*
Y258232D02*
D03*
Y255083D02*
D03*
Y251933D02*
D03*
Y248783D02*
D03*
Y245634D02*
D03*
Y242484D02*
D03*
Y239335D02*
D03*
Y236185D02*
D03*
Y233035D02*
D03*
Y229886D02*
D03*
Y226736D02*
D03*
Y223587D02*
D03*
Y220437D02*
D03*
Y217287D02*
D03*
Y214138D02*
D03*
Y210988D02*
D03*
Y207839D02*
D03*
Y204689D02*
D03*
Y201539D02*
D03*
Y198390D02*
D03*
Y182642D02*
D03*
Y179492D02*
D03*
Y176342D02*
D03*
Y173193D02*
D03*
Y170043D02*
D03*
Y166894D02*
D03*
Y163744D02*
D03*
Y160594D02*
D03*
Y157445D02*
D03*
Y154295D02*
D03*
Y151146D02*
D03*
Y147996D02*
D03*
Y144846D02*
D03*
Y141697D02*
D03*
Y138547D02*
D03*
Y135398D02*
D03*
Y132248D02*
D03*
Y129098D02*
D03*
Y125949D02*
D03*
Y122799D02*
D03*
Y119650D02*
D03*
Y116500D02*
D03*
Y113350D02*
D03*
M02*
