G04*
G04 #@! TF.GenerationSoftware,Altium Limited,Altium Designer,18.0.12 (696)*
G04*
G04 Layer_Physical_Order=1*
G04 Layer_Color=255*
%FSLAX25Y25*%
%MOIN*%
G70*
G01*
G75*
%ADD14C,0.02000*%
%ADD17C,0.01000*%
%ADD22R,0.05118X0.10630*%
%ADD23R,0.05512X0.03937*%
%ADD24R,0.12205X0.09449*%
%ADD25O,0.01968X0.08661*%
%ADD26O,0.02362X0.06102*%
%ADD27R,0.04331X0.14567*%
%ADD28R,0.02756X0.03543*%
%ADD29R,0.03543X0.02756*%
%ADD30R,0.03150X0.03150*%
%ADD31R,0.03150X0.03150*%
%ADD32R,0.03937X0.03543*%
%ADD33R,0.03543X0.03937*%
%ADD34R,0.04764X0.07165*%
%ADD35R,0.11024X0.02165*%
%ADD58C,0.03937*%
%ADD59C,0.03000*%
%ADD60C,0.06000*%
%ADD61C,0.05118*%
%ADD62R,0.05118X0.05118*%
%ADD63R,0.05906X0.05906*%
%ADD64C,0.05906*%
%ADD65C,0.02362*%
G36*
X475500Y368118D02*
X475003Y367621D01*
X474541Y367812D01*
Y380000D01*
X474383Y380383D01*
X474000Y380541D01*
X470343D01*
X462942Y387942D01*
X462280Y388384D01*
X461500Y388539D01*
X154000D01*
X153220Y388384D01*
X152558Y387942D01*
X142208Y377592D01*
X116624Y377592D01*
X116450Y377520D01*
X76500D01*
X76110Y377442D01*
X75779Y377221D01*
X57478Y358920D01*
X50092D01*
Y360172D01*
X45155D01*
Y355629D01*
X50092D01*
Y356881D01*
X57901D01*
X58291Y356959D01*
X58622Y357180D01*
X72655Y371213D01*
X73155Y371006D01*
Y366928D01*
X78092D01*
Y367671D01*
X79352D01*
Y366928D01*
X83895D01*
Y369636D01*
X84390Y370131D01*
X84852Y369939D01*
Y369306D01*
X87124D01*
Y371184D01*
X86097D01*
X85905Y371646D01*
X89740Y375480D01*
X97326D01*
X97478Y374980D01*
X97046Y374692D01*
X97015Y374645D01*
X96964Y374624D01*
X96302Y373962D01*
X96281Y373911D01*
X96235Y373880D01*
X95714Y373102D01*
X95704Y373048D01*
X95664Y373008D01*
X95306Y372144D01*
Y372088D01*
X95275Y372042D01*
X95093Y371124D01*
X95104Y371070D01*
X95082Y371018D01*
Y368469D01*
X94643Y368322D01*
X94582Y368322D01*
X90895D01*
X90887Y368322D01*
X90395Y368341D01*
Y371184D01*
X88124D01*
Y368806D01*
Y366428D01*
X90387D01*
X90395Y366428D01*
X90887Y366409D01*
Y363779D01*
X92002D01*
Y360820D01*
X91951Y360786D01*
X91623Y360295D01*
X91508Y359716D01*
Y353023D01*
X91623Y352444D01*
X91951Y351953D01*
X92442Y351625D01*
X93021Y351509D01*
X93600Y351625D01*
X94091Y351953D01*
X94419Y352444D01*
X94535Y353023D01*
Y359716D01*
X94419Y360295D01*
X94091Y360786D01*
X94041Y360820D01*
Y363779D01*
X94582D01*
X94643Y363779D01*
X95082Y363632D01*
Y350775D01*
X91021D01*
Y345550D01*
X97624D01*
Y349509D01*
X101624D01*
X101624Y349509D01*
X102006Y349668D01*
X110006Y357668D01*
X110165Y358050D01*
X110165Y358050D01*
X110165Y373531D01*
X110165Y373531D01*
X110006Y373913D01*
X110006Y373913D01*
X108901Y375019D01*
X109093Y375480D01*
X113635D01*
X113826Y375019D01*
X113241Y374433D01*
X113082Y374050D01*
X113082Y374050D01*
Y357216D01*
X113241Y356833D01*
X113241Y356833D01*
X115752Y354322D01*
X115545Y353822D01*
X114368D01*
Y351550D01*
X116246D01*
Y353121D01*
X116746Y353328D01*
X117082Y352992D01*
Y348885D01*
X117241Y348502D01*
X117389Y348441D01*
X120082Y345747D01*
X120082Y320550D01*
X120082Y320550D01*
X120241Y320168D01*
X120241Y320168D01*
X121741Y318668D01*
X121741Y318668D01*
X122124Y318509D01*
X122124Y318509D01*
X139550Y318509D01*
X139550Y318509D01*
X139933Y318668D01*
X139933Y318668D01*
X161383Y340117D01*
X161541Y340500D01*
X161541Y340500D01*
Y360000D01*
X161383Y360383D01*
X146075Y375691D01*
X154845Y384461D01*
X393341D01*
X410461Y367341D01*
Y329000D01*
Y328186D01*
Y288186D01*
Y248186D01*
Y207816D01*
Y167816D01*
Y127780D01*
Y87430D01*
X410616Y86650D01*
X411058Y85988D01*
X414452Y82594D01*
Y81328D01*
X415934D01*
X415943Y81322D01*
X416724Y81167D01*
X417504Y81322D01*
X417513Y81328D01*
X418995D01*
Y81551D01*
X421510D01*
Y81210D01*
X421640Y80554D01*
X422012Y79998D01*
X422568Y79627D01*
X423224Y79496D01*
X423880Y79627D01*
X424436Y79998D01*
X424807Y80554D01*
X424938Y81210D01*
Y84950D01*
X424807Y85606D01*
X424436Y86162D01*
X423880Y86534D01*
X423224Y86664D01*
X422568Y86534D01*
X422012Y86162D01*
X421640Y85606D01*
X421510Y84950D01*
Y84610D01*
X418995D01*
Y85084D01*
X417730D01*
X414539Y88275D01*
Y115417D01*
X416474D01*
Y117795D01*
Y120172D01*
X414539D01*
Y120996D01*
X414702Y121428D01*
X416185D01*
X416194Y121422D01*
X416974Y121267D01*
X417754Y121422D01*
X417763Y121428D01*
X419246D01*
Y121651D01*
X421760D01*
Y121310D01*
X421890Y120654D01*
X422262Y120098D01*
X422818Y119727D01*
X423474Y119596D01*
X424130Y119727D01*
X424686Y120098D01*
X425058Y120654D01*
X425188Y121310D01*
Y125050D01*
X425058Y125706D01*
X424686Y126262D01*
X424130Y126634D01*
X423474Y126764D01*
X422818Y126634D01*
X422262Y126262D01*
X421890Y125706D01*
X421760Y125050D01*
Y124710D01*
X419246D01*
Y125184D01*
X417980D01*
X414539Y128625D01*
Y155546D01*
X416379D01*
Y157924D01*
Y160302D01*
X414539D01*
Y161087D01*
X414608Y161558D01*
X416090D01*
X416099Y161552D01*
X416880Y161397D01*
X417660Y161552D01*
X417669Y161558D01*
X419151D01*
Y161781D01*
X421665D01*
Y161440D01*
X421796Y160784D01*
X422167Y160228D01*
X422724Y159857D01*
X423380Y159726D01*
X424036Y159857D01*
X424591Y160228D01*
X424963Y160784D01*
X425094Y161440D01*
Y165180D01*
X424963Y165836D01*
X424591Y166392D01*
X424036Y166764D01*
X423380Y166894D01*
X422724Y166764D01*
X422167Y166392D01*
X421796Y165836D01*
X421665Y165180D01*
Y164840D01*
X419151D01*
Y165314D01*
X417885D01*
X414539Y168660D01*
Y195546D01*
X416379D01*
Y197924D01*
Y200302D01*
X414539D01*
Y201087D01*
X414608Y201558D01*
X416090D01*
X416099Y201552D01*
X416880Y201397D01*
X417660Y201552D01*
X417669Y201558D01*
X419151D01*
Y201781D01*
X421665D01*
Y201440D01*
X421796Y200784D01*
X422167Y200228D01*
X422724Y199857D01*
X423380Y199726D01*
X424036Y199857D01*
X424591Y200228D01*
X424963Y200784D01*
X425094Y201440D01*
Y205180D01*
X424963Y205836D01*
X424591Y206392D01*
X424036Y206764D01*
X423380Y206894D01*
X422724Y206764D01*
X422167Y206392D01*
X421796Y205836D01*
X421665Y205180D01*
Y204840D01*
X419151D01*
Y205314D01*
X417885D01*
X414539Y208660D01*
Y235916D01*
X416379D01*
Y238295D01*
Y240672D01*
X414539D01*
Y241457D01*
X414608Y241928D01*
X416090D01*
X416099Y241922D01*
X416880Y241767D01*
X417660Y241922D01*
X417669Y241928D01*
X419151D01*
Y242151D01*
X421665D01*
Y241810D01*
X421796Y241154D01*
X422167Y240598D01*
X422724Y240227D01*
X423380Y240096D01*
X424036Y240227D01*
X424591Y240598D01*
X424963Y241154D01*
X425094Y241810D01*
Y245550D01*
X424963Y246206D01*
X424591Y246762D01*
X424036Y247134D01*
X423380Y247264D01*
X422724Y247134D01*
X422167Y246762D01*
X421796Y246206D01*
X421665Y245550D01*
Y245210D01*
X419151D01*
Y245684D01*
X417885D01*
X414539Y249030D01*
Y275917D01*
X416379D01*
Y278294D01*
Y280672D01*
X414539D01*
Y281457D01*
X414608Y281928D01*
X416090D01*
X416099Y281922D01*
X416880Y281767D01*
X417660Y281922D01*
X417669Y281928D01*
X419151D01*
Y282151D01*
X421665D01*
Y281810D01*
X421796Y281154D01*
X422167Y280598D01*
X422724Y280227D01*
X423380Y280096D01*
X424036Y280227D01*
X424591Y280598D01*
X424963Y281154D01*
X425094Y281810D01*
Y285550D01*
X424963Y286206D01*
X424591Y286762D01*
X424036Y287134D01*
X423380Y287264D01*
X422724Y287134D01*
X422167Y286762D01*
X421796Y286206D01*
X421665Y285550D01*
Y285210D01*
X419151D01*
Y285684D01*
X417885D01*
X414539Y289031D01*
Y315916D01*
X416379D01*
Y318295D01*
Y320672D01*
X414539D01*
Y321457D01*
X414608Y321928D01*
X416090D01*
X416099Y321922D01*
X416880Y321767D01*
X417660Y321922D01*
X417669Y321928D01*
X419151D01*
Y322151D01*
X421665D01*
Y321810D01*
X421796Y321154D01*
X422167Y320598D01*
X422724Y320227D01*
X423380Y320096D01*
X424036Y320227D01*
X424591Y320598D01*
X424963Y321154D01*
X425094Y321810D01*
Y325550D01*
X424963Y326206D01*
X424591Y326762D01*
X424036Y327134D01*
X423380Y327264D01*
X422724Y327134D01*
X422167Y326762D01*
X421796Y326206D01*
X421665Y325550D01*
Y325210D01*
X419151D01*
Y325684D01*
X417885D01*
X414539Y329030D01*
Y355917D01*
X416379D01*
Y358295D01*
Y360672D01*
X414539D01*
Y361457D01*
X414608Y361928D01*
X416090D01*
X416099Y361922D01*
X416880Y361767D01*
X417660Y361922D01*
X417669Y361928D01*
X419151D01*
Y362151D01*
X421665D01*
Y361810D01*
X421796Y361154D01*
X422167Y360598D01*
X422724Y360227D01*
X423380Y360096D01*
X424036Y360227D01*
X424591Y360598D01*
X424963Y361154D01*
X425094Y361810D01*
Y365550D01*
X424963Y366206D01*
X424591Y366762D01*
X424036Y367134D01*
X423380Y367264D01*
X422724Y367134D01*
X422167Y366762D01*
X421796Y366206D01*
X421665Y365550D01*
Y365210D01*
X419151D01*
Y365684D01*
X417885D01*
X413942Y369628D01*
X399571Y383999D01*
X399762Y384461D01*
X460655D01*
X464170Y380946D01*
X464117Y380383D01*
X463959Y380000D01*
Y353822D01*
X463868D01*
Y351050D01*
Y348279D01*
X463959D01*
Y313822D01*
X463624D01*
Y311050D01*
X463124D01*
D01*
X463624D01*
Y308279D01*
X463959D01*
Y273822D01*
X463868D01*
Y271050D01*
Y268279D01*
X463959D01*
Y233822D01*
X463868D01*
Y231050D01*
Y228279D01*
X463959D01*
Y192822D01*
X463868D01*
Y190050D01*
Y187279D01*
X463959D01*
Y153322D01*
X463368D01*
Y150550D01*
Y147779D01*
X463959D01*
Y113322D01*
X461084D01*
Y111050D01*
X463462D01*
Y110050D01*
X461084D01*
Y107779D01*
X463959D01*
Y74132D01*
X463622Y73772D01*
X463459Y73772D01*
X463259D01*
X462846Y73982D01*
X462846Y74272D01*
Y78919D01*
X458302D01*
Y77470D01*
X456192D01*
Y78525D01*
X452042D01*
Y74376D01*
X456192D01*
Y75431D01*
X458302D01*
Y73982D01*
X458453D01*
X458866Y73772D01*
X458866Y73482D01*
Y71500D01*
X461244D01*
Y70500D01*
X458866D01*
Y68468D01*
X458302D01*
Y67020D01*
X456524D01*
X456133Y66942D01*
X455803Y66721D01*
X436101Y47020D01*
X330896D01*
X328225Y49691D01*
X328534Y50437D01*
X328654Y51350D01*
X328534Y52264D01*
X328181Y53115D01*
X327620Y53847D01*
X326889Y54408D01*
X326037Y54760D01*
X325124Y54881D01*
X324210Y54760D01*
X323358Y54408D01*
X322627Y53847D01*
X322066Y53115D01*
X321714Y52264D01*
X321593Y51350D01*
X321714Y50437D01*
X322066Y49585D01*
X322627Y48854D01*
X323358Y48293D01*
X324210Y47940D01*
X325124Y47820D01*
X326037Y47940D01*
X326783Y48249D01*
X329753Y45279D01*
X330084Y45058D01*
X330474Y44980D01*
X436524D01*
X436914Y45058D01*
X437245Y45279D01*
X456946Y64980D01*
X458302D01*
Y63532D01*
X462846D01*
Y67875D01*
X463148Y68177D01*
X463675Y68171D01*
X463959Y67868D01*
Y61781D01*
X464019Y61635D01*
X464050Y61480D01*
X464074Y61445D01*
X464162Y61000D01*
X464053Y60450D01*
X464055Y60440D01*
X464049Y60409D01*
X463988Y60263D01*
Y59986D01*
X463988Y59986D01*
X464077Y59772D01*
X463990Y59538D01*
X463825Y59272D01*
X461866D01*
Y57000D01*
X464244D01*
Y56500D01*
X464744D01*
Y53728D01*
X466622D01*
Y56475D01*
X467084Y56666D01*
X467878Y55872D01*
Y54228D01*
X469522D01*
X474166Y49584D01*
X473975Y49122D01*
X472824D01*
Y46850D01*
X474702D01*
Y48246D01*
X475177Y48455D01*
X475459Y48229D01*
Y24016D01*
X475459Y24016D01*
X475500Y23916D01*
Y2039D01*
X2039D01*
Y99508D01*
X1884Y100288D01*
X1442Y100950D01*
X780Y101392D01*
X-0Y101547D01*
X-23910D01*
X-23959Y101537D01*
X-24010Y101544D01*
X-24395Y101526D01*
X-24542Y101489D01*
X-24693D01*
X-25450Y101338D01*
X-25636Y101261D01*
X-25833Y101222D01*
X-26546Y100927D01*
X-26713Y100815D01*
X-26898Y100739D01*
X-27540Y100310D01*
X-27682Y100168D01*
X-27849Y100056D01*
X-28395Y99510D01*
X-28506Y99343D01*
X-28648Y99201D01*
X-29077Y98560D01*
X-29154Y98374D01*
X-29265Y98207D01*
X-29561Y97494D01*
X-29600Y97297D01*
X-29677Y97111D01*
X-29827Y96355D01*
Y96203D01*
X-29864Y96057D01*
X-29883Y95671D01*
X-29876Y95621D01*
X-29886Y95571D01*
Y93673D01*
X-32815D01*
Y105413D01*
X-32825Y105463D01*
X-32817Y105513D01*
X-32836Y105899D01*
X-32873Y106046D01*
Y106197D01*
X-33023Y106954D01*
X-33100Y107140D01*
X-33139Y107337D01*
X-33435Y108050D01*
X-33546Y108217D01*
X-33623Y108402D01*
X-34052Y109044D01*
X-34194Y109186D01*
X-34306Y109353D01*
X-34851Y109899D01*
X-35018Y110010D01*
X-35160Y110152D01*
X-35802Y110581D01*
X-35987Y110658D01*
X-36155Y110769D01*
X-36868Y111065D01*
X-37064Y111104D01*
X-37250Y111181D01*
X-38007Y111331D01*
X-38158D01*
X-38305Y111368D01*
X-38691Y111387D01*
X-38741Y111380D01*
X-38791Y111390D01*
X-42671D01*
X-42965Y111768D01*
Y112331D01*
X-27845D01*
X-27845Y110093D01*
X-27977Y109947D01*
X-28359Y109686D01*
X-28500Y109714D01*
X-29156Y109584D01*
X-29712Y109212D01*
X-30084Y108656D01*
X-30214Y108000D01*
X-30084Y107344D01*
X-29712Y106788D01*
X-29156Y106416D01*
X-28500Y106286D01*
X-28273Y106331D01*
X-27845Y105903D01*
Y103629D01*
X-22908D01*
Y108172D01*
X-26820D01*
X-26916Y108656D01*
X-27288Y109212D01*
X-27348Y109252D01*
X-27531Y109695D01*
X-27460Y109928D01*
X-27413Y109928D01*
X-27413Y109928D01*
X-27413Y109928D01*
X-22908D01*
Y111180D01*
X-20845D01*
Y109928D01*
X-15908D01*
Y114472D01*
X-20845D01*
Y113220D01*
X-22908D01*
Y114472D01*
X-27845D01*
Y114370D01*
X-41984D01*
X-42465Y114417D01*
Y116000D01*
X-48976D01*
X-55488D01*
Y114417D01*
X-54988D01*
Y111768D01*
X-55282Y111390D01*
X-56437D01*
Y183788D01*
X-55488D01*
Y183142D01*
X-48976D01*
X-42465D01*
Y183788D01*
X-38004D01*
X-37938Y183801D01*
X-37871Y183792D01*
X-37254Y183832D01*
X-37060Y183884D01*
X-36860Y183898D01*
X-35668Y184217D01*
X-35429Y184335D01*
X-35176Y184421D01*
X-34108Y185037D01*
X-33908Y185213D01*
X-33686Y185361D01*
X-32814Y186233D01*
X-32666Y186455D01*
X-32490Y186656D01*
X-31873Y187724D01*
X-31787Y187976D01*
X-31670Y188215D01*
X-31350Y189407D01*
X-31333Y189673D01*
X-31281Y189935D01*
Y191168D01*
X-31333Y191429D01*
X-31350Y191696D01*
X-31670Y192887D01*
X-31787Y193126D01*
X-31873Y193379D01*
X-32490Y194447D01*
X-32666Y194647D01*
X-32814Y194869D01*
X-33686Y195741D01*
X-33908Y195889D01*
X-34108Y196065D01*
X-35176Y196682D01*
X-35429Y196768D01*
X-35668Y196886D01*
X-35545Y197370D01*
X326362D01*
X349059Y174673D01*
X348760Y173952D01*
X348641Y173050D01*
X348760Y172149D01*
X349108Y171309D01*
X349661Y170588D01*
X350382Y170034D01*
X351222Y169686D01*
X352124Y169568D01*
X353025Y169686D01*
X353865Y170034D01*
X354586Y170588D01*
X355140Y171309D01*
X355487Y172149D01*
X355606Y173050D01*
X355487Y173952D01*
X355140Y174792D01*
X354586Y175513D01*
X353865Y176066D01*
X353025Y176414D01*
X352124Y176533D01*
X351222Y176414D01*
X350501Y176115D01*
X327505Y199111D01*
X327174Y199332D01*
X326784Y199409D01*
X-41984D01*
X-42465Y199457D01*
Y201039D01*
X-48976D01*
X-55488D01*
Y199457D01*
X-54988D01*
Y197315D01*
X-56437D01*
Y282311D01*
X-55488D01*
Y280780D01*
X-48976D01*
X-42465D01*
Y282311D01*
X-38791D01*
X-38741Y282321D01*
X-38691Y282314D01*
X-38305Y282333D01*
X-38158Y282369D01*
X-38007D01*
X-37250Y282520D01*
X-37064Y282597D01*
X-36868Y282636D01*
X-36155Y282931D01*
X-35987Y283043D01*
X-35802Y283120D01*
X-35160Y283549D01*
X-35018Y283691D01*
X-34851Y283802D01*
X-34306Y284348D01*
X-34194Y284515D01*
X-34052Y284657D01*
X-33623Y285299D01*
X-33546Y285484D01*
X-33435Y285651D01*
X-33139Y286364D01*
X-33100Y286561D01*
X-33023Y286747D01*
X-32873Y287504D01*
Y287655D01*
X-32836Y287801D01*
X-32817Y288187D01*
X-32825Y288238D01*
X-32815Y288287D01*
Y300028D01*
X-29886D01*
Y298130D01*
X-29876Y298080D01*
X-29883Y298030D01*
X-29864Y297644D01*
X-29827Y297497D01*
Y297346D01*
X-29677Y296589D01*
X-29600Y296404D01*
X-29561Y296207D01*
X-29265Y295494D01*
X-29154Y295327D01*
X-29077Y295141D01*
X-28648Y294499D01*
X-28506Y294357D01*
X-28395Y294190D01*
X-27849Y293645D01*
X-27682Y293533D01*
X-27540Y293391D01*
X-26898Y292962D01*
X-26713Y292885D01*
X-26546Y292774D01*
X-25833Y292478D01*
X-25636Y292439D01*
X-25450Y292362D01*
X-24693Y292212D01*
X-24542D01*
X-24395Y292175D01*
X-24010Y292156D01*
X-23959Y292164D01*
X-23910Y292154D01*
X124D01*
X904Y292309D01*
X1565Y292751D01*
X2008Y293413D01*
X2163Y294193D01*
Y391662D01*
X475500D01*
Y368118D01*
D02*
G37*
G36*
X107852Y375302D02*
X109624Y373531D01*
X109624Y358050D01*
X101624Y350050D01*
X97124D01*
Y350275D01*
X95624D01*
Y370550D01*
Y371018D01*
X95806Y371936D01*
X96164Y372801D01*
X96684Y373580D01*
X97346Y374241D01*
X98125Y374762D01*
X98989Y375120D01*
X99908Y375302D01*
X101738D01*
X107852Y375302D01*
D02*
G37*
G36*
X161000Y360000D02*
Y340500D01*
X139550Y319050D01*
X122124Y319050D01*
X120624Y320550D01*
X120624Y345972D01*
X117710Y348885D01*
X117624D01*
Y353216D01*
X113624Y357216D01*
Y374050D01*
X116624Y377050D01*
X143950Y377050D01*
X161000Y360000D01*
D02*
G37*
G36*
X474000Y366539D02*
X473938Y366445D01*
X473860Y366055D01*
Y360200D01*
X473938Y359810D01*
X474000Y359716D01*
Y326539D01*
X473938Y326445D01*
X473860Y326055D01*
Y320200D01*
X473938Y319810D01*
X474000Y319716D01*
Y286539D01*
X473938Y286445D01*
X473860Y286055D01*
Y280200D01*
X473938Y279810D01*
X474000Y279716D01*
Y246274D01*
X473980Y246176D01*
Y240079D01*
X474000Y239981D01*
Y206363D01*
X473938Y206270D01*
X473860Y205879D01*
Y199830D01*
X473938Y199440D01*
X474000Y199346D01*
Y166363D01*
X473938Y166270D01*
X473860Y165879D01*
Y159830D01*
X473938Y159440D01*
X474000Y159346D01*
Y126099D01*
X473980Y126000D01*
Y119674D01*
X474000Y119576D01*
Y63000D01*
X480000Y57000D01*
Y23500D01*
X476516D01*
X476000Y24016D01*
Y48516D01*
X466122Y58394D01*
Y58772D01*
X465744D01*
X464529Y59986D01*
Y60263D01*
X464584Y60344D01*
X464714Y61000D01*
X464584Y61656D01*
X464500Y61781D01*
Y108279D01*
X465340D01*
Y112822D01*
X464500D01*
Y148279D01*
X464746D01*
Y152822D01*
X464500D01*
Y187779D01*
X465246D01*
Y192322D01*
X464500D01*
Y228779D01*
X465246D01*
Y233322D01*
X464500D01*
Y268779D01*
X465246D01*
Y273322D01*
X464500D01*
Y308779D01*
X465002D01*
Y313322D01*
X464500D01*
Y348779D01*
X465246D01*
Y353322D01*
X464500D01*
Y380000D01*
X474000D01*
Y366539D01*
D02*
G37*
%LPC*%
G36*
X50198Y379775D02*
X48124D01*
Y377700D01*
X50198D01*
Y379775D01*
D02*
G37*
G36*
X28198D02*
X26124D01*
Y377700D01*
X28198D01*
Y379775D01*
D02*
G37*
G36*
X47124D02*
X45049D01*
Y377700D01*
X47124D01*
Y379775D01*
D02*
G37*
G36*
X25124D02*
X23049D01*
Y377700D01*
X25124D01*
Y379775D01*
D02*
G37*
G36*
X50198Y376700D02*
X48124D01*
Y374625D01*
X50198D01*
Y376700D01*
D02*
G37*
G36*
X47124D02*
X45049D01*
Y374625D01*
X47124D01*
Y376700D01*
D02*
G37*
G36*
X28198D02*
X26124D01*
Y374625D01*
X28198D01*
Y376700D01*
D02*
G37*
G36*
X25124D02*
X23049D01*
Y374625D01*
X25124D01*
Y376700D01*
D02*
G37*
G36*
X87124Y368306D02*
X84852D01*
Y366428D01*
X87124D01*
Y368306D01*
D02*
G37*
G36*
X463002Y366519D02*
X458458D01*
Y365070D01*
X456348D01*
Y366125D01*
X452198D01*
Y361976D01*
X456348D01*
Y363031D01*
X458458D01*
Y361582D01*
X463002D01*
Y366519D01*
D02*
G37*
G36*
X438379Y367264D02*
X437724Y367134D01*
X437168Y366762D01*
X436796Y366206D01*
X436665Y365550D01*
Y361810D01*
X436796Y361154D01*
X437168Y360598D01*
X437724Y360227D01*
X438379Y360096D01*
X439036Y360227D01*
X439592Y360598D01*
X439963Y361154D01*
X440094Y361810D01*
Y363031D01*
X441159D01*
X441288Y362838D01*
X441844Y362467D01*
X442500Y362336D01*
X443156Y362467D01*
X443712Y362838D01*
X443841Y363031D01*
X445899D01*
Y361976D01*
X450049D01*
Y366125D01*
X445899D01*
Y365070D01*
X443841D01*
X443712Y365262D01*
X443156Y365634D01*
X442500Y365764D01*
X441844Y365634D01*
X441288Y365262D01*
X441159Y365070D01*
X440094D01*
Y365550D01*
X439963Y366206D01*
X439592Y366762D01*
X439036Y367134D01*
X438379Y367264D01*
D02*
G37*
G36*
X49698Y372976D02*
X45549D01*
Y368826D01*
X46604D01*
Y366472D01*
X45155D01*
Y361928D01*
X50092D01*
Y366472D01*
X48643D01*
Y368826D01*
X49698D01*
Y372976D01*
D02*
G37*
G36*
X27698D02*
X23549D01*
Y368826D01*
X24604D01*
Y366472D01*
X23155D01*
Y361928D01*
X28092D01*
Y366472D01*
X26643D01*
Y368826D01*
X27698D01*
Y372976D01*
D02*
G37*
G36*
X430500Y369331D02*
X429844Y369201D01*
X429288Y368829D01*
X428916Y368273D01*
X428786Y367617D01*
X428788Y367607D01*
X428492Y367311D01*
X428348Y367258D01*
X427724Y367134D01*
X427168Y366762D01*
X426796Y366206D01*
X426665Y365550D01*
Y361810D01*
X426796Y361154D01*
X427168Y360598D01*
X427360Y360470D01*
Y357802D01*
X422779Y353221D01*
X422558Y352890D01*
X422480Y352500D01*
Y345712D01*
X422167Y345502D01*
X421796Y344947D01*
X421665Y344290D01*
Y340550D01*
X421796Y339895D01*
X422167Y339338D01*
X422360Y339210D01*
Y336620D01*
X422437Y336230D01*
X422659Y335899D01*
X427360Y331198D01*
Y326891D01*
X427168Y326762D01*
X426796Y326206D01*
X426665Y325550D01*
Y321810D01*
X426796Y321154D01*
X427168Y320598D01*
X427360Y320470D01*
Y318302D01*
X422779Y313721D01*
X422558Y313390D01*
X422480Y313000D01*
Y305712D01*
X422167Y305503D01*
X421796Y304946D01*
X421665Y304291D01*
Y300550D01*
X421796Y299894D01*
X422167Y299338D01*
X422360Y299210D01*
Y296620D01*
X422437Y296230D01*
X422659Y295900D01*
X427480Y291078D01*
Y286971D01*
X427168Y286762D01*
X426796Y286206D01*
X426665Y285550D01*
Y281810D01*
X426796Y281154D01*
X427168Y280598D01*
X427360Y280470D01*
Y278302D01*
X422779Y273721D01*
X422558Y273390D01*
X422480Y273000D01*
Y265712D01*
X422167Y265503D01*
X421796Y264947D01*
X421665Y264290D01*
Y260550D01*
X421796Y259894D01*
X422167Y259338D01*
X422360Y259210D01*
Y255120D01*
X422437Y254730D01*
X422659Y254399D01*
X427360Y249698D01*
Y246891D01*
X427168Y246762D01*
X426796Y246206D01*
X426665Y245550D01*
Y241810D01*
X426796Y241154D01*
X427168Y240598D01*
X427360Y240470D01*
Y236802D01*
X422779Y232221D01*
X422558Y231890D01*
X422480Y231500D01*
Y225712D01*
X422167Y225502D01*
X421796Y224946D01*
X421665Y224290D01*
Y220550D01*
X421796Y219895D01*
X422167Y219338D01*
X422360Y219210D01*
Y216121D01*
X422437Y215730D01*
X422659Y215400D01*
X427360Y210698D01*
Y206521D01*
X427168Y206392D01*
X426796Y205836D01*
X426665Y205180D01*
Y201440D01*
X426796Y200784D01*
X427168Y200228D01*
X427360Y200100D01*
Y197802D01*
X422279Y192721D01*
X422058Y192390D01*
X421980Y192000D01*
Y184852D01*
X421796Y184576D01*
X421665Y183921D01*
Y180180D01*
X421796Y179524D01*
X422167Y178968D01*
X422360Y178840D01*
Y175620D01*
X422437Y175230D01*
X422659Y174899D01*
X427360Y170198D01*
Y166521D01*
X427168Y166392D01*
X426796Y165836D01*
X426665Y165180D01*
Y161440D01*
X426796Y160784D01*
X427168Y160228D01*
X427360Y160100D01*
Y157802D01*
X422779Y153221D01*
X422558Y152890D01*
X422480Y152500D01*
Y145342D01*
X422167Y145133D01*
X421796Y144576D01*
X421665Y143921D01*
Y140180D01*
X421796Y139524D01*
X422167Y138968D01*
X422360Y138840D01*
Y136620D01*
X422437Y136230D01*
X422659Y135899D01*
X427454Y131104D01*
Y126391D01*
X427262Y126262D01*
X426890Y125706D01*
X426760Y125050D01*
Y121310D01*
X426890Y120654D01*
X427262Y120098D01*
X427454Y119970D01*
Y117896D01*
X422779Y113221D01*
X422558Y112890D01*
X422480Y112500D01*
Y105148D01*
X422262Y105002D01*
X421890Y104446D01*
X421760Y103791D01*
Y100050D01*
X421890Y99395D01*
X422262Y98838D01*
X422454Y98710D01*
Y95526D01*
X422532Y95136D01*
X422753Y94805D01*
X426980Y90578D01*
Y86116D01*
X426640Y85606D01*
X426510Y84950D01*
Y81210D01*
X426640Y80554D01*
X427012Y79998D01*
X427204Y79870D01*
Y78146D01*
X422279Y73221D01*
X422058Y72890D01*
X421980Y72500D01*
Y64856D01*
X421640Y64346D01*
X421510Y63691D01*
Y62840D01*
X111602D01*
X60520Y113922D01*
Y179000D01*
X60442Y179390D01*
X60221Y179721D01*
X45921Y194021D01*
X45590Y194242D01*
X45200Y194320D01*
X-26159D01*
X-26288Y194512D01*
X-26844Y194884D01*
X-27500Y195014D01*
X-28156Y194884D01*
X-28712Y194512D01*
X-29084Y193956D01*
X-29214Y193300D01*
X-29084Y192644D01*
X-28712Y192088D01*
X-28156Y191716D01*
X-27500Y191586D01*
X-26844Y191716D01*
X-26288Y192088D01*
X-26159Y192280D01*
X44778D01*
X58480Y178578D01*
Y113500D01*
X58558Y113110D01*
X58779Y112779D01*
X110459Y61099D01*
X110789Y60878D01*
X111179Y60801D01*
X421510D01*
Y59950D01*
X421640Y59294D01*
X422012Y58738D01*
X422339Y58520D01*
X422187Y58020D01*
X323000D01*
X322610Y57942D01*
X322279Y57721D01*
X318779Y54221D01*
X318558Y53890D01*
X318480Y53500D01*
Y46974D01*
X318558Y46584D01*
X318779Y46253D01*
X322023Y43010D01*
X321714Y42264D01*
X321593Y41350D01*
X321714Y40437D01*
X322066Y39585D01*
X322627Y38854D01*
X323358Y38293D01*
X324210Y37940D01*
X325124Y37820D01*
X326037Y37940D01*
X326889Y38293D01*
X327620Y38854D01*
X328181Y39585D01*
X328534Y40437D01*
X328654Y41350D01*
X328534Y42264D01*
X328181Y43115D01*
X327620Y43847D01*
X326889Y44408D01*
X326037Y44760D01*
X325124Y44881D01*
X324210Y44760D01*
X323464Y44451D01*
X320520Y47396D01*
Y53078D01*
X323422Y55980D01*
X430500D01*
X430890Y56058D01*
X431221Y56279D01*
X433186Y58244D01*
X433224Y58236D01*
X433880Y58367D01*
X434436Y58738D01*
X434807Y59294D01*
X434938Y59950D01*
Y63691D01*
X434807Y64346D01*
X434436Y64903D01*
X434243Y65031D01*
Y65801D01*
X443873Y75431D01*
X445743D01*
Y74376D01*
X449893D01*
Y78525D01*
X445743D01*
Y77470D01*
X443450D01*
X443060Y77392D01*
X442729Y77171D01*
X432503Y66945D01*
X432282Y66614D01*
X432204Y66224D01*
Y65031D01*
X432012Y64903D01*
X431640Y64346D01*
X431510Y63691D01*
Y59950D01*
X431592Y59534D01*
X430078Y58020D01*
X429260D01*
X429108Y58520D01*
X429436Y58738D01*
X429807Y59294D01*
X429938Y59950D01*
Y63691D01*
X429807Y64346D01*
X429436Y64903D01*
X428880Y65274D01*
X428224Y65405D01*
X427568Y65274D01*
X427012Y64903D01*
X426640Y64346D01*
X426565Y63968D01*
X426180Y63534D01*
X425524Y63404D01*
X425438Y63347D01*
X424938Y63614D01*
Y63691D01*
X424807Y64346D01*
X424436Y64903D01*
X424020Y65180D01*
Y72078D01*
X428945Y77003D01*
X429166Y77333D01*
X429243Y77724D01*
Y79870D01*
X429436Y79998D01*
X429807Y80554D01*
X429938Y81210D01*
Y84950D01*
X429902Y85128D01*
X430344Y85434D01*
X431000Y85303D01*
X431167Y85337D01*
X431517Y84987D01*
X431510Y84950D01*
Y81210D01*
X431640Y80554D01*
X432012Y79998D01*
X432568Y79627D01*
X433224Y79496D01*
X433880Y79627D01*
X434436Y79998D01*
X434807Y80554D01*
X434938Y81210D01*
Y84950D01*
X434807Y85606D01*
X434436Y86162D01*
X433880Y86534D01*
X433224Y86664D01*
X433127Y86645D01*
X432714Y87017D01*
X432584Y87673D01*
X432212Y88229D01*
X431656Y88601D01*
X431000Y88731D01*
X430344Y88601D01*
X429788Y88229D01*
X429520Y87828D01*
X429020Y87979D01*
Y91000D01*
X428942Y91390D01*
X428721Y91721D01*
X424494Y95948D01*
Y97102D01*
X424994Y97229D01*
X425288Y96788D01*
X425844Y96416D01*
X426500Y96286D01*
X427156Y96416D01*
X427712Y96788D01*
X428084Y97344D01*
X428214Y98000D01*
X428474Y98336D01*
X429130Y98467D01*
X429686Y98838D01*
X430058Y99395D01*
X430188Y100050D01*
Y103791D01*
X430058Y104446D01*
X429686Y105002D01*
X429130Y105374D01*
X428474Y105505D01*
X427818Y105374D01*
X427262Y105002D01*
X426890Y104446D01*
X426760Y103791D01*
Y100172D01*
X426626Y99936D01*
X426324Y99679D01*
X425844Y99584D01*
X425568Y99399D01*
X425118Y99700D01*
X425188Y100050D01*
Y103791D01*
X425058Y104446D01*
X424686Y105002D01*
X424520Y105114D01*
Y112078D01*
X429195Y116753D01*
X429416Y117084D01*
X429494Y117474D01*
Y119970D01*
X429686Y120098D01*
X430058Y120654D01*
X430188Y121310D01*
Y125050D01*
X430115Y125420D01*
X430564Y125721D01*
X430844Y125534D01*
X431327Y125438D01*
X431639Y125159D01*
X431760Y124945D01*
Y121310D01*
X431890Y120654D01*
X432262Y120098D01*
X432818Y119727D01*
X433474Y119596D01*
X434130Y119727D01*
X434686Y120098D01*
X435058Y120654D01*
X435188Y121310D01*
Y125050D01*
X435058Y125706D01*
X434686Y126262D01*
X434130Y126634D01*
X433474Y126764D01*
X433197Y127205D01*
X433084Y127773D01*
X432712Y128329D01*
X432156Y128701D01*
X431500Y128831D01*
X430844Y128701D01*
X430288Y128329D01*
X429994Y127889D01*
X429494Y128015D01*
Y131526D01*
X429416Y131916D01*
X429195Y132247D01*
X424442Y136999D01*
X424471Y137293D01*
X424557Y137324D01*
X424980Y137362D01*
X425288Y136901D01*
X425844Y136530D01*
X426500Y136399D01*
X427156Y136530D01*
X427712Y136901D01*
X428084Y137457D01*
X428214Y138113D01*
X428379Y138466D01*
X429036Y138597D01*
X429592Y138968D01*
X429963Y139524D01*
X430093Y140180D01*
Y143921D01*
X429963Y144576D01*
X429592Y145133D01*
X429036Y145504D01*
X428379Y145634D01*
X427724Y145504D01*
X427168Y145133D01*
X426796Y144576D01*
X426665Y143921D01*
Y140304D01*
X426602Y140120D01*
X426236Y139775D01*
X425844Y139697D01*
X425456Y139437D01*
X425004Y139733D01*
X425094Y140180D01*
Y143921D01*
X424963Y144576D01*
X424591Y145133D01*
X424520Y145180D01*
Y152078D01*
X429101Y156659D01*
X429321Y156989D01*
X429399Y157379D01*
Y160100D01*
X429592Y160228D01*
X429963Y160784D01*
X430093Y161440D01*
Y165180D01*
X430081Y165245D01*
X430144Y165346D01*
X430514Y165630D01*
X431000Y165533D01*
X431227Y165578D01*
X431666Y165140D01*
Y161440D01*
X431796Y160784D01*
X432167Y160228D01*
X432724Y159857D01*
X433380Y159726D01*
X434035Y159857D01*
X434591Y160228D01*
X434963Y160784D01*
X435093Y161440D01*
Y165180D01*
X434963Y165836D01*
X434591Y166392D01*
X434035Y166764D01*
X433380Y166894D01*
X433104Y166840D01*
X432711Y167232D01*
X432714Y167247D01*
X432584Y167903D01*
X432212Y168459D01*
X431656Y168831D01*
X431000Y168961D01*
X430344Y168831D01*
X429899Y168534D01*
X429512Y168669D01*
X429399Y168755D01*
Y170621D01*
X429321Y171011D01*
X429101Y171341D01*
X424399Y176043D01*
Y176606D01*
X424512Y176691D01*
X424899Y176827D01*
X425344Y176530D01*
X426000Y176399D01*
X426656Y176530D01*
X427212Y176901D01*
X427584Y177457D01*
X427714Y178113D01*
X427711Y178129D01*
X428104Y178521D01*
X428379Y178466D01*
X429036Y178597D01*
X429592Y178968D01*
X429963Y179524D01*
X430093Y180180D01*
Y183921D01*
X429963Y184576D01*
X429592Y185133D01*
X429036Y185504D01*
X428379Y185635D01*
X427724Y185504D01*
X427168Y185133D01*
X426796Y184576D01*
X426665Y183921D01*
Y180221D01*
X426227Y179782D01*
X426000Y179827D01*
X425514Y179731D01*
X425144Y180015D01*
X425081Y180115D01*
X425094Y180180D01*
Y183921D01*
X424963Y184576D01*
X424591Y185133D01*
X424036Y185504D01*
X424020Y185507D01*
Y191578D01*
X429101Y196659D01*
X429321Y196989D01*
X429399Y197380D01*
Y200100D01*
X429592Y200228D01*
X429963Y200784D01*
X430093Y201440D01*
Y205180D01*
X430081Y205245D01*
X430144Y205346D01*
X430514Y205630D01*
X431000Y205533D01*
X431227Y205578D01*
X431666Y205140D01*
Y201440D01*
X431796Y200784D01*
X432167Y200228D01*
X432724Y199857D01*
X433380Y199726D01*
X434035Y199857D01*
X434591Y200228D01*
X434963Y200784D01*
X435093Y201440D01*
Y205180D01*
X434963Y205836D01*
X434591Y206392D01*
X434035Y206764D01*
X433380Y206894D01*
X433104Y206839D01*
X432711Y207232D01*
X432714Y207247D01*
X432584Y207903D01*
X432212Y208459D01*
X431656Y208831D01*
X431000Y208961D01*
X430344Y208831D01*
X429899Y208534D01*
X429512Y208669D01*
X429399Y208755D01*
Y211121D01*
X429321Y211511D01*
X429101Y211841D01*
X424422Y216521D01*
X424442Y217025D01*
X424512Y217078D01*
X424899Y217214D01*
X425344Y216916D01*
X426000Y216786D01*
X426656Y216916D01*
X427212Y217288D01*
X427584Y217844D01*
X427712Y218491D01*
X427717Y218503D01*
X428116Y218889D01*
X428379Y218836D01*
X429036Y218967D01*
X429592Y219338D01*
X429963Y219895D01*
X430093Y220550D01*
Y224290D01*
X429963Y224946D01*
X429592Y225502D01*
X429036Y225874D01*
X428379Y226005D01*
X427724Y225874D01*
X427168Y225502D01*
X426796Y224946D01*
X426665Y224290D01*
Y220607D01*
X426227Y220169D01*
X426000Y220214D01*
X425517Y220118D01*
X425143Y220407D01*
X425084Y220503D01*
X425094Y220550D01*
Y224290D01*
X424963Y224946D01*
X424591Y225502D01*
X424520Y225551D01*
Y231078D01*
X429101Y235659D01*
X429321Y235989D01*
X429399Y236380D01*
Y240470D01*
X429592Y240598D01*
X429963Y241154D01*
X430093Y241810D01*
Y245495D01*
X430144Y245580D01*
X430169Y245606D01*
X430538Y245878D01*
X431000Y245786D01*
X431227Y245831D01*
X431666Y245393D01*
Y241810D01*
X431796Y241154D01*
X432167Y240598D01*
X432724Y240227D01*
X433380Y240096D01*
X434035Y240227D01*
X434591Y240598D01*
X434963Y241154D01*
X435093Y241810D01*
Y245550D01*
X434963Y246206D01*
X434591Y246762D01*
X434035Y247134D01*
X433380Y247264D01*
X433169Y247222D01*
X432714Y247500D01*
X432584Y248156D01*
X432212Y248712D01*
X431656Y249084D01*
X431000Y249214D01*
X430344Y249084D01*
X429899Y248786D01*
X429512Y248922D01*
X429399Y249008D01*
Y250120D01*
X429321Y250511D01*
X429101Y250841D01*
X424399Y255543D01*
Y257492D01*
X424512Y257578D01*
X424899Y257714D01*
X425344Y257416D01*
X426000Y257286D01*
X426656Y257416D01*
X427212Y257788D01*
X427584Y258344D01*
X427706Y258960D01*
X427724Y258967D01*
X428379Y258836D01*
X429036Y258967D01*
X429592Y259338D01*
X429963Y259894D01*
X430093Y260550D01*
Y264290D01*
X429963Y264947D01*
X429592Y265503D01*
X429036Y265874D01*
X428379Y266005D01*
X427724Y265874D01*
X427168Y265503D01*
X426796Y264947D01*
X426665Y264290D01*
Y261107D01*
X426227Y260669D01*
X426000Y260714D01*
X425594Y260633D01*
X425126Y260949D01*
X425094Y261005D01*
Y264290D01*
X424963Y264947D01*
X424591Y265503D01*
X424520Y265551D01*
Y272578D01*
X429101Y277159D01*
X429321Y277489D01*
X429399Y277880D01*
Y280470D01*
X429592Y280598D01*
X429963Y281154D01*
X430093Y281810D01*
Y284995D01*
X430126Y285051D01*
X430594Y285367D01*
X431000Y285286D01*
X431227Y285331D01*
X431666Y284893D01*
Y281810D01*
X431796Y281154D01*
X432167Y280598D01*
X432724Y280227D01*
X433380Y280096D01*
X434035Y280227D01*
X434591Y280598D01*
X434963Y281154D01*
X435093Y281810D01*
Y285550D01*
X434963Y286206D01*
X434591Y286762D01*
X434035Y287134D01*
X433380Y287264D01*
X432724Y287134D01*
X432684Y287150D01*
X432584Y287656D01*
X432212Y288212D01*
X431656Y288584D01*
X431000Y288714D01*
X430344Y288584D01*
X430020Y288367D01*
X429520Y288634D01*
Y291500D01*
X429442Y291890D01*
X429221Y292221D01*
X424399Y297043D01*
Y298382D01*
X424899Y298431D01*
X424916Y298344D01*
X425288Y297788D01*
X425844Y297416D01*
X426500Y297286D01*
X427156Y297416D01*
X427712Y297788D01*
X428084Y298344D01*
X428157Y298715D01*
X428295Y298853D01*
X428379Y298836D01*
X429036Y298967D01*
X429592Y299338D01*
X429963Y299894D01*
X430093Y300550D01*
Y304291D01*
X429963Y304946D01*
X429592Y305503D01*
X429036Y305874D01*
X428379Y306005D01*
X427724Y305874D01*
X427168Y305503D01*
X426796Y304946D01*
X426665Y304291D01*
Y300850D01*
X426500Y300714D01*
X425844Y300584D01*
X425574Y300403D01*
X425391Y300459D01*
X425094Y300683D01*
Y304291D01*
X424963Y304946D01*
X424591Y305503D01*
X424520Y305551D01*
Y312578D01*
X429101Y317159D01*
X429321Y317489D01*
X429399Y317880D01*
Y320470D01*
X429592Y320598D01*
X429963Y321154D01*
X430093Y321810D01*
Y325495D01*
X430144Y325580D01*
X430169Y325606D01*
X430538Y325878D01*
X431000Y325786D01*
X431227Y325831D01*
X431666Y325393D01*
Y321810D01*
X431796Y321154D01*
X432167Y320598D01*
X432724Y320227D01*
X433380Y320096D01*
X434035Y320227D01*
X434591Y320598D01*
X434963Y321154D01*
X435093Y321810D01*
Y325550D01*
X434963Y326206D01*
X434591Y326762D01*
X434035Y327134D01*
X433380Y327264D01*
X433169Y327222D01*
X432714Y327500D01*
X432584Y328156D01*
X432212Y328712D01*
X431656Y329084D01*
X431000Y329214D01*
X430344Y329084D01*
X429899Y328786D01*
X429512Y328922D01*
X429399Y329008D01*
Y331621D01*
X429321Y332011D01*
X429101Y332341D01*
X424399Y337043D01*
Y337882D01*
X424899Y337931D01*
X424916Y337844D01*
X425288Y337288D01*
X425844Y336916D01*
X426500Y336786D01*
X427156Y336916D01*
X427712Y337288D01*
X428084Y337844D01*
X428214Y338500D01*
X428379Y338836D01*
X429036Y338967D01*
X429592Y339338D01*
X429963Y339895D01*
X430093Y340550D01*
Y344290D01*
X429963Y344947D01*
X429592Y345502D01*
X429036Y345874D01*
X428379Y346005D01*
X427724Y345874D01*
X427168Y345502D01*
X426796Y344947D01*
X426665Y344290D01*
Y340691D01*
X426594Y340487D01*
X426233Y340161D01*
X425844Y340084D01*
X425459Y339826D01*
X425009Y340126D01*
X425094Y340550D01*
Y344290D01*
X424963Y344947D01*
X424591Y345502D01*
X424520Y345551D01*
Y352078D01*
X429101Y356659D01*
X429321Y356989D01*
X429399Y357380D01*
Y360470D01*
X429592Y360598D01*
X429963Y361154D01*
X430093Y361810D01*
Y365474D01*
X430287Y365756D01*
X430301Y365770D01*
X430867Y365808D01*
X431666Y365010D01*
Y361810D01*
X431796Y361154D01*
X432167Y360598D01*
X432724Y360227D01*
X433380Y360096D01*
X434035Y360227D01*
X434591Y360598D01*
X434963Y361154D01*
X435093Y361810D01*
Y365550D01*
X434963Y366206D01*
X434591Y366762D01*
X434035Y367134D01*
X433380Y367264D01*
X432724Y367134D01*
X432545Y367015D01*
X432169Y367390D01*
X432214Y367617D01*
X432084Y368273D01*
X431712Y368829D01*
X431156Y369201D01*
X430500Y369331D01*
D02*
G37*
G36*
X419651Y360672D02*
X417380D01*
Y358794D01*
X419651D01*
Y360672D01*
D02*
G37*
G36*
X463002Y359519D02*
X458458D01*
Y358070D01*
X456348D01*
Y359125D01*
X452198D01*
Y354976D01*
X456348D01*
Y356031D01*
X458458D01*
Y354582D01*
X463002D01*
Y359519D01*
D02*
G37*
G36*
X419651Y357794D02*
X417380D01*
Y355917D01*
X419651D01*
Y357794D01*
D02*
G37*
G36*
X113368Y353822D02*
X111490D01*
Y351550D01*
X113368D01*
Y353822D01*
D02*
G37*
G36*
X462868Y353822D02*
X460990D01*
Y351550D01*
X462868D01*
Y353822D01*
D02*
G37*
G36*
X89895Y365172D02*
X85352D01*
Y361417D01*
X87002D01*
Y360820D01*
X86951Y360786D01*
X86623Y360295D01*
X86508Y359716D01*
Y353023D01*
X86623Y352444D01*
X86951Y351953D01*
X87442Y351625D01*
X88021Y351509D01*
X88600Y351625D01*
X89091Y351953D01*
X89419Y352444D01*
X89535Y353023D01*
Y359716D01*
X89419Y360295D01*
X89091Y360786D01*
X89041Y360820D01*
Y361417D01*
X89895D01*
Y365172D01*
D02*
G37*
G36*
X84000Y365541D02*
X73500D01*
X73117Y365383D01*
X72959Y365000D01*
Y354000D01*
X73117Y353617D01*
X73500Y353459D01*
X77771D01*
X78058Y353111D01*
X77871Y352672D01*
X76124D01*
Y350401D01*
X78592D01*
Y351989D01*
X79054Y352181D01*
X79617Y351617D01*
X80000Y351459D01*
X80000Y351459D01*
X84000D01*
X84383Y351617D01*
X84541Y352000D01*
Y365000D01*
X84383Y365383D01*
X84000Y365541D01*
D02*
G37*
G36*
X75124Y352672D02*
X72655D01*
Y350401D01*
X75124D01*
Y352672D01*
D02*
G37*
G36*
X450049Y359125D02*
X445899D01*
Y356417D01*
X438622Y349140D01*
X438249Y349214D01*
X437593Y349084D01*
X437037Y348712D01*
X436665Y348156D01*
X436535Y347500D01*
X436609Y347127D01*
X434949Y345467D01*
X434591Y345503D01*
X434035Y345874D01*
X433380Y346005D01*
X432724Y345874D01*
X432167Y345502D01*
X431796Y344947D01*
X431666Y344290D01*
Y340550D01*
X431796Y339895D01*
X432167Y339338D01*
X432724Y338967D01*
X433380Y338836D01*
X434035Y338967D01*
X434591Y339338D01*
X434963Y339895D01*
X435093Y340550D01*
Y342728D01*
X435694Y343328D01*
X436156Y343137D01*
Y342920D01*
X438379D01*
X440603D01*
Y344290D01*
X440434Y345142D01*
X439952Y345863D01*
X439804Y345962D01*
X439694Y346637D01*
X439832Y346844D01*
X439861Y346989D01*
X439942Y347110D01*
X440020Y347500D01*
X439994Y347628D01*
X447341Y354976D01*
X450049D01*
Y359125D01*
D02*
G37*
G36*
X116246Y350550D02*
X114368D01*
Y348279D01*
X116246D01*
Y350550D01*
D02*
G37*
G36*
X113368D02*
X111490D01*
Y348279D01*
X113368D01*
Y350550D01*
D02*
G37*
G36*
X462868Y350550D02*
X460990D01*
Y348279D01*
X462868D01*
Y350550D01*
D02*
G37*
G36*
X78592Y349401D02*
X76124D01*
Y347129D01*
X78592D01*
Y349401D01*
D02*
G37*
G36*
X75124D02*
X72655D01*
Y347129D01*
X75124D01*
Y349401D01*
D02*
G37*
G36*
X90021Y350775D02*
X83419D01*
Y345550D01*
X90021D01*
Y350775D01*
D02*
G37*
G36*
X117671Y347365D02*
X114612D01*
Y341550D01*
X117671D01*
Y347365D01*
D02*
G37*
G36*
X113612D02*
X110553D01*
Y341550D01*
X113612D01*
Y347365D01*
D02*
G37*
G36*
X97624Y344550D02*
X90521D01*
X83419D01*
Y339792D01*
X83419Y339326D01*
X82933Y339292D01*
X82324D01*
X82324Y339292D01*
X81942Y339134D01*
X81942Y339134D01*
X81241Y338433D01*
X81082Y338050D01*
X81082Y338050D01*
Y290050D01*
X81241Y289668D01*
X81624Y289509D01*
X97624D01*
X98006Y289668D01*
X98165Y290050D01*
Y298901D01*
X98165Y298901D01*
X98006Y299284D01*
X96763Y300527D01*
X96763Y318878D01*
X97002Y319279D01*
X97263Y319279D01*
X98880D01*
Y322050D01*
Y324822D01*
X97263D01*
X96763Y325223D01*
X96763Y328250D01*
X97173Y328525D01*
X97263Y328513D01*
X97521Y328461D01*
Y333732D01*
X98021D01*
Y334231D01*
X100044D01*
Y337078D01*
X99890Y337852D01*
X99452Y338509D01*
X98795Y338947D01*
X98030Y339099D01*
X98015Y339107D01*
X97624Y339532D01*
Y344550D01*
D02*
G37*
G36*
X437880Y341920D02*
X436156D01*
Y340550D01*
X436325Y339699D01*
X436807Y338978D01*
X437529Y338496D01*
X437880Y338426D01*
Y341920D01*
D02*
G37*
G36*
X440603D02*
X438879D01*
Y338426D01*
X439230Y338496D01*
X439952Y338978D01*
X440434Y339699D01*
X440603Y340550D01*
Y341920D01*
D02*
G37*
G36*
X117671Y340550D02*
X114612D01*
Y334735D01*
X117671D01*
Y340550D01*
D02*
G37*
G36*
X113612D02*
X110553D01*
Y334735D01*
X113612D01*
Y340550D01*
D02*
G37*
G36*
X100044Y333231D02*
X98521D01*
Y328461D01*
X98795Y328516D01*
X99452Y328955D01*
X99890Y329611D01*
X100044Y330385D01*
Y333231D01*
D02*
G37*
G36*
X117671Y333365D02*
X114612D01*
Y327550D01*
X117671D01*
Y333365D01*
D02*
G37*
G36*
X113612D02*
X110553D01*
Y327550D01*
X113612D01*
Y333365D01*
D02*
G37*
G36*
X463002Y326519D02*
X458458D01*
Y325070D01*
X456348D01*
Y326125D01*
X452198D01*
Y321976D01*
X456348D01*
Y323031D01*
X458458D01*
Y321582D01*
X463002D01*
Y326519D01*
D02*
G37*
G36*
X101758Y324822D02*
X99880D01*
Y322550D01*
X101758D01*
Y324822D01*
D02*
G37*
G36*
X438379Y327264D02*
X437724Y327134D01*
X437168Y326762D01*
X436796Y326206D01*
X436665Y325550D01*
Y321810D01*
X436796Y321154D01*
X437168Y320598D01*
X437724Y320227D01*
X438379Y320096D01*
X439036Y320227D01*
X439592Y320598D01*
X439963Y321154D01*
X440094Y321810D01*
Y323031D01*
X441159D01*
X441288Y322838D01*
X441844Y322467D01*
X442500Y322336D01*
X443156Y322467D01*
X443712Y322838D01*
X443841Y323031D01*
X445899D01*
Y321976D01*
X450049D01*
Y326125D01*
X445899D01*
Y325070D01*
X443841D01*
X443712Y325262D01*
X443156Y325634D01*
X442500Y325764D01*
X441844Y325634D01*
X441288Y325262D01*
X441159Y325070D01*
X440094D01*
Y325550D01*
X439963Y326206D01*
X439592Y326762D01*
X439036Y327134D01*
X438379Y327264D01*
D02*
G37*
G36*
X117671Y326550D02*
X114612D01*
Y320735D01*
X117671D01*
Y326550D01*
D02*
G37*
G36*
X113612D02*
X110553D01*
Y320735D01*
X113612D01*
Y326550D01*
D02*
G37*
G36*
X101758Y321550D02*
X99880D01*
Y319279D01*
X101758D01*
Y321550D01*
D02*
G37*
G36*
X419651Y320672D02*
X417380D01*
Y318794D01*
X419651D01*
Y320672D01*
D02*
G37*
G36*
X463002Y319519D02*
X458458D01*
Y318070D01*
X456348D01*
Y319125D01*
X452198D01*
Y314976D01*
X456348D01*
Y316031D01*
X458458D01*
Y314582D01*
X463002D01*
Y319519D01*
D02*
G37*
G36*
X419651Y317794D02*
X417380D01*
Y315916D01*
X419651D01*
Y317794D01*
D02*
G37*
G36*
X107714Y318633D02*
X104832D01*
Y314550D01*
X107714D01*
Y318633D01*
D02*
G37*
G36*
X103832D02*
X100950D01*
Y314550D01*
X103832D01*
Y318633D01*
D02*
G37*
G36*
X462624Y313822D02*
X460746D01*
Y311550D01*
X462624D01*
Y313822D01*
D02*
G37*
G36*
X34124Y314019D02*
Y310550D01*
X37592D01*
X37521Y311095D01*
X37118Y312068D01*
X36476Y312903D01*
X35641Y313544D01*
X34668Y313947D01*
X34124Y314019D01*
D02*
G37*
G36*
X33124D02*
X32579Y313947D01*
X31606Y313544D01*
X30771Y312903D01*
X30130Y312068D01*
X29727Y311095D01*
X29655Y310550D01*
X33124D01*
Y314019D01*
D02*
G37*
G36*
X450049Y319125D02*
X445899D01*
Y316418D01*
X439023Y309542D01*
X438924Y309561D01*
X438268Y309431D01*
X437712Y309059D01*
X437340Y308503D01*
X437210Y307847D01*
X437229Y307748D01*
X434949Y305467D01*
X434591Y305503D01*
X434035Y305874D01*
X433380Y306005D01*
X432724Y305874D01*
X432167Y305503D01*
X431796Y304946D01*
X431666Y304291D01*
Y300550D01*
X431796Y299894D01*
X432167Y299338D01*
X432724Y298967D01*
X433380Y298836D01*
X434035Y298967D01*
X434591Y299338D01*
X434963Y299894D01*
X435093Y300550D01*
Y302728D01*
X435694Y303328D01*
X436156Y303137D01*
Y302921D01*
X438379D01*
X440603D01*
Y304291D01*
X440434Y305142D01*
X439952Y305863D01*
X439916Y305887D01*
Y306488D01*
X440136Y306635D01*
X440507Y307191D01*
X440638Y307847D01*
X440567Y308202D01*
X447341Y314976D01*
X450049D01*
Y319125D01*
D02*
G37*
G36*
X107714Y313550D02*
X104832D01*
Y309468D01*
X107714D01*
Y313550D01*
D02*
G37*
G36*
X103832D02*
X100950D01*
Y309468D01*
X103832D01*
Y313550D01*
D02*
G37*
G36*
X462624Y310550D02*
X460746D01*
Y308279D01*
X462624D01*
Y310550D01*
D02*
G37*
G36*
X37592Y309550D02*
X34124D01*
Y306082D01*
X34668Y306153D01*
X35641Y306556D01*
X36476Y307198D01*
X37118Y308033D01*
X37521Y309006D01*
X37592Y309550D01*
D02*
G37*
G36*
X33124D02*
X29655D01*
X29727Y309006D01*
X30130Y308033D01*
X30771Y307198D01*
X31606Y306556D01*
X32579Y306153D01*
X33124Y306082D01*
Y309550D01*
D02*
G37*
G36*
X107714Y308633D02*
X104832D01*
Y304550D01*
X107714D01*
Y308633D01*
D02*
G37*
G36*
X103832D02*
X100950D01*
Y304550D01*
X103832D01*
Y308633D01*
D02*
G37*
G36*
X34124Y304019D02*
Y300550D01*
X37592D01*
X37521Y301095D01*
X37118Y302068D01*
X36476Y302903D01*
X35641Y303544D01*
X34668Y303947D01*
X34124Y304019D01*
D02*
G37*
G36*
X33124D02*
X32579Y303947D01*
X31606Y303544D01*
X30771Y302903D01*
X30130Y302068D01*
X29727Y301095D01*
X29655Y300550D01*
X33124D01*
Y304019D01*
D02*
G37*
G36*
X107714Y303550D02*
X104832D01*
Y299468D01*
X107714D01*
Y303550D01*
D02*
G37*
G36*
X103832D02*
X100950D01*
Y299468D01*
X103832D01*
Y303550D01*
D02*
G37*
G36*
X437880Y301921D02*
X436156D01*
Y300550D01*
X436325Y299699D01*
X436807Y298978D01*
X437529Y298496D01*
X437880Y298426D01*
Y301921D01*
D02*
G37*
G36*
X440603D02*
X438879D01*
Y298426D01*
X439230Y298496D01*
X439952Y298978D01*
X440434Y299699D01*
X440603Y300550D01*
Y301921D01*
D02*
G37*
G36*
X37592Y299550D02*
X34124D01*
Y296082D01*
X34668Y296153D01*
X35641Y296556D01*
X36476Y297198D01*
X37118Y298033D01*
X37521Y299006D01*
X37592Y299550D01*
D02*
G37*
G36*
X33124D02*
X29655D01*
X29727Y299006D01*
X30130Y298033D01*
X30771Y297198D01*
X31606Y296556D01*
X32579Y296153D01*
X33124Y296082D01*
Y299550D01*
D02*
G37*
G36*
X28092Y360172D02*
X23155D01*
Y355629D01*
X24604D01*
Y328050D01*
X24682Y327660D01*
X24903Y327329D01*
X40523Y311710D01*
X40214Y310964D01*
X40093Y310050D01*
X40214Y309137D01*
X40566Y308285D01*
X41127Y307554D01*
X41584Y307204D01*
Y302897D01*
X41127Y302547D01*
X40566Y301816D01*
X40214Y300964D01*
X40093Y300050D01*
X40169Y299479D01*
X16729Y276039D01*
X-41500D01*
X-41965Y275947D01*
X-42465Y276316D01*
Y276630D01*
X-48976D01*
X-55488D01*
Y275047D01*
X-54988D01*
Y272913D01*
X-55488D01*
Y271331D01*
X-48976D01*
X-42465D01*
Y271684D01*
X-41965Y272053D01*
X-41500Y271961D01*
X17573D01*
X18354Y272116D01*
X19015Y272558D01*
X41573Y295116D01*
X43081Y293608D01*
X43742Y293166D01*
X44523Y293011D01*
X71250D01*
Y292582D01*
X77761D01*
Y297519D01*
X71250D01*
Y297090D01*
X46278D01*
X46193Y297337D01*
X46147Y297590D01*
X46681Y298285D01*
X47034Y299137D01*
X47154Y300050D01*
X47034Y300964D01*
X46681Y301816D01*
X46120Y302547D01*
X45663Y302897D01*
Y307204D01*
X46120Y307554D01*
X46681Y308285D01*
X47034Y309137D01*
X47154Y310050D01*
X47034Y310964D01*
X46681Y311816D01*
X46120Y312547D01*
X45389Y313108D01*
X44537Y313460D01*
X43624Y313581D01*
X42710Y313460D01*
X41964Y313152D01*
X26643Y328473D01*
Y355629D01*
X28092D01*
Y360172D01*
D02*
G37*
G36*
X463002Y286519D02*
X458458D01*
Y285070D01*
X456348D01*
Y286125D01*
X452198D01*
Y281976D01*
X456348D01*
Y283031D01*
X458458D01*
Y281582D01*
X463002D01*
Y286519D01*
D02*
G37*
G36*
X438379Y287264D02*
X437724Y287134D01*
X437168Y286762D01*
X436796Y286206D01*
X436665Y285550D01*
Y281810D01*
X436796Y281154D01*
X437168Y280598D01*
X437724Y280227D01*
X438379Y280096D01*
X439036Y280227D01*
X439592Y280598D01*
X439963Y281154D01*
X440094Y281810D01*
Y283031D01*
X441159D01*
X441288Y282838D01*
X441844Y282467D01*
X442500Y282336D01*
X443156Y282467D01*
X443712Y282838D01*
X443841Y283031D01*
X445899D01*
Y281976D01*
X450049D01*
Y286125D01*
X445899D01*
Y285070D01*
X443841D01*
X443712Y285262D01*
X443156Y285634D01*
X442500Y285764D01*
X441844Y285634D01*
X441288Y285262D01*
X441159Y285070D01*
X440094D01*
Y285550D01*
X439963Y286206D01*
X439592Y286762D01*
X439036Y287134D01*
X438379Y287264D01*
D02*
G37*
G36*
X419651Y280672D02*
X417380D01*
Y278795D01*
X419651D01*
Y280672D01*
D02*
G37*
G36*
X463002Y279519D02*
X458458D01*
Y278070D01*
X456348D01*
Y279125D01*
X452198D01*
Y274976D01*
X456348D01*
Y276031D01*
X458458D01*
Y274582D01*
X463002D01*
Y279519D01*
D02*
G37*
G36*
X-42465Y279780D02*
X-48976D01*
X-55488D01*
Y278197D01*
Y277630D01*
X-48976D01*
X-42465D01*
Y278197D01*
Y279780D01*
D02*
G37*
G36*
X419651Y277795D02*
X417380D01*
Y275917D01*
X419651D01*
Y277795D01*
D02*
G37*
G36*
X462868Y273822D02*
X460990D01*
Y271550D01*
X462868D01*
Y273822D01*
D02*
G37*
G36*
X450049Y279125D02*
X445899D01*
Y276417D01*
X439151Y269669D01*
X438924Y269714D01*
X438268Y269584D01*
X437712Y269212D01*
X437340Y268656D01*
X437210Y268000D01*
X437255Y267773D01*
X434949Y265467D01*
X434591Y265503D01*
X434035Y265874D01*
X433380Y266005D01*
X432724Y265874D01*
X432167Y265503D01*
X431796Y264947D01*
X431666Y264290D01*
Y260550D01*
X431796Y259894D01*
X432167Y259338D01*
X432724Y258967D01*
X433380Y258836D01*
X434035Y258967D01*
X434591Y259338D01*
X434963Y259894D01*
X435093Y260550D01*
Y262728D01*
X435694Y263328D01*
X436156Y263137D01*
Y262920D01*
X438379D01*
X440603D01*
Y264290D01*
X440434Y265142D01*
X439952Y265863D01*
X439772Y265984D01*
X439802Y266565D01*
X440136Y266788D01*
X440507Y267344D01*
X440638Y268000D01*
X440592Y268227D01*
X447341Y274976D01*
X450049D01*
Y279125D01*
D02*
G37*
G36*
X462868Y270550D02*
X460990D01*
Y268279D01*
X462868D01*
Y270550D01*
D02*
G37*
G36*
X-42465Y270331D02*
X-48976D01*
X-55488D01*
Y268748D01*
X-54988D01*
Y266614D01*
X-55488D01*
Y265032D01*
X-48976D01*
X-42465D01*
Y266614D01*
X-42965D01*
Y268748D01*
X-42465D01*
Y270331D01*
D02*
G37*
G36*
X362124Y266533D02*
X361222Y266414D01*
X360382Y266066D01*
X359661Y265513D01*
X359108Y264792D01*
X358760Y263952D01*
X358641Y263050D01*
X358760Y262149D01*
X359059Y261427D01*
X357151Y259520D01*
X356044D01*
X355576Y259598D01*
Y266503D01*
X348671D01*
Y261040D01*
X343734Y256102D01*
X-41984D01*
X-42465Y256150D01*
Y257732D01*
X-48976D01*
X-55488D01*
Y256150D01*
X-54988D01*
Y254016D01*
X-55488D01*
Y252433D01*
X-48976D01*
X-42465D01*
Y254016D01*
X-41984Y254063D01*
X-32018D01*
X-31811Y253563D01*
X-32084Y253156D01*
X-32214Y252500D01*
X-32084Y251844D01*
X-31712Y251288D01*
X-31156Y250916D01*
X-30500Y250786D01*
X-29844Y250916D01*
X-29288Y251288D01*
X-29159Y251480D01*
X345000D01*
X345390Y251558D01*
X345721Y251779D01*
X348448Y254506D01*
X348872Y254223D01*
X348760Y253952D01*
X348641Y253050D01*
X348760Y252149D01*
X349059Y251427D01*
X347434Y249803D01*
X-41984D01*
X-42465Y249850D01*
Y251433D01*
X-48976D01*
X-55488D01*
Y249850D01*
X-54988D01*
Y247716D01*
X-55488D01*
Y246134D01*
X-48976D01*
X-42465D01*
Y247716D01*
X-41984Y247764D01*
X-31998D01*
X-31803Y247264D01*
X-32084Y246843D01*
X-32214Y246187D01*
X-32084Y245532D01*
X-31712Y244975D01*
X-31156Y244604D01*
X-30500Y244474D01*
X-29844Y244604D01*
X-29288Y244975D01*
X-29285Y244980D01*
X348500D01*
X348679Y245016D01*
X349025Y244593D01*
X348760Y243952D01*
X348701Y243504D01*
X-41984D01*
X-42465Y243551D01*
Y245134D01*
X-48976D01*
X-55488D01*
Y243551D01*
X-54988D01*
Y241417D01*
X-55488D01*
Y239835D01*
X-48976D01*
X-42465D01*
Y241417D01*
X-41984Y241465D01*
X-32015D01*
X-31947Y241379D01*
X-31794Y240965D01*
X-32084Y240531D01*
X-32214Y239875D01*
X-32084Y239219D01*
X-31712Y238663D01*
X-31156Y238291D01*
X-30500Y238161D01*
X-29844Y238291D01*
X-29288Y238663D01*
X-29076Y238980D01*
X347078D01*
X347681Y238377D01*
X348012Y238156D01*
X348402Y238078D01*
X358171D01*
X358561Y238156D01*
X358892Y238377D01*
X360501Y239985D01*
X361222Y239686D01*
X362124Y239568D01*
X363025Y239686D01*
X363865Y240034D01*
X364586Y240588D01*
X365140Y241309D01*
X365488Y242149D01*
X365606Y243050D01*
X365488Y243952D01*
X365140Y244792D01*
X364586Y245513D01*
X363865Y246066D01*
X363025Y246414D01*
X362124Y246533D01*
X361222Y246414D01*
X360382Y246066D01*
X359661Y245513D01*
X359108Y244792D01*
X358760Y243952D01*
X358641Y243050D01*
X358760Y242149D01*
X359059Y241427D01*
X357749Y240117D01*
X354746D01*
X354642Y240423D01*
X354609Y240617D01*
X355140Y241309D01*
X355487Y242149D01*
X355606Y243050D01*
X355487Y243952D01*
X355140Y244792D01*
X354586Y245513D01*
X353865Y246066D01*
X353025Y246414D01*
X352124Y246533D01*
X351222Y246414D01*
X350951Y246302D01*
X350668Y246726D01*
X351075Y247133D01*
X357226D01*
X357616Y247211D01*
X357947Y247432D01*
X360501Y249985D01*
X361222Y249687D01*
X362124Y249568D01*
X363025Y249687D01*
X363865Y250034D01*
X364586Y250588D01*
X365140Y251309D01*
X365488Y252149D01*
X365606Y253050D01*
X365488Y253952D01*
X365140Y254792D01*
X364586Y255513D01*
X363865Y256066D01*
X363025Y256414D01*
X362124Y256533D01*
X361222Y256414D01*
X360382Y256066D01*
X359661Y255513D01*
X359108Y254792D01*
X358760Y253952D01*
X358641Y253050D01*
X358760Y252149D01*
X359059Y251427D01*
X356804Y249172D01*
X352950D01*
X352917Y249672D01*
X353025Y249687D01*
X353865Y250034D01*
X354586Y250588D01*
X355140Y251309D01*
X355487Y252149D01*
X355606Y253050D01*
X355487Y253952D01*
X355140Y254792D01*
X354586Y255513D01*
X353865Y256066D01*
X353025Y256414D01*
X352124Y256533D01*
X351222Y256414D01*
X350951Y256302D01*
X350668Y256726D01*
X351422Y257480D01*
X357573D01*
X357963Y257558D01*
X358294Y257779D01*
X360501Y259985D01*
X361222Y259686D01*
X362124Y259568D01*
X363025Y259686D01*
X363865Y260034D01*
X364586Y260588D01*
X365140Y261309D01*
X365488Y262149D01*
X365606Y263050D01*
X365488Y263952D01*
X365140Y264792D01*
X364586Y265513D01*
X363865Y266066D01*
X363025Y266414D01*
X362124Y266533D01*
D02*
G37*
G36*
X-42465Y264032D02*
X-48976D01*
X-55488D01*
Y262449D01*
X-54988D01*
Y260315D01*
X-55488D01*
Y258732D01*
X-48976D01*
X-42465D01*
Y260315D01*
X-42965D01*
Y262449D01*
X-42465D01*
Y264032D01*
D02*
G37*
G36*
X437880Y261920D02*
X436156D01*
Y260550D01*
X436325Y259699D01*
X436807Y258978D01*
X437529Y258496D01*
X437880Y258426D01*
Y261920D01*
D02*
G37*
G36*
X440603D02*
X438879D01*
Y258426D01*
X439230Y258496D01*
X439952Y258978D01*
X440434Y259699D01*
X440603Y260550D01*
Y261920D01*
D02*
G37*
G36*
X463002Y246519D02*
X458458D01*
Y245070D01*
X456348D01*
Y246125D01*
X452198D01*
Y241976D01*
X456348D01*
Y243031D01*
X458458D01*
Y241582D01*
X463002D01*
Y246519D01*
D02*
G37*
G36*
X438379Y247264D02*
X437724Y247134D01*
X437168Y246762D01*
X436796Y246206D01*
X436665Y245550D01*
Y241810D01*
X436796Y241154D01*
X437168Y240598D01*
X437724Y240227D01*
X438379Y240096D01*
X439036Y240227D01*
X439592Y240598D01*
X439963Y241154D01*
X440094Y241810D01*
Y243031D01*
X441159D01*
X441288Y242838D01*
X441844Y242467D01*
X442500Y242336D01*
X443156Y242467D01*
X443712Y242838D01*
X443841Y243031D01*
X445899D01*
Y241976D01*
X450049D01*
Y246125D01*
X445899D01*
Y245070D01*
X443841D01*
X443712Y245262D01*
X443156Y245634D01*
X442500Y245764D01*
X441844Y245634D01*
X441288Y245262D01*
X441159Y245070D01*
X440094D01*
Y245550D01*
X439963Y246206D01*
X439592Y246762D01*
X439036Y247134D01*
X438379Y247264D01*
D02*
G37*
G36*
X419651Y240672D02*
X417380D01*
Y238794D01*
X419651D01*
Y240672D01*
D02*
G37*
G36*
X463002Y239519D02*
X458458D01*
Y238070D01*
X456348D01*
Y239125D01*
X452198D01*
Y234976D01*
X456348D01*
Y236031D01*
X458458D01*
Y234582D01*
X463002D01*
Y239519D01*
D02*
G37*
G36*
X419651Y237794D02*
X417380D01*
Y235916D01*
X419651D01*
Y237794D01*
D02*
G37*
G36*
X462868Y233822D02*
X460990D01*
Y231550D01*
X462868D01*
Y233822D01*
D02*
G37*
G36*
X-42465Y238835D02*
X-48976D01*
X-55488D01*
Y237252D01*
X-54988D01*
Y235118D01*
X-55488D01*
Y233535D01*
X-48976D01*
X-42465D01*
Y235118D01*
X-41984Y235166D01*
X-32006D01*
X-31917Y235047D01*
X-31785Y234665D01*
X-32084Y234218D01*
X-32214Y233562D01*
X-32084Y232907D01*
X-31712Y232350D01*
X-31156Y231979D01*
X-30500Y231849D01*
X-29844Y231979D01*
X-29288Y232350D01*
X-29201Y232480D01*
X344578D01*
X345731Y231327D01*
X345485Y230866D01*
X345288Y230905D01*
X-41984D01*
X-42465Y230953D01*
Y232535D01*
X-48976D01*
X-55488D01*
Y230953D01*
X-54988D01*
Y228819D01*
X-55488D01*
Y227236D01*
X-48976D01*
X-42465D01*
Y228819D01*
X-41984Y228866D01*
X-31997D01*
X-31888Y228712D01*
X-31776Y228366D01*
X-32084Y227906D01*
X-32214Y227250D01*
X-32084Y226594D01*
X-31712Y226038D01*
X-31156Y225666D01*
X-30500Y225536D01*
X-29844Y225666D01*
X-29374Y225980D01*
X341701D01*
X349903Y217779D01*
X350233Y217558D01*
X350624Y217480D01*
X357573D01*
X357963Y217558D01*
X358294Y217779D01*
X360501Y219985D01*
X361222Y219687D01*
X362124Y219568D01*
X363025Y219687D01*
X363865Y220034D01*
X364586Y220588D01*
X365140Y221309D01*
X365488Y222149D01*
X365606Y223050D01*
X365488Y223952D01*
X365140Y224792D01*
X364586Y225513D01*
X363865Y226066D01*
X363025Y226414D01*
X362124Y226533D01*
X361222Y226414D01*
X360382Y226066D01*
X359661Y225513D01*
X359108Y224792D01*
X358760Y223952D01*
X358641Y223050D01*
X358760Y222149D01*
X359059Y221427D01*
X357151Y219520D01*
X353928D01*
X353829Y220020D01*
X353865Y220034D01*
X354586Y220588D01*
X355140Y221309D01*
X355487Y222149D01*
X355606Y223050D01*
X355487Y223952D01*
X355140Y224792D01*
X354586Y225513D01*
X353865Y226066D01*
X353025Y226414D01*
X352124Y226533D01*
X351222Y226414D01*
X350501Y226115D01*
X349557Y227059D01*
X349804Y227519D01*
X350000Y227480D01*
X357573D01*
X357963Y227558D01*
X358294Y227779D01*
X360501Y229985D01*
X361222Y229686D01*
X362124Y229568D01*
X363025Y229686D01*
X363865Y230034D01*
X364586Y230588D01*
X365140Y231309D01*
X365488Y232149D01*
X365606Y233050D01*
X365488Y233952D01*
X365140Y234792D01*
X364586Y235513D01*
X363865Y236066D01*
X363025Y236414D01*
X362124Y236533D01*
X361222Y236414D01*
X360382Y236066D01*
X359661Y235513D01*
X359108Y234792D01*
X358760Y233952D01*
X358641Y233050D01*
X358760Y232149D01*
X359059Y231427D01*
X357151Y229520D01*
X353928D01*
X353829Y230020D01*
X353865Y230034D01*
X354586Y230588D01*
X355140Y231309D01*
X355487Y232149D01*
X355606Y233050D01*
X355487Y233952D01*
X355140Y234792D01*
X354586Y235513D01*
X353865Y236066D01*
X353025Y236414D01*
X352124Y236533D01*
X351222Y236414D01*
X350501Y236115D01*
X349710Y236906D01*
X349379Y237127D01*
X348989Y237205D01*
X-41984D01*
X-42465Y237252D01*
Y238835D01*
D02*
G37*
G36*
X450049Y239125D02*
X445899D01*
Y236418D01*
X439651Y230169D01*
X439424Y230214D01*
X438768Y230084D01*
X438212Y229712D01*
X437840Y229156D01*
X437710Y228500D01*
X437755Y228273D01*
X434949Y225467D01*
X434591Y225503D01*
X434035Y225874D01*
X433380Y226005D01*
X432724Y225874D01*
X432167Y225502D01*
X431796Y224946D01*
X431666Y224290D01*
Y220550D01*
X431796Y219895D01*
X432167Y219338D01*
X432724Y218967D01*
X433380Y218836D01*
X434035Y218967D01*
X434591Y219338D01*
X434963Y219895D01*
X435093Y220550D01*
Y222728D01*
X435694Y223328D01*
X436156Y223137D01*
Y222920D01*
X438379D01*
X440603D01*
Y224290D01*
X440434Y225142D01*
X439952Y225863D01*
X439343Y226270D01*
X439335Y226297D01*
X439350Y226377D01*
X439608Y226823D01*
X440080Y226916D01*
X440636Y227288D01*
X441007Y227844D01*
X441138Y228500D01*
X441092Y228727D01*
X447341Y234976D01*
X450049D01*
Y239125D01*
D02*
G37*
G36*
X462868Y230550D02*
X460990D01*
Y228279D01*
X462868D01*
Y230550D01*
D02*
G37*
G36*
X437880Y221920D02*
X436156D01*
Y220550D01*
X436325Y219699D01*
X436807Y218978D01*
X437529Y218496D01*
X437880Y218426D01*
Y221920D01*
D02*
G37*
G36*
X440603D02*
X438879D01*
Y218426D01*
X439230Y218496D01*
X439952Y218978D01*
X440434Y219699D01*
X440603Y220550D01*
Y221920D01*
D02*
G37*
G36*
X-42465Y226236D02*
X-48976D01*
X-55488D01*
Y224654D01*
X-54988D01*
Y222520D01*
X-55488D01*
Y220937D01*
X-48976D01*
X-42465D01*
Y222520D01*
X-41984Y222567D01*
X-31987D01*
X-31860Y222375D01*
X-31767Y222067D01*
X-32084Y221593D01*
X-32214Y220937D01*
X-32084Y220282D01*
X-31712Y219725D01*
X-31156Y219354D01*
X-30500Y219223D01*
X-29844Y219354D01*
X-29288Y219725D01*
X-29118Y219980D01*
X337578D01*
X350279Y207279D01*
X350610Y207058D01*
X351000Y206980D01*
X351692D01*
X351725Y206480D01*
X351222Y206414D01*
X350501Y206115D01*
X338608Y218008D01*
X338277Y218229D01*
X337887Y218307D01*
X-41984D01*
X-42465Y218354D01*
Y219937D01*
X-48976D01*
X-55488D01*
Y218354D01*
X-54988D01*
Y216220D01*
X-55488D01*
Y214638D01*
X-48976D01*
X-42465D01*
Y216220D01*
X-41984Y216268D01*
X-31967D01*
X-31837Y216048D01*
X-31758Y215768D01*
X-32084Y215281D01*
X-32214Y214625D01*
X-32084Y213969D01*
X-31712Y213413D01*
X-31156Y213041D01*
X-30500Y212911D01*
X-29844Y213041D01*
X-29288Y213413D01*
X-28916Y213969D01*
X-28914Y213980D01*
X333078D01*
X334629Y212429D01*
X334382Y211969D01*
X334186Y212008D01*
X-41984D01*
X-42465Y212055D01*
Y213638D01*
X-48976D01*
X-55488D01*
Y212055D01*
X-54988D01*
Y209921D01*
X-55488D01*
Y208339D01*
X-48976D01*
X-42465D01*
Y209921D01*
X-41984Y209969D01*
X-31947D01*
X-31813Y209716D01*
X-31749Y209469D01*
X-32084Y208968D01*
X-32214Y208313D01*
X-32084Y207657D01*
X-31712Y207101D01*
X-31156Y206729D01*
X-30500Y206598D01*
X-29844Y206729D01*
X-29468Y206980D01*
X331078D01*
X349535Y188523D01*
X349328Y188023D01*
X348419D01*
X331032Y205410D01*
X330701Y205631D01*
X330311Y205709D01*
X-41984D01*
X-42465Y205756D01*
Y207339D01*
X-48976D01*
X-55488D01*
Y205756D01*
X-54988D01*
Y203622D01*
X-55488D01*
Y202039D01*
X-48976D01*
X-42465D01*
Y203622D01*
X-41984Y203669D01*
X-31927D01*
X-31790Y203377D01*
X-31740Y203169D01*
X-32084Y202656D01*
X-32214Y202000D01*
X-32084Y201344D01*
X-31712Y200788D01*
X-31156Y200416D01*
X-30500Y200286D01*
X-29844Y200416D01*
X-29288Y200788D01*
X-29159Y200980D01*
X328078D01*
X346729Y182329D01*
X347059Y182108D01*
X347450Y182031D01*
X348809D01*
X349108Y181309D01*
X349661Y180588D01*
X350382Y180034D01*
X351222Y179686D01*
X352124Y179568D01*
X353025Y179686D01*
X353865Y180034D01*
X354586Y180588D01*
X355140Y181309D01*
X355487Y182149D01*
X355601Y183014D01*
X355763Y183127D01*
X356052Y183270D01*
X356993Y182329D01*
X357324Y182108D01*
X357714Y182031D01*
X358809D01*
X359108Y181309D01*
X359661Y180588D01*
X360382Y180034D01*
X361222Y179686D01*
X362124Y179568D01*
X363025Y179686D01*
X363865Y180034D01*
X364586Y180588D01*
X365140Y181309D01*
X365488Y182149D01*
X365606Y183050D01*
X365488Y183952D01*
X365140Y184792D01*
X364586Y185513D01*
X363865Y186066D01*
X363025Y186414D01*
X362124Y186533D01*
X361222Y186414D01*
X360382Y186066D01*
X359661Y185513D01*
X359108Y184792D01*
X358809Y184070D01*
X358136D01*
X354726Y187480D01*
X354933Y187980D01*
X358073D01*
X358463Y188058D01*
X358794Y188279D01*
X360501Y189985D01*
X361222Y189687D01*
X362124Y189568D01*
X363025Y189687D01*
X363865Y190034D01*
X364586Y190588D01*
X365140Y191309D01*
X365488Y192149D01*
X365606Y193050D01*
X365488Y193952D01*
X365140Y194792D01*
X364586Y195513D01*
X363865Y196066D01*
X363025Y196414D01*
X362124Y196533D01*
X361222Y196414D01*
X360382Y196066D01*
X359661Y195513D01*
X359108Y194792D01*
X358760Y193952D01*
X358641Y193050D01*
X358760Y192149D01*
X359059Y191427D01*
X357651Y190020D01*
X354667D01*
X354497Y190520D01*
X354586Y190588D01*
X355140Y191309D01*
X355487Y192149D01*
X355606Y193050D01*
X355487Y193952D01*
X355140Y194792D01*
X354586Y195513D01*
X353865Y196066D01*
X353025Y196414D01*
X352523Y196480D01*
X352555Y196980D01*
X357073D01*
X357463Y197058D01*
X357794Y197279D01*
X360501Y199985D01*
X361222Y199687D01*
X362124Y199568D01*
X363025Y199687D01*
X363865Y200034D01*
X364586Y200588D01*
X365140Y201309D01*
X365488Y202149D01*
X365606Y203050D01*
X365488Y203952D01*
X365140Y204792D01*
X364586Y205513D01*
X363865Y206066D01*
X363025Y206414D01*
X362124Y206533D01*
X361222Y206414D01*
X360382Y206066D01*
X359661Y205513D01*
X359108Y204792D01*
X358760Y203952D01*
X358641Y203050D01*
X358760Y202149D01*
X359059Y201427D01*
X356651Y199020D01*
X350922D01*
X350496Y199446D01*
X350779Y199870D01*
X351222Y199687D01*
X352124Y199568D01*
X353025Y199687D01*
X353865Y200034D01*
X354586Y200588D01*
X355140Y201309D01*
X355487Y202149D01*
X355606Y203050D01*
X355487Y203952D01*
X355140Y204792D01*
X354586Y205513D01*
X353865Y206066D01*
X353025Y206414D01*
X352523Y206480D01*
X352555Y206980D01*
X357073D01*
X357463Y207058D01*
X357794Y207279D01*
X360501Y209985D01*
X361222Y209686D01*
X362124Y209568D01*
X363025Y209686D01*
X363865Y210034D01*
X364586Y210588D01*
X365140Y211309D01*
X365488Y212149D01*
X365606Y213050D01*
X365488Y213952D01*
X365140Y214792D01*
X364586Y215513D01*
X363865Y216066D01*
X363025Y216414D01*
X362124Y216533D01*
X361222Y216414D01*
X360382Y216066D01*
X359661Y215513D01*
X359108Y214792D01*
X358760Y213952D01*
X358641Y213050D01*
X358760Y212149D01*
X359059Y211427D01*
X356651Y209020D01*
X351746D01*
X351682Y209122D01*
X351982Y209587D01*
X352124Y209568D01*
X353025Y209686D01*
X353865Y210034D01*
X354586Y210588D01*
X355140Y211309D01*
X355487Y212149D01*
X355606Y213050D01*
X355487Y213952D01*
X355140Y214792D01*
X354586Y215513D01*
X353865Y216066D01*
X353025Y216414D01*
X352124Y216533D01*
X351222Y216414D01*
X350501Y216115D01*
X342308Y224308D01*
X341978Y224529D01*
X341587Y224606D01*
X-41984D01*
X-42465Y224654D01*
Y226236D01*
D02*
G37*
G36*
X463002Y206149D02*
X458458D01*
Y204700D01*
X456348D01*
Y205755D01*
X452198D01*
Y201606D01*
X456348D01*
Y202661D01*
X458458D01*
Y201212D01*
X463002D01*
Y206149D01*
D02*
G37*
G36*
X438379Y206894D02*
X437724Y206764D01*
X437168Y206392D01*
X436796Y205836D01*
X436665Y205180D01*
Y201440D01*
X436796Y200784D01*
X437168Y200228D01*
X437724Y199857D01*
X438379Y199726D01*
X439036Y199857D01*
X439592Y200228D01*
X439963Y200784D01*
X440094Y201440D01*
Y202661D01*
X441159D01*
X441288Y202468D01*
X441844Y202097D01*
X442500Y201966D01*
X443156Y202097D01*
X443712Y202468D01*
X443841Y202661D01*
X445899D01*
Y201606D01*
X450049D01*
Y205755D01*
X445899D01*
Y204700D01*
X443841D01*
X443712Y204892D01*
X443156Y205264D01*
X442500Y205394D01*
X441844Y205264D01*
X441288Y204892D01*
X441159Y204700D01*
X440094D01*
Y205180D01*
X439963Y205836D01*
X439592Y206392D01*
X439036Y206764D01*
X438379Y206894D01*
D02*
G37*
G36*
X419651Y200302D02*
X417380D01*
Y198424D01*
X419651D01*
Y200302D01*
D02*
G37*
G36*
X463002Y199149D02*
X458458D01*
Y197700D01*
X456348D01*
Y198755D01*
X452198D01*
Y194606D01*
X456348D01*
Y195661D01*
X458458D01*
Y194212D01*
X463002D01*
Y199149D01*
D02*
G37*
G36*
X419651Y197424D02*
X417380D01*
Y195546D01*
X419651D01*
Y197424D01*
D02*
G37*
G36*
X462868Y192822D02*
X460990D01*
Y190550D01*
X462868D01*
Y192822D01*
D02*
G37*
G36*
X450049Y198755D02*
X445899D01*
Y196047D01*
X439021Y189169D01*
X438794Y189214D01*
X438138Y189084D01*
X437582Y188712D01*
X437210Y188156D01*
X437080Y187500D01*
X437125Y187273D01*
X434949Y185097D01*
X434591Y185133D01*
X434035Y185504D01*
X433380Y185635D01*
X432724Y185504D01*
X432167Y185133D01*
X431796Y184576D01*
X431666Y183921D01*
Y180180D01*
X431796Y179524D01*
X432167Y178968D01*
X432724Y178597D01*
X433380Y178466D01*
X434035Y178597D01*
X434591Y178968D01*
X434963Y179524D01*
X435093Y180180D01*
Y182358D01*
X435694Y182958D01*
X436156Y182767D01*
Y182550D01*
X438379D01*
X440603D01*
Y183921D01*
X440434Y184772D01*
X439952Y185493D01*
X439834Y185572D01*
X439834Y186173D01*
X440006Y186288D01*
X440377Y186844D01*
X440508Y187500D01*
X440463Y187727D01*
X447341Y194606D01*
X450049D01*
Y198755D01*
D02*
G37*
G36*
X462868Y189550D02*
X460990D01*
Y187279D01*
X462868D01*
Y189550D01*
D02*
G37*
G36*
X39076Y182503D02*
X32171D01*
Y180512D01*
X-41984D01*
X-42465Y180559D01*
Y182142D01*
X-48976D01*
X-55488D01*
Y180559D01*
X-54988D01*
Y178425D01*
X-55488D01*
Y176842D01*
X-48976D01*
X-42465D01*
Y178425D01*
X-41984Y178472D01*
X32171D01*
Y175598D01*
X39076D01*
Y182503D01*
D02*
G37*
G36*
X437880Y181550D02*
X436156D01*
Y180180D01*
X436325Y179329D01*
X436807Y178608D01*
X437529Y178126D01*
X437880Y178056D01*
Y181550D01*
D02*
G37*
G36*
X440603D02*
X438879D01*
Y178056D01*
X439230Y178126D01*
X439952Y178608D01*
X440434Y179329D01*
X440603Y180180D01*
Y181550D01*
D02*
G37*
G36*
X45624Y182533D02*
X44722Y182414D01*
X43882Y182066D01*
X43161Y181513D01*
X42608Y180792D01*
X42260Y179952D01*
X42141Y179050D01*
X42260Y178149D01*
X42608Y177309D01*
X43161Y176588D01*
X43882Y176034D01*
X44722Y175687D01*
X45624Y175568D01*
X46525Y175687D01*
X47365Y176034D01*
X48086Y176588D01*
X48640Y177309D01*
X48987Y178149D01*
X49106Y179050D01*
X48987Y179952D01*
X48640Y180792D01*
X48086Y181513D01*
X47365Y182066D01*
X46525Y182414D01*
X45624Y182533D01*
D02*
G37*
G36*
X362624Y176971D02*
Y173550D01*
X366045D01*
X365975Y174082D01*
X365576Y175044D01*
X364943Y175870D01*
X364117Y176503D01*
X363156Y176901D01*
X362624Y176971D01*
D02*
G37*
G36*
X361624D02*
X361092Y176901D01*
X360130Y176503D01*
X359304Y175870D01*
X358671Y175044D01*
X358273Y174082D01*
X358203Y173550D01*
X361624D01*
Y176971D01*
D02*
G37*
G36*
X366045Y172550D02*
X362624D01*
Y169129D01*
X363156Y169199D01*
X364117Y169598D01*
X364943Y170231D01*
X365576Y171057D01*
X365975Y172019D01*
X366045Y172550D01*
D02*
G37*
G36*
X361624D02*
X358203D01*
X358273Y172019D01*
X358671Y171057D01*
X359304Y170231D01*
X360130Y169598D01*
X361092Y169199D01*
X361624Y169129D01*
Y172550D01*
D02*
G37*
G36*
X45624Y172533D02*
X44722Y172414D01*
X43882Y172066D01*
X43161Y171513D01*
X42608Y170792D01*
X42260Y169952D01*
X42141Y169050D01*
X42260Y168149D01*
X42608Y167309D01*
X43161Y166588D01*
X43882Y166034D01*
X44722Y165687D01*
X45624Y165568D01*
X46525Y165687D01*
X47365Y166034D01*
X48086Y166588D01*
X48640Y167309D01*
X48987Y168149D01*
X49106Y169050D01*
X48987Y169952D01*
X48640Y170792D01*
X48086Y171513D01*
X47365Y172066D01*
X46525Y172414D01*
X45624Y172533D01*
D02*
G37*
G36*
X-42465Y175842D02*
X-48976D01*
X-55488D01*
Y174260D01*
X-54988D01*
Y172126D01*
X-55488D01*
Y170543D01*
X-48976D01*
X-42465D01*
Y172126D01*
X-41984Y172173D01*
X31059D01*
X32559Y170673D01*
X32260Y169952D01*
X32141Y169050D01*
X32260Y168149D01*
X32608Y167309D01*
X33161Y166588D01*
X33882Y166034D01*
X34722Y165687D01*
X35624Y165568D01*
X36525Y165687D01*
X37365Y166034D01*
X38086Y166588D01*
X38640Y167309D01*
X38987Y168149D01*
X39106Y169050D01*
X38987Y169952D01*
X38640Y170792D01*
X38086Y171513D01*
X37365Y172066D01*
X36525Y172414D01*
X35624Y172533D01*
X34722Y172414D01*
X34001Y172115D01*
X32202Y173914D01*
X31871Y174135D01*
X31481Y174213D01*
X-41984D01*
X-42465Y174260D01*
Y175842D01*
D02*
G37*
G36*
X463002Y166149D02*
X458458D01*
Y164700D01*
X456348D01*
Y165755D01*
X452198D01*
Y161606D01*
X456348D01*
Y162661D01*
X458458D01*
Y161212D01*
X463002D01*
Y166149D01*
D02*
G37*
G36*
X438379Y166894D02*
X437724Y166764D01*
X437168Y166392D01*
X436796Y165836D01*
X436665Y165180D01*
Y161440D01*
X436796Y160784D01*
X437168Y160228D01*
X437724Y159857D01*
X438379Y159726D01*
X439036Y159857D01*
X439592Y160228D01*
X439963Y160784D01*
X440094Y161440D01*
Y162661D01*
X441159D01*
X441288Y162468D01*
X441844Y162097D01*
X442500Y161966D01*
X443156Y162097D01*
X443712Y162468D01*
X443841Y162661D01*
X445899D01*
Y161606D01*
X450049D01*
Y165755D01*
X445899D01*
Y164700D01*
X443841D01*
X443712Y164892D01*
X443156Y165264D01*
X442500Y165394D01*
X441844Y165264D01*
X441288Y164892D01*
X441159Y164700D01*
X440094D01*
Y165180D01*
X439963Y165836D01*
X439592Y166392D01*
X439036Y166764D01*
X438379Y166894D01*
D02*
G37*
G36*
X419651Y160302D02*
X417380D01*
Y158424D01*
X419651D01*
Y160302D01*
D02*
G37*
G36*
X463002Y159149D02*
X458458D01*
Y157700D01*
X456348D01*
Y158755D01*
X452198D01*
Y154605D01*
X456348D01*
Y155661D01*
X458458D01*
Y154212D01*
X463002D01*
Y159149D01*
D02*
G37*
G36*
X45624Y162533D02*
X44722Y162414D01*
X43882Y162066D01*
X43161Y161513D01*
X42608Y160792D01*
X42260Y159952D01*
X42141Y159050D01*
X42260Y158149D01*
X42608Y157309D01*
X43161Y156588D01*
X43882Y156034D01*
X44722Y155686D01*
X45624Y155568D01*
X46525Y155686D01*
X47365Y156034D01*
X48086Y156588D01*
X48640Y157309D01*
X48987Y158149D01*
X49106Y159050D01*
X48987Y159952D01*
X48640Y160792D01*
X48086Y161513D01*
X47365Y162066D01*
X46525Y162414D01*
X45624Y162533D01*
D02*
G37*
G36*
X-42465Y169543D02*
X-48976D01*
X-55488D01*
Y167961D01*
X-54988D01*
Y165827D01*
X-55488D01*
Y164244D01*
X-48976D01*
X-42465D01*
Y165827D01*
X-41984Y165874D01*
X27358D01*
X32559Y160673D01*
X32260Y159952D01*
X32141Y159050D01*
X32260Y158149D01*
X32608Y157309D01*
X33161Y156588D01*
X33882Y156034D01*
X34722Y155686D01*
X35624Y155568D01*
X36525Y155686D01*
X37365Y156034D01*
X38086Y156588D01*
X38640Y157309D01*
X38987Y158149D01*
X39106Y159050D01*
X38987Y159952D01*
X38640Y160792D01*
X38086Y161513D01*
X37365Y162066D01*
X36525Y162414D01*
X35624Y162533D01*
X34722Y162414D01*
X34001Y162115D01*
X28501Y167615D01*
X28170Y167836D01*
X27780Y167913D01*
X-41984D01*
X-42465Y167961D01*
Y169543D01*
D02*
G37*
G36*
X419651Y157424D02*
X417380D01*
Y155546D01*
X419651D01*
Y157424D01*
D02*
G37*
G36*
X462368Y153322D02*
X460490D01*
Y151050D01*
X462368D01*
Y153322D01*
D02*
G37*
G36*
X450049Y158755D02*
X445899D01*
Y156047D01*
X439227Y149375D01*
X439000Y149420D01*
X438344Y149290D01*
X437788Y148918D01*
X437416Y148362D01*
X437286Y147706D01*
X437331Y147479D01*
X434949Y145097D01*
X434591Y145133D01*
X434035Y145504D01*
X433380Y145634D01*
X432724Y145504D01*
X432167Y145133D01*
X431796Y144576D01*
X431666Y143921D01*
Y140180D01*
X431796Y139524D01*
X432167Y138968D01*
X432724Y138597D01*
X433380Y138466D01*
X434035Y138597D01*
X434591Y138968D01*
X434963Y139524D01*
X435093Y140180D01*
Y142358D01*
X435694Y142958D01*
X436156Y142767D01*
Y142550D01*
X438379D01*
X440603D01*
Y143921D01*
X440434Y144772D01*
X439952Y145493D01*
X439746Y145631D01*
X439719Y145779D01*
X439783Y146207D01*
X440212Y146494D01*
X440584Y147050D01*
X440714Y147706D01*
X440669Y147933D01*
X447341Y154605D01*
X450049D01*
Y158755D01*
D02*
G37*
G36*
X462368Y150050D02*
X460490D01*
Y147779D01*
X462368D01*
Y150050D01*
D02*
G37*
G36*
X45624Y152533D02*
X44722Y152414D01*
X43882Y152066D01*
X43161Y151513D01*
X42608Y150792D01*
X42260Y149952D01*
X42141Y149050D01*
X42260Y148149D01*
X42608Y147309D01*
X43161Y146588D01*
X43882Y146034D01*
X44722Y145686D01*
X45624Y145568D01*
X46525Y145686D01*
X47365Y146034D01*
X48086Y146588D01*
X48640Y147309D01*
X48987Y148149D01*
X49106Y149050D01*
X48987Y149952D01*
X48640Y150792D01*
X48086Y151513D01*
X47365Y152066D01*
X46525Y152414D01*
X45624Y152533D01*
D02*
G37*
G36*
X-42465Y163244D02*
X-48976D01*
X-55488D01*
Y161661D01*
X-54988D01*
Y159528D01*
X-55488D01*
Y157945D01*
X-48976D01*
X-42465D01*
Y159528D01*
X-41984Y159575D01*
X23657D01*
X32559Y150673D01*
X32260Y149952D01*
X32141Y149050D01*
X32260Y148149D01*
X32608Y147309D01*
X33161Y146588D01*
X33882Y146034D01*
X34722Y145686D01*
X35624Y145568D01*
X36525Y145686D01*
X37365Y146034D01*
X38086Y146588D01*
X38640Y147309D01*
X38987Y148149D01*
X39106Y149050D01*
X38987Y149952D01*
X38640Y150792D01*
X38086Y151513D01*
X37365Y152066D01*
X36525Y152414D01*
X35624Y152533D01*
X34722Y152414D01*
X34001Y152115D01*
X24801Y161316D01*
X24470Y161537D01*
X24080Y161614D01*
X-41984D01*
X-42465Y161661D01*
Y163244D01*
D02*
G37*
G36*
X437880Y141550D02*
X436156D01*
Y140180D01*
X436325Y139329D01*
X436807Y138608D01*
X437529Y138126D01*
X437880Y138056D01*
Y141550D01*
D02*
G37*
G36*
X440603D02*
X438879D01*
Y138056D01*
X439230Y138126D01*
X439952Y138608D01*
X440434Y139329D01*
X440603Y140180D01*
Y141550D01*
D02*
G37*
G36*
X45624Y142533D02*
X44722Y142414D01*
X43882Y142066D01*
X43161Y141513D01*
X42608Y140792D01*
X42260Y139952D01*
X42141Y139050D01*
X42260Y138149D01*
X42608Y137309D01*
X43161Y136588D01*
X43882Y136034D01*
X44722Y135687D01*
X45624Y135568D01*
X46525Y135687D01*
X47365Y136034D01*
X48086Y136588D01*
X48640Y137309D01*
X48987Y138149D01*
X49106Y139050D01*
X48987Y139952D01*
X48640Y140792D01*
X48086Y141513D01*
X47365Y142066D01*
X46525Y142414D01*
X45624Y142533D01*
D02*
G37*
G36*
X-42465Y156945D02*
X-48976D01*
X-55488D01*
Y155362D01*
X-54988D01*
Y153228D01*
X-55488D01*
Y151646D01*
X-48976D01*
X-42465D01*
Y153228D01*
X-41984Y153276D01*
X19956D01*
X32559Y140673D01*
X32260Y139952D01*
X32141Y139050D01*
X32260Y138149D01*
X32608Y137309D01*
X33161Y136588D01*
X33882Y136034D01*
X34722Y135687D01*
X35624Y135568D01*
X36525Y135687D01*
X37365Y136034D01*
X38086Y136588D01*
X38640Y137309D01*
X38987Y138149D01*
X39106Y139050D01*
X38987Y139952D01*
X38640Y140792D01*
X38086Y141513D01*
X37365Y142066D01*
X36525Y142414D01*
X35624Y142533D01*
X34722Y142414D01*
X34001Y142115D01*
X21100Y155016D01*
X20769Y155237D01*
X20379Y155315D01*
X-41984D01*
X-42465Y155362D01*
Y156945D01*
D02*
G37*
G36*
X45624Y132533D02*
X44722Y132414D01*
X43882Y132066D01*
X43161Y131513D01*
X42608Y130792D01*
X42260Y129952D01*
X42141Y129050D01*
X42260Y128149D01*
X42608Y127309D01*
X43161Y126588D01*
X43882Y126034D01*
X44722Y125687D01*
X45624Y125568D01*
X46525Y125687D01*
X47365Y126034D01*
X48086Y126588D01*
X48640Y127309D01*
X48987Y128149D01*
X49106Y129050D01*
X48987Y129952D01*
X48640Y130792D01*
X48086Y131513D01*
X47365Y132066D01*
X46525Y132414D01*
X45624Y132533D01*
D02*
G37*
G36*
X-42465Y150646D02*
X-48976D01*
X-55488D01*
Y149063D01*
X-54988D01*
Y146413D01*
Y143780D01*
X-55488D01*
Y142197D01*
X-48976D01*
X-42465D01*
Y143780D01*
X-42965D01*
Y146976D01*
X16256D01*
X32559Y130673D01*
X32260Y129952D01*
X32141Y129050D01*
X32260Y128149D01*
X32608Y127309D01*
X33161Y126588D01*
X33882Y126034D01*
X34722Y125687D01*
X35624Y125568D01*
X36525Y125687D01*
X37365Y126034D01*
X38086Y126588D01*
X38640Y127309D01*
X38987Y128149D01*
X39106Y129050D01*
X38987Y129952D01*
X38640Y130792D01*
X38086Y131513D01*
X37365Y132066D01*
X36525Y132414D01*
X35624Y132533D01*
X34722Y132414D01*
X34001Y132115D01*
X17399Y148717D01*
X17068Y148938D01*
X16678Y149016D01*
X-41984D01*
X-42465Y149063D01*
Y150646D01*
D02*
G37*
G36*
X463096Y126019D02*
X458553D01*
Y124570D01*
X456442D01*
Y125625D01*
X452293D01*
Y121476D01*
X456442D01*
Y122531D01*
X458553D01*
Y121082D01*
X463096D01*
Y126019D01*
D02*
G37*
G36*
X438474Y126764D02*
X437818Y126634D01*
X437262Y126262D01*
X436890Y125706D01*
X436760Y125050D01*
Y121310D01*
X436890Y120654D01*
X437262Y120098D01*
X437818Y119727D01*
X438474Y119596D01*
X439130Y119727D01*
X439686Y120098D01*
X440058Y120654D01*
X440188Y121310D01*
Y122531D01*
X441126D01*
X441288Y122288D01*
X441844Y121916D01*
X442500Y121786D01*
X443156Y121916D01*
X443712Y122288D01*
X443874Y122531D01*
X445994D01*
Y121476D01*
X450143D01*
Y125625D01*
X445994D01*
Y124570D01*
X443807D01*
X443712Y124712D01*
X443156Y125084D01*
X442500Y125214D01*
X441844Y125084D01*
X441288Y124712D01*
X441193Y124570D01*
X440188D01*
Y125050D01*
X440058Y125706D01*
X439686Y126262D01*
X439130Y126634D01*
X438474Y126764D01*
D02*
G37*
G36*
X419746Y120172D02*
X417474D01*
Y118295D01*
X419746D01*
Y120172D01*
D02*
G37*
G36*
X463096Y119019D02*
X458553D01*
Y117570D01*
X456442D01*
Y118625D01*
X452293D01*
Y114476D01*
X456442D01*
Y115531D01*
X458553D01*
Y114082D01*
X463096D01*
Y119019D01*
D02*
G37*
G36*
X45624Y122533D02*
X44722Y122414D01*
X43882Y122066D01*
X43161Y121513D01*
X42608Y120792D01*
X42260Y119952D01*
X42141Y119050D01*
X42260Y118149D01*
X42608Y117309D01*
X43161Y116588D01*
X43882Y116034D01*
X44722Y115687D01*
X45624Y115568D01*
X46525Y115687D01*
X47365Y116034D01*
X48086Y116588D01*
X48640Y117309D01*
X48987Y118149D01*
X49106Y119050D01*
X48987Y119952D01*
X48640Y120792D01*
X48086Y121513D01*
X47365Y122066D01*
X46525Y122414D01*
X45624Y122533D01*
D02*
G37*
G36*
X-42465Y141197D02*
X-48976D01*
X-55488D01*
Y139614D01*
X-54988D01*
Y136965D01*
Y134331D01*
X-55488D01*
Y132748D01*
X-48976D01*
X-42465D01*
Y134331D01*
X-41984Y134378D01*
X8854D01*
X32559Y110673D01*
X32260Y109952D01*
X32141Y109050D01*
X32260Y108149D01*
X32608Y107309D01*
X33161Y106588D01*
X33882Y106034D01*
X34722Y105686D01*
X35624Y105568D01*
X36525Y105686D01*
X37365Y106034D01*
X38086Y106588D01*
X38640Y107309D01*
X38987Y108149D01*
X39106Y109050D01*
X38987Y109952D01*
X38640Y110792D01*
X38086Y111513D01*
X37365Y112066D01*
X36525Y112414D01*
X35624Y112533D01*
X34722Y112414D01*
X34001Y112115D01*
X9997Y136119D01*
X9667Y136340D01*
X9276Y136417D01*
X-42965D01*
Y137528D01*
X15704D01*
X32559Y120673D01*
X32260Y119952D01*
X32141Y119050D01*
X32260Y118149D01*
X32608Y117309D01*
X33161Y116588D01*
X33882Y116034D01*
X34722Y115687D01*
X35624Y115568D01*
X36525Y115687D01*
X37365Y116034D01*
X38086Y116588D01*
X38640Y117309D01*
X38987Y118149D01*
X39106Y119050D01*
X38987Y119952D01*
X38640Y120792D01*
X38086Y121513D01*
X37365Y122066D01*
X36525Y122414D01*
X35624Y122533D01*
X34722Y122414D01*
X34001Y122115D01*
X16848Y139268D01*
X16517Y139489D01*
X16127Y139567D01*
X-41984D01*
X-42465Y139614D01*
Y141197D01*
D02*
G37*
G36*
X419746Y117295D02*
X417474D01*
Y115417D01*
X419746D01*
Y117295D01*
D02*
G37*
G36*
X450143Y118625D02*
X445994D01*
Y115918D01*
X439227Y109151D01*
X439000Y109196D01*
X438344Y109065D01*
X437788Y108694D01*
X437416Y108138D01*
X437286Y107482D01*
X437331Y107255D01*
X435043Y104967D01*
X434686Y105003D01*
X434130Y105374D01*
X433474Y105505D01*
X432818Y105374D01*
X432262Y105002D01*
X431890Y104446D01*
X431760Y103791D01*
Y100050D01*
X431890Y99395D01*
X432262Y98838D01*
X432818Y98467D01*
X433474Y98336D01*
X434130Y98467D01*
X434686Y98838D01*
X435058Y99395D01*
X435188Y100050D01*
Y102228D01*
X435788Y102828D01*
X436250Y102637D01*
Y102420D01*
X438474D01*
X440698D01*
Y103791D01*
X440529Y104642D01*
X440047Y105363D01*
X439883Y105473D01*
X439901Y106062D01*
X440212Y106270D01*
X440584Y106826D01*
X440714Y107482D01*
X440669Y107709D01*
X447436Y114476D01*
X450143D01*
Y118625D01*
D02*
G37*
G36*
X-15408Y108672D02*
X-17876D01*
Y106401D01*
X-15408D01*
Y108672D01*
D02*
G37*
G36*
X-18876D02*
X-21345D01*
Y106401D01*
X-18876D01*
Y108672D01*
D02*
G37*
G36*
X45624Y112533D02*
X44722Y112414D01*
X43882Y112066D01*
X43161Y111513D01*
X42608Y110792D01*
X42260Y109952D01*
X42141Y109050D01*
X42260Y108149D01*
X42608Y107309D01*
X43161Y106588D01*
X43882Y106034D01*
X44722Y105686D01*
X45624Y105568D01*
X46525Y105686D01*
X47365Y106034D01*
X48086Y106588D01*
X48640Y107309D01*
X48987Y108149D01*
X49106Y109050D01*
X48987Y109952D01*
X48640Y110792D01*
X48086Y111513D01*
X47365Y112066D01*
X46525Y112414D01*
X45624Y112533D01*
D02*
G37*
G36*
X-15408Y105401D02*
X-17876D01*
Y103129D01*
X-15408D01*
Y105401D01*
D02*
G37*
G36*
X-18876D02*
X-21345D01*
Y103129D01*
X-18876D01*
Y105401D01*
D02*
G37*
G36*
X440698Y101420D02*
X438974D01*
Y97926D01*
X439325Y97996D01*
X440047Y98478D01*
X440529Y99199D01*
X440698Y100050D01*
Y101420D01*
D02*
G37*
G36*
X437974D02*
X436250D01*
Y100050D01*
X436419Y99199D01*
X436902Y98478D01*
X437623Y97996D01*
X437974Y97926D01*
Y101420D01*
D02*
G37*
G36*
X45624Y102533D02*
X44722Y102414D01*
X43882Y102066D01*
X43161Y101513D01*
X42608Y100792D01*
X42260Y99952D01*
X42141Y99050D01*
X42260Y98149D01*
X42608Y97309D01*
X43161Y96588D01*
X43882Y96034D01*
X44722Y95687D01*
X45624Y95568D01*
X46525Y95687D01*
X47365Y96034D01*
X48086Y96588D01*
X48640Y97309D01*
X48987Y98149D01*
X49106Y99050D01*
X48987Y99952D01*
X48640Y100792D01*
X48086Y101513D01*
X47365Y102066D01*
X46525Y102414D01*
X45624Y102533D01*
D02*
G37*
G36*
X-42465Y131748D02*
X-48976D01*
X-55488D01*
Y130165D01*
X-54988D01*
Y127516D01*
Y124366D01*
Y121216D01*
Y118583D01*
X-55488D01*
Y117000D01*
X-48976D01*
X-42465D01*
Y118583D01*
X-42965D01*
Y121216D01*
Y124366D01*
Y128079D01*
X5153D01*
X32559Y100673D01*
X32260Y99952D01*
X32141Y99050D01*
X32260Y98149D01*
X32608Y97309D01*
X33161Y96588D01*
X33882Y96034D01*
X34722Y95687D01*
X35624Y95568D01*
X36525Y95687D01*
X37365Y96034D01*
X38086Y96588D01*
X38640Y97309D01*
X38987Y98149D01*
X39106Y99050D01*
X38987Y99952D01*
X38640Y100792D01*
X38086Y101513D01*
X37365Y102066D01*
X36525Y102414D01*
X35624Y102533D01*
X34722Y102414D01*
X34001Y102115D01*
X6296Y129819D01*
X5966Y130040D01*
X5576Y130118D01*
X-41984D01*
X-42465Y130165D01*
Y131748D01*
D02*
G37*
G36*
X46124Y92971D02*
Y89550D01*
X49545D01*
X49475Y90082D01*
X49076Y91044D01*
X48443Y91869D01*
X47617Y92503D01*
X46655Y92901D01*
X46124Y92971D01*
D02*
G37*
G36*
X36124D02*
Y89550D01*
X39545D01*
X39475Y90082D01*
X39076Y91044D01*
X38443Y91869D01*
X37617Y92503D01*
X36656Y92901D01*
X36124Y92971D01*
D02*
G37*
G36*
X45124D02*
X44592Y92901D01*
X43630Y92503D01*
X42805Y91869D01*
X42171Y91044D01*
X41773Y90082D01*
X41703Y89550D01*
X45124D01*
Y92971D01*
D02*
G37*
G36*
X35124D02*
X34592Y92901D01*
X33630Y92503D01*
X32805Y91869D01*
X32171Y91044D01*
X31773Y90082D01*
X31703Y89550D01*
X35124D01*
Y92971D01*
D02*
G37*
G36*
X49545Y88550D02*
X46124D01*
Y85129D01*
X46655Y85199D01*
X47617Y85598D01*
X48443Y86231D01*
X49076Y87057D01*
X49475Y88019D01*
X49545Y88550D01*
D02*
G37*
G36*
X39545D02*
X36124D01*
Y85129D01*
X36656Y85199D01*
X37617Y85598D01*
X38443Y86231D01*
X39076Y87057D01*
X39475Y88019D01*
X39545Y88550D01*
D02*
G37*
G36*
X35124D02*
X31703D01*
X31773Y88019D01*
X32171Y87057D01*
X32805Y86231D01*
X33630Y85598D01*
X34592Y85199D01*
X35124Y85129D01*
Y88550D01*
D02*
G37*
G36*
X45124D02*
X41703D01*
X41773Y88019D01*
X42171Y87057D01*
X42805Y86231D01*
X43630Y85598D01*
X44592Y85199D01*
X45124Y85129D01*
Y88550D01*
D02*
G37*
G36*
X462846Y85919D02*
X458302D01*
Y84470D01*
X456192D01*
Y85525D01*
X452042D01*
Y81376D01*
X456192D01*
Y82431D01*
X458302D01*
Y80982D01*
X462846D01*
Y85919D01*
D02*
G37*
G36*
X438224Y86664D02*
X437568Y86534D01*
X437012Y86162D01*
X436640Y85606D01*
X436510Y84950D01*
Y81210D01*
X436640Y80554D01*
X437012Y79998D01*
X437568Y79627D01*
X438224Y79496D01*
X438880Y79627D01*
X439436Y79998D01*
X439807Y80554D01*
X439938Y81210D01*
Y82431D01*
X441209D01*
X441338Y82238D01*
X441894Y81867D01*
X442550Y81736D01*
X443205Y81867D01*
X443762Y82238D01*
X443890Y82431D01*
X445743D01*
Y81376D01*
X449893D01*
Y85525D01*
X445743D01*
Y84470D01*
X443890D01*
X443762Y84662D01*
X443205Y85034D01*
X442550Y85164D01*
X441894Y85034D01*
X441338Y84662D01*
X441209Y84470D01*
X439938D01*
Y84950D01*
X439807Y85606D01*
X439436Y86162D01*
X438880Y86534D01*
X438224Y86664D01*
D02*
G37*
G36*
X419495Y80072D02*
X417224D01*
Y78194D01*
X419495D01*
Y80072D01*
D02*
G37*
G36*
X416224D02*
X413952D01*
Y78194D01*
X416224D01*
Y80072D01*
D02*
G37*
G36*
X419495Y77194D02*
X417224D01*
Y75317D01*
X419495D01*
Y77194D01*
D02*
G37*
G36*
X416224D02*
X413952D01*
Y75317D01*
X416224D01*
Y77194D01*
D02*
G37*
G36*
X438724Y65815D02*
Y62321D01*
X440448D01*
Y63691D01*
X440278Y64542D01*
X439796Y65263D01*
X439075Y65745D01*
X438724Y65815D01*
D02*
G37*
G36*
X437724D02*
X437373Y65745D01*
X436651Y65263D01*
X436169Y64542D01*
X436000Y63691D01*
Y62321D01*
X437724D01*
Y65815D01*
D02*
G37*
G36*
X440448Y61321D02*
X438724D01*
Y57826D01*
X439075Y57896D01*
X439796Y58378D01*
X440278Y59099D01*
X440448Y59950D01*
Y61321D01*
D02*
G37*
G36*
X437724D02*
X436000D01*
Y59950D01*
X436169Y59099D01*
X436651Y58378D01*
X437373Y57896D01*
X437724Y57826D01*
Y61321D01*
D02*
G37*
G36*
X463744Y56000D02*
X461866D01*
Y53728D01*
X463744D01*
Y56000D01*
D02*
G37*
G36*
X355124Y54881D02*
X354210Y54760D01*
X353359Y54408D01*
X352627Y53847D01*
X352066Y53115D01*
X351714Y52264D01*
X351593Y51350D01*
X351714Y50437D01*
X352066Y49585D01*
X352627Y48854D01*
X353359Y48293D01*
X354210Y47940D01*
X355124Y47820D01*
X356037Y47940D01*
X356889Y48293D01*
X357620Y48854D01*
X358181Y49585D01*
X358534Y50437D01*
X358654Y51350D01*
X358534Y52264D01*
X358181Y53115D01*
X357620Y53847D01*
X356889Y54408D01*
X356037Y54760D01*
X355124Y54881D01*
D02*
G37*
G36*
X471824Y49122D02*
X469946D01*
Y46850D01*
X471824D01*
Y49122D01*
D02*
G37*
G36*
X474702Y45850D02*
X472824D01*
Y43579D01*
X474702D01*
Y45850D01*
D02*
G37*
G36*
X471824D02*
X469946D01*
Y43579D01*
X471824D01*
Y45850D01*
D02*
G37*
G36*
X325124Y34881D02*
X324210Y34760D01*
X323358Y34408D01*
X322627Y33847D01*
X322066Y33116D01*
X321714Y32264D01*
X321593Y31350D01*
X321714Y30437D01*
X322066Y29585D01*
X322627Y28854D01*
X323358Y28293D01*
X324210Y27940D01*
X325124Y27820D01*
X326037Y27940D01*
X326889Y28293D01*
X327620Y28854D01*
X328181Y29585D01*
X328534Y30437D01*
X328654Y31350D01*
X328534Y32264D01*
X328181Y33116D01*
X327620Y33847D01*
X326889Y34408D01*
X326037Y34760D01*
X325124Y34881D01*
D02*
G37*
G36*
X474702Y29022D02*
X472824D01*
Y26750D01*
X474702D01*
Y29022D01*
D02*
G37*
G36*
X471824D02*
X469946D01*
Y26750D01*
X471824D01*
Y29022D01*
D02*
G37*
G36*
X474702Y25750D02*
X472824D01*
Y23479D01*
X474702D01*
Y25750D01*
D02*
G37*
G36*
X471824D02*
X469946D01*
Y23479D01*
X471824D01*
Y25750D01*
D02*
G37*
G36*
X355124Y24881D02*
X354210Y24760D01*
X353359Y24408D01*
X352627Y23847D01*
X352066Y23115D01*
X351714Y22264D01*
X351593Y21350D01*
X351714Y20437D01*
X352066Y19585D01*
X352627Y18854D01*
X353359Y18293D01*
X354210Y17941D01*
X355124Y17820D01*
X356037Y17941D01*
X356889Y18293D01*
X357620Y18854D01*
X358181Y19585D01*
X358534Y20437D01*
X358654Y21350D01*
X358534Y22264D01*
X358181Y23115D01*
X357620Y23847D01*
X356889Y24408D01*
X356037Y24760D01*
X355124Y24881D01*
D02*
G37*
G36*
X325124D02*
X324210Y24760D01*
X323358Y24408D01*
X322627Y23847D01*
X322066Y23115D01*
X321714Y22264D01*
X321593Y21350D01*
X321714Y20437D01*
X322066Y19585D01*
X322627Y18854D01*
X323358Y18293D01*
X324210Y17941D01*
X325124Y17820D01*
X326037Y17941D01*
X326889Y18293D01*
X327620Y18854D01*
X328181Y19585D01*
X328534Y20437D01*
X328654Y21350D01*
X328534Y22264D01*
X328181Y23115D01*
X327620Y23847D01*
X326889Y24408D01*
X326037Y24760D01*
X325124Y24881D01*
D02*
G37*
%LPD*%
G36*
X84000Y352000D02*
X80000D01*
X78000Y354000D01*
X73500D01*
Y365000D01*
X84000D01*
Y352000D01*
D02*
G37*
G36*
X96222Y336455D02*
X96222Y300303D01*
X97624Y298901D01*
Y290050D01*
X81624D01*
Y338050D01*
X82324Y338751D01*
X83624D01*
X84624Y337751D01*
Y329050D01*
X85624Y328050D01*
X90124Y328050D01*
X90124Y336300D01*
X92575Y338751D01*
X93925Y338751D01*
X96222Y336455D01*
D02*
G37*
%LPC*%
G36*
X152000Y344696D02*
X151201Y344591D01*
X150457Y344282D01*
X149818Y343792D01*
X149328Y343153D01*
X149020Y342409D01*
X148915Y341610D01*
X149020Y340812D01*
X149328Y340068D01*
X149818Y339428D01*
X150457Y338938D01*
X151201Y338630D01*
X152000Y338525D01*
X152799Y338630D01*
X153543Y338938D01*
X154182Y339428D01*
X154672Y340068D01*
X154980Y340812D01*
X155085Y341610D01*
X154980Y342409D01*
X154672Y343153D01*
X154182Y343792D01*
X153543Y344282D01*
X152799Y344591D01*
X152000Y344696D01*
D02*
G37*
%LPD*%
D14*
X-48976Y280279D02*
X-41500D01*
Y277130D02*
X-40419Y278211D01*
X-41500Y270831D02*
X-40419Y269749D01*
X-48976Y270831D02*
X-41500D01*
X-48976Y277130D02*
X-41500D01*
X88021Y342550D02*
X90521Y345050D01*
X98021Y337550D01*
Y333732D02*
Y337550D01*
X88021Y333732D02*
Y342550D01*
X463000Y57744D02*
Y61000D01*
Y57744D02*
X464244Y56500D01*
X460456Y351050D02*
X463368D01*
X460212Y311050D02*
X463124D01*
X460456Y271050D02*
X463368D01*
X460456Y231050D02*
X463368D01*
X460456Y190050D02*
X463368D01*
X459956Y150550D02*
X462868D01*
X460500Y110500D02*
X460550Y110550D01*
X463462D01*
X469756Y56500D02*
X470206Y56950D01*
X-41500Y132248D02*
X-41248D01*
X-48976D02*
X-41500D01*
X-48976Y264531D02*
X-41500D01*
X-48976Y258232D02*
X-41500D01*
X-48976Y251933D02*
X-41500D01*
X-48976Y245634D02*
X-41500D01*
X-48976Y239335D02*
X-41500D01*
X-48976Y233035D02*
X-41500D01*
X-48976Y226736D02*
X-41500D01*
X-48976Y220437D02*
X-41500D01*
X-48976Y214138D02*
X-41500D01*
X-48976Y207839D02*
X-41500D01*
X-48976Y201539D02*
X-41500D01*
X-48976Y182642D02*
X-41500D01*
X-48976Y176342D02*
X-41500D01*
X-48976Y170043D02*
X-41500D01*
X-48976Y163744D02*
X-41500D01*
X-48976Y157445D02*
X-41500D01*
X-48976Y151146D02*
X-41500D01*
X-48976Y141697D02*
X-41500D01*
X438224Y61821D02*
Y65776D01*
X-48976Y116500D02*
X-41500D01*
X470206Y56950D02*
X501824D01*
X516324Y71450D01*
X416880Y363806D02*
X417005Y363680D01*
X423380D01*
X416880Y323806D02*
X417005Y323680D01*
X423380D01*
X416880Y283806D02*
X417005Y283680D01*
X423380D01*
X416880Y243806D02*
X417005Y243680D01*
X423380D01*
X416880Y203436D02*
X417005Y203310D01*
X423380D01*
X416880Y163436D02*
X417005Y163310D01*
X423380D01*
X416974Y123306D02*
X417100Y123180D01*
X423474D01*
X416724Y83206D02*
X416850Y83080D01*
X423224D01*
X-41520Y273980D02*
X-41500Y274000D01*
X-48976Y273980D02*
X-41520D01*
X81230Y369200D02*
X81624Y368806D01*
X75624Y369200D02*
X81230D01*
D17*
X-30000Y202000D02*
X328500D01*
X347450Y183050D01*
X352124D01*
X-30000Y208000D02*
X331500D01*
X350500Y189000D01*
X358073D01*
X362124Y193050D01*
X-30000Y215000D02*
X333500D01*
X350500Y198000D01*
X357073D01*
X362124Y203050D01*
X-30000Y221000D02*
X338000D01*
X351000Y208000D01*
X357073D01*
X362124Y213050D01*
X-30000Y227000D02*
X342124D01*
X350624Y218500D01*
X357573D01*
X362124Y223050D01*
X-30000Y233500D02*
X345000D01*
X-30250Y240000D02*
X347500D01*
X-30500D02*
X-30250D01*
X348402Y239098D02*
X358171D01*
X347500Y240000D02*
X348402Y239098D01*
X358171D02*
X362124Y243050D01*
X345000Y233500D02*
X350000Y228500D01*
X357573D01*
X362124Y233050D01*
X345000Y252500D02*
X351000Y258500D01*
X-30500Y252500D02*
X345000D01*
X348500Y246000D02*
X350653Y248153D01*
X-30500Y246000D02*
X348500D01*
X350653Y248153D02*
X357226D01*
X351000Y258500D02*
X357573D01*
X326784Y198390D02*
X352124Y173050D01*
X-48976Y198390D02*
X326784D01*
X357714Y183050D02*
X362124D01*
X353761Y187003D02*
X357714Y183050D01*
X347997Y187003D02*
X353761D01*
X330311Y204689D02*
X347997Y187003D01*
X-48976Y204689D02*
X330311D01*
X334186Y210988D02*
X352124Y193050D01*
X-48976Y210988D02*
X334186D01*
X337887Y217287D02*
X352124Y203050D01*
X-48976Y217287D02*
X337887D01*
X341587Y223587D02*
X352124Y213050D01*
X-48976Y223587D02*
X341587D01*
X345288Y229886D02*
X352124Y223050D01*
X-48976Y229886D02*
X345288D01*
X348989Y236185D02*
X352124Y233050D01*
X-48976Y236185D02*
X348989D01*
X357226Y248153D02*
X362124Y253050D01*
X351557Y242484D02*
X352124Y243050D01*
X-48976Y242484D02*
X351557D01*
X347857Y248783D02*
X352124Y253050D01*
X-48976Y248783D02*
X347857D01*
X357573Y258500D02*
X362124Y263050D01*
X344156Y255083D02*
X352124Y263050D01*
X-48976Y255083D02*
X344156D01*
X456524Y66000D02*
X460350D01*
X426500Y298500D02*
X428379Y300379D01*
X426500Y298500D02*
Y299000D01*
X428379Y300379D02*
Y302420D01*
X433380Y323680D02*
Y325120D01*
X431000Y327500D02*
X433380Y325120D01*
X426500Y338500D02*
X428379Y340380D01*
Y342421D01*
X433380Y363680D02*
Y364738D01*
X430500Y367617D02*
X433380Y364738D01*
X431000Y287000D02*
X433380Y284620D01*
Y283680D02*
Y284620D01*
X426000Y259000D02*
X428379Y261380D01*
Y262421D01*
X431000Y247500D02*
X433380Y245121D01*
Y243680D02*
Y245121D01*
X426000Y218500D02*
X428379Y220880D01*
Y222421D01*
X431000Y207247D02*
X433380Y204868D01*
Y203310D02*
Y204868D01*
X426000Y178113D02*
X428379Y180493D01*
Y182050D01*
X433380Y164868D02*
Y165621D01*
X431000Y167247D02*
X433380Y164868D01*
Y163310D02*
Y164868D01*
X426500Y138113D02*
X428379Y139993D01*
Y142050D01*
X431500Y127117D02*
X433474Y125143D01*
Y123180D02*
Y125143D01*
X426500Y98000D02*
X428474Y99974D01*
Y101920D01*
X431000Y87017D02*
X433224Y84794D01*
Y83080D02*
Y84794D01*
X443450Y76450D02*
X447818D01*
X433224Y66224D02*
X443450Y76450D01*
X433224Y61821D02*
Y66224D01*
X426180Y61821D02*
X428224D01*
X45200Y193300D02*
X59500Y179000D01*
X-27500Y193300D02*
X45200D01*
X472324Y26250D02*
X478074Y20500D01*
X488085D01*
X498836Y31250D01*
X483836Y26250D02*
X498836Y41250D01*
X477835Y26250D02*
X483836D01*
X501324Y46350D02*
X516324Y31350D01*
X477835Y46350D02*
X501324D01*
X433224Y59724D02*
Y61821D01*
X430500Y57000D02*
X433224Y59724D01*
X323000Y57000D02*
X430500D01*
X319500Y53500D02*
X323000Y57000D01*
X319500Y46974D02*
Y53500D01*
Y46974D02*
X325124Y41350D01*
X442550Y83450D02*
X447818D01*
X438594D02*
X442550D01*
X433474Y101956D02*
X448069Y116550D01*
X438844Y123550D02*
X448069D01*
X439000Y147706D02*
X447974Y156680D01*
X433380Y142086D02*
X439000Y147706D01*
X442500Y163680D02*
X447974D01*
X438750D02*
X442500D01*
X438794Y187500D02*
X447974Y196680D01*
X433380Y182086D02*
X438794Y187500D01*
X442500Y203680D02*
X447974D01*
X438750D02*
X442500D01*
X439424Y228500D02*
X447974Y237050D01*
X433380Y222456D02*
X439424Y228500D01*
X442500Y244050D02*
X447974D01*
X438750D02*
X442500D01*
X438924Y268000D02*
X447974Y277050D01*
X433380Y262456D02*
X438924Y268000D01*
X442500Y284050D02*
X447974D01*
X438750D02*
X442500D01*
X433380Y302456D02*
X447974Y317050D01*
X442500Y324050D02*
X447974D01*
X438750D02*
X442500D01*
X438424Y347500D02*
X447974Y357050D01*
X433380Y342456D02*
X438424Y347500D01*
X439000D01*
X438249D02*
X438424D01*
X442500Y364050D02*
X447974D01*
X438750D02*
X442500D01*
X438224Y83080D02*
X438594Y83450D01*
X433474Y101920D02*
Y101956D01*
X438474Y123180D02*
X438844Y123550D01*
X433380Y142050D02*
Y142086D01*
X438379Y163310D02*
X438750Y163680D01*
X433380Y182050D02*
Y182086D01*
X438379Y203310D02*
X438750Y203680D01*
X433380Y222421D02*
Y222456D01*
X438379Y243680D02*
X438750Y244050D01*
X433380Y262421D02*
Y262456D01*
X438379Y283680D02*
X438750Y284050D01*
X433380Y302420D02*
Y302456D01*
X438379Y323680D02*
X438750Y324050D01*
X433380Y342421D02*
Y342456D01*
X438379Y363680D02*
X438750Y364050D01*
X76500Y376500D02*
X89317D01*
X57901Y357901D02*
X76500Y376500D01*
X47624Y357901D02*
X57901D01*
X454117Y76450D02*
X460574D01*
X454117Y83450D02*
X460574D01*
X454368Y116550D02*
X460824D01*
X454368Y123550D02*
X460824D01*
X454273Y156680D02*
X460730D01*
X454273Y163680D02*
X460730D01*
X454273Y196680D02*
X460730D01*
X454273Y203680D02*
X460730D01*
X454273Y237050D02*
X460730D01*
X454273Y244050D02*
X460730D01*
X454273Y277050D02*
X460730D01*
X454273Y284050D02*
X460730D01*
X454273Y317050D02*
X460730D01*
X454273Y324050D02*
X460730D01*
X454273Y357050D02*
X460730D01*
X454273Y364050D02*
X460730D01*
X59500Y113500D02*
Y179000D01*
Y113500D02*
X111179Y61821D01*
X423224D01*
X423000Y62044D02*
X423224Y61821D01*
X423000Y62044D02*
Y72500D01*
X428224Y77724D01*
Y83080D01*
X428000Y83304D02*
X428224Y83080D01*
X428000Y83304D02*
Y91000D01*
X423474Y95526D02*
X428000Y91000D01*
X423474Y95526D02*
Y101920D01*
X423500Y101946D01*
Y112500D01*
X428474Y117474D01*
Y123180D01*
Y131526D01*
X423380Y136620D02*
X428474Y131526D01*
X423380Y136620D02*
Y142050D01*
X423500Y142171D01*
Y152500D01*
X428379Y157379D01*
Y163310D01*
Y170621D01*
X423380Y175620D02*
X428379Y170621D01*
X423380Y175620D02*
Y182050D01*
X423000Y182430D02*
X423380Y182050D01*
X423000Y182430D02*
Y192000D01*
X428379Y197380D01*
Y203310D01*
Y211121D01*
X423380Y216121D02*
X428379Y211121D01*
X423380Y216121D02*
Y222421D01*
X423500Y222541D01*
Y231500D01*
X428379Y236380D01*
Y243680D01*
Y250120D01*
X423380Y255120D02*
X428379Y250120D01*
X423380Y255120D02*
Y262421D01*
X423500Y262541D01*
Y273000D01*
X428379Y277880D01*
Y283680D01*
X428500Y283801D01*
Y291500D01*
X423380Y296620D02*
X428500Y291500D01*
X423380Y296620D02*
Y302420D01*
X423500Y302541D01*
Y313000D01*
X428379Y317880D01*
Y323680D01*
Y331621D01*
X423380Y336620D02*
X428379Y331621D01*
X423380Y336620D02*
Y342421D01*
X423500Y342541D01*
Y352500D01*
X428379Y357380D01*
Y363680D01*
X325124Y51350D02*
X330474Y46000D01*
X436524D01*
X456524Y66000D01*
X511817Y127000D02*
X516368Y131550D01*
X476000Y127000D02*
X511817D01*
X475000Y126000D02*
X476000Y127000D01*
X475000Y119674D02*
Y126000D01*
Y119674D02*
X478124Y116550D01*
X511687Y167000D02*
X516368Y171680D01*
X476000Y167000D02*
X511687D01*
X474880Y165879D02*
X476000Y167000D01*
X474880Y159830D02*
Y165879D01*
Y159830D02*
X478029Y156680D01*
X511687Y207000D02*
X516368Y211680D01*
X476000Y207000D02*
X511687D01*
X474880Y205879D02*
X476000Y207000D01*
X474880Y199830D02*
Y205879D01*
Y199830D02*
X478029Y196680D01*
X475000Y246176D02*
X476324Y247500D01*
X475000Y240079D02*
Y246176D01*
Y240079D02*
X478029Y237050D01*
X511817Y247500D02*
X516368Y252050D01*
X476324Y247500D02*
X511817D01*
Y287500D02*
X516368Y292050D01*
X476324Y287500D02*
X511817D01*
X474880Y286055D02*
X476324Y287500D01*
X474880Y280200D02*
Y286055D01*
Y280200D02*
X478029Y277050D01*
X511817Y327500D02*
X516368Y332050D01*
X476324Y327500D02*
X511817D01*
X474880Y326055D02*
X476324Y327500D01*
X474880Y320200D02*
Y326055D01*
Y320200D02*
X478029Y317050D01*
X498724Y61450D02*
Y62600D01*
X477873Y83450D02*
X498724Y62600D01*
X498974Y101550D02*
Y102700D01*
X478124Y123550D02*
X498974Y102700D01*
X478029Y162531D02*
X498879Y141680D01*
X478029Y162531D02*
Y163680D01*
X498879Y181680D02*
Y182830D01*
X478029Y203680D02*
X498879Y182830D01*
Y222050D02*
Y223200D01*
X478029Y244050D02*
X498879Y223200D01*
Y262050D02*
Y263200D01*
X478029Y284050D02*
X498879Y263200D01*
Y302050D02*
Y303200D01*
X478029Y324050D02*
X498879Y303200D01*
X498880Y342050D02*
Y343200D01*
X478029Y364050D02*
X498880Y343200D01*
X511817Y367500D02*
X516368Y372050D01*
X476324Y367500D02*
X511817D01*
X474880Y366055D02*
X476324Y367500D01*
X474880Y360200D02*
Y366055D01*
Y360200D02*
X478029Y357050D01*
X25624Y328050D02*
Y357901D01*
Y328050D02*
X43624Y310050D01*
X5576Y129098D02*
X35624Y99050D01*
X-48976Y129098D02*
X5576D01*
X9276Y135398D02*
X35624Y109050D01*
X-48976Y135398D02*
X9276D01*
X16127Y138547D02*
X35624Y119050D01*
X-48976Y138547D02*
X16127D01*
X16678Y147996D02*
X35624Y129050D01*
X-48976Y147996D02*
X16678D01*
X20379Y154295D02*
X35624Y139050D01*
X-48976Y154295D02*
X20379D01*
X24080Y160594D02*
X35624Y149050D01*
X-48976Y160594D02*
X24080D01*
X27780Y166894D02*
X35624Y159050D01*
X-48976Y166894D02*
X27780D01*
X31481Y173193D02*
X35624Y169050D01*
X-48976Y173193D02*
X31481D01*
X35182Y179492D02*
X35624Y179050D01*
X-48976Y179492D02*
X35182D01*
X-26401Y105901D02*
X-25376D01*
X-28500Y108000D02*
X-26401Y105901D01*
X-25376Y112200D02*
X-25376Y112200D01*
X-18376D01*
X-26527Y113350D02*
X-25376Y112200D01*
X-48976Y113350D02*
X-26527D01*
X25624Y364200D02*
Y370901D01*
X47624Y364200D02*
Y370901D01*
X89317Y376500D02*
X118000D01*
X81624Y368806D02*
X89317Y376500D01*
X92765Y366050D02*
X93021Y365794D01*
Y356369D02*
Y365794D01*
X87624Y363295D02*
X88021Y362897D01*
Y356369D02*
Y362897D01*
D22*
X114112Y341050D02*
D03*
X125135D02*
D03*
Y327050D02*
D03*
X114112D02*
D03*
D23*
X84742Y295050D02*
D03*
X74506D02*
D03*
D24*
X90521Y345050D02*
D03*
D25*
X83021Y333732D02*
D03*
X88021D02*
D03*
X93021D02*
D03*
X98021D02*
D03*
X83021Y356369D02*
D03*
X88021D02*
D03*
X93021D02*
D03*
X98021D02*
D03*
D26*
X423380Y342421D02*
D03*
X428379D02*
D03*
X433380D02*
D03*
X438379D02*
D03*
X423380Y363680D02*
D03*
X428379D02*
D03*
X433380D02*
D03*
X438379D02*
D03*
X423380Y302420D02*
D03*
X428379D02*
D03*
X433380D02*
D03*
X438379D02*
D03*
X423380Y323680D02*
D03*
X428379D02*
D03*
X433380D02*
D03*
X438379D02*
D03*
X423380Y262421D02*
D03*
X428379D02*
D03*
X433380D02*
D03*
X438379D02*
D03*
X423380Y283680D02*
D03*
X428379D02*
D03*
X433380D02*
D03*
X438379D02*
D03*
X423380Y222421D02*
D03*
X428379D02*
D03*
X433380D02*
D03*
X438379D02*
D03*
X423380Y243680D02*
D03*
X428379D02*
D03*
X433380D02*
D03*
X438379D02*
D03*
X423380Y182050D02*
D03*
X428379D02*
D03*
X433380D02*
D03*
X438379D02*
D03*
X423380Y203310D02*
D03*
X428379D02*
D03*
X433380D02*
D03*
X438379D02*
D03*
X423380Y142050D02*
D03*
X428379D02*
D03*
X433380D02*
D03*
X438379D02*
D03*
X423380Y163310D02*
D03*
X428379D02*
D03*
X433380D02*
D03*
X438379D02*
D03*
X423474Y101920D02*
D03*
X428474D02*
D03*
X433474D02*
D03*
X438474D02*
D03*
X423474Y123180D02*
D03*
X428474D02*
D03*
X433474D02*
D03*
X438474D02*
D03*
X423224Y61821D02*
D03*
X428224D02*
D03*
X433224D02*
D03*
X438224D02*
D03*
X423224Y83080D02*
D03*
X428224D02*
D03*
X433224D02*
D03*
X438224D02*
D03*
D27*
X117624Y366050D02*
D03*
X105616D02*
D03*
D28*
X98277Y366050D02*
D03*
X92765D02*
D03*
X99379Y322050D02*
D03*
X93868D02*
D03*
X119379Y351050D02*
D03*
X113868D02*
D03*
X463368Y351050D02*
D03*
X468880D02*
D03*
X463124Y311050D02*
D03*
X468635D02*
D03*
X463368Y271050D02*
D03*
X468880D02*
D03*
X463368Y231050D02*
D03*
X468880D02*
D03*
X463368Y190050D02*
D03*
X468880D02*
D03*
X462868Y150550D02*
D03*
X468379D02*
D03*
X464244Y56500D02*
D03*
X469756D02*
D03*
X472324Y46350D02*
D03*
X477835D02*
D03*
X472324Y26250D02*
D03*
X477835D02*
D03*
X463462Y110550D02*
D03*
X468974D02*
D03*
X461244Y71000D02*
D03*
X466756D02*
D03*
D29*
X81624Y368806D02*
D03*
Y363295D02*
D03*
X87624Y368806D02*
D03*
Y363295D02*
D03*
X416880Y358295D02*
D03*
Y363806D02*
D03*
Y318295D02*
D03*
Y323806D02*
D03*
Y278294D02*
D03*
Y283806D02*
D03*
Y238295D02*
D03*
Y243806D02*
D03*
Y197924D02*
D03*
Y203436D02*
D03*
Y157924D02*
D03*
Y163436D02*
D03*
X416974Y117795D02*
D03*
Y123306D02*
D03*
X416724Y77694D02*
D03*
Y83206D02*
D03*
D30*
X454273Y357050D02*
D03*
X447974D02*
D03*
X454273Y317050D02*
D03*
X447974D02*
D03*
X454273Y277050D02*
D03*
X447974D02*
D03*
X454273Y237050D02*
D03*
X447974D02*
D03*
X454273Y196680D02*
D03*
X447974D02*
D03*
X454273Y156680D02*
D03*
X447974D02*
D03*
X454273Y364050D02*
D03*
X447974D02*
D03*
X454273Y324050D02*
D03*
X447974D02*
D03*
X454273Y284050D02*
D03*
X447974D02*
D03*
X454273Y244050D02*
D03*
X447974D02*
D03*
X454273Y203680D02*
D03*
X447974D02*
D03*
X454273Y163680D02*
D03*
X447974D02*
D03*
X454368Y116550D02*
D03*
X448069D02*
D03*
X454117Y76450D02*
D03*
X447818D02*
D03*
X454368Y123550D02*
D03*
X448069D02*
D03*
X454117Y83450D02*
D03*
X447818D02*
D03*
D31*
X25624Y370901D02*
D03*
Y377200D02*
D03*
X47624Y370901D02*
D03*
Y377200D02*
D03*
D32*
X75624Y369200D02*
D03*
Y362901D02*
D03*
Y356200D02*
D03*
Y349901D02*
D03*
X-25376Y105901D02*
D03*
Y112200D02*
D03*
X-18376Y112200D02*
D03*
Y105901D02*
D03*
X25624Y357901D02*
D03*
Y364200D02*
D03*
X47624Y357901D02*
D03*
Y364200D02*
D03*
D33*
X460730Y357050D02*
D03*
X467029D02*
D03*
X460730Y317050D02*
D03*
X467029D02*
D03*
X460730Y277050D02*
D03*
X467029D02*
D03*
X460730Y237050D02*
D03*
X467029D02*
D03*
X460730Y196680D02*
D03*
X467029D02*
D03*
X460730Y156680D02*
D03*
X467029D02*
D03*
X471730Y357050D02*
D03*
X478029D02*
D03*
X471730Y317050D02*
D03*
X478029D02*
D03*
X471730Y277050D02*
D03*
X478029D02*
D03*
X471730Y237050D02*
D03*
X478029D02*
D03*
X471730Y196680D02*
D03*
X478029D02*
D03*
X471730Y156680D02*
D03*
X478029D02*
D03*
X460730Y364050D02*
D03*
X467029D02*
D03*
X460730Y324050D02*
D03*
X467029D02*
D03*
X460730Y284050D02*
D03*
X467029D02*
D03*
X460730Y244050D02*
D03*
X467029D02*
D03*
X460730Y203680D02*
D03*
X467029D02*
D03*
X460730Y163680D02*
D03*
X467029D02*
D03*
X471730Y364050D02*
D03*
X478029D02*
D03*
X471730Y324050D02*
D03*
X478029D02*
D03*
X471730Y284050D02*
D03*
X478029D02*
D03*
X471730Y244050D02*
D03*
X478029D02*
D03*
X471730Y203680D02*
D03*
X478029D02*
D03*
X471730Y163680D02*
D03*
X478029D02*
D03*
X460824Y116550D02*
D03*
X467124D02*
D03*
X460574Y76450D02*
D03*
X466873D02*
D03*
X471824Y116550D02*
D03*
X478124D02*
D03*
X466873Y66000D02*
D03*
X460574D02*
D03*
X460824Y123550D02*
D03*
X467124D02*
D03*
X460574Y83450D02*
D03*
X466873D02*
D03*
X471824Y123550D02*
D03*
X478124D02*
D03*
X471574Y83450D02*
D03*
X477873D02*
D03*
D34*
X92915Y304050D02*
D03*
X104332D02*
D03*
X92915Y314050D02*
D03*
X104332D02*
D03*
D35*
X-48976Y280279D02*
D03*
Y277130D02*
D03*
Y273980D02*
D03*
Y270831D02*
D03*
Y267681D02*
D03*
Y264531D02*
D03*
Y261382D02*
D03*
Y258232D02*
D03*
Y255083D02*
D03*
Y251933D02*
D03*
Y248783D02*
D03*
Y245634D02*
D03*
Y242484D02*
D03*
Y239335D02*
D03*
Y236185D02*
D03*
Y233035D02*
D03*
Y229886D02*
D03*
Y226736D02*
D03*
Y223587D02*
D03*
Y220437D02*
D03*
Y217287D02*
D03*
Y214138D02*
D03*
Y210988D02*
D03*
Y207839D02*
D03*
Y204689D02*
D03*
Y201539D02*
D03*
Y198390D02*
D03*
Y182642D02*
D03*
Y179492D02*
D03*
Y176342D02*
D03*
Y173193D02*
D03*
Y170043D02*
D03*
Y166894D02*
D03*
Y163744D02*
D03*
Y160594D02*
D03*
Y157445D02*
D03*
Y154295D02*
D03*
Y151146D02*
D03*
Y147996D02*
D03*
Y144846D02*
D03*
Y141697D02*
D03*
Y138547D02*
D03*
Y135398D02*
D03*
Y132248D02*
D03*
Y129098D02*
D03*
Y125949D02*
D03*
Y122799D02*
D03*
Y119650D02*
D03*
Y116500D02*
D03*
Y113350D02*
D03*
D58*
X94624Y293050D02*
D03*
X133500Y372500D02*
D03*
D59*
X275500Y386500D02*
X394186D01*
X154000D02*
X275500D01*
X438379Y342421D02*
X440826D01*
X438379Y302420D02*
X440826D01*
X438379Y262421D02*
X440826D01*
X438379Y222421D02*
X440826D01*
X438379Y182050D02*
X440826D01*
X438379Y142050D02*
X440826D01*
X438474Y101920D02*
X440920D01*
X416880Y358295D02*
X419747D01*
X416880Y318295D02*
X419747D01*
X416880Y278294D02*
X419747D01*
X416880Y238295D02*
X419747D01*
X416880Y197924D02*
X419747D01*
X416880Y157924D02*
X419747D01*
X416974Y117795D02*
X419842D01*
X416724Y77694D02*
X419591D01*
X412500Y328186D02*
Y368186D01*
Y288186D02*
Y328186D01*
Y329000D01*
Y328186D02*
X416880Y323806D01*
X412500Y248186D02*
Y288186D01*
X416880Y283806D01*
X412500Y207816D02*
Y248186D01*
X416880Y243806D01*
X412500Y167816D02*
Y207816D01*
X416880Y203436D01*
X412500Y127780D02*
Y167816D01*
X416880Y163436D01*
X412500Y87430D02*
Y127780D01*
X416974Y123306D01*
X412500Y368186D02*
X416880Y363806D01*
X394186Y386500D02*
X412500Y368186D01*
Y87430D02*
X416724Y83206D01*
X394186Y386500D02*
X461500D01*
X41573Y298000D02*
X43624Y300050D01*
X17573Y274000D02*
X41573Y298000D01*
X44523Y295050D01*
X74506D01*
X43624Y300050D02*
Y310050D01*
X-39000Y274000D02*
X17573D01*
X-41500D02*
X-39000D01*
X461500Y386500D02*
X472000Y376000D01*
X143000Y375500D02*
X154000Y386500D01*
D60*
X528880Y342050D02*
D03*
Y372050D02*
D03*
X498880Y352050D02*
D03*
Y342050D02*
D03*
Y372050D02*
D03*
Y362050D02*
D03*
X528880Y262050D02*
D03*
Y292050D02*
D03*
X498880Y272050D02*
D03*
Y262050D02*
D03*
Y292050D02*
D03*
Y282050D02*
D03*
X528880Y302050D02*
D03*
Y332050D02*
D03*
X498880Y312050D02*
D03*
Y302050D02*
D03*
Y332050D02*
D03*
Y322050D02*
D03*
X528880Y222050D02*
D03*
Y252050D02*
D03*
X498880Y232050D02*
D03*
Y222050D02*
D03*
Y252050D02*
D03*
Y242050D02*
D03*
X528880Y181680D02*
D03*
Y211680D02*
D03*
X498880Y191680D02*
D03*
Y181680D02*
D03*
Y211680D02*
D03*
Y201680D02*
D03*
X528880Y141680D02*
D03*
Y171680D02*
D03*
X498880Y151680D02*
D03*
Y141680D02*
D03*
Y171680D02*
D03*
Y161680D02*
D03*
X528724Y61450D02*
D03*
Y91450D02*
D03*
X498724Y71450D02*
D03*
Y61450D02*
D03*
Y91450D02*
D03*
Y81450D02*
D03*
X528974Y101550D02*
D03*
Y131550D02*
D03*
X498974Y111550D02*
D03*
Y101550D02*
D03*
Y131550D02*
D03*
Y121550D02*
D03*
X528836Y21250D02*
D03*
Y51250D02*
D03*
X498836Y31250D02*
D03*
Y21250D02*
D03*
Y51250D02*
D03*
Y41250D02*
D03*
X33624Y310050D02*
D03*
X43624D02*
D03*
X33624Y300050D02*
D03*
X43624D02*
D03*
X516368Y352050D02*
D03*
Y342050D02*
D03*
Y372050D02*
D03*
Y362050D02*
D03*
X546368Y342050D02*
D03*
Y372050D02*
D03*
X516368Y312050D02*
D03*
Y302050D02*
D03*
Y332050D02*
D03*
Y322050D02*
D03*
X546368Y302050D02*
D03*
Y332050D02*
D03*
X516368Y272050D02*
D03*
Y262050D02*
D03*
Y292050D02*
D03*
Y282050D02*
D03*
X546368Y262050D02*
D03*
Y292050D02*
D03*
X516368Y232050D02*
D03*
Y222050D02*
D03*
Y252050D02*
D03*
Y242050D02*
D03*
X546368Y222050D02*
D03*
Y252050D02*
D03*
X516368Y191680D02*
D03*
Y181680D02*
D03*
Y211680D02*
D03*
Y201680D02*
D03*
X546368Y181680D02*
D03*
Y211680D02*
D03*
X516368Y151680D02*
D03*
Y141680D02*
D03*
Y171680D02*
D03*
Y161680D02*
D03*
X546368Y141680D02*
D03*
Y171680D02*
D03*
X516324Y71450D02*
D03*
Y61450D02*
D03*
Y91450D02*
D03*
Y81450D02*
D03*
X546324Y61450D02*
D03*
Y91450D02*
D03*
X516324Y31350D02*
D03*
Y21350D02*
D03*
Y51350D02*
D03*
Y41350D02*
D03*
X546324Y21350D02*
D03*
Y51350D02*
D03*
X516368Y111550D02*
D03*
Y101550D02*
D03*
Y131550D02*
D03*
Y121550D02*
D03*
X546368Y101550D02*
D03*
Y131550D02*
D03*
X325124Y31350D02*
D03*
Y21350D02*
D03*
Y51350D02*
D03*
Y41350D02*
D03*
X355124Y21350D02*
D03*
Y51350D02*
D03*
D61*
X152000Y341610D02*
D03*
D62*
Y355390D02*
D03*
D63*
X35624Y179050D02*
D03*
X352124Y263050D02*
D03*
D64*
X45624Y179050D02*
D03*
X35624Y169050D02*
D03*
X45624D02*
D03*
X35624Y159050D02*
D03*
X45624D02*
D03*
X35624Y149050D02*
D03*
X45624D02*
D03*
X35624Y139050D02*
D03*
X45624D02*
D03*
X35624Y129050D02*
D03*
X45624D02*
D03*
X35624Y119050D02*
D03*
X45624D02*
D03*
X35624Y109050D02*
D03*
X45624D02*
D03*
X35624Y99050D02*
D03*
X45624D02*
D03*
X35624Y89050D02*
D03*
X45624D02*
D03*
X362124Y263050D02*
D03*
X352124Y253050D02*
D03*
X362124D02*
D03*
X352124Y243050D02*
D03*
X362124D02*
D03*
X352124Y233050D02*
D03*
X362124D02*
D03*
X352124Y223050D02*
D03*
X362124D02*
D03*
X352124Y213050D02*
D03*
X362124D02*
D03*
X352124Y203050D02*
D03*
X362124D02*
D03*
X352124Y193050D02*
D03*
X362124D02*
D03*
X352124Y183050D02*
D03*
X362124D02*
D03*
X352124Y173050D02*
D03*
X362124D02*
D03*
D65*
X458028Y376249D02*
D03*
Y336249D02*
D03*
Y296249D02*
D03*
Y256249D02*
D03*
Y216249D02*
D03*
Y176249D02*
D03*
Y136249D02*
D03*
Y96249D02*
D03*
Y56249D02*
D03*
Y16249D02*
D03*
X438028Y376249D02*
D03*
Y336249D02*
D03*
Y296249D02*
D03*
Y256249D02*
D03*
Y216249D02*
D03*
Y176249D02*
D03*
Y136249D02*
D03*
Y96249D02*
D03*
Y56249D02*
D03*
X448028Y36249D02*
D03*
X438028Y16249D02*
D03*
X418028Y376249D02*
D03*
Y336249D02*
D03*
Y296249D02*
D03*
Y256249D02*
D03*
Y216249D02*
D03*
X428028Y36249D02*
D03*
X418028Y16249D02*
D03*
X398028Y376249D02*
D03*
X408028Y356249D02*
D03*
X398028Y336249D02*
D03*
X408028Y316249D02*
D03*
X398028Y296249D02*
D03*
X408028Y276249D02*
D03*
X398028Y256249D02*
D03*
X408028Y236249D02*
D03*
X398028Y216249D02*
D03*
X408028Y196249D02*
D03*
Y156249D02*
D03*
Y116249D02*
D03*
Y76249D02*
D03*
Y36249D02*
D03*
X398028Y16249D02*
D03*
X378028Y376249D02*
D03*
X388028Y356249D02*
D03*
X378028Y336249D02*
D03*
X388028Y316249D02*
D03*
X378028Y296249D02*
D03*
X388028Y276249D02*
D03*
X378028Y256249D02*
D03*
X388028Y236249D02*
D03*
X378028Y216249D02*
D03*
X388028Y196249D02*
D03*
X378028Y176249D02*
D03*
X388028Y156249D02*
D03*
Y116249D02*
D03*
Y76249D02*
D03*
Y36249D02*
D03*
X378028Y16249D02*
D03*
X358028Y376249D02*
D03*
X368028Y356249D02*
D03*
X358028Y336249D02*
D03*
Y296249D02*
D03*
Y256249D02*
D03*
X368028Y36249D02*
D03*
X358028Y16249D02*
D03*
X338028Y376249D02*
D03*
X348028Y356249D02*
D03*
X338028Y336249D02*
D03*
X348028Y316249D02*
D03*
X338028Y296249D02*
D03*
X348028Y276249D02*
D03*
X338028Y176249D02*
D03*
X348028Y156249D02*
D03*
X338028Y136249D02*
D03*
X348028Y116249D02*
D03*
X338028Y96249D02*
D03*
X348028Y76249D02*
D03*
Y36249D02*
D03*
X338028Y16249D02*
D03*
X318028Y376249D02*
D03*
X328028Y356249D02*
D03*
X318028Y336249D02*
D03*
X328028Y316249D02*
D03*
X318028Y296249D02*
D03*
X328028Y276249D02*
D03*
X318028Y176249D02*
D03*
X328028Y156249D02*
D03*
X318028Y136249D02*
D03*
X328028Y116249D02*
D03*
X318028Y96249D02*
D03*
X328028Y76249D02*
D03*
X318028Y56249D02*
D03*
X328028Y36249D02*
D03*
X318028Y16249D02*
D03*
X298028Y376249D02*
D03*
X308028Y356249D02*
D03*
X298028Y336249D02*
D03*
X308028Y316249D02*
D03*
X298028Y296249D02*
D03*
X308028Y276249D02*
D03*
X298028Y176249D02*
D03*
X308028Y156249D02*
D03*
X298028Y136249D02*
D03*
X308028Y116249D02*
D03*
X298028Y96249D02*
D03*
X308028Y76249D02*
D03*
X298028Y56249D02*
D03*
X308028Y36249D02*
D03*
X298028Y16249D02*
D03*
X278028Y376249D02*
D03*
X288028Y356249D02*
D03*
X278028Y336249D02*
D03*
X288028Y316249D02*
D03*
X278028Y296249D02*
D03*
X288028Y276249D02*
D03*
X278028Y176249D02*
D03*
X288028Y156249D02*
D03*
X278028Y136249D02*
D03*
X288028Y116249D02*
D03*
X278028Y96249D02*
D03*
X288028Y76249D02*
D03*
X278028Y56249D02*
D03*
X288028Y36249D02*
D03*
X278028Y16249D02*
D03*
X258028Y376249D02*
D03*
X268028Y356249D02*
D03*
X258028Y336249D02*
D03*
X268028Y316249D02*
D03*
X258028Y296249D02*
D03*
X268028Y276249D02*
D03*
X258028Y176249D02*
D03*
X268028Y156249D02*
D03*
X258028Y136249D02*
D03*
X268028Y116249D02*
D03*
X258028Y96249D02*
D03*
X268028Y76249D02*
D03*
X258028Y56249D02*
D03*
X268028Y36249D02*
D03*
X258028Y16249D02*
D03*
X238028Y376249D02*
D03*
X248028Y356249D02*
D03*
X238028Y336249D02*
D03*
X248028Y316249D02*
D03*
X238028Y296249D02*
D03*
X248028Y276249D02*
D03*
X238028Y176249D02*
D03*
X248028Y156249D02*
D03*
X238028Y136249D02*
D03*
X248028Y116249D02*
D03*
X238028Y96249D02*
D03*
X248028Y76249D02*
D03*
X238028Y56249D02*
D03*
X248028Y36249D02*
D03*
X238028Y16249D02*
D03*
X218028Y376249D02*
D03*
X228028Y356249D02*
D03*
X218028Y336249D02*
D03*
X228028Y316249D02*
D03*
X218028Y296249D02*
D03*
X228028Y276249D02*
D03*
X218028Y176249D02*
D03*
X228028Y156249D02*
D03*
X218028Y136249D02*
D03*
X228028Y116249D02*
D03*
X218028Y96249D02*
D03*
X228028Y76249D02*
D03*
X218028Y56249D02*
D03*
X228028Y36249D02*
D03*
X218028Y16249D02*
D03*
X198028Y376249D02*
D03*
X208028Y356249D02*
D03*
X198028Y336249D02*
D03*
X208028Y316249D02*
D03*
X198028Y296249D02*
D03*
X208028Y276249D02*
D03*
X198028Y176249D02*
D03*
X208028Y156249D02*
D03*
X198028Y136249D02*
D03*
X208028Y116249D02*
D03*
X198028Y96249D02*
D03*
X208028Y76249D02*
D03*
X198028Y56249D02*
D03*
X208028Y36249D02*
D03*
X198028Y16249D02*
D03*
X178028Y376249D02*
D03*
X188028Y356249D02*
D03*
X178028Y336249D02*
D03*
X188028Y316249D02*
D03*
X178028Y296249D02*
D03*
X188028Y276249D02*
D03*
X178028Y176249D02*
D03*
X188028Y156249D02*
D03*
X178028Y136249D02*
D03*
X188028Y116249D02*
D03*
X178028Y96249D02*
D03*
X188028Y76249D02*
D03*
X178028Y56249D02*
D03*
X188028Y36249D02*
D03*
X178028Y16249D02*
D03*
X158028Y376249D02*
D03*
X168028Y356249D02*
D03*
Y316249D02*
D03*
X158028Y296249D02*
D03*
X168028Y276249D02*
D03*
X158028Y176249D02*
D03*
X168028Y156249D02*
D03*
X158028Y136249D02*
D03*
X168028Y116249D02*
D03*
X158028Y96249D02*
D03*
X168028Y76249D02*
D03*
X158028Y56249D02*
D03*
X168028Y36249D02*
D03*
X158028Y16249D02*
D03*
X148028Y316249D02*
D03*
X138028Y296249D02*
D03*
X148028Y276249D02*
D03*
X138028Y176249D02*
D03*
X148028Y156249D02*
D03*
X138028Y136249D02*
D03*
X148028Y116249D02*
D03*
X138028Y96249D02*
D03*
X148028Y76249D02*
D03*
X138028Y56249D02*
D03*
X148028Y36249D02*
D03*
X138028Y16249D02*
D03*
X128028Y316249D02*
D03*
X118028Y296249D02*
D03*
X128028Y276249D02*
D03*
X118028Y176249D02*
D03*
X128028Y156249D02*
D03*
X118028Y136249D02*
D03*
X128028Y116249D02*
D03*
X118028Y96249D02*
D03*
X128028Y76249D02*
D03*
X118028Y56249D02*
D03*
X128028Y36249D02*
D03*
X118028Y16249D02*
D03*
X108028Y276249D02*
D03*
X98028Y176249D02*
D03*
X108028Y156249D02*
D03*
X98028Y136249D02*
D03*
X108028Y116249D02*
D03*
X98028Y96249D02*
D03*
X108028Y76249D02*
D03*
X98028Y56249D02*
D03*
X108028Y36249D02*
D03*
X98028Y16249D02*
D03*
X78028Y336249D02*
D03*
X88028Y276249D02*
D03*
X78028Y176249D02*
D03*
X88028Y156249D02*
D03*
X78028Y136249D02*
D03*
X88028Y116249D02*
D03*
Y76249D02*
D03*
X78028Y56249D02*
D03*
X88028Y36249D02*
D03*
X78028Y16249D02*
D03*
X58028Y376249D02*
D03*
X68028Y356249D02*
D03*
X58028Y336249D02*
D03*
X68028Y316249D02*
D03*
Y276249D02*
D03*
Y156249D02*
D03*
Y116249D02*
D03*
X58028Y96249D02*
D03*
X68028Y76249D02*
D03*
X58028Y56249D02*
D03*
X68028Y36249D02*
D03*
X58028Y16249D02*
D03*
X38028Y376249D02*
D03*
Y336249D02*
D03*
X48028Y316249D02*
D03*
Y276249D02*
D03*
Y76249D02*
D03*
X38028Y56249D02*
D03*
X48028Y36249D02*
D03*
X38028Y16249D02*
D03*
X18028Y376249D02*
D03*
Y336249D02*
D03*
X28028Y316249D02*
D03*
X18028Y296249D02*
D03*
X28028Y276249D02*
D03*
X18028Y176249D02*
D03*
Y96249D02*
D03*
X28028Y76249D02*
D03*
X18028Y56249D02*
D03*
X28028Y36249D02*
D03*
X18028Y16249D02*
D03*
X8028Y356249D02*
D03*
Y316249D02*
D03*
X-1972Y176249D02*
D03*
X8028Y116249D02*
D03*
Y76249D02*
D03*
Y36249D02*
D03*
X-21972Y176249D02*
D03*
X-11972Y116249D02*
D03*
X-31972D02*
D03*
X-30500Y202000D02*
D03*
Y208313D02*
D03*
Y214625D02*
D03*
Y220937D02*
D03*
Y227250D02*
D03*
Y233562D02*
D03*
Y239875D02*
D03*
Y246187D02*
D03*
Y252500D02*
D03*
X-40500Y280500D02*
D03*
X-40419Y278211D02*
D03*
Y269749D02*
D03*
X460405Y351000D02*
D03*
X460161Y311000D02*
D03*
X460405Y271000D02*
D03*
Y231000D02*
D03*
Y190000D02*
D03*
X459905Y150500D02*
D03*
X460500Y110500D02*
D03*
X426500Y299000D02*
D03*
X431000Y327500D02*
D03*
X426500Y338500D02*
D03*
X430500Y367617D02*
D03*
X431000Y287000D02*
D03*
X426000Y259000D02*
D03*
X431000Y247500D02*
D03*
X426000Y218500D02*
D03*
X-41500Y264531D02*
D03*
Y258232D02*
D03*
Y251933D02*
D03*
Y245634D02*
D03*
Y239335D02*
D03*
Y233035D02*
D03*
Y226736D02*
D03*
Y220437D02*
D03*
Y214138D02*
D03*
Y207839D02*
D03*
Y201539D02*
D03*
Y182642D02*
D03*
Y176342D02*
D03*
Y170043D02*
D03*
Y163744D02*
D03*
Y157445D02*
D03*
Y151146D02*
D03*
Y141697D02*
D03*
X431000Y207247D02*
D03*
X426000Y178113D02*
D03*
X431000Y167247D02*
D03*
X426500Y138113D02*
D03*
X431500Y127117D02*
D03*
X426500Y98000D02*
D03*
X440826Y342421D02*
D03*
Y302420D02*
D03*
Y262421D02*
D03*
Y222421D02*
D03*
Y182050D02*
D03*
Y142050D02*
D03*
X440920Y101920D02*
D03*
X419747Y358295D02*
D03*
Y318295D02*
D03*
Y278294D02*
D03*
Y238295D02*
D03*
Y197924D02*
D03*
Y157924D02*
D03*
X419842Y117795D02*
D03*
X419591Y77694D02*
D03*
X431000Y87017D02*
D03*
X438224Y65776D02*
D03*
X426180Y61821D02*
D03*
X-41500Y132248D02*
D03*
Y116500D02*
D03*
X463000Y61000D02*
D03*
X466000Y35000D02*
D03*
X-27500Y193300D02*
D03*
X442550Y83450D02*
D03*
X439000Y107482D02*
D03*
X442500Y123500D02*
D03*
X439000Y147706D02*
D03*
X442500Y163680D02*
D03*
X438794Y187500D02*
D03*
X442500Y203680D02*
D03*
X439424Y228500D02*
D03*
X442500Y244050D02*
D03*
X438924Y268000D02*
D03*
X442500Y284050D02*
D03*
X438924Y307847D02*
D03*
X442500Y324050D02*
D03*
X438249Y347500D02*
D03*
X442500Y364050D02*
D03*
X-39000Y274000D02*
D03*
X-41500D02*
D03*
X-28500Y108000D02*
D03*
X86190Y342885D02*
D03*
Y347216D02*
D03*
X90521Y342885D02*
D03*
Y347216D02*
D03*
X94852Y342885D02*
D03*
Y347216D02*
D03*
M02*
