M48
;Layer_Color=9474304
;FILE_FORMAT=2:5
INCH,TZ
;TYPE=PLATED
T1F00S00C0.01181
T2F00S00C0.04000
T3F00S00C0.04134
%
T01
X210236Y11024
X211417Y26772
X215469Y27051
X205118Y31890
Y40945
X217716Y40945
X212992Y51575
X192224Y40945
Y31102
X225590Y32283
X229921Y19685
X235433Y11024
X240158Y11811
X244882Y15748
X266929Y14961
X259449Y32283
X259547Y40945
X272441Y40551
X283449Y41339
X286598
X282283Y32283
Y27559
X268504Y51575
X227559Y5512
X307874Y11024
X297244Y22441
X302756Y31890
X292520Y40551
X354331Y44488
X397539Y47244
X420276Y46654
Y40748
Y34449
Y28543
Y22244
Y16339
X449606Y14961
Y26772
X451181Y43307
X449213Y50787
X500787Y50787
Y40945
Y31102
Y60630
Y70472
Y80315
Y90158
Y100000
Y109843
Y131102
Y140945
Y150787
Y160630
Y170473
Y180315
Y190157
Y200000
X452756Y201575
X453543Y188976
Y176772
X450000Y160630
X453543Y152756
X453937Y140157
X450000Y124016
Y112205
X449606Y99606
X453543Y92126
Y79921
Y67716
X420276Y65158
Y71063
Y77362
Y83268
Y89567
Y95472
Y101772
Y107677
Y113976
Y119882
Y126181
Y132087
Y138386
Y144291
Y150591
Y156496
Y162795
Y168701
Y175000
Y180905
Y187205
Y193110
Y199409
Y205315
X397638Y199213
X390551Y198425
X397539Y189764
X359055Y187795
X364173Y180315
X338583Y190551
X326772Y182677
X318504Y171260
X305511Y166141
X311024Y159843
X313779Y146457
X313386Y139769
X301599Y137795
X298449
X292520Y139370
X287795Y129921
X293449Y109055
X296599
X310236Y112598
X307087Y116535
X305118Y98425
X307480Y89764
X301599Y89370
X298449
X292520Y89764
X287795Y81496
X293449Y60630
X296599
X307087
X307874Y68504
X344882Y74016
X348819Y78740
X358267Y66535
X390945Y61417
X397539Y55905
Y70866
Y79528
X384350Y80512
X390945Y113779
X397539Y114567
Y123228
X397933Y138189
Y146850
X390945Y147244
X358268Y133465
X346457Y139370
Y143307
X353937Y112205
X296599Y157480
X293449
X287795Y178346
X292520Y187008
X298449Y186614
X301599
X307480Y187402
X305512Y195276
X307087Y206299
X287402Y205906
X420276Y58858
Y52953
X282283Y69685
X279134
X282677Y81496
X272441Y90551
X259547Y90157
X259449Y81496
X269291Y102756
X272441Y109055
X279134Y117717
X282283
X282677Y129921
X272441Y137795
X259547Y138976
Y130217
X253937Y108268
X244094Y111811
X240158Y117323
X225197Y129134
X214960Y127952
X210630
X205118Y128740
Y137795
X192224Y138189
Y128346
X206083Y118110
X209232
X214961Y108661
X220079Y109055
X212992Y102756
X228740Y98425
X230315Y89370
X222835Y90158
X225197Y80709
X214232Y79528
X211083
X205118Y80315
Y89370
X192224Y89764
Y79921
X206083Y70079
X209232
X214961Y59449
X220079Y59055
X235433Y57874
X240158Y60630
Y68504
X272441Y59843
X270079Y150000
X272441Y157087
X279134Y166535
X282283
Y178346
X272441Y187008
X259547Y187402
Y178642
X255906Y155905
X244882Y159843
X240158Y165354
X224935Y177953
X214232Y177165
X211083
X205118Y177559
Y186614
X192224Y187008
Y177165
X206083Y166929
X209232
X215354Y156693
X220079Y157087
X212992Y150000
X226772Y146457
X230315Y138976
X222835Y138583
Y187402
X230315Y187402
X228346Y195276
X222835Y199213
X225197Y205905
X220079Y205906
X209232Y205906
X206083
X240158Y206299
X272441Y205905
X270473Y199213
X111811Y196063
X109449Y190551
X113884Y183691
X98901
X99213Y179921
X98819Y173622
X87008Y173622
X86221Y161024
X87795Y146063
X98819Y146260
X99213Y152756
X100393Y156299
X108661Y159843
X108267Y150787
X103740Y115945
X103937Y96063
X93701Y78347
X114961Y78740
X45183Y87888
X34646Y78740
X37795Y112598
X38189Y119685
X42126Y127165
X45276Y107874
X52756Y112598
X49606Y146457
X48819Y158661
X38583Y161024
X35039Y154331
Y182283
X38976Y187795
X48819Y186221
X49575Y173600
X63779Y173228
X60039Y161199
X61811Y189370
X85827Y190157
X31890Y197244
X-3937Y188976
Y181102
Y173228
Y165354
Y157480
Y149606
Y141732
X-7874Y128347
X-25197Y122835
X-3937Y208661
X-31854Y207839
X-31461Y201539
X-31496Y182677
X-31067Y176343
X-31854Y170043
X-33823Y163744
X-35398Y157445
X-36972Y151146
X-37402Y141732
X-37008Y132283
Y116535
X-31067Y214138
X-31067Y220437
Y226736
X-31067Y233035
Y239335
Y245634
X-31067Y251933
X-31890Y261417
X-34646
X-37498Y261382
X-40157Y261417
X-39370Y264567
X-40157Y267681
X-37498Y267681
X-34646Y267717
X-31890
X-28740
X-26020Y267646
Y261382
X-28740Y261417
X-29134Y274016
X-31890
X-34646
X-37104Y273980
X-39764Y274016
X-39370Y270866
X-36614Y280315
X-31496Y278740
X-25984Y274016
X-39370Y257874
X-3937Y255906
Y263780
Y248031
Y240157
Y232283
Y224409
Y216535
X38976Y218897
X35039Y225197
X49213Y221260
X49575Y218088
X61811Y218110
X61024Y234252
X49575Y233049
X47606Y244882
X48819Y248031
X38583
X39370Y244882
X35039Y253150
X31890Y268750
X49700Y260608
X99213Y260630
Y253150
Y247244
X108661Y246457
X113386Y250787
X87795Y245669
X86221Y233071
X98819Y233268
X99213Y225984
Y219685
X108770Y217431
X114567Y214173
X85827Y218110
X101575Y272441
X129921Y313386
X45669Y318110
X33071
X142520Y318898
X192224Y322835
X192125Y332283
X205118Y331890
X209842Y333071
X212205Y339764
X221260Y344094
X225197Y351575
X220079Y361024
X209232Y351181
X206083
X205118Y322835
X211023Y321654
X214232
X225197Y324016
X220079Y331890
Y302362
X225197Y302362
X223228Y294488
X218504Y290945
X220079Y283858
X224803Y284251
X225197Y274409
X214232Y273228
X210630
X205118Y274803
X205118Y283858
X192224
Y274016
X205118Y254331
X209232
X220079Y254724
X224803Y254331
X223622Y247638
X218110Y242126
X220079Y235039
X224803Y235826
X225000Y226378
X214232Y224803
X211023
X205118Y226378
Y234646
X192126Y235335
Y225492
X240158Y213386
X259842Y226772
Y235039
X272441Y235039
X270473Y247638
X272441Y254331
X277558Y262204
X277952Y266928
X282677Y270472
X282677Y275197
X272441Y283858
X270473Y294488
X272441Y302362
X277558Y310629
X277952Y315354
X282677Y319291
Y324015
X272441Y331890
X274803Y335827
X270079Y344094
X272441Y351181
X277558Y359054
X277952Y363779
X282677Y359055
X240158Y359055
Y351181
X259449Y331496
X259842Y323622
X240158Y310236
Y303150
X209311Y302362
X206161
X259547Y283858
X255512Y275984
X240158Y262205
X244882Y255906
X282677Y226772
X282677Y222047
X277952Y218503
X277558Y213779
X293701Y215354
X296850
X297749Y224796
X302362Y227559
X307480Y235039
X305906Y242126
X307087Y254331
Y262205
X296457Y264173
X293307
X297638Y274016
X302362Y275590
X292520Y283465
X293701Y312205
X296850
X297638Y322047
X302524Y324118
X301599Y331890
X298449
X292520Y331890
X293307Y361024
X296457
X300787Y360630
X307874Y361417
X313386Y362205
X315613Y364432
X307874Y351181
X287402Y359842
X344882Y355118
X345669Y351969
X358514Y346752
X357480Y325984
X364035Y324154
X368898Y326378
X391339Y326772
X397933Y327165
Y335827
X397244Y350787
Y359449
X405905Y354724
Y351575
X420276Y351771
Y345866
Y339567
Y333661
Y327362
Y321457
Y315157
Y309252
Y302953
Y297047
Y290748
Y284842
Y278543
Y272638
Y266338
Y260433
Y254134
Y248228
Y241929
Y236023
Y229724
Y223819
Y217520
Y211614
X397933Y213386
Y222047
X384646Y228740
X402362Y238583
Y245276
X397539Y260630
X390945Y261024
X397539Y269291
X397933Y284252
Y292913
X384350Y293110
X358268Y279921
X345669Y285827
Y289764
X343307Y315748
X339370Y316142
X311811Y307087
X305512Y303150
X320472Y262204
X318202Y259934
X330709Y266142
X336221Y263779
X354331Y257874
X344882Y221260
X345669Y214961
X358267Y209055
X321654Y211811
X323881Y214038
X324410Y221260
X326637Y223487
X307087Y214173
X292520Y235433
X287402Y254724
X437007Y295669
X420276Y358071
Y363976
X449606Y354724
X450000Y342520
X452362Y322441
X453543Y285827
X450000Y270079
X450217Y261417
X453150Y249606
X449606Y233465
Y221654
X450000Y209055
X500787Y232283
Y242815
Y252657
Y262500
Y272343
Y292520
Y302362
Y312205
Y322047
Y331890
Y341732
Y351575
Y361417
X496850Y383465
X478346Y381890
X464173Y381004
Y378543
Y376083
Y373622
Y383465
X449606Y366929
X420276Y370275
Y376181
X384062Y372251
X300000Y370020
X297638Y367756
X292520Y379921
X282524Y372899
X282677Y367717
X272047Y380709
X259449Y379921
X259547Y371949
X225266Y372372
X214515Y370413
X211083Y370079
X205118Y371260
X192520
Y381102
X220079Y382677
Y387402
X143228Y370787
X131437
X119685Y370866
X52677Y371575
X40886
X29134Y371654
T02
X522967Y20660
Y30660
Y40660
Y50660
X532967
Y40660
Y30660
Y20660
Y60660
X522967
Y70660
Y80660
Y90660
Y100660
Y110660
Y120660
Y130660
Y140660
Y150660
Y160660
Y170660
Y180660
Y190660
Y200660
X532967
Y190660
Y180660
Y170660
Y160660
Y150660
Y140660
Y130660
Y120660
Y110660
Y100660
Y90660
Y80660
Y70660
X325197Y74803
X185039Y77953
X134646Y85039
X134562Y158453
X91929Y65945
X-1575Y200787
X14090Y299398
X145669Y358268
X134562Y210422
X325197Y288189
X522967Y292660
X532967
Y302660
Y312660
Y322660
Y332660
Y342660
Y352660
Y362660
X522967
Y352660
Y342660
Y332660
Y322660
Y312660
Y302660
Y282660
X532967
Y272660
Y262660
Y252660
Y242660
Y232660
X522967
Y242660
Y252660
Y262660
Y272660
Y210660
X532967
Y372660
X522967
T03
X78976Y346457
X88976
X98976
M30
