G04*
G04 #@! TF.GenerationSoftware,Altium Limited,Altium Designer,19.1.8 (144)*
G04*
G04 Layer_Color=16711935*
%FSLAX25Y25*%
%MOIN*%
G70*
G01*
G75*
%ADD14C,0.01000*%
%ADD15C,0.01181*%
G36*
X555326Y117059D02*
X555319D01*
X555306D01*
X555280D01*
X555240Y117052D01*
X555201Y117046D01*
X555155D01*
X555044Y117026D01*
X554925Y117007D01*
X554807Y116967D01*
X554702Y116928D01*
X554657Y116902D01*
X554617Y116869D01*
X554610Y116862D01*
X554591Y116836D01*
X554558Y116797D01*
X554525Y116744D01*
X554486Y116672D01*
X554460Y116593D01*
X554433Y116495D01*
X554427Y116390D01*
Y116351D01*
X554433Y116311D01*
X554440Y116252D01*
X554453Y116193D01*
X554466Y116128D01*
X554493Y116062D01*
X554525Y115996D01*
X554532Y115990D01*
X554545Y115970D01*
X554571Y115944D01*
X554597Y115904D01*
X554643Y115872D01*
X554689Y115832D01*
X554742Y115799D01*
X554807Y115773D01*
X554814D01*
X554840Y115760D01*
X554886Y115754D01*
X554945Y115741D01*
X555024Y115727D01*
X555122Y115721D01*
X555240Y115708D01*
X555378D01*
X558507D01*
Y115104D01*
X555411D01*
X555404D01*
X555385D01*
X555358D01*
X555319D01*
X555267Y115111D01*
X555214D01*
X555089Y115124D01*
X554945Y115137D01*
X554794Y115163D01*
X554657Y115203D01*
X554525Y115249D01*
X554519D01*
X554512Y115255D01*
X554473Y115275D01*
X554420Y115307D01*
X554348Y115354D01*
X554276Y115419D01*
X554197Y115491D01*
X554118Y115583D01*
X554053Y115688D01*
X554046Y115701D01*
X554027Y115741D01*
X554001Y115799D01*
X553974Y115885D01*
X553941Y115990D01*
X553915Y116108D01*
X553896Y116239D01*
X553889Y116383D01*
Y116442D01*
X553896Y116482D01*
X553902Y116534D01*
X553909Y116587D01*
X553935Y116725D01*
X553974Y116869D01*
X554033Y117020D01*
X554073Y117098D01*
X554118Y117171D01*
X554171Y117236D01*
X554230Y117302D01*
X554237Y117308D01*
X554243Y117315D01*
X554269Y117328D01*
X554296Y117348D01*
X554328Y117374D01*
X554374Y117400D01*
X554427Y117426D01*
X554486Y117459D01*
X554552Y117485D01*
X554630Y117512D01*
X554709Y117538D01*
X554801Y117564D01*
X554899Y117577D01*
X555011Y117597D01*
X555122Y117604D01*
X555247D01*
X555326Y117059D01*
D02*
G37*
G36*
X557385Y113917D02*
X557399Y113904D01*
X557405Y113877D01*
X557425Y113845D01*
X557444Y113805D01*
X557471Y113759D01*
X557536Y113648D01*
X557609Y113517D01*
X557700Y113385D01*
X557805Y113248D01*
X557917Y113110D01*
X557923Y113103D01*
X557930Y113097D01*
X557950Y113077D01*
X557969Y113051D01*
X558035Y112992D01*
X558114Y112913D01*
X558205Y112834D01*
X558310Y112749D01*
X558415Y112677D01*
X558527Y112611D01*
Y112251D01*
X553968D01*
Y112808D01*
X557517D01*
X557510Y112815D01*
X557484Y112848D01*
X557444Y112887D01*
X557399Y112952D01*
X557339Y113025D01*
X557274Y113117D01*
X557202Y113222D01*
X557130Y113340D01*
Y113346D01*
X557123Y113353D01*
X557097Y113392D01*
X557064Y113458D01*
X557025Y113536D01*
X556979Y113628D01*
X556933Y113727D01*
X556887Y113825D01*
X556847Y113923D01*
X557385D01*
Y113917D01*
D02*
G37*
G36*
X555326Y304059D02*
X555319D01*
X555306D01*
X555280D01*
X555240Y304052D01*
X555201Y304046D01*
X555155D01*
X555044Y304026D01*
X554925Y304007D01*
X554807Y303967D01*
X554702Y303928D01*
X554657Y303902D01*
X554617Y303869D01*
X554610Y303862D01*
X554591Y303836D01*
X554558Y303797D01*
X554525Y303744D01*
X554486Y303672D01*
X554460Y303593D01*
X554433Y303495D01*
X554427Y303390D01*
Y303351D01*
X554433Y303311D01*
X554440Y303252D01*
X554453Y303193D01*
X554466Y303128D01*
X554493Y303062D01*
X554525Y302996D01*
X554532Y302990D01*
X554545Y302970D01*
X554571Y302944D01*
X554597Y302905D01*
X554643Y302872D01*
X554689Y302832D01*
X554742Y302800D01*
X554807Y302773D01*
X554814D01*
X554840Y302760D01*
X554886Y302754D01*
X554945Y302741D01*
X555024Y302727D01*
X555122Y302721D01*
X555240Y302708D01*
X555378D01*
X558507D01*
Y302104D01*
X555411D01*
X555404D01*
X555385D01*
X555358D01*
X555319D01*
X555267Y302111D01*
X555214D01*
X555089Y302124D01*
X554945Y302137D01*
X554794Y302163D01*
X554657Y302203D01*
X554525Y302249D01*
X554519D01*
X554512Y302255D01*
X554473Y302275D01*
X554420Y302308D01*
X554348Y302354D01*
X554276Y302419D01*
X554197Y302491D01*
X554118Y302583D01*
X554053Y302688D01*
X554046Y302701D01*
X554027Y302741D01*
X554001Y302800D01*
X553974Y302885D01*
X553941Y302990D01*
X553915Y303108D01*
X553896Y303239D01*
X553889Y303383D01*
Y303442D01*
X553896Y303482D01*
X553902Y303534D01*
X553909Y303587D01*
X553935Y303725D01*
X553974Y303869D01*
X554033Y304020D01*
X554073Y304098D01*
X554118Y304171D01*
X554171Y304236D01*
X554230Y304302D01*
X554237Y304308D01*
X554243Y304315D01*
X554269Y304328D01*
X554296Y304348D01*
X554328Y304374D01*
X554374Y304400D01*
X554427Y304426D01*
X554486Y304459D01*
X554552Y304486D01*
X554630Y304512D01*
X554709Y304538D01*
X554801Y304564D01*
X554899Y304577D01*
X555011Y304597D01*
X555122Y304604D01*
X555247D01*
X555326Y304059D01*
D02*
G37*
G36*
X557385Y300917D02*
X557399Y300904D01*
X557405Y300877D01*
X557425Y300845D01*
X557444Y300805D01*
X557471Y300759D01*
X557536Y300648D01*
X557609Y300517D01*
X557700Y300385D01*
X557805Y300248D01*
X557917Y300110D01*
X557923Y300103D01*
X557930Y300097D01*
X557950Y300077D01*
X557969Y300051D01*
X558035Y299992D01*
X558114Y299913D01*
X558205Y299834D01*
X558310Y299749D01*
X558415Y299677D01*
X558527Y299611D01*
Y299251D01*
X553968D01*
Y299808D01*
X557517D01*
X557510Y299815D01*
X557484Y299848D01*
X557444Y299887D01*
X557399Y299953D01*
X557339Y300025D01*
X557274Y300116D01*
X557202Y300221D01*
X557130Y300340D01*
Y300346D01*
X557123Y300353D01*
X557097Y300392D01*
X557064Y300458D01*
X557025Y300536D01*
X556979Y300628D01*
X556933Y300727D01*
X556887Y300825D01*
X556847Y300923D01*
X557385D01*
Y300917D01*
D02*
G37*
G36*
X85722Y206013D02*
X85774D01*
X85834Y206007D01*
X85899Y205993D01*
X85978Y205974D01*
X86057Y205954D01*
X86148Y205928D01*
X86240Y205895D01*
X86332Y205856D01*
X86430Y205803D01*
X86522Y205744D01*
X86614Y205679D01*
X86706Y205600D01*
X86791Y205508D01*
X86798Y205501D01*
X86811Y205482D01*
X86831Y205455D01*
X86857Y205410D01*
X86896Y205350D01*
X86929Y205285D01*
X86968Y205200D01*
X87008Y205108D01*
X87054Y204996D01*
X87093Y204872D01*
X87126Y204734D01*
X87159Y204583D01*
X87191Y204413D01*
X87211Y204229D01*
X87224Y204032D01*
X87231Y203822D01*
Y203816D01*
Y203809D01*
Y203789D01*
Y203763D01*
X87224Y203697D01*
Y203606D01*
X87218Y203501D01*
X87204Y203376D01*
X87191Y203238D01*
X87172Y203087D01*
X87146Y202937D01*
X87113Y202772D01*
X87073Y202615D01*
X87027Y202458D01*
X86968Y202307D01*
X86903Y202162D01*
X86831Y202025D01*
X86745Y201906D01*
X86739Y201900D01*
X86726Y201887D01*
X86699Y201861D01*
X86667Y201821D01*
X86627Y201782D01*
X86575Y201743D01*
X86509Y201690D01*
X86444Y201644D01*
X86365Y201598D01*
X86280Y201546D01*
X86181Y201506D01*
X86083Y201461D01*
X85971Y201428D01*
X85853Y201401D01*
X85729Y201388D01*
X85597Y201382D01*
X85545D01*
X85505Y201388D01*
X85460D01*
X85407Y201395D01*
X85282Y201421D01*
X85145Y201454D01*
X85000Y201506D01*
X84856Y201585D01*
X84784Y201631D01*
X84718Y201683D01*
X84712Y201690D01*
X84705Y201697D01*
X84685Y201716D01*
X84666Y201736D01*
X84633Y201769D01*
X84607Y201808D01*
X84535Y201900D01*
X84462Y202018D01*
X84397Y202162D01*
X84338Y202326D01*
X84298Y202510D01*
X84856Y202556D01*
Y202549D01*
X84863Y202543D01*
X84869Y202503D01*
X84889Y202445D01*
X84915Y202372D01*
X84941Y202294D01*
X84981Y202215D01*
X85027Y202143D01*
X85072Y202084D01*
X85086Y202070D01*
X85112Y202044D01*
X85158Y202005D01*
X85223Y201959D01*
X85309Y201920D01*
X85400Y201880D01*
X85512Y201854D01*
X85630Y201841D01*
X85676D01*
X85729Y201848D01*
X85788Y201861D01*
X85866Y201880D01*
X85945Y201906D01*
X86024Y201939D01*
X86102Y201992D01*
X86116Y201998D01*
X86148Y202025D01*
X86194Y202070D01*
X86253Y202136D01*
X86319Y202215D01*
X86391Y202307D01*
X86457Y202425D01*
X86522Y202556D01*
Y202562D01*
X86529Y202576D01*
X86535Y202595D01*
X86549Y202622D01*
X86555Y202661D01*
X86568Y202707D01*
X86581Y202759D01*
X86594Y202825D01*
X86614Y202897D01*
X86627Y202976D01*
X86640Y203061D01*
X86647Y203153D01*
X86660Y203258D01*
X86667Y203363D01*
X86673Y203481D01*
Y203599D01*
X86667Y203592D01*
X86640Y203553D01*
X86594Y203501D01*
X86535Y203435D01*
X86470Y203356D01*
X86384Y203284D01*
X86293Y203212D01*
X86188Y203146D01*
X86181D01*
X86175Y203140D01*
X86135Y203120D01*
X86076Y203100D01*
X85997Y203068D01*
X85906Y203041D01*
X85801Y203022D01*
X85689Y203002D01*
X85571Y202995D01*
X85519D01*
X85479Y203002D01*
X85427Y203009D01*
X85374Y203015D01*
X85309Y203028D01*
X85243Y203048D01*
X85092Y203094D01*
X85014Y203127D01*
X84935Y203173D01*
X84856Y203219D01*
X84771Y203271D01*
X84692Y203337D01*
X84620Y203409D01*
X84613Y203415D01*
X84600Y203429D01*
X84580Y203448D01*
X84561Y203481D01*
X84528Y203527D01*
X84495Y203573D01*
X84462Y203632D01*
X84423Y203697D01*
X84384Y203770D01*
X84351Y203848D01*
X84318Y203940D01*
X84285Y204032D01*
X84266Y204130D01*
X84246Y204242D01*
X84233Y204353D01*
X84226Y204471D01*
Y204478D01*
Y204491D01*
Y204511D01*
Y204544D01*
X84233Y204583D01*
Y204622D01*
X84253Y204727D01*
X84272Y204852D01*
X84305Y204983D01*
X84351Y205128D01*
X84417Y205265D01*
Y205272D01*
X84423Y205278D01*
X84436Y205298D01*
X84449Y205324D01*
X84489Y205390D01*
X84548Y205475D01*
X84620Y205567D01*
X84705Y205659D01*
X84810Y205751D01*
X84922Y205829D01*
X84928D01*
X84935Y205836D01*
X84954Y205849D01*
X84981Y205856D01*
X85046Y205889D01*
X85132Y205921D01*
X85243Y205961D01*
X85368Y205987D01*
X85505Y206013D01*
X85656Y206020D01*
X85689D01*
X85722Y206013D01*
D02*
G37*
G36*
X89861D02*
X89914D01*
X89979Y206007D01*
X90052Y206000D01*
X90124Y205993D01*
X90288Y205967D01*
X90465Y205928D01*
X90635Y205875D01*
X90799Y205803D01*
X90806D01*
X90819Y205790D01*
X90839Y205777D01*
X90865Y205764D01*
X90937Y205711D01*
X91022Y205639D01*
X91121Y205547D01*
X91213Y205442D01*
X91304Y205311D01*
X91377Y205167D01*
Y205160D01*
X91383Y205147D01*
X91390Y205121D01*
X91403Y205088D01*
X91416Y205049D01*
X91429Y204996D01*
X91449Y204937D01*
X91462Y204865D01*
X91475Y204786D01*
X91495Y204701D01*
X91508Y204609D01*
X91521Y204511D01*
X91534Y204399D01*
X91541Y204281D01*
X91547Y204157D01*
Y204025D01*
Y201401D01*
X90944D01*
Y204025D01*
Y204032D01*
Y204052D01*
Y204084D01*
Y204124D01*
X90937Y204170D01*
Y204229D01*
X90931Y204353D01*
X90917Y204498D01*
X90898Y204642D01*
X90872Y204780D01*
X90859Y204839D01*
X90839Y204898D01*
X90832Y204911D01*
X90819Y204944D01*
X90786Y204990D01*
X90747Y205055D01*
X90701Y205121D01*
X90635Y205193D01*
X90557Y205265D01*
X90465Y205324D01*
X90452Y205331D01*
X90419Y205350D01*
X90360Y205370D01*
X90281Y205397D01*
X90189Y205429D01*
X90071Y205449D01*
X89947Y205469D01*
X89809Y205475D01*
X89743D01*
X89704Y205469D01*
X89645D01*
X89586Y205462D01*
X89442Y205436D01*
X89284Y205403D01*
X89133Y205350D01*
X88989Y205278D01*
X88923Y205233D01*
X88864Y205180D01*
X88858Y205173D01*
X88851Y205167D01*
X88838Y205147D01*
X88818Y205121D01*
X88799Y205082D01*
X88772Y205042D01*
X88746Y204983D01*
X88720Y204924D01*
X88694Y204852D01*
X88674Y204767D01*
X88648Y204668D01*
X88628Y204563D01*
X88608Y204445D01*
X88595Y204321D01*
X88582Y204176D01*
Y204025D01*
Y201401D01*
X87979D01*
Y204025D01*
Y204032D01*
Y204058D01*
Y204091D01*
Y204137D01*
X87985Y204196D01*
Y204262D01*
X87992Y204340D01*
X87998Y204419D01*
X88018Y204596D01*
X88044Y204780D01*
X88084Y204957D01*
X88110Y205042D01*
X88136Y205121D01*
Y205128D01*
X88143Y205141D01*
X88156Y205160D01*
X88169Y205187D01*
X88208Y205259D01*
X88267Y205350D01*
X88346Y205455D01*
X88438Y205560D01*
X88556Y205672D01*
X88700Y205770D01*
X88707D01*
X88720Y205784D01*
X88740Y205790D01*
X88772Y205810D01*
X88812Y205829D01*
X88864Y205849D01*
X88917Y205869D01*
X88982Y205895D01*
X89054Y205921D01*
X89133Y205941D01*
X89218Y205961D01*
X89317Y205980D01*
X89415Y205993D01*
X89520Y206007D01*
X89756Y206020D01*
X89815D01*
X89861Y206013D01*
D02*
G37*
G36*
X83472Y201401D02*
X81688D01*
X81642Y201408D01*
X81589D01*
X81471Y201421D01*
X81340Y201434D01*
X81202Y201461D01*
X81064Y201493D01*
X80940Y201539D01*
X80933D01*
X80927Y201546D01*
X80887Y201565D01*
X80828Y201598D01*
X80763Y201644D01*
X80684Y201703D01*
X80599Y201775D01*
X80520Y201867D01*
X80448Y201966D01*
X80441Y201979D01*
X80422Y202018D01*
X80389Y202070D01*
X80356Y202149D01*
X80323Y202241D01*
X80290Y202340D01*
X80271Y202451D01*
X80264Y202562D01*
Y202576D01*
Y202608D01*
X80271Y202667D01*
X80284Y202740D01*
X80303Y202825D01*
X80336Y202917D01*
X80376Y203009D01*
X80428Y203107D01*
X80435Y203120D01*
X80454Y203146D01*
X80494Y203199D01*
X80546Y203251D01*
X80612Y203317D01*
X80690Y203389D01*
X80789Y203455D01*
X80900Y203520D01*
X80894D01*
X80881Y203527D01*
X80861Y203533D01*
X80835Y203547D01*
X80756Y203573D01*
X80664Y203619D01*
X80566Y203678D01*
X80454Y203750D01*
X80356Y203835D01*
X80264Y203940D01*
X80257Y203953D01*
X80231Y203993D01*
X80192Y204052D01*
X80152Y204130D01*
X80113Y204235D01*
X80074Y204347D01*
X80048Y204478D01*
X80041Y204622D01*
Y204629D01*
Y204636D01*
Y204675D01*
X80048Y204741D01*
X80061Y204819D01*
X80074Y204911D01*
X80100Y205009D01*
X80133Y205114D01*
X80179Y205219D01*
X80185Y205233D01*
X80205Y205265D01*
X80231Y205311D01*
X80271Y205377D01*
X80323Y205442D01*
X80376Y205515D01*
X80441Y205587D01*
X80513Y205646D01*
X80520Y205652D01*
X80546Y205672D01*
X80592Y205698D01*
X80651Y205725D01*
X80723Y205764D01*
X80809Y205803D01*
X80900Y205836D01*
X81012Y205869D01*
X81025D01*
X81064Y205882D01*
X81130Y205889D01*
X81215Y205902D01*
X81320Y205915D01*
X81445Y205928D01*
X81583Y205934D01*
X81740Y205941D01*
X83472D01*
Y201401D01*
D02*
G37*
G36*
X82165Y129401D02*
X81509D01*
X79653Y133941D01*
X80335D01*
X80866Y132563D01*
X82769D01*
X83261Y133941D01*
X83897D01*
X82165Y129401D01*
D02*
G37*
G36*
X85675Y134013D02*
X85727D01*
X85786Y134007D01*
X85852Y133993D01*
X85931Y133974D01*
X86009Y133954D01*
X86101Y133928D01*
X86193Y133895D01*
X86285Y133856D01*
X86383Y133803D01*
X86475Y133744D01*
X86567Y133678D01*
X86659Y133600D01*
X86744Y133508D01*
X86751Y133501D01*
X86764Y133482D01*
X86783Y133456D01*
X86810Y133410D01*
X86849Y133351D01*
X86882Y133285D01*
X86921Y133200D01*
X86961Y133108D01*
X87006Y132996D01*
X87046Y132872D01*
X87079Y132734D01*
X87111Y132583D01*
X87144Y132413D01*
X87164Y132229D01*
X87177Y132032D01*
X87183Y131822D01*
Y131816D01*
Y131809D01*
Y131789D01*
Y131763D01*
X87177Y131697D01*
Y131606D01*
X87170Y131501D01*
X87157Y131376D01*
X87144Y131238D01*
X87125Y131087D01*
X87098Y130937D01*
X87065Y130772D01*
X87026Y130615D01*
X86980Y130458D01*
X86921Y130307D01*
X86856Y130162D01*
X86783Y130025D01*
X86698Y129906D01*
X86691Y129900D01*
X86678Y129887D01*
X86652Y129861D01*
X86619Y129821D01*
X86580Y129782D01*
X86528Y129743D01*
X86462Y129690D01*
X86396Y129644D01*
X86318Y129598D01*
X86232Y129546D01*
X86134Y129506D01*
X86036Y129461D01*
X85924Y129428D01*
X85806Y129401D01*
X85681Y129388D01*
X85550Y129382D01*
X85498D01*
X85458Y129388D01*
X85412D01*
X85360Y129395D01*
X85235Y129421D01*
X85097Y129454D01*
X84953Y129506D01*
X84809Y129585D01*
X84737Y129631D01*
X84671Y129683D01*
X84664Y129690D01*
X84658Y129697D01*
X84638Y129716D01*
X84619Y129736D01*
X84586Y129769D01*
X84560Y129808D01*
X84487Y129900D01*
X84415Y130018D01*
X84350Y130162D01*
X84291Y130326D01*
X84251Y130510D01*
X84809Y130556D01*
Y130549D01*
X84815Y130543D01*
X84822Y130503D01*
X84842Y130445D01*
X84868Y130372D01*
X84894Y130294D01*
X84933Y130215D01*
X84979Y130143D01*
X85025Y130084D01*
X85038Y130070D01*
X85065Y130044D01*
X85111Y130005D01*
X85176Y129959D01*
X85261Y129920D01*
X85353Y129880D01*
X85465Y129854D01*
X85583Y129841D01*
X85629D01*
X85681Y129848D01*
X85740Y129861D01*
X85819Y129880D01*
X85898Y129906D01*
X85976Y129939D01*
X86055Y129992D01*
X86068Y129998D01*
X86101Y130025D01*
X86147Y130070D01*
X86206Y130136D01*
X86272Y130215D01*
X86344Y130307D01*
X86409Y130425D01*
X86475Y130556D01*
Y130562D01*
X86482Y130576D01*
X86488Y130595D01*
X86501Y130622D01*
X86508Y130661D01*
X86521Y130707D01*
X86534Y130759D01*
X86547Y130825D01*
X86567Y130897D01*
X86580Y130976D01*
X86593Y131061D01*
X86600Y131153D01*
X86613Y131258D01*
X86619Y131363D01*
X86626Y131481D01*
Y131599D01*
X86619Y131593D01*
X86593Y131553D01*
X86547Y131501D01*
X86488Y131435D01*
X86423Y131356D01*
X86337Y131284D01*
X86245Y131212D01*
X86141Y131146D01*
X86134D01*
X86127Y131140D01*
X86088Y131120D01*
X86029Y131100D01*
X85950Y131068D01*
X85858Y131041D01*
X85753Y131022D01*
X85642Y131002D01*
X85524Y130996D01*
X85471D01*
X85432Y131002D01*
X85379Y131009D01*
X85327Y131015D01*
X85261Y131028D01*
X85196Y131048D01*
X85045Y131094D01*
X84966Y131127D01*
X84887Y131173D01*
X84809Y131219D01*
X84724Y131271D01*
X84645Y131337D01*
X84573Y131409D01*
X84566Y131415D01*
X84553Y131429D01*
X84533Y131448D01*
X84514Y131481D01*
X84481Y131527D01*
X84448Y131573D01*
X84415Y131632D01*
X84376Y131697D01*
X84337Y131770D01*
X84304Y131848D01*
X84271Y131940D01*
X84238Y132032D01*
X84218Y132130D01*
X84199Y132242D01*
X84186Y132353D01*
X84179Y132472D01*
Y132478D01*
Y132491D01*
Y132511D01*
Y132544D01*
X84186Y132583D01*
Y132622D01*
X84205Y132727D01*
X84225Y132852D01*
X84258Y132983D01*
X84304Y133127D01*
X84369Y133265D01*
Y133272D01*
X84376Y133278D01*
X84389Y133298D01*
X84402Y133324D01*
X84441Y133390D01*
X84500Y133475D01*
X84573Y133567D01*
X84658Y133659D01*
X84763Y133751D01*
X84874Y133829D01*
X84881D01*
X84887Y133836D01*
X84907Y133849D01*
X84933Y133856D01*
X84999Y133888D01*
X85084Y133921D01*
X85196Y133961D01*
X85321Y133987D01*
X85458Y134013D01*
X85609Y134020D01*
X85642D01*
X85675Y134013D01*
D02*
G37*
G36*
X89814D02*
X89867D01*
X89932Y134007D01*
X90004Y134000D01*
X90077Y133993D01*
X90241Y133967D01*
X90418Y133928D01*
X90588Y133875D01*
X90752Y133803D01*
X90759D01*
X90772Y133790D01*
X90791Y133777D01*
X90818Y133764D01*
X90890Y133711D01*
X90975Y133639D01*
X91074Y133547D01*
X91165Y133442D01*
X91257Y133311D01*
X91329Y133167D01*
Y133160D01*
X91336Y133147D01*
X91343Y133121D01*
X91356Y133088D01*
X91369Y133049D01*
X91382Y132996D01*
X91402Y132937D01*
X91415Y132865D01*
X91428Y132786D01*
X91448Y132701D01*
X91461Y132609D01*
X91474Y132511D01*
X91487Y132399D01*
X91493Y132281D01*
X91500Y132157D01*
Y132025D01*
Y129401D01*
X90896D01*
Y132025D01*
Y132032D01*
Y132052D01*
Y132085D01*
Y132124D01*
X90890Y132170D01*
Y132229D01*
X90883Y132353D01*
X90870Y132498D01*
X90851Y132642D01*
X90824Y132780D01*
X90811Y132839D01*
X90791Y132898D01*
X90785Y132911D01*
X90772Y132944D01*
X90739Y132990D01*
X90700Y133055D01*
X90654Y133121D01*
X90588Y133193D01*
X90509Y133265D01*
X90418Y133324D01*
X90404Y133331D01*
X90372Y133351D01*
X90313Y133370D01*
X90234Y133396D01*
X90142Y133429D01*
X90024Y133449D01*
X89899Y133469D01*
X89762Y133475D01*
X89696D01*
X89657Y133469D01*
X89598D01*
X89539Y133462D01*
X89394Y133436D01*
X89237Y133403D01*
X89086Y133351D01*
X88942Y133278D01*
X88876Y133232D01*
X88817Y133180D01*
X88810Y133173D01*
X88804Y133167D01*
X88791Y133147D01*
X88771Y133121D01*
X88751Y133082D01*
X88725Y133042D01*
X88699Y132983D01*
X88673Y132924D01*
X88646Y132852D01*
X88627Y132767D01*
X88600Y132668D01*
X88581Y132563D01*
X88561Y132445D01*
X88548Y132321D01*
X88535Y132176D01*
Y132025D01*
Y129401D01*
X87931D01*
Y132025D01*
Y132032D01*
Y132058D01*
Y132091D01*
Y132137D01*
X87938Y132196D01*
Y132262D01*
X87945Y132340D01*
X87951Y132419D01*
X87971Y132596D01*
X87997Y132780D01*
X88036Y132957D01*
X88063Y133042D01*
X88089Y133121D01*
Y133127D01*
X88095Y133141D01*
X88108Y133160D01*
X88122Y133186D01*
X88161Y133259D01*
X88220Y133351D01*
X88299Y133456D01*
X88391Y133561D01*
X88509Y133672D01*
X88653Y133770D01*
X88660D01*
X88673Y133783D01*
X88692Y133790D01*
X88725Y133810D01*
X88765Y133829D01*
X88817Y133849D01*
X88869Y133869D01*
X88935Y133895D01*
X89007Y133921D01*
X89086Y133941D01*
X89171Y133961D01*
X89270Y133980D01*
X89368Y133993D01*
X89473Y134007D01*
X89709Y134020D01*
X89768D01*
X89814Y134013D01*
D02*
G37*
%LPC*%
G36*
X85663Y205560D02*
X85630D01*
X85604Y205554D01*
X85538Y205547D01*
X85453Y205528D01*
X85361Y205488D01*
X85256Y205442D01*
X85151Y205370D01*
X85099Y205331D01*
X85053Y205278D01*
Y205272D01*
X85040Y205265D01*
X85014Y205226D01*
X84974Y205160D01*
X84922Y205075D01*
X84876Y204963D01*
X84836Y204832D01*
X84810Y204681D01*
X84797Y204504D01*
Y204498D01*
Y204485D01*
Y204458D01*
X84804Y204426D01*
Y204386D01*
X84810Y204340D01*
X84830Y204235D01*
X84856Y204117D01*
X84902Y203993D01*
X84968Y203874D01*
X85053Y203763D01*
X85066Y203750D01*
X85099Y203717D01*
X85151Y203678D01*
X85223Y203625D01*
X85315Y203573D01*
X85420Y203533D01*
X85545Y203501D01*
X85683Y203487D01*
X85722D01*
X85748Y203494D01*
X85814Y203501D01*
X85906Y203520D01*
X86004Y203553D01*
X86116Y203606D01*
X86221Y203671D01*
X86326Y203763D01*
X86339Y203776D01*
X86365Y203809D01*
X86411Y203868D01*
X86457Y203953D01*
X86503Y204052D01*
X86549Y204176D01*
X86575Y204314D01*
X86588Y204471D01*
Y204485D01*
Y204517D01*
X86581Y204576D01*
X86575Y204649D01*
X86562Y204734D01*
X86535Y204826D01*
X86509Y204924D01*
X86470Y205023D01*
X86463Y205036D01*
X86444Y205068D01*
X86417Y205114D01*
X86378Y205173D01*
X86332Y205233D01*
X86273Y205305D01*
X86207Y205364D01*
X86129Y205423D01*
X86116Y205429D01*
X86089Y205442D01*
X86043Y205469D01*
X85984Y205488D01*
X85919Y205515D01*
X85840Y205541D01*
X85755Y205554D01*
X85663Y205560D01*
D02*
G37*
G36*
X82868Y205403D02*
X81576D01*
X81438Y205397D01*
X81379Y205390D01*
X81327Y205383D01*
X81320D01*
X81294Y205377D01*
X81255Y205370D01*
X81209Y205357D01*
X81097Y205318D01*
X80986Y205265D01*
X80979Y205259D01*
X80959Y205246D01*
X80933Y205226D01*
X80900Y205200D01*
X80868Y205160D01*
X80822Y205121D01*
X80789Y205068D01*
X80749Y205009D01*
X80743Y205003D01*
X80736Y204983D01*
X80723Y204944D01*
X80704Y204898D01*
X80684Y204845D01*
X80671Y204780D01*
X80664Y204701D01*
X80658Y204622D01*
Y204609D01*
Y204583D01*
X80664Y204531D01*
X80677Y204471D01*
X80690Y204406D01*
X80717Y204334D01*
X80749Y204262D01*
X80795Y204189D01*
X80802Y204183D01*
X80822Y204157D01*
X80848Y204124D01*
X80887Y204084D01*
X80940Y204039D01*
X81005Y203993D01*
X81077Y203953D01*
X81163Y203921D01*
X81176Y203914D01*
X81202Y203907D01*
X81261Y203894D01*
X81333Y203881D01*
X81425Y203868D01*
X81537Y203855D01*
X81674Y203842D01*
X82868D01*
Y205403D01*
D02*
G37*
G36*
Y203304D02*
X81753D01*
X81668Y203297D01*
X81576Y203291D01*
X81484Y203284D01*
X81392Y203271D01*
X81320Y203258D01*
X81307Y203251D01*
X81281Y203245D01*
X81242Y203225D01*
X81189Y203199D01*
X81137Y203173D01*
X81077Y203133D01*
X81018Y203081D01*
X80972Y203028D01*
X80966Y203022D01*
X80953Y203002D01*
X80933Y202963D01*
X80914Y202917D01*
X80894Y202864D01*
X80874Y202799D01*
X80861Y202720D01*
X80854Y202635D01*
Y202622D01*
Y202595D01*
X80861Y202556D01*
X80868Y202503D01*
X80881Y202438D01*
X80900Y202372D01*
X80927Y202307D01*
X80966Y202241D01*
X80972Y202235D01*
X80986Y202215D01*
X81012Y202182D01*
X81045Y202149D01*
X81091Y202110D01*
X81143Y202070D01*
X81209Y202031D01*
X81281Y202005D01*
X81287D01*
X81320Y201992D01*
X81366Y201985D01*
X81438Y201972D01*
X81537Y201959D01*
X81648Y201953D01*
X81792Y201939D01*
X82868D01*
Y203304D01*
D02*
G37*
G36*
X82591Y132071D02*
X81056D01*
X81529Y130825D01*
Y130818D01*
X81535Y130799D01*
X81549Y130766D01*
X81562Y130727D01*
X81581Y130681D01*
X81601Y130622D01*
X81621Y130556D01*
X81647Y130490D01*
X81699Y130340D01*
X81752Y130182D01*
X81804Y130025D01*
X81850Y129874D01*
Y129880D01*
X81857Y129893D01*
Y129920D01*
X81870Y129946D01*
X81876Y129992D01*
X81890Y130038D01*
X81916Y130149D01*
X81949Y130280D01*
X81995Y130425D01*
X82041Y130582D01*
X82099Y130746D01*
X82591Y132071D01*
D02*
G37*
G36*
X85616Y133561D02*
X85583D01*
X85557Y133554D01*
X85491Y133547D01*
X85406Y133528D01*
X85314Y133488D01*
X85209Y133442D01*
X85104Y133370D01*
X85052Y133331D01*
X85006Y133278D01*
Y133272D01*
X84992Y133265D01*
X84966Y133226D01*
X84927Y133160D01*
X84874Y133075D01*
X84829Y132964D01*
X84789Y132832D01*
X84763Y132681D01*
X84750Y132504D01*
Y132498D01*
Y132485D01*
Y132458D01*
X84756Y132426D01*
Y132386D01*
X84763Y132340D01*
X84783Y132235D01*
X84809Y132117D01*
X84855Y131993D01*
X84920Y131875D01*
X85006Y131763D01*
X85019Y131750D01*
X85052Y131717D01*
X85104Y131678D01*
X85176Y131625D01*
X85268Y131573D01*
X85373Y131533D01*
X85498Y131501D01*
X85635Y131488D01*
X85675D01*
X85701Y131494D01*
X85767Y131501D01*
X85858Y131520D01*
X85957Y131553D01*
X86068Y131606D01*
X86173Y131671D01*
X86278Y131763D01*
X86291Y131776D01*
X86318Y131809D01*
X86364Y131868D01*
X86409Y131953D01*
X86455Y132052D01*
X86501Y132176D01*
X86528Y132314D01*
X86541Y132472D01*
Y132485D01*
Y132517D01*
X86534Y132577D01*
X86528Y132649D01*
X86514Y132734D01*
X86488Y132826D01*
X86462Y132924D01*
X86423Y133022D01*
X86416Y133036D01*
X86396Y133069D01*
X86370Y133114D01*
X86331Y133173D01*
X86285Y133232D01*
X86226Y133305D01*
X86160Y133364D01*
X86081Y133423D01*
X86068Y133429D01*
X86042Y133442D01*
X85996Y133469D01*
X85937Y133488D01*
X85871Y133514D01*
X85793Y133541D01*
X85707Y133554D01*
X85616Y133561D01*
D02*
G37*
%LPD*%
D14*
X-0Y11417D02*
G03*
X11417Y0I11417J0D01*
G01*
X11811Y393701D02*
G03*
X123Y382283I-135J-11552D01*
G01*
X-37953Y185791D02*
G03*
X-37953Y195240I0J4724D01*
G01*
X-27847Y300492D02*
G03*
X-29421Y302067I-1575J0D01*
G01*
X-38791Y284350D02*
G03*
X-34854Y288287I0J3937D01*
G01*
Y105413D02*
G03*
X-38791Y109350I-3937J0D01*
G01*
X-29421Y91634D02*
G03*
X-27847Y93209I0J1575D01*
G01*
Y298130D02*
G03*
X-23910Y294193I3937J0D01*
G01*
Y99508D02*
G03*
X-27847Y95571I0J-3937D01*
G01*
X123Y294193D02*
Y382283D01*
X11811Y393701D02*
X14624D01*
X555601Y77D02*
Y393778D01*
X-51Y294193D02*
X123D01*
X-0Y11417D02*
Y99508D01*
X-51D02*
X-0D01*
X14619Y393701D02*
X555673D01*
X-55408Y195276D02*
X-38004D01*
X-55408Y185827D02*
X-38004D01*
X-58477Y195276D02*
X-55408D01*
X-58477Y185827D02*
X-55408D01*
X-58477Y195276D02*
Y284350D01*
Y109350D02*
Y185827D01*
X-34854Y288287D02*
Y302067D01*
Y91634D02*
Y105413D01*
X-23910Y294193D02*
X-51D01*
X-55408Y284350D02*
X-38791D01*
X-55408Y109350D02*
X-38791D01*
X-23910Y99508D02*
X-51D01*
X-34854Y302067D02*
X-29421D01*
X-58477Y284350D02*
X-55408D01*
X-58477Y109350D02*
X-55408D01*
X-34854Y91634D02*
X-29421D01*
X-27847Y298130D02*
Y300492D01*
Y93209D02*
Y95571D01*
D15*
X11417Y0D02*
X555118D01*
M02*
