G04*
G04 #@! TF.GenerationSoftware,Altium Limited,Altium Designer,19.1.8 (144)*
G04*
G04 Layer_Color=16711935*
%FSLAX25Y25*%
%MOIN*%
G70*
G01*
G75*
%ADD45R,0.11417X0.02559*%
%ADD52C,0.07001*%
%ADD53C,0.06600*%
D45*
X-48976Y113350D02*
D03*
Y116500D02*
D03*
Y119650D02*
D03*
Y122799D02*
D03*
Y125949D02*
D03*
Y129098D02*
D03*
Y132248D02*
D03*
Y135398D02*
D03*
Y138547D02*
D03*
Y141697D02*
D03*
Y144846D02*
D03*
Y147996D02*
D03*
Y151146D02*
D03*
Y154295D02*
D03*
Y157445D02*
D03*
Y160594D02*
D03*
Y163744D02*
D03*
Y166894D02*
D03*
Y170043D02*
D03*
Y173193D02*
D03*
Y176343D02*
D03*
Y179492D02*
D03*
Y182642D02*
D03*
Y198390D02*
D03*
Y201539D02*
D03*
Y204689D02*
D03*
Y207839D02*
D03*
Y210988D02*
D03*
Y214138D02*
D03*
Y217287D02*
D03*
Y220437D02*
D03*
Y223587D02*
D03*
Y226736D02*
D03*
Y229886D02*
D03*
Y233035D02*
D03*
Y236185D02*
D03*
Y239335D02*
D03*
Y242484D02*
D03*
Y245634D02*
D03*
Y248783D02*
D03*
Y251933D02*
D03*
Y255083D02*
D03*
Y258232D02*
D03*
Y261382D02*
D03*
Y264531D02*
D03*
Y267681D02*
D03*
Y270831D02*
D03*
Y273980D02*
D03*
Y277130D02*
D03*
Y280280D02*
D03*
D52*
X98976Y346457D02*
D03*
X88976D02*
D03*
X78976D02*
D03*
D53*
X14567Y42126D02*
D03*
X140551Y74410D02*
D03*
X14567Y283465D02*
D03*
X163386Y345276D02*
D03*
X14567Y107087D02*
D03*
X58268Y300394D02*
D03*
X140551Y221654D02*
D03*
Y157480D02*
D03*
X405512Y66929D02*
D03*
Y141732D02*
D03*
Y216535D02*
D03*
Y283465D02*
D03*
Y358268D02*
D03*
X532967Y210660D02*
D03*
Y200660D02*
D03*
Y190660D02*
D03*
Y180660D02*
D03*
Y170660D02*
D03*
Y160660D02*
D03*
Y150660D02*
D03*
Y140660D02*
D03*
Y130660D02*
D03*
Y120660D02*
D03*
Y110660D02*
D03*
Y100660D02*
D03*
Y90660D02*
D03*
Y80660D02*
D03*
Y70660D02*
D03*
Y60660D02*
D03*
Y50660D02*
D03*
Y40660D02*
D03*
Y30660D02*
D03*
Y20660D02*
D03*
X522967Y210660D02*
D03*
Y200660D02*
D03*
Y190660D02*
D03*
Y180660D02*
D03*
Y170660D02*
D03*
Y160660D02*
D03*
Y150660D02*
D03*
Y140660D02*
D03*
Y130660D02*
D03*
Y120660D02*
D03*
Y110660D02*
D03*
Y100660D02*
D03*
Y90660D02*
D03*
Y80660D02*
D03*
Y70660D02*
D03*
Y60660D02*
D03*
Y50660D02*
D03*
Y40660D02*
D03*
Y30660D02*
D03*
Y20660D02*
D03*
X532967Y372660D02*
D03*
Y362660D02*
D03*
Y352660D02*
D03*
Y342660D02*
D03*
Y332660D02*
D03*
Y322660D02*
D03*
Y312660D02*
D03*
Y302660D02*
D03*
Y292660D02*
D03*
Y282660D02*
D03*
Y272660D02*
D03*
Y262660D02*
D03*
Y252660D02*
D03*
Y242660D02*
D03*
Y232660D02*
D03*
X522967Y372660D02*
D03*
Y362660D02*
D03*
Y352660D02*
D03*
Y342660D02*
D03*
Y332660D02*
D03*
Y322660D02*
D03*
Y312660D02*
D03*
Y302660D02*
D03*
Y292660D02*
D03*
Y282660D02*
D03*
Y272660D02*
D03*
Y262660D02*
D03*
Y252660D02*
D03*
Y242660D02*
D03*
Y232660D02*
D03*
M02*
