G04*
G04 #@! TF.GenerationSoftware,Altium Limited,Altium Designer,19.1.8 (144)*
G04*
G04 Layer_Color=16711935*
%FSLAX25Y25*%
%MOIN*%
G70*
G01*
G75*
%ADD14C,0.01000*%
%ADD15C,0.01181*%
%ADD61C,0.00500*%
D14*
X-0Y11417D02*
G03*
X11417Y0I11417J0D01*
G01*
X11811Y393701D02*
G03*
X123Y382283I-135J-11552D01*
G01*
X-37953Y185791D02*
G03*
X-37953Y195240I0J4724D01*
G01*
X-27847Y300492D02*
G03*
X-29421Y302067I-1575J0D01*
G01*
X-38791Y284350D02*
G03*
X-34854Y288287I0J3937D01*
G01*
Y105413D02*
G03*
X-38791Y109350I-3937J0D01*
G01*
X-29421Y91634D02*
G03*
X-27847Y93209I0J1575D01*
G01*
Y298130D02*
G03*
X-23910Y294193I3937J0D01*
G01*
Y99508D02*
G03*
X-27847Y95571I0J-3937D01*
G01*
X123Y294193D02*
Y382283D01*
X11811Y393701D02*
X14624D01*
X555601Y77D02*
Y393778D01*
X-51Y294193D02*
X123D01*
X-0Y11417D02*
Y99508D01*
X-51D02*
X-0D01*
X14619Y393701D02*
X555673D01*
X-55408Y195276D02*
X-38004D01*
X-55408Y185827D02*
X-38004D01*
X-58477Y195276D02*
X-55408D01*
X-58477Y185827D02*
X-55408D01*
X-58477Y195276D02*
Y284350D01*
Y109350D02*
Y185827D01*
X-34854Y288287D02*
Y302067D01*
Y91634D02*
Y105413D01*
X-23910Y294193D02*
X-51D01*
X-55408Y284350D02*
X-38791D01*
X-55408Y109350D02*
X-38791D01*
X-23910Y99508D02*
X-51D01*
X-34854Y302067D02*
X-29421D01*
X-58477Y284350D02*
X-55408D01*
X-58477Y109350D02*
X-55408D01*
X-34854Y91634D02*
X-29421D01*
X-27847Y298130D02*
Y300492D01*
Y93209D02*
Y95571D01*
D15*
X11417Y0D02*
X555118D01*
D61*
X556967Y116188D02*
X554682D01*
X554253Y116331D01*
X554110Y116474D01*
X553968Y116760D01*
Y117045D01*
X554110Y117331D01*
X554253Y117474D01*
X554682Y117617D01*
X554967D01*
X556396Y115417D02*
X556538Y115131D01*
X556967Y114703D01*
X553968D01*
X556967Y303188D02*
X554682D01*
X554253Y303331D01*
X554110Y303474D01*
X553968Y303760D01*
Y304045D01*
X554110Y304331D01*
X554253Y304474D01*
X554682Y304617D01*
X554967D01*
X556396Y302417D02*
X556538Y302132D01*
X556967Y301703D01*
X553968D01*
M02*
