M48
;Layer_Color=9474304
;FILE_FORMAT=2:5
INCH,TZ
;TYPE=PLATED
T1F00S00C0.01181
T2F00S00C0.01575
T3F00S00C0.04000
T4F00S00C0.04134
%
T01
X7005Y6485
X14879
X22753
X30627
X38501
X46375
X54249
X62123
X69997
X77871
X85745
X93619
X101493
X109367
X117241
X125115
X121178Y14359
X113304
X105430
X97556
X89682
X81808
X85745Y22233
X93619
X101493
X109367
X117241
X125115
X129052Y14359
X77871Y22233
X69997
X62123
X54249
X46375
X38501
X30627
X22753
X14879
X7005
X10942Y14359
X18816
X26690
X34564
X42438
X50312
X58186
X66060
X136926
X144800
X152674
X160548
X168422
X164485Y22233
X156611
X148737
X140863
X132989
Y6485
X140863
X148737
X156611
X164485
X176296Y30107
X180233
X184170
X188107
X192044
X195981
X199918
X197950Y34044
X194013
X190076
X186139
X182202
X178265
X205118Y31890
X210189Y32479
X215189
X225197Y31890
X231414Y30107
X235351
X239288
X243225
X247162
X251099
X255036
X253068Y34044
X249131
X245194
X239961Y44488
X235039Y48228
X230315Y51181
X225197Y40945
X220803Y44790
X205118Y40945
X272441Y40551
Y31496
X282821Y45392
X277559Y50787
X287402Y47244
X292520Y40551
Y32283
X297244Y28150
X302559Y30512
X307523Y42083
X349213Y46063
X354035Y42618
X359449Y46063
X363976Y42520
X374410Y46063
X379134Y42520
X388435Y51181
X442405Y41940
X443389Y26783
X492520Y23228
X500394
X496457Y15354
X500394Y7480
X492520
Y101969
X500394
X496457Y109843
Y125591
X492520Y133465
Y164961
X496457Y188583
X500394Y196457
X492520
X445948Y199027
Y203161
X446145Y193121
Y188988
X445948Y165168
Y161035
X446145Y155129
Y150995
X445948Y115168
Y111035
X446145Y105129
Y100995
X445948Y75208
Y71074
X446145Y65168
Y61035
X388435Y54331
X388287Y74606
X384350Y80512
X374095Y81417
X364173Y81496
X359449Y85039
X369685Y90157
X379527Y90551
X379331Y110039
X374410Y113386
X363779Y109843
X359370Y113465
X353937Y109843
X349134Y113465
X338927Y117126
X333563Y118602
X340945Y134252
X364173Y146457
X359252Y152165
X374016Y148819
X384350Y147047
X388287Y141142
X388435Y121653
Y118504
X423622Y117126
X379527Y157480
X368504Y161811
X363976Y184843
X359449Y188189
X354331Y184646
X349213Y188189
X374410
X379527Y184646
X388435Y193307
Y196457
X307524Y187402
X302912Y178021
X297638Y173622
X297244Y169882
X292323Y167520
X292520Y177953
X287524Y178409
X292520Y187008
X302406Y204724
Y155555
X307567Y140157
X292520Y139370
X294882Y129921
X297524Y128551
X302362Y125984
X302362Y107480
X298031Y100787
X292913Y102362
X287795Y96260
X292520Y90551
Y81496
X297524Y81503
X302524
X307567Y90551
X297524Y68511
X292524
X302384Y59077
X340945Y66929
X287524Y129956
X282524
Y116964
X277524
X272670Y105603
X272441Y90551
X277602Y90551
X282677Y94488
X272441Y81496
X277524Y68511
X282524
X272397Y59055
X235157Y68143
X230157
X225354Y57874
X215354
X210157Y68143
X205157
X205118Y80315
X210157Y81136
X215158
X225197Y80315
Y89370
X220158Y91339
X229921Y96457
Y99606
X235039Y102362
X225354Y106693
X215354
X210157Y116678
X205157
X205118Y128740
X210157Y129670
X215158
X225197Y128740
Y137795
X220158Y139764
X229846Y145331
X225354Y155512
X215354Y153937
X210433Y149016
X204921Y150787
X205118Y137795
X235157Y129670
X240158
X268504Y129921
X272441Y137795
X277559Y140114
Y148622
X282283Y150394
X272441Y153543
X272441Y177953
Y187008
X277559Y187402
X282524Y178409
X272463Y204703
X225157Y203937
X215158
X220158Y188976
X225197Y186614
Y177559
X235157Y178205
X240158
X235157Y165212
X230157
X215158Y178205
X210157
X205118Y177559
Y186614
X230315Y194095
X235157Y81136
X240158
X205118Y89370
X168422Y124595
X160548
X132989Y100973
X136926Y93099
X129052
X121178
Y108847
X117241Y116721
X109367
X103937Y117323
X85745Y116721
X77871
X81808Y108847
X89682
X93619Y100973
X85745
X77871
X81808Y93099
X89682
X97556
X94488Y81102
X89682Y124595
X86811Y146653
X87466Y153841
X87205Y161221
X98819
X97899Y154037
X98819Y146260
Y173622
X98292Y181400
X98197Y188758
X86780
X87859Y181203
X87008Y173622
X60992Y173600
X60497Y181400
X60992Y188758
X49575
X50064Y181203
X49575Y173600
Y161199
X50064Y153644
X49575Y146238
X60992
X60497Y153841
X60992Y161199
X42126Y126772
X47638Y107874
X-25197Y122835
X-20554Y132469
X-24491Y140343
X32677Y197441
Y208268
X111417Y201969
Y197244
X-30709Y200787
Y207480
X-26772Y187008
X-30709Y175984
X-31496Y169685
X-33465Y163386
X-35039Y157087
X-36614Y150787
X-40240Y140343
X-32366
X-28429Y132469
X-36303
X-32366Y124595
X-40240
X-30709Y213779
Y220079
Y226378
Y232677
Y238976
Y245276
Y251575
X-36650Y261382
X-36650Y267681
X-36614Y274016
Y277165
Y280315
X23137Y268331
X29043
X33268Y277165
X49700Y260608
X50064Y253250
X49606Y245669
X61024
X60497Y253447
X61117Y260608
X86614Y260630
X87466Y253250
X86780Y245648
X98197
X97899Y253447
X98622Y260630
X107480Y277165
X109843Y314961
X110236Y319685
X109843Y324016
Y327953
X113779Y329921
Y325984
Y321654
Y317717
X98819Y233268
X97899Y225888
X98394Y218285
X86976
X87466Y225691
X86811Y233268
X60992Y233049
X60630Y225590
X60992Y218089
X49575
X50197Y225394
X49575Y233049
X205118Y234646
Y226378
X210157Y226739
X215158
X225197Y227196
Y234646
X230315Y236220
X235157Y226739
X240158
X235157Y213747
X230157
X210157
X205157
X220079Y240551
X215158Y251968
X225157
X230157Y262281
X235157
Y275274
X240158
X225197Y274410
X226772Y282677
X229921Y285039
X219921Y286645
X215158Y275274
X210157
X201181Y279134
X205118Y283858
X205157Y262281
X210157
X215158Y301181
X225236Y301290
X230236Y310925
X235236
Y323917
X240236
X225197Y322835
Y332677
X230000Y333968
X220000
X215236Y323917
X210236
X205118Y322835
Y331890
X205236Y310925
X210236
X215158Y349606
X225197Y350000
X230157Y359350
X235157
X210157
X205157
X277524Y359228
X282524
X272419Y349978
X272441Y331890
X277559Y332677
X282524Y323768
Y310776
X277524
X272419Y301553
X272441Y283858
X277559Y285039
X282524Y275315
X272441Y274803
X277524Y262323
X282524
X272397Y251968
X277559Y235827
X282524Y226862
X272441Y226378
X267717Y230709
X277524Y213870
X282524
X268110Y327559
X287524Y323768
X291732Y323228
X297524Y323768
X302524
X307524Y332677
X292520Y331890
X292524Y310776
X297524
X302362Y301575
X307480Y285039
X302524Y275315
X297524
X292520Y274803
X287524Y275315
X292520Y283858
X292524Y262323
X297524
X302406Y252012
X302756Y240748
X297244Y242520
X292520Y235433
Y225984
X287524Y226862
X292524Y213870
X297524
X307524Y235827
X359055Y229921
X364173Y223622
X374095Y223543
X379527Y227165
X384350Y221850
X388287Y215945
X368898Y232677
X364173Y255512
X359370Y259134
X354134Y255512
X349134Y259134
X374410Y259055
X379134Y255512
X388435Y264173
Y267323
X388287Y287205
X384350Y293110
X373858Y294646
X364173Y294488
X359154Y297933
X369291Y300787
X379134Y303150
X379331Y322441
X374410Y325984
X363976Y322441
X359449Y325984
X354971Y320079
X349134Y326063
X340945Y346850
X364173Y361417
X374016
X384252Y360236
X388189Y354331
Y333858
Y330709
X340945Y279921
Y209055
X302406Y350043
X297524Y359228
X292524
X446539Y358082
Y353948
X446736Y348042
Y343909
X446145Y315168
Y311035
X446342Y305129
Y300995
X446145Y267137
Y263003
X446342Y257098
Y252964
X492520Y275197
X500394
Y290945
X492520
X496457Y298819
X500394Y338189
X496457Y346063
X500394Y212205
X492520
X491732Y382087
X477953
X464173
X450394Y381890
X505512Y382087
X379193Y375925
X369291Y373622
X359055Y371654
X302524Y372220
X297244Y368110
X292520Y371654
Y379921
X287205Y382480
X307524Y386571
X282677Y379716
X277559Y384646
X268504Y375984
X272441Y372047
X240158Y372343
X235157
X225197Y371260
Y380315
X229921Y383858
X220079Y387402
X215158Y372343
X210157
X205118Y371260
Y380315
X81808Y384438
X77871
X73934
X69997
X66060
X62123
X58186
X54249
X50312
X46375
X42438
X38501
X34564
X30627
X26690
X22753
X18816
X14879
X10942
X7005
X3068
X5036Y388375
X8973
X12910
X16847
X20784
X24721
X28658
X32595
X36532
X40469
X44406
X48343
X52280
X56217
X60154
X64091
X68028
X71965
X75902
X79839
X83776
T02
X430118Y16339
Y22244
Y28543
Y34449
Y40748
Y46654
X449295Y50995
X461260
X473724Y41388
X472887Y30523
X479610Y27373
X480988Y36625
X481098Y57680
X473224Y56974
Y64468
X480594Y67728
X481098Y79944
X473224Y79727
X472633Y89578
X473224Y96934
Y104428
X480791Y107098
X481098Y97640
X481098Y88877
X481098Y119905
X473224Y119687
X473421Y131791
X481098Y128838
X481578Y147750
X473704Y147045
Y154539
X480594Y157852
X481578Y170015
X473704Y169798
X473901Y181901
X473704Y188397
Y196699
X481578Y192280
Y203412
X481578Y178948
X456381Y142727
Y128554
X430118Y126181
Y132087
Y138386
Y144291
Y150590
Y156496
Y162795
Y168701
Y175000
Y180905
Y187205
Y193110
Y199409
Y205315
Y119882
Y113976
Y107677
Y101772
Y95472
Y89567
Y83268
Y77362
Y71063
Y65157
Y58858
Y52953
X337402Y161024
X322835
X190748Y133858
Y119685
Y86221
Y72047
X163189Y142913
Y157087
X118110Y159815
Y154195
Y148574
Y142954
Y137334
Y131713
Y126093
Y120472
X113583Y106299
Y92126
X118110Y165436
Y171056
Y176378
Y182297
Y187917
Y193538
Y199158
Y204779
X28192Y208268
X25984Y194095
X-3937Y188976
Y181102
Y173228
Y165354
Y157480
Y149606
Y141732
X-13780Y145669
Y153543
Y161417
Y169291
Y177165
Y185039
Y192913
X-3937Y208661
X35433Y105512
Y91339
X29921Y70472
Y56299
X-3937Y216535
Y224409
Y232283
Y240157
Y248031
Y255906
Y263780
X-13780Y259843
Y251968
Y244094
Y236220
Y228346
Y220472
Y212598
Y268504
X31496Y344488
X45669
X41339Y362598
X54331
X27165
X117953Y362480
X129134Y344882
X118110Y283464
Y277953
Y272223
Y266603
Y260983
Y255362
Y249742
Y244121
Y238501
Y232881
Y227260
Y221640
Y216019
Y210399
X163189Y213386
Y227559
X163386Y255906
X157480Y262992
X190945Y268504
Y256693
Y355118
X145118Y362480
X132126
X143307Y344882
X430118Y345866
Y351772
Y358071
Y363976
Y339567
Y333661
Y327362
Y321457
Y315157
Y309252
Y302953
Y297047
Y290748
Y284842
Y278543
Y272638
Y266338
Y260433
Y254134
Y248228
Y241929
Y236024
Y229724
Y223819
Y217520
Y211614
X459137Y227767
Y241940
X473704Y238057
X481578Y241153
Y250995
Y259073
Y270205
X473704Y272187
Y263200
Y249434
Y226681
X481578Y225676
Y214544
X473704Y215304
Y283563
X481578Y281337
Y292470
X473704Y294940
X473901Y309460
X481775Y309066
X481578Y314734
X473704Y317693
Y329070
Y340446
X481578Y343712
Y350995
X473704Y351823
Y363199
X481578Y361231
X481381Y333082
X459531Y336035
Y321861
X457169Y295877
X463862Y276979
X430118Y370275
Y376181
X190945Y369291
T03
X14567Y42126
X522967Y40660
X532967
Y50660
X522967
Y30660
X532967
Y20660
X522967
Y60660
X532967
Y70660
Y80660
Y90660
Y100660
Y110660
Y120660
Y130660
Y140660
Y150660
Y160660
Y170660
Y180660
Y190660
Y200660
X522967
Y190660
Y180660
Y170660
Y160660
Y150660
Y140660
Y130660
Y120660
Y110660
Y100660
Y90660
Y80660
Y70660
X405512Y66929
Y141732
X140551Y157480
Y74410
X14567Y107087
Y283465
X58268Y300394
X163386Y345276
X140551Y221654
X405512Y216535
Y283465
Y358268
X522967Y362660
X532967
Y352660
Y342660
Y332660
Y322660
Y312660
Y302660
Y292660
Y282660
Y272660
Y262660
Y252660
Y242660
Y232660
X522967
Y242660
Y252660
Y262660
Y272660
Y282660
Y292660
Y302660
Y312660
Y322660
Y332660
Y342660
Y352660
Y210660
X532967
Y372660
X522967
T04
X78976Y346457
X88976
X98976
M30
