M48
;Layer_Color=9474304
;FILE_FORMAT=2:5
INCH,TZ
;TYPE=PLATED
T1F00S00C0.01181
T2F00S00C0.03150
T3F00S00C0.03500
T4F00S00C0.03543
T5F00S00C0.03800
T6F00S00C0.04000
%
T01
X18028Y16249
X38028
X58028
X78028
X98028
X118028
X128028Y36249
X108028
X88028
X68028
X48028
X28028
X8028
X148028
X168028
X188028
X208028
X228028
X248028
X268028
X278028Y16249
X258028
X238028
X218028
X198028
X178028
X158028
X138028
X298028
X318028
X338028
X358028
X378028
X398028
X418028
X438028
X428028Y36249
X408028
X388028
X368028
X348028
X328028
X308028
X288028
X448028
X466000Y35000
X458028Y16249
Y56249
X463000Y61000
X458028Y96249
X460500Y110500
X458028Y136249
X459905Y150500
X458028Y176249
X460405Y190000
X438794Y187500
X440826Y182050
X438028Y176249
X426000Y178113
X431000Y167247
X442500Y163680
X439000Y147706
X440826Y142050
X438028Y136249
X426500Y138113
X431500Y127117
X442500Y123500
X439000Y107482
X440920Y101920
X438028Y96249
X426500Y98000
X431000Y87017
X442550Y83450
X438224Y65776
X438028Y56249
X426180Y61821
X419591Y77694
X408028Y76249
X388028
Y116249
X408028
X419842Y117795
X419747Y157924
X408028Y156249
X388028
X378028Y176249
X388028Y196249
X408028
X419747Y197924
X431000Y207247
X442500Y203680
X338028Y176249
X318028
X298028
X308028Y156249
X328028
X348028
X338028Y136249
X318028
X298028
X308028Y116249
X328028
X348028
X338028Y96249
X318028
X298028
X308028Y76249
X328028
X348028
X318028Y56249
X298028
X288028Y76249
Y116249
Y156249
X268028
X248028
X228028
X208028
X188028
X168028
X148028
X158028Y176249
X178028
X198028
X218028
X238028
X258028
X278028
Y136249
X258028
X238028
X218028
X198028
X178028
X158028
X138028
X148028Y116249
X168028
X188028
X208028
X228028
X248028
X268028
X278028Y96249
X258028
X238028
X218028
X198028
X178028
X158028
X138028
X148028Y76249
X168028
X188028
X208028
X228028
X248028
X268028
X278028Y56249
X258028
X238028
X218028
X198028
X178028
X158028
X138028
Y176249
X118028
X98028
X78028
X88028Y156249
X108028
X128028
X118028Y136249
X98028
X78028
X88028Y116249
X108028
X128028
X118028Y96249
X98028
X108028Y76249
X128028
X118028Y56249
X98028
X78028
X58028
X38028
X18028
X28028Y76249
X48028
X68028
X88028
X58028Y96249
X68028Y116249
Y156249
X18028Y176249
X-1972
X-21972
X-11972Y116249
X8028
X18028Y96249
X8028Y76249
X-28500Y108000
X-31972Y116249
X-41500Y116500
Y132248
Y141697
Y151146
Y157445
Y163744
Y170043
Y176342
Y182642
Y201539
Y207839
X-30500Y208313
Y202000
X-27500Y193300
X-30500Y214625
Y220937
Y227250
Y233562
Y239875
Y246187
Y252500
X-41500Y251933
Y258232
Y264531
X-40419Y269749
X-41500Y274000
X-39000
X-40419Y278211
X-40500Y280500
X-41500Y245634
Y239335
Y233035
Y226736
Y220437
Y214138
X28028Y276249
X48028
X68028
X88028
X108028
X128028
X118028Y296249
X128028Y316249
X94852Y342885
X90521
X86190
Y347216
X90521
X94852
X78028Y336249
X58028
X38028
X18028
X28028Y316249
X48028
X68028
Y356249
X8028
Y316249
X18028Y296249
X138028
X158028
X178028
X198028
X218028
X238028
X258028
X278028
X268028Y316249
X248028
X228028
X208028
X188028
X168028
X148028
Y276249
X168028
X188028
X208028
X228028
X248028
X268028
X278028Y336249
X258028
X238028
X218028
X198028
X178028
X188028Y356249
X208028
X228028
X248028
X268028
X168028
X288028
X308028
X328028
X348028
X368028
X388028
X408028
X419747Y358295
X418028Y336249
X426500Y338500
X438028Y336249
X440826Y342421
X438249Y347500
X442500Y364050
Y324050
X431000Y327500
X419747Y318295
X408028Y316249
X388028
X398028Y336249
X378028
X358028
X338028
X318028
X298028
X308028Y316249
X328028
X348028
X358028Y296249
X378028
X398028
X418028
X426500Y299000
X438028Y296249
X440826Y302420
X438924Y307847
X442500Y284050
X431000Y287000
X419747Y278294
X408028Y276249
X388028
X398028Y256249
X418028
X426000Y259000
X438028Y256249
X440826Y262421
X438924Y268000
X442500Y244050
X431000Y247500
X419747Y238295
X408028Y236249
X388028
X398028Y216249
X418028
X426000Y218500
X438028Y216249
X440826Y222421
X439424Y228500
X378028Y216249
Y256249
X358028
X348028Y276249
X328028
X308028
X288028
X298028Y296249
X318028
X338028
X288028Y316249
X460161Y311000
X458028Y296249
X460405Y271000
X458028Y256249
X460405Y231000
X458028Y216249
Y336249
X460405Y351000
X458028Y376249
X438028
X430500Y367617
X418028Y376249
X398028
X378028
X358028
X338028
X318028
X298028
X278028
X258028
X238028
X218028
X198028
X178028
X158028
X58028
X38028
X18028
T02
X152000Y341610
Y355390
T03
X355124Y21350
Y51350
X528836Y51250
X546324Y51350
Y21350
X528836Y21250
X528724Y61450
X546324
Y91450
X546368Y101550
X528974Y101550
X528724Y91450
X528974Y131550
X528880Y141680
X546368Y141680
Y131550
Y171680
Y181680
X528880Y181680
Y171680
Y211680
Y222050
X546368Y222050
Y211680
Y252050
Y262050
X528880Y262050
Y252050
Y292050
Y302050
X546368Y302050
Y292050
Y332050
Y342050
X528880
X528880Y332050
X528880Y372050
X546368
T04
X352124Y173050
Y183050
Y193050
Y203050
X362124
Y193050
Y183050
Y173050
X45624Y169050
Y179050
X35624
Y169050
Y159050
X45624
Y149050
X35624
Y139050
X45624
Y129050
X35624
Y119050
X45624
Y109050
X35624
Y99050
X45624
Y89050
X35624
X352124Y213050
Y223050
Y233050
Y243050
Y253050
Y263050
X362124
Y253050
Y243050
Y233050
Y223050
Y213050
T05
X325124Y21350
Y31350
Y41350
Y51350
X498836Y51250
Y41250
Y31250
Y21250
X516324Y21350
Y31350
Y41350
Y51350
Y61450
Y71450
Y81450
Y91450
X516368Y101550
Y111550
Y121550
Y131550
Y141680
Y151680
Y161680
Y171680
Y181680
Y191680
Y201680
X498880Y201680
Y191680
Y181680
Y171680
Y161680
Y151680
Y141680
X498974Y131550
Y121550
Y111550
Y101550
X498724Y91450
Y81450
Y71450
Y61450
X498880Y211680
Y222050
Y232050
Y242050
Y252050
Y262050
Y272050
Y282050
Y292050
Y302050
Y312050
Y322050
Y332050
X498880Y342050
Y352050
Y362050
X516368
Y352050
Y342050
Y332050
Y322050
Y312050
Y302050
Y292050
Y282050
Y272050
Y262050
Y252050
Y242050
Y232050
Y222050
Y211680
Y372050
X498880
T06
X33624Y300050
Y310050
X43624
Y300050
M30
